<?xml version="1.0" encoding="UTF-8" standalone="no"?>
<!-- Created with Inkscape (http://www.inkscape.org/) -->

<svg
   width="142.875mm"
   height="56.495117mm"
   viewBox="0 0 142.875 56.495117"
   version="1.1"
   id="svg5"
   xml:space="preserve"
   xmlns="http://www.w3.org/2000/svg"
   xmlns:svg="http://www.w3.org/2000/svg"><defs
     id="defs2" /><g
     id="layer1"
     transform="translate(2013.6407,-2670.9894)"><g
       id="g5834"
       transform="matrix(0.64228167,0,0,0.64228167,-1885.3432,1407.9415)"
       style="fill:#ffffff;fill-opacity:1"><g
         id="g5820"
         transform="matrix(1.6540625,0,0,1.6540625,57.902917,-1314.9807)"
         style="fill:#ffffff;fill-opacity:1"><path
           id="path5816"
           style="fill:#ffffff;fill-opacity:1;stroke:none;stroke-width:8.36205;stroke-linecap:round;stroke-linejoin:round;stroke-dasharray:none;stroke-opacity:1"
           d="m -129.90028,1993.6666 c -0.0519,-0.047 -0.10373,-0.093 -0.15739,-0.1402 -12.45343,-11.3972 -26.29473,-0.726 -25.69487,16.9553 0.60004,17.6812 13.06939,28.2006 25.85011,16.8133 -0.0858,-0.1039 -0.1699,-0.2087 -0.25504,-0.3139 -0.14129,-0.179 -0.28097,-0.3597 -0.41779,-0.5423 -0.13771,-0.1825 -0.27167,-0.3668 -0.40402,-0.5528 -0.13235,-0.1861 -0.26201,-0.3738 -0.38935,-0.5632 -0.12698,-0.1893 -0.25254,-0.3802 -0.37505,-0.5727 -0.1234,-0.1926 -0.24252,-0.3869 -0.35984,-0.5826 -0.11804,-0.1956 -0.23251,-0.3927 -0.345,-0.5913 -0.11268,-0.1986 -0.22213,-0.3987 -0.32944,-0.6001 -0.10731,-0.2015 -0.21212,-0.4043 -0.31424,-0.6085 -0.10194,-0.2042 -0.20138,-0.4097 -0.29814,-0.6164 -0.0966,-0.2067 -0.19065,-0.4146 -0.28205,-0.6237 -0.0912,-0.2091 -0.1801,-0.4195 -0.26612,-0.631 -0.0858,-0.2114 -0.16991,-0.424 -0.24985,-0.6376 -0.0805,-0.2136 -0.15739,-0.4281 -0.23305,-0.6436 -0.0751,-0.2156 -0.14665,-0.4321 -0.21658,-0.6496 -0.0697,-0.2174 -0.13593,-0.4358 -0.19995,-0.6549 -0.0644,-0.2191 -0.1252,-0.439 -0.18297,-0.6596 -0.059,-0.2207 -0.11267,-0.4422 -0.16633,-0.6642 -0.0519,-0.2223 -0.10194,-0.4452 -0.14844,-0.6686 -0.0465,-0.2234 -0.0912,-0.4473 -0.13056,-0.6718 -0.0411,-0.2246 -0.0787,-0.4497 -0.11446,-0.6752 -0.0358,-0.2256 -0.068,-0.4515 -0.0966,-0.6779 -0.0286,-0.2263 -0.0554,-0.453 -0.0787,-0.6799 -0.0233,-0.227 -0.0447,-0.4543 -0.0608,-0.6819 -0.0179,-0.2276 -0.0322,-0.4553 -0.0447,-0.6833 -0.0179,-0.2279 -0.0197,-0.456 -0.0268,-0.6842 0,-0.2281 -0.0179,-0.4563 -0.0179,-0.6845 0,-0.3316 0,-0.6632 0.0197,-0.9944 0.0179,-0.3313 0.0304,-0.6623 0.0555,-0.9929 0.025,-0.3305 0.0554,-0.6606 0.093,-0.99 0.0376,-0.3294 0.0805,-0.658 0.12877,-0.9857 0.0501,-0.3278 0.10552,-0.6546 0.16633,-0.9804 0.0608,-0.3257 0.12877,-0.6503 0.20299,-0.9734 0.0733,-0.3232 0.15381,-0.645 0.23948,-0.9652 0.0859,-0.3202 0.17706,-0.6387 0.27507,-0.9554 0.0984,-0.3168 0.20156,-0.6318 0.31102,-0.9446 0.1091,-0.3129 0.22463,-0.6237 0.34572,-0.9324 0.12161,-0.3086 0.24788,-0.6148 0.38059,-0.9188 0.13234,-0.3038 0.27077,-0.605 0.41457,-0.9037 0.14308,-0.2987 0.29331,-0.5947 0.44819,-0.8877 0.1556,-0.2931 0.31531,-0.5832 0.48093,-0.8702 0.16633,-0.287 0.33695,-0.5709 0.51347,-0.8515 0.17706,-0.2807 0.35788,-0.5581 0.5446,-0.8319 0.1869,-0.2739 0.3788,-0.5443 0.57571,-0.811 0.19674,-0.2668 0.39848,-0.5299 0.60505,-0.7891 0.0644,-0.079 0.13056,-0.1578 0.19548,-0.236 z" /><path
           id="path5818"
           style="fill:#ffffff;fill-opacity:1;stroke:none;stroke-width:8.36196;stroke-linecap:round;stroke-linejoin:round;stroke-dasharray:none;stroke-opacity:1"
           d="m -136.56616,2035.8901 a 26.589037,26.589037 0 0 0 7.83367,1.1806 26.589037,26.589037 0 0 0 26.58901,-26.5891 26.589037,26.589037 0 0 0 -26.58901,-26.589 26.589037,26.589037 0 0 0 -7.83063,1.1796 26.589037,26.589037 0 0 1 1.87682,0.6568 26.589037,26.589037 0 0 1 1.82245,0.795 26.589037,26.589037 0 0 1 1.75824,0.9292 26.589037,26.589037 0 0 1 1.68349,1.0577 26.589037,26.589037 0 0 1 1.59978,1.1808 26.589037,26.589037 0 0 1 1.50715,1.2969 26.589037,26.589037 0 0 1 1.4061,1.4061 26.589037,26.589037 0 0 1 1.29682,1.5072 26.589037,26.589037 0 0 1 1.18074,1.6 26.589037,26.589037 0 0 1 1.05806,1.6835 26.589037,26.589037 0 0 1 0.92911,1.7578 26.589037,26.589037 0 0 1 0.79515,1.8224 26.589037,26.589037 0 0 1 0.65674,1.8769 26.589037,26.589037 0 0 1 0.51454,1.9207 26.589037,26.589037 0 0 1 0.36968,1.9539 26.589037,26.589037 0 0 1 0.22265,1.9756 26.589037,26.589037 0 0 1 0.0751,1.9872 26.589037,26.589037 0 0 1 -0.0179,0.6845 26.589037,26.589037 0 0 1 -0.0268,0.6842 26.589037,26.589037 0 0 1 -0.0447,0.6833 26.589037,26.589037 0 0 1 -0.0608,0.6819 26.589037,26.589037 0 0 1 -0.0787,0.6799 26.589037,26.589037 0 0 1 -0.0966,0.6779 26.589037,26.589037 0 0 1 -0.11446,0.6752 26.589037,26.589037 0 0 1 -0.13056,0.6717 26.589037,26.589037 0 0 1 -0.14844,0.6686 26.589037,26.589037 0 0 1 -0.16633,0.6642 26.589037,26.589037 0 0 1 -0.18297,0.6597 26.589037,26.589037 0 0 1 -0.19976,0.6549 26.589037,26.589037 0 0 1 -0.21659,0.6495 26.589037,26.589037 0 0 1 -0.23304,0.6437 26.589037,26.589037 0 0 1 -0.24985,0.6376 26.589037,26.589037 0 0 1 -0.26612,0.6309 26.589037,26.589037 0 0 1 -0.28204,0.6238 26.589037,26.589037 0 0 1 -0.29832,0.6164 26.589037,26.589037 0 0 1 -0.31405,0.6084 26.589037,26.589037 0 0 1 -0.32962,0.6002 26.589037,26.589037 0 0 1 -0.34482,0.5912 26.589037,26.589037 0 0 1 -0.35983,0.5825 26.589037,26.589037 0 0 1 -0.37505,0.5727 26.589037,26.589037 0 0 1 -0.38934,0.5633 26.589037,26.589037 0 0 1 -0.40402,0.5527 26.589037,26.589037 0 0 1 -0.41778,0.5424 26.589037,26.589037 0 0 1 -0.43175,0.5313 26.589037,26.589037 0 0 1 -0.44532,0.52 26.589037,26.589037 0 0 1 -0.45875,0.5085 26.589037,26.589037 0 0 1 -0.47125,0.4966 26.589037,26.589037 0 0 1 -0.48415,0.4842 26.589037,26.589037 0 0 1 -0.49665,0.4714 26.589037,26.589037 0 0 1 -0.50847,0.4585 26.589037,26.589037 0 0 1 -0.52008,0.4454 26.589037,26.589037 0 0 1 -0.53118,0.4317 26.589037,26.589037 0 0 1 -0.54244,0.4182 26.589037,26.589037 0 0 1 -0.55264,0.4036 26.589037,26.589037 0 0 1 -0.56319,0.3898 26.589037,26.589037 0 0 1 -0.57284,0.3746 26.589037,26.589037 0 0 1 -0.58251,0.3602 26.589037,26.589037 0 0 1 -0.59127,0.345 26.589037,26.589037 0 0 1 -0.60021,0.3294 26.589037,26.589037 0 0 1 -0.60843,0.3138 26.589037,26.589037 0 0 1 -0.61649,0.2982 26.589037,26.589037 0 0 1 -0.62364,0.2824 26.589037,26.589037 0 0 1 -0.63097,0.266 26.589037,26.589037 0 0 1 -0.6376,0.2497 26.589037,26.589037 0 0 1 -0.64366,0.2334 26.589037,26.589037 0 0 1 -0.64939,0.2164 26.589037,26.589037 0 0 1 -0.25862,0.078 z" /></g><g
         id="g5826"
         transform="matrix(1.1984372,0,0,1.1984372,84.666443,-398.95429)"
         style="fill:#ffffff;fill-opacity:1"><path
           id="path5822"
           style="fill:#ffffff;fill-opacity:1;stroke:none;stroke-width:8.36205;stroke-linecap:round;stroke-linejoin:round;stroke-dasharray:none;stroke-opacity:1"
           d="m -129.90028,1993.6666 c -0.0519,-0.047 -0.10373,-0.093 -0.15739,-0.1402 -12.45343,-11.3972 -26.29473,-0.726 -25.69487,16.9553 0.60004,17.6812 13.06939,28.2006 25.85011,16.8133 -0.0858,-0.1039 -0.1699,-0.2087 -0.25504,-0.3139 -0.14129,-0.179 -0.28097,-0.3597 -0.41779,-0.5423 -0.13771,-0.1825 -0.27167,-0.3668 -0.40402,-0.5528 -0.13235,-0.1861 -0.26201,-0.3738 -0.38935,-0.5632 -0.12698,-0.1893 -0.25254,-0.3802 -0.37505,-0.5727 -0.1234,-0.1926 -0.24252,-0.3869 -0.35984,-0.5826 -0.11804,-0.1956 -0.23251,-0.3927 -0.345,-0.5913 -0.11268,-0.1986 -0.22213,-0.3987 -0.32944,-0.6001 -0.10731,-0.2015 -0.21212,-0.4043 -0.31424,-0.6085 -0.10194,-0.2042 -0.20138,-0.4097 -0.29814,-0.6164 -0.0966,-0.2067 -0.19065,-0.4146 -0.28205,-0.6237 -0.0912,-0.2091 -0.1801,-0.4195 -0.26612,-0.631 -0.0858,-0.2114 -0.16991,-0.424 -0.24985,-0.6376 -0.0805,-0.2136 -0.15739,-0.4281 -0.23305,-0.6436 -0.0751,-0.2156 -0.14665,-0.4321 -0.21658,-0.6496 -0.0697,-0.2174 -0.13593,-0.4358 -0.19995,-0.6549 -0.0644,-0.2191 -0.1252,-0.439 -0.18297,-0.6596 -0.059,-0.2207 -0.11267,-0.4422 -0.16633,-0.6642 -0.0519,-0.2223 -0.10194,-0.4452 -0.14844,-0.6686 -0.0465,-0.2234 -0.0912,-0.4473 -0.13056,-0.6718 -0.0411,-0.2246 -0.0787,-0.4497 -0.11446,-0.6752 -0.0358,-0.2256 -0.068,-0.4515 -0.0966,-0.6779 -0.0286,-0.2263 -0.0554,-0.453 -0.0787,-0.6799 -0.0233,-0.227 -0.0447,-0.4543 -0.0608,-0.6819 -0.0179,-0.2276 -0.0322,-0.4553 -0.0447,-0.6833 -0.0179,-0.2279 -0.0197,-0.456 -0.0268,-0.6842 0,-0.2281 -0.0179,-0.4563 -0.0179,-0.6845 0,-0.3316 0,-0.6632 0.0197,-0.9944 0.0179,-0.3313 0.0304,-0.6623 0.0555,-0.9929 0.025,-0.3305 0.0554,-0.6606 0.093,-0.99 0.0376,-0.3294 0.0805,-0.658 0.12877,-0.9857 0.0501,-0.3278 0.10552,-0.6546 0.16633,-0.9804 0.0608,-0.3257 0.12877,-0.6503 0.20299,-0.9734 0.0733,-0.3232 0.15381,-0.645 0.23948,-0.9652 0.0859,-0.3202 0.17706,-0.6387 0.27507,-0.9554 0.0984,-0.3168 0.20156,-0.6318 0.31102,-0.9446 0.1091,-0.3129 0.22463,-0.6237 0.34572,-0.9324 0.12161,-0.3086 0.24788,-0.6148 0.38059,-0.9188 0.13234,-0.3038 0.27077,-0.605 0.41457,-0.9037 0.14308,-0.2987 0.29331,-0.5947 0.44819,-0.8877 0.1556,-0.2931 0.31531,-0.5832 0.48093,-0.8702 0.16633,-0.287 0.33695,-0.5709 0.51347,-0.8515 0.17706,-0.2807 0.35788,-0.5581 0.5446,-0.8319 0.1869,-0.2739 0.3788,-0.5443 0.57571,-0.811 0.19674,-0.2668 0.39848,-0.5299 0.60505,-0.7891 0.0644,-0.079 0.13056,-0.1578 0.19548,-0.236 z" /><path
           id="path5824"
           style="fill:#ffffff;fill-opacity:1;stroke:none;stroke-width:8.36196;stroke-linecap:round;stroke-linejoin:round;stroke-dasharray:none;stroke-opacity:1"
           d="m -136.56616,2035.8901 a 26.589037,26.589037 0 0 0 7.83367,1.1806 26.589037,26.589037 0 0 0 26.58901,-26.5891 26.589037,26.589037 0 0 0 -26.58901,-26.589 26.589037,26.589037 0 0 0 -7.83063,1.1796 26.589037,26.589037 0 0 1 1.87682,0.6568 26.589037,26.589037 0 0 1 1.82245,0.795 26.589037,26.589037 0 0 1 1.75824,0.9292 26.589037,26.589037 0 0 1 1.68349,1.0577 26.589037,26.589037 0 0 1 1.59978,1.1808 26.589037,26.589037 0 0 1 1.50715,1.2969 26.589037,26.589037 0 0 1 1.4061,1.4061 26.589037,26.589037 0 0 1 1.29682,1.5072 26.589037,26.589037 0 0 1 1.18074,1.6 26.589037,26.589037 0 0 1 1.05806,1.6835 26.589037,26.589037 0 0 1 0.92911,1.7578 26.589037,26.589037 0 0 1 0.79515,1.8224 26.589037,26.589037 0 0 1 0.65674,1.8769 26.589037,26.589037 0 0 1 0.51454,1.9207 26.589037,26.589037 0 0 1 0.36968,1.9539 26.589037,26.589037 0 0 1 0.22265,1.9756 26.589037,26.589037 0 0 1 0.0751,1.9872 26.589037,26.589037 0 0 1 -0.0179,0.6845 26.589037,26.589037 0 0 1 -0.0268,0.6842 26.589037,26.589037 0 0 1 -0.0447,0.6833 26.589037,26.589037 0 0 1 -0.0608,0.6819 26.589037,26.589037 0 0 1 -0.0787,0.6799 26.589037,26.589037 0 0 1 -0.0966,0.6779 26.589037,26.589037 0 0 1 -0.11446,0.6752 26.589037,26.589037 0 0 1 -0.13056,0.6717 26.589037,26.589037 0 0 1 -0.14844,0.6686 26.589037,26.589037 0 0 1 -0.16633,0.6642 26.589037,26.589037 0 0 1 -0.18297,0.6597 26.589037,26.589037 0 0 1 -0.19976,0.6549 26.589037,26.589037 0 0 1 -0.21659,0.6495 26.589037,26.589037 0 0 1 -0.23304,0.6437 26.589037,26.589037 0 0 1 -0.24985,0.6376 26.589037,26.589037 0 0 1 -0.26612,0.6309 26.589037,26.589037 0 0 1 -0.28204,0.6238 26.589037,26.589037 0 0 1 -0.29832,0.6164 26.589037,26.589037 0 0 1 -0.31405,0.6084 26.589037,26.589037 0 0 1 -0.32962,0.6002 26.589037,26.589037 0 0 1 -0.34482,0.5912 26.589037,26.589037 0 0 1 -0.35983,0.5825 26.589037,26.589037 0 0 1 -0.37505,0.5727 26.589037,26.589037 0 0 1 -0.38934,0.5633 26.589037,26.589037 0 0 1 -0.40402,0.5527 26.589037,26.589037 0 0 1 -0.41778,0.5424 26.589037,26.589037 0 0 1 -0.43175,0.5313 26.589037,26.589037 0 0 1 -0.44532,0.52 26.589037,26.589037 0 0 1 -0.45875,0.5085 26.589037,26.589037 0 0 1 -0.47125,0.4966 26.589037,26.589037 0 0 1 -0.48415,0.4842 26.589037,26.589037 0 0 1 -0.49665,0.4714 26.589037,26.589037 0 0 1 -0.50847,0.4585 26.589037,26.589037 0 0 1 -0.52008,0.4454 26.589037,26.589037 0 0 1 -0.53118,0.4317 26.589037,26.589037 0 0 1 -0.54244,0.4182 26.589037,26.589037 0 0 1 -0.55264,0.4036 26.589037,26.589037 0 0 1 -0.56319,0.3898 26.589037,26.589037 0 0 1 -0.57284,0.3746 26.589037,26.589037 0 0 1 -0.58251,0.3602 26.589037,26.589037 0 0 1 -0.59127,0.345 26.589037,26.589037 0 0 1 -0.60021,0.3294 26.589037,26.589037 0 0 1 -0.60843,0.3138 26.589037,26.589037 0 0 1 -0.61649,0.2982 26.589037,26.589037 0 0 1 -0.62364,0.2824 26.589037,26.589037 0 0 1 -0.63097,0.266 26.589037,26.589037 0 0 1 -0.6376,0.2497 26.589037,26.589037 0 0 1 -0.64366,0.2334 26.589037,26.589037 0 0 1 -0.64939,0.2164 26.589037,26.589037 0 0 1 -0.25862,0.078 z" /></g><g
         id="g5832"
         transform="matrix(0.95863434,0,0,0.95863434,120.61471,83.164896)"
         style="fill:#ffffff;fill-opacity:1"><path
           id="path5828"
           style="fill:#ffffff;fill-opacity:1;stroke:none;stroke-width:8.36205;stroke-linecap:round;stroke-linejoin:round;stroke-dasharray:none;stroke-opacity:1"
           d="m -129.90028,1993.6666 c -0.0519,-0.047 -0.10373,-0.093 -0.15739,-0.1402 -12.45343,-11.3972 -26.29473,-0.726 -25.69487,16.9553 0.60004,17.6812 13.06939,28.2006 25.85011,16.8133 -0.0858,-0.1039 -0.1699,-0.2087 -0.25504,-0.3139 -0.14129,-0.179 -0.28097,-0.3597 -0.41779,-0.5423 -0.13771,-0.1825 -0.27167,-0.3668 -0.40402,-0.5528 -0.13235,-0.1861 -0.26201,-0.3738 -0.38935,-0.5632 -0.12698,-0.1893 -0.25254,-0.3802 -0.37505,-0.5727 -0.1234,-0.1926 -0.24252,-0.3869 -0.35984,-0.5826 -0.11804,-0.1956 -0.23251,-0.3927 -0.345,-0.5913 -0.11268,-0.1986 -0.22213,-0.3987 -0.32944,-0.6001 -0.10731,-0.2015 -0.21212,-0.4043 -0.31424,-0.6085 -0.10194,-0.2042 -0.20138,-0.4097 -0.29814,-0.6164 -0.0966,-0.2067 -0.19065,-0.4146 -0.28205,-0.6237 -0.0912,-0.2091 -0.1801,-0.4195 -0.26612,-0.631 -0.0858,-0.2114 -0.16991,-0.424 -0.24985,-0.6376 -0.0805,-0.2136 -0.15739,-0.4281 -0.23305,-0.6436 -0.0751,-0.2156 -0.14665,-0.4321 -0.21658,-0.6496 -0.0697,-0.2174 -0.13593,-0.4358 -0.19995,-0.6549 -0.0644,-0.2191 -0.1252,-0.439 -0.18297,-0.6596 -0.059,-0.2207 -0.11267,-0.4422 -0.16633,-0.6642 -0.0519,-0.2223 -0.10194,-0.4452 -0.14844,-0.6686 -0.0465,-0.2234 -0.0912,-0.4473 -0.13056,-0.6718 -0.0411,-0.2246 -0.0787,-0.4497 -0.11446,-0.6752 -0.0358,-0.2256 -0.068,-0.4515 -0.0966,-0.6779 -0.0286,-0.2263 -0.0554,-0.453 -0.0787,-0.6799 -0.0233,-0.227 -0.0447,-0.4543 -0.0608,-0.6819 -0.0179,-0.2276 -0.0322,-0.4553 -0.0447,-0.6833 -0.0179,-0.2279 -0.0197,-0.456 -0.0268,-0.6842 0,-0.2281 -0.0179,-0.4563 -0.0179,-0.6845 0,-0.3316 0,-0.6632 0.0197,-0.9944 0.0179,-0.3313 0.0304,-0.6623 0.0555,-0.9929 0.025,-0.3305 0.0554,-0.6606 0.093,-0.99 0.0376,-0.3294 0.0805,-0.658 0.12877,-0.9857 0.0501,-0.3278 0.10552,-0.6546 0.16633,-0.9804 0.0608,-0.3257 0.12877,-0.6503 0.20299,-0.9734 0.0733,-0.3232 0.15381,-0.645 0.23948,-0.9652 0.0859,-0.3202 0.17706,-0.6387 0.27507,-0.9554 0.0984,-0.3168 0.20156,-0.6318 0.31102,-0.9446 0.1091,-0.3129 0.22463,-0.6237 0.34572,-0.9324 0.12161,-0.3086 0.24788,-0.6148 0.38059,-0.9188 0.13234,-0.3038 0.27077,-0.605 0.41457,-0.9037 0.14308,-0.2987 0.29331,-0.5947 0.44819,-0.8877 0.1556,-0.2931 0.31531,-0.5832 0.48093,-0.8702 0.16633,-0.287 0.33695,-0.5709 0.51347,-0.8515 0.17706,-0.2807 0.35788,-0.5581 0.5446,-0.8319 0.1869,-0.2739 0.3788,-0.5443 0.57571,-0.811 0.19674,-0.2668 0.39848,-0.5299 0.60505,-0.7891 0.0644,-0.079 0.13056,-0.1578 0.19548,-0.236 z" /><path
           id="path5830"
           style="fill:#ffffff;fill-opacity:1;stroke:none;stroke-width:8.36196;stroke-linecap:round;stroke-linejoin:round;stroke-dasharray:none;stroke-opacity:1"
           d="m -136.56616,2035.8901 a 26.589037,26.589037 0 0 0 7.83367,1.1806 26.589037,26.589037 0 0 0 26.58901,-26.5891 26.589037,26.589037 0 0 0 -26.58901,-26.589 26.589037,26.589037 0 0 0 -7.83063,1.1796 26.589037,26.589037 0 0 1 1.87682,0.6568 26.589037,26.589037 0 0 1 1.82245,0.795 26.589037,26.589037 0 0 1 1.75824,0.9292 26.589037,26.589037 0 0 1 1.68349,1.0577 26.589037,26.589037 0 0 1 1.59978,1.1808 26.589037,26.589037 0 0 1 1.50715,1.2969 26.589037,26.589037 0 0 1 1.4061,1.4061 26.589037,26.589037 0 0 1 1.29682,1.5072 26.589037,26.589037 0 0 1 1.18074,1.6 26.589037,26.589037 0 0 1 1.05806,1.6835 26.589037,26.589037 0 0 1 0.92911,1.7578 26.589037,26.589037 0 0 1 0.79515,1.8224 26.589037,26.589037 0 0 1 0.65674,1.8769 26.589037,26.589037 0 0 1 0.51454,1.9207 26.589037,26.589037 0 0 1 0.36968,1.9539 26.589037,26.589037 0 0 1 0.22265,1.9756 26.589037,26.589037 0 0 1 0.0751,1.9872 26.589037,26.589037 0 0 1 -0.0179,0.6845 26.589037,26.589037 0 0 1 -0.0268,0.6842 26.589037,26.589037 0 0 1 -0.0447,0.6833 26.589037,26.589037 0 0 1 -0.0608,0.6819 26.589037,26.589037 0 0 1 -0.0787,0.6799 26.589037,26.589037 0 0 1 -0.0966,0.6779 26.589037,26.589037 0 0 1 -0.11446,0.6752 26.589037,26.589037 0 0 1 -0.13056,0.6717 26.589037,26.589037 0 0 1 -0.14844,0.6686 26.589037,26.589037 0 0 1 -0.16633,0.6642 26.589037,26.589037 0 0 1 -0.18297,0.6597 26.589037,26.589037 0 0 1 -0.19976,0.6549 26.589037,26.589037 0 0 1 -0.21659,0.6495 26.589037,26.589037 0 0 1 -0.23304,0.6437 26.589037,26.589037 0 0 1 -0.24985,0.6376 26.589037,26.589037 0 0 1 -0.26612,0.6309 26.589037,26.589037 0 0 1 -0.28204,0.6238 26.589037,26.589037 0 0 1 -0.29832,0.6164 26.589037,26.589037 0 0 1 -0.31405,0.6084 26.589037,26.589037 0 0 1 -0.32962,0.6002 26.589037,26.589037 0 0 1 -0.34482,0.5912 26.589037,26.589037 0 0 1 -0.35983,0.5825 26.589037,26.589037 0 0 1 -0.37505,0.5727 26.589037,26.589037 0 0 1 -0.38934,0.5633 26.589037,26.589037 0 0 1 -0.40402,0.5527 26.589037,26.589037 0 0 1 -0.41778,0.5424 26.589037,26.589037 0 0 1 -0.43175,0.5313 26.589037,26.589037 0 0 1 -0.44532,0.52 26.589037,26.589037 0 0 1 -0.45875,0.5085 26.589037,26.589037 0 0 1 -0.47125,0.4966 26.589037,26.589037 0 0 1 -0.48415,0.4842 26.589037,26.589037 0 0 1 -0.49665,0.4714 26.589037,26.589037 0 0 1 -0.50847,0.4585 26.589037,26.589037 0 0 1 -0.52008,0.4454 26.589037,26.589037 0 0 1 -0.53118,0.4317 26.589037,26.589037 0 0 1 -0.54244,0.4182 26.589037,26.589037 0 0 1 -0.55264,0.4036 26.589037,26.589037 0 0 1 -0.56319,0.3898 26.589037,26.589037 0 0 1 -0.57284,0.3746 26.589037,26.589037 0 0 1 -0.58251,0.3602 26.589037,26.589037 0 0 1 -0.59127,0.345 26.589037,26.589037 0 0 1 -0.60021,0.3294 26.589037,26.589037 0 0 1 -0.60843,0.3138 26.589037,26.589037 0 0 1 -0.61649,0.2982 26.589037,26.589037 0 0 1 -0.62364,0.2824 26.589037,26.589037 0 0 1 -0.63097,0.266 26.589037,26.589037 0 0 1 -0.6376,0.2497 26.589037,26.589037 0 0 1 -0.64366,0.2334 26.589037,26.589037 0 0 1 -0.64939,0.2164 26.589037,26.589037 0 0 1 -0.25862,0.078 z" /></g></g></g></svg>
