<svg width="24" height="24" viewBox="0 0 24 24" fill="none" xmlns="http://www.w3.org/2000/svg">
<path d="M12 3.00003C10.8169 2.99708 9.64491 3.22881 8.55193 3.6818C7.45895 4.1348 6.46667 4.80006 5.6325 5.63909C4.95094 6.32909 4.34531 6.99284 3.75 7.68753V6.00003C3.75 5.80112 3.67098 5.61035 3.53033 5.4697C3.38968 5.32905 3.19891 5.25003 3 5.25003C2.80109 5.25003 2.61032 5.32905 2.46967 5.4697C2.32902 5.61035 2.25 5.80112 2.25 6.00003V9.75003C2.25 9.94894 2.32902 10.1397 2.46967 10.2804C2.61032 10.421 2.80109 10.5 3 10.5H6.75C6.94891 10.5 7.13968 10.421 7.28033 10.2804C7.42098 10.1397 7.5 9.94894 7.5 9.75003C7.5 9.55112 7.42098 9.36035 7.28033 9.2197C7.13968 9.07905 6.94891 9.00003 6.75 9.00003H4.59375C5.26406 8.21065 5.93156 7.46722 6.69281 6.69659C7.73518 5.65423 9.0616 4.94216 10.5063 4.64935C11.9511 4.35654 13.4501 4.49598 14.816 5.05023C16.182 5.60449 17.3543 6.54899 18.1866 7.76572C19.0188 8.98245 19.474 10.4175 19.4953 11.8914C19.5166 13.3654 19.1031 14.813 18.3064 16.0532C17.5098 17.2935 16.3652 18.2716 15.0159 18.8651C13.6665 19.4586 12.1722 19.6414 10.7196 19.3905C9.26698 19.1396 7.92052 18.4662 6.84844 17.4544C6.77679 17.3867 6.6925 17.3338 6.60039 17.2986C6.50828 17.2635 6.41015 17.2468 6.3116 17.2496C6.21305 17.2524 6.11602 17.2746 6.02604 17.3149C5.93606 17.3551 5.8549 17.4128 5.78719 17.4844C5.71947 17.5561 5.66654 17.6403 5.6314 17.7325C5.59626 17.8246 5.57961 17.9227 5.5824 18.0212C5.58518 18.1198 5.60735 18.2168 5.64764 18.3068C5.68792 18.3968 5.74554 18.4779 5.81719 18.5457C6.88542 19.5537 8.18414 20.285 9.6 20.6757C11.0159 21.0665 12.5058 21.1047 13.9399 20.7872C15.3739 20.4696 16.7085 19.806 17.827 18.854C18.9456 17.9021 19.8142 16.6909 20.357 15.3261C20.8998 13.9613 21.1003 12.4844 20.9411 11.0243C20.7818 9.56414 20.2677 8.16517 19.4434 6.94947C18.6192 5.73376 17.5099 4.73825 16.2125 4.04982C14.915 3.3614 13.4688 3.00098 12 3.00003Z" fill="#A1A1AA"/>
<path d="M15.4 10.9297C15.4 12.4084 15.1333 13.5396 14.9103 14.2277C14.6193 15.1207 14.2227 15.8023 13.822 16.0969C13.7458 16.1538 13.6562 16.1884 13.5626 16.197C13.4691 16.2056 13.375 16.1878 13.2903 16.1457C13.2045 16.1036 13.1309 16.0386 13.0772 15.9574C13.0234 15.8761 12.9914 15.7815 12.9843 15.6832C12.956 15.2852 12.816 13.9844 12.2 13.9844C11.584 13.9844 11.444 15.2855 11.4157 15.6843C11.4057 15.8242 11.3452 15.955 11.2463 16.0506C11.1474 16.1463 11.0174 16.1996 10.8823 16.2C10.7731 16.1998 10.6667 16.1641 10.578 16.0979C10.178 15.8026 9.78067 15.1211 9.48967 14.2287C9.26667 13.5396 9 12.4084 9 10.9297C9.0022 10.4171 9.19984 9.92632 9.54967 9.56467C9.8995 9.20303 10.373 8.99999 10.8667 9H13.5333C14.027 8.99999 14.5005 9.20303 14.8503 9.56467C15.2002 9.92632 15.3978 10.4171 15.4 10.9297Z" fill="#A1A1AA"/>
</svg>
