<svg width="328" height="245" viewBox="0 0 328 245" fill="none" xmlns="http://www.w3.org/2000/svg">
<path d="M328 214.774H0V214.938H328V214.774Z" fill="#EBEBEB"/>
<path d="M155.472 185.517H28.8049C27.8126 185.515 26.8615 185.12 26.1605 184.417C25.4594 183.715 25.0657 182.763 25.0657 181.771V3.71296C25.0743 2.72635 25.4719 1.78299 26.172 1.08779C26.8721 0.392589 27.8182 0.00169011 28.8049 0H155.472C156.465 0 157.418 0.394642 158.121 1.09711C158.823 1.79957 159.218 2.75232 159.218 3.74576V181.771C159.218 182.764 158.823 183.717 158.121 184.42C157.418 185.122 156.465 185.517 155.472 185.517ZM28.8049 0.131201C27.8561 0.132938 26.9467 0.511067 26.2764 1.18259C25.6061 1.85411 25.2297 2.76415 25.2297 3.71296V181.771C25.2297 182.72 25.6061 183.63 26.2764 184.301C26.9467 184.973 27.8561 185.351 28.8049 185.353H155.472C156.421 185.351 157.331 184.973 158.003 184.302C158.674 183.63 159.052 182.72 159.054 181.771V3.71296C159.052 2.76355 158.674 1.85352 158.003 1.18219C157.331 0.510854 156.421 0.132935 155.472 0.131201H28.8049Z" fill="#EBEBEB"/>
<path d="M297.371 185.517H170.698C169.705 185.515 168.753 185.12 168.051 184.418C167.349 183.716 166.954 182.764 166.952 181.771V3.71296C166.962 2.72575 167.361 1.7824 168.063 1.08738C168.764 0.392359 169.711 0.00167168 170.698 0H297.371C298.357 0.00341415 299.301 0.395075 300 1.09009C300.699 1.78511 301.095 2.72749 301.104 3.71296V181.771C301.104 182.762 300.711 183.713 300.012 184.415C299.312 185.117 298.363 185.513 297.371 185.517ZM170.698 0.131201C169.748 0.132935 168.838 0.510854 168.167 1.18219C167.496 1.85352 167.118 2.76355 167.116 3.71296V181.771C167.118 182.72 167.496 183.63 168.167 184.302C168.838 184.973 169.748 185.351 170.698 185.353H297.371C298.321 185.351 299.231 184.973 299.902 184.302C300.573 183.63 300.951 182.72 300.953 181.771V3.71296C300.951 2.76355 300.573 1.85352 299.902 1.18219C299.231 0.510854 298.321 0.132935 297.371 0.131201H170.698Z" fill="#EBEBEB"/>
<path d="M131.489 221.02H114.433V221.184H131.489V221.02Z" fill="#EBEBEB"/>
<path d="M69.9034 219.242H34.4138V219.406H69.9034V219.242Z" fill="#EBEBEB"/>
<path d="M113.777 227.114H96.5107V227.278H113.777V227.114Z" fill="#EBEBEB"/>
<path d="M194.871 226.012H169.399V226.176H194.871V226.012Z" fill="#EBEBEB"/>
<path d="M207.722 226.012H200.71V226.176H207.722V226.012Z" fill="#EBEBEB"/>
<path d="M295.141 223.243H259.35V223.407H295.141V223.243Z" fill="#EBEBEB"/>
<path d="M147.797 23.78H50.4596V126.496H147.797V23.78Z" fill="#FFEBB7"/>
<path d="M158.234 20.4541H44.1619C43.9044 20.4541 43.6575 20.5564 43.4754 20.7384C43.2933 20.9205 43.191 21.1675 43.191 21.425C43.191 21.5522 43.2162 21.6781 43.2651 21.7955C43.3139 21.9129 43.3856 22.0195 43.4758 22.1092C43.566 22.1988 43.6731 22.2697 43.7909 22.3178C43.9086 22.3658 44.0347 22.3901 44.1619 22.3893H158.234C158.49 22.3893 158.735 22.2877 158.916 22.1068C159.096 21.926 159.198 21.6807 159.198 21.425C159.199 21.2978 159.175 21.1717 159.127 21.0539C159.078 20.9362 159.008 20.8291 158.918 20.7388C158.828 20.6486 158.722 20.577 158.604 20.5281C158.487 20.4792 158.361 20.4541 158.234 20.4541Z" fill="#FFEBB7"/>
<path d="M151.936 23.78H52.3948V126.496H151.936V23.78Z" fill="#FFF2CF"/>
<path d="M147.797 126.496H50.4596V130.334H147.797V126.496Z" fill="#FFEBB7"/>
<path d="M158.811 126.496H59.2697V130.334H158.811V126.496Z" fill="#FFF2CF"/>
<path d="M146.15 120.717V29.5659L58.1741 29.5659V120.717H146.15Z" fill="#FAFAFA"/>
<path d="M78.1428 120.717L112.084 29.5594H128.104L94.1689 120.717H78.1428Z" fill="white"/>
<path d="M97.6062 120.717L131.548 29.5594H137.793L103.851 120.717H97.6062Z" fill="white"/>
<path d="M146.15 120.711V29.5594H145.416V120.711H146.15Z" fill="#FFEBB7"/>
<g opacity="0.6">
<path d="M55.7862 111.507H43.5649L50.1512 18.7288H62.3725L55.7862 111.507Z" fill="#FFF2CF"/>
<path d="M60.5488 111.507H51.0237L57.6099 18.7288H67.135L60.5488 111.507Z" fill="#FFEBB7"/>
<path d="M68.0075 111.507H55.7863L62.3725 18.7288H74.5938L68.0075 111.507Z" fill="#FFF2CF"/>
<path d="M72.7701 111.507H63.245L69.8378 18.7288H79.3564L72.7701 111.507Z" fill="#FFEBB7"/>
<path d="M80.2287 111.507H68.0074L74.5937 18.7288H86.8215L80.2287 111.507Z" fill="#FFF2CF"/>
</g>
<g opacity="0.6">
<path d="M149.916 111.507H156.823L153.104 18.7288H146.196L149.916 111.507Z" fill="#FFF2CF"/>
<path d="M147.226 111.507H152.605L148.886 18.7288H143.5L147.226 111.507Z" fill="#FFEBB7"/>
<path d="M143.008 111.507H149.916L146.196 18.7288H139.288L143.008 111.507Z" fill="#FFF2CF"/>
<path d="M140.318 111.507H145.698L141.978 18.7288H136.592L140.318 111.507Z" fill="#FFEBB7"/>
<path d="M136.1 111.507H143.008L139.288 18.7288H132.381L136.1 111.507Z" fill="#FFF2CF"/>
</g>
<path d="M279.889 18.7288H212.577V108.22H279.889V18.7288Z" fill="#FFEBB7"/>
<path d="M284.999 18.7288H214.676V108.22H284.999V18.7288Z" fill="#FFF7E2"/>
<path d="M223.787 22.3825L217.528 99.8398L275.879 104.555L282.138 27.0979L223.787 22.3825Z" fill="white"/>
<path d="M280.696 26.9805L274.437 104.438L275.875 104.554L282.134 27.0967L280.696 26.9805Z" fill="#FFEBB7"/>
<path d="M288.712 141.65H251.117V214.774H288.712V141.65Z" fill="#FFF7E2"/>
<path d="M288.712 141.65H285.609V214.774H288.712V141.65Z" fill="#FFF2CF"/>
<path d="M167.451 174.673H254.016V143.73H167.451V174.673Z" fill="#FFEBB7"/>
<path d="M171.616 147.128L288.706 147.128V141.644H171.616V147.128Z" fill="#FFF2CF"/>
<path d="M171.623 141.65H134.027V214.774H171.623V141.65Z" fill="#FFF7E2"/>
<path d="M135.385 164.945H135.556C137.955 164.945 140.256 165.898 141.953 167.594C143.649 169.291 144.602 171.592 144.602 173.991V214.774H126.339V173.991C126.339 171.592 127.292 169.291 128.989 167.594C130.685 165.898 132.986 164.945 135.385 164.945Z" fill="#FFEBB7"/>
<path d="M171.623 141.65H168.52V214.774H171.623V141.65Z" fill="#FFF2CF"/>
<path d="M213.935 141.65H205.827L207.795 125.86H215.909L213.935 141.65Z" fill="#FFF2CF"/>
<path d="M215.732 141.65H207.617L209.592 125.86H217.7L215.732 141.65Z" fill="#FFF7E2"/>
<path d="M216.716 133.752H208.608L209.592 125.86H217.7L216.716 133.752Z" fill="#FFF2CF"/>
<path d="M186.914 131.856H244.288C244.4 131.856 244.512 131.832 244.614 131.786C244.717 131.739 244.808 131.672 244.883 131.587C244.957 131.503 245.013 131.404 245.046 131.296C245.079 131.189 245.089 131.075 245.075 130.964L240.654 95.5923C240.63 95.4004 240.536 95.2239 240.391 95.0958C240.247 94.9678 240.06 94.8971 239.866 94.897H182.493C182.382 94.8992 182.274 94.9241 182.173 94.9704C182.073 95.0166 181.983 95.0831 181.91 95.1657C181.837 95.2483 181.781 95.3451 181.747 95.4502C181.713 95.5552 181.701 95.6661 181.712 95.776L186.12 131.2C186.154 131.385 186.253 131.553 186.398 131.673C186.543 131.793 186.726 131.858 186.914 131.856Z" fill="#FFF2CF"/>
<path d="M187.767 131.856H245.141C245.253 131.856 245.364 131.832 245.467 131.786C245.569 131.739 245.661 131.672 245.735 131.587C245.81 131.503 245.865 131.404 245.899 131.296C245.932 131.189 245.942 131.075 245.928 130.964L241.506 95.5923C241.482 95.4004 241.389 95.2239 241.244 95.0958C241.099 94.9678 240.913 94.8971 240.719 94.897H183.345C183.233 94.8972 183.121 94.9211 183.018 94.9674C182.916 95.0136 182.824 95.0811 182.749 95.1653C182.674 95.2495 182.618 95.3487 182.584 95.4562C182.55 95.5637 182.539 95.6771 182.552 95.7891L186.96 131.2C186.994 131.388 187.094 131.557 187.242 131.677C187.39 131.797 187.576 131.861 187.767 131.856Z" fill="#FFF7E2"/>
<path d="M244.078 129.888L239.939 96.7797C239.931 96.7264 239.904 96.6778 239.863 96.6428C239.822 96.6078 239.769 96.5889 239.716 96.5895H184.612C184.58 96.5892 184.549 96.5957 184.52 96.6086C184.491 96.6214 184.465 96.6402 184.444 96.6638C184.423 96.6873 184.407 96.7151 184.397 96.7453C184.388 96.7755 184.385 96.8073 184.389 96.8387L188.528 129.947C188.536 130 188.563 130.049 188.604 130.084C188.645 130.119 188.697 130.138 188.751 130.137H243.855C243.887 130.138 243.918 130.131 243.947 130.118C243.976 130.105 244.002 130.087 244.023 130.063C244.044 130.039 244.06 130.012 244.069 129.981C244.079 129.951 244.082 129.919 244.078 129.888Z" fill="#FFEBB7"/>
<path d="M238.2 130.164L223.637 96.6091H210.865L225.428 130.164H238.2Z" fill="#EBEBEB"/>
<path d="M222.968 130.164L208.405 96.6091H203.806L218.369 130.164H222.968Z" fill="#EBEBEB"/>
<path d="M223.093 141.65H209.881V141.486C209.881 141.138 210.019 140.804 210.265 140.558C210.511 140.312 210.845 140.174 211.193 140.174H221.781C222.128 140.174 222.462 140.312 222.708 140.558C222.954 140.804 223.093 141.138 223.093 141.486V141.65Z" fill="#FFF7E2"/>
<path d="M211.429 141.65H202.468V141.486C202.468 141.138 202.606 140.804 202.852 140.558C203.098 140.312 203.432 140.174 203.78 140.174H210.11C210.458 140.174 210.792 140.312 211.038 140.558C211.284 140.804 211.422 141.138 211.422 141.486V141.65H211.429Z" fill="#FFF2CF"/>
<path d="M237.708 141.65H196.866L195.763 138.37H232.394L237.708 141.65Z" fill="#FFF7E2"/>
<path d="M201.359 141.65H194.609L193.697 138.37H200.447L201.359 141.65Z" fill="#FFF2CF"/>
<path d="M188.364 141.644H176.739C176.739 140.916 177.028 140.219 177.543 139.705C178.057 139.19 178.754 138.901 179.482 138.901H185.622C186.349 138.901 187.046 139.19 187.561 139.705C188.075 140.219 188.364 140.916 188.364 141.644Z" fill="#FFF2CF"/>
<path d="M58.5284 214.774H69.9231V161.816H58.5284L58.5284 214.774Z" fill="#FFEBB7"/>
<path d="M109.119 214.774H63.0547L57.3606 152.192H103.425L109.119 214.774Z" fill="#FFEBB7"/>
<path d="M111.507 214.774H65.4426L59.7419 152.192H105.813L111.507 214.774Z" fill="#FFF2CF"/>
<path d="M71.7401 207.847L67.299 159.119H99.5151L103.95 207.847H71.7401Z" fill="white"/>
<path d="M164 244.399C234.246 244.399 291.192 241.075 291.192 236.973C291.192 232.872 234.246 229.548 164 229.548C93.754 229.548 36.8082 232.872 36.8082 236.973C36.8082 241.075 93.754 244.399 164 244.399Z" fill="#FFF7E2"/>
<path d="M44.6681 71.9L43.9167 71.9246L44.2438 81.9404L44.9951 81.9159L44.6681 71.9Z" fill="#80B3FF"/>
<path d="M44.3864 63.2562L43.635 63.2807L43.7905 68.0444L44.5419 68.0199L44.3864 63.2562Z" fill="#80B3FF"/>
<path d="M54.5366 135.707H198.021C198.787 135.71 199.547 135.559 200.254 135.261C200.961 134.963 201.6 134.525 202.133 133.974C202.666 133.423 203.082 132.769 203.356 132.053C203.63 131.336 203.756 130.572 203.726 129.805L200.531 31.9015C200.468 30.3243 199.8 28.8319 198.667 27.7334C197.533 26.6348 196.021 26.0142 194.442 26.0001H50.9581C50.1908 25.9965 49.4307 26.1481 48.7236 26.4458C48.0164 26.7436 47.3767 27.1812 46.843 27.7325C46.3093 28.2837 45.8926 28.9372 45.6179 29.6537C45.3432 30.3701 45.2162 31.1347 45.2446 31.9015L48.4397 129.79C48.5014 131.371 49.1691 132.867 50.3042 133.969C51.4393 135.07 52.9549 135.692 54.5366 135.707Z" fill="#80B3FF"/>
<path d="M54.9953 135.707H198.479C199.247 135.71 200.007 135.559 200.714 135.261C201.421 134.963 202.061 134.526 202.594 133.974C203.128 133.423 203.545 132.77 203.819 132.053C204.094 131.337 204.221 130.572 204.193 129.805L200.983 31.9015C200.917 30.3236 200.248 28.8312 199.113 27.7328C197.978 26.6345 196.465 26.0141 194.886 26.0001H51.4168C50.6499 25.9965 49.8901 26.1481 49.1833 26.4459C48.4765 26.7437 47.8373 27.1815 47.3042 27.7329C46.7711 28.2842 46.3551 28.9378 46.0812 29.6543C45.8074 30.3707 45.6814 31.1351 45.7109 31.9015L48.9059 129.79C48.9657 131.37 49.6318 132.866 50.7657 133.968C51.8996 135.07 53.4143 135.692 54.9953 135.707Z" fill="#80B3FF"/>
<path opacity="0.5" d="M54.9953 135.707H198.479C199.247 135.71 200.007 135.559 200.714 135.261C201.421 134.963 202.061 134.526 202.594 133.974C203.128 133.423 203.545 132.77 203.819 132.053C204.094 131.337 204.221 130.572 204.193 129.805L200.983 31.9015C200.917 30.3236 200.248 28.8312 199.113 27.7328C197.978 26.6345 196.465 26.0141 194.886 26.0001H51.4168C50.6499 25.9965 49.8901 26.1481 49.1833 26.4459C48.4765 26.7437 47.8373 27.1815 47.3042 27.7329C46.7711 28.2842 46.3551 28.9378 46.0812 29.6543C45.8074 30.3707 45.6814 31.1351 45.7109 31.9015L48.9059 129.79C48.9657 131.37 49.6318 132.866 50.7657 133.968C51.8996 135.07 53.4143 135.692 54.9953 135.707Z" fill="white"/>
<path opacity="0.5" d="M194.54 28.947H51.0485H50.5673C46.8912 29.2477 47.4174 34.8259 51.1237 34.8259H194.856C198.554 34.8259 198.72 29.2477 195.021 28.947C194.863 28.9545 194.698 28.947 194.54 28.947Z" fill="#80B3FF"/>
<path d="M54.6719 31.9015C54.678 32.0767 54.6486 32.2513 54.5855 32.4148C54.5224 32.5784 54.4269 32.7275 54.3047 32.8532C54.1825 32.9789 54.0362 33.0785 53.8745 33.1463C53.7128 33.214 53.5391 33.2483 53.3638 33.2472C53.0025 33.2456 52.6556 33.1049 52.3953 32.8543C52.1349 32.6037 51.981 32.2625 51.9655 31.9015C51.9584 31.7257 51.987 31.5503 52.0497 31.3859C52.1123 31.2214 52.2077 31.0714 52.33 30.9449C52.4522 30.8184 52.5989 30.718 52.7611 30.6499C52.9233 30.5817 53.0977 30.5471 53.2736 30.5483C53.6368 30.5481 53.9858 30.6892 54.2468 30.9418C54.5077 31.1943 54.6602 31.5385 54.6719 31.9015Z" fill="#FAFAFA"/>
<path d="M59.2728 31.9015C59.2799 32.077 59.2513 32.252 59.1886 32.4161C59.1258 32.5801 59.0304 32.7296 58.908 32.8555C58.7856 32.9814 58.6388 33.0811 58.4766 33.1484C58.3145 33.2158 58.1403 33.2494 57.9647 33.2472C57.6039 33.2438 57.258 33.1025 56.9981 32.8523C56.7381 32.6021 56.5836 32.2619 56.5664 31.9015C56.5593 31.7257 56.5879 31.5503 56.6505 31.3859C56.7131 31.2214 56.8085 31.0714 56.9308 30.9449C57.0531 30.8184 57.1998 30.718 57.362 30.6499C57.5242 30.5817 57.6985 30.5471 57.8745 30.5483C58.2376 30.5481 58.5866 30.6892 58.8476 30.9418C59.1086 31.1943 59.2611 31.5385 59.2728 31.9015Z" fill="#FAFAFA"/>
<path d="M63.5085 32.8694C64.0237 32.3453 64.0021 31.4887 63.4603 30.956C62.9184 30.4234 62.0615 30.4164 61.5463 30.9405C61.0312 31.4646 61.0528 32.3212 61.5946 32.8539C62.1365 33.3865 62.9933 33.3935 63.5085 32.8694Z" fill="#FAFAFA"/>
<path d="M57.7769 125.934H195.066C195.344 125.936 195.62 125.882 195.876 125.774C196.132 125.667 196.364 125.509 196.557 125.309C196.751 125.109 196.901 124.873 197 124.613C197.099 124.353 197.145 124.076 197.134 123.799L194.502 43.2759C194.472 42.7065 194.227 42.1698 193.817 41.7737C193.407 41.3775 192.862 41.1514 192.292 41.1408H55.0103C54.7325 41.1386 54.457 41.1928 54.2007 41.3001C53.9444 41.4075 53.7125 41.5658 53.5192 41.7654C53.3259 41.9651 53.1752 42.2019 53.0761 42.4615C52.977 42.7212 52.9317 42.9982 52.943 43.2759L55.5666 123.776C55.5914 124.349 55.8338 124.892 56.2444 125.293C56.6551 125.693 57.2031 125.923 57.7769 125.934Z" fill="white"/>
<g opacity="0.3">
<path d="M158.53 115.973H156.019V115.258H157.793L157.733 113.484L158.447 113.462L158.53 115.973Z" fill="#80B3FF"/>
<path d="M152.027 115.973H148.035V115.221H152.027V115.973ZM144.043 115.973H140.089V115.221H144.081L144.043 115.973ZM136.059 115.973H132.067V115.221H136.059V115.973ZM128.075 115.973H124.083V115.221H128.06L128.075 115.973ZM120.099 115.973H116.099V115.221H120.099V115.973ZM112.115 115.973H108.123V115.221H112.115V115.973ZM104.131 115.973H100.139V115.221H104.131V115.973Z" fill="#80B3FF"/>
<path d="M96.1474 115.973H93.659L93.5839 113.484L94.2905 113.462L94.3507 115.258H96.1474V115.973Z" fill="#80B3FF"/>
<path d="M93.4786 109.492L93.3508 105.5H94.1026L94.2304 109.492H93.4786ZM93.223 101.508L93.0877 97.5165H93.8019L93.9297 101.508H93.223ZM92.9599 93.5246L92.8321 89.5327H93.5387L93.6741 93.5246H92.9599ZM92.6968 85.5482L92.569 81.5563H93.2831L93.4109 85.5482H92.6968ZM92.4412 77.5644L92.3058 73.5725H93.02L93.1478 77.5644H92.4412ZM92.178 69.573L92.0502 65.5886H92.7569L92.8922 69.5805L92.178 69.573ZM91.9149 61.5967L91.7871 57.6047H92.5013L92.6291 61.5967H91.9149Z" fill="#80B3FF"/>
<path d="M91.6292 53.6053L91.5465 51.1019H94.0499V51.8161H92.2833L92.3359 53.5827L91.6292 53.6053Z" fill="#80B3FF"/>
<path d="M149.937 51.8161H145.945V51.1019H149.937V51.8161ZM141.953 51.8161H137.961V51.1019H141.953V51.8161ZM133.969 51.8161H129.977V51.1019H133.969V51.8161ZM125.985 51.8161H121.993V51.1019H125.985V51.8161ZM118.002 51.8161H114.01V51.1019H118.002V51.8161ZM110.018 51.8161H106.026V51.1019H110.018V51.8161ZM102.034 51.8161H98.0419V51.1019H102.034V51.8161Z" fill="#80B3FF"/>
<path d="M155.778 53.6053L155.718 51.8161H153.929V51.1019H156.41L156.493 53.5827L155.778 53.6053Z" fill="#80B3FF"/>
<path d="M157.605 109.492L157.477 105.5H158.184L158.319 109.492H157.605ZM157.38 101.508L157.252 97.5165H157.966L158.094 101.508H157.38ZM157.124 93.5321L156.989 89.5402H157.703L157.831 93.5321H157.124ZM156.861 85.5482L156.733 81.5563H157.44L157.575 85.5482H156.861ZM156.598 77.5644L156.47 73.5725H157.184L157.312 77.5644H156.598ZM156.342 69.5805L156.207 65.5886H156.959L157.086 69.5805H156.342ZM156.079 61.5967L155.951 57.6047H156.658L156.793 61.5967H156.079Z" fill="#80B3FF"/>
</g>
<path d="M139.202 93.705H112.957C110.523 93.6857 108.19 92.73 106.441 91.0363C104.693 89.3426 103.664 87.0408 103.567 84.6085C103.482 82.4232 104.213 80.2842 105.618 78.6082C107.023 76.9323 109.001 75.8392 111.168 75.5421C111.736 73.3701 113.009 71.4482 114.787 70.078C116.566 68.7078 118.749 67.967 120.994 67.9717C122.841 67.9746 124.657 68.4533 126.266 69.3619C127.876 70.2704 129.223 71.5781 130.18 73.159C131.006 72.9031 131.865 72.7738 132.729 72.7756C134.967 72.7965 137.121 73.6362 138.783 75.1361C140.445 76.6361 141.5 78.6925 141.75 80.9173C142.897 81.4649 143.873 82.3136 144.575 83.3729C145.277 84.4321 145.677 85.6622 145.735 86.9315C145.769 87.8096 145.625 88.6856 145.312 89.5068C144.999 90.3279 144.523 91.0771 143.913 91.7093C143.302 92.3415 142.57 92.8436 141.761 93.1853C140.951 93.527 140.08 93.7012 139.202 93.6975V93.705ZM120.994 69.7234C119.043 69.7115 117.149 70.381 115.64 71.6163C114.13 72.8515 113.099 74.575 112.724 76.4893L112.596 77.1584L111.92 77.2035C110.078 77.3161 108.353 78.1455 107.115 79.5142C105.877 80.8828 105.224 82.6818 105.297 84.5258C105.374 86.5046 106.211 88.3774 107.633 89.7551C109.056 91.1328 110.954 91.9093 112.935 91.9233H139.179C139.822 91.9289 140.459 91.8038 141.052 91.5556C141.645 91.3073 142.182 90.9411 142.629 90.4792C143.076 90.0172 143.425 89.4692 143.654 88.8684C143.883 88.2676 143.987 87.6265 143.96 86.9841C143.912 85.9621 143.568 84.9761 142.968 84.1469C142.369 83.3178 141.54 82.6814 140.585 82.3156L140.044 82.1051V81.5262C139.948 79.6444 139.138 77.87 137.778 76.5651C136.419 75.2602 134.613 74.5233 132.729 74.5047C131.832 74.5026 130.943 74.6763 130.113 75.0159L129.361 75.3166L128.992 74.6099C128.233 73.1435 127.085 71.9138 125.675 71.0548C124.264 70.1958 122.645 69.7405 120.994 69.7384V69.7234Z" fill="#80B3FF"/>
<path d="M131.639 85.1949L124.399 78.1808L117.618 85.1949H121.588L121.828 92.442H127.91L127.669 85.1949H131.639Z" fill="#80B3FF"/>
<path d="M72.8726 71.1198L33.34 71.218L33.4211 103.881L72.9536 103.783L72.8726 71.1198Z" fill="#80B3FF"/>
<path opacity="0.6" d="M33.34 71.218L33.4211 103.881L72.9536 103.783L72.8726 71.1198L33.34 71.218ZM71.6621 102.498L34.7117 102.59L34.637 72.5031L71.5874 72.4114L71.6621 102.498Z" fill="white"/>
<path opacity="0.3" d="M34.6896 93.6715L45.9975 85.4137L54.4365 93.6225L62.8431 88.7926L71.6415 94.1795L71.6622 102.498L34.7118 102.59L34.6896 93.6715Z" fill="white"/>
<path opacity="0.6" d="M61.3438 79.8613C61.344 80.396 61.1858 80.9187 60.8891 81.3634C60.5923 81.8081 60.1704 82.155 59.6767 82.36C59.1829 82.5651 58.6395 82.6192 58.115 82.5155C57.5905 82.4119 57.1085 82.155 56.7299 81.7775C56.3513 81.4001 56.0931 80.9188 55.9879 80.3946C55.8827 79.8704 55.9352 79.3268 56.1389 78.8325C56.3425 78.3382 56.6881 77.9153 57.132 77.6172C57.5758 77.3192 58.0981 77.1595 58.6327 77.1581C58.9883 77.1572 59.3406 77.2265 59.6694 77.3619C59.9982 77.4974 60.2971 77.6963 60.5489 77.9474C60.8007 78.1985 61.0006 78.4968 61.137 78.8252C61.2734 79.1536 61.3437 79.5057 61.3438 79.8613Z" fill="white"/>
<path d="M75.5393 105.132L75.5421 106.242L74.4315 106.245" stroke="#263238" stroke-miterlimit="10"/>
<path d="M72.6878 106.255L32.9275 106.354" stroke="#263238" stroke-miterlimit="10" stroke-dasharray="4.18 3.14"/>
<path d="M32.0556 106.35L30.945 106.353L30.9423 105.242" stroke="#263238" stroke-miterlimit="10"/>
<path d="M30.9384 103.638L30.8567 70.7299" stroke="#263238" stroke-miterlimit="10" stroke-dasharray="3.85 2.89"/>
<path d="M30.8546 69.9247L30.8518 68.8141L31.9624 68.8113" stroke="#263238" stroke-miterlimit="10"/>
<path d="M33.7062 68.807L73.4664 68.7083" stroke="#263238" stroke-miterlimit="10" stroke-dasharray="4.18 3.14"/>
<path d="M74.3384 68.7061L75.449 68.7034L75.4518 69.814" stroke="#263238" stroke-miterlimit="10"/>
<path d="M75.4556 71.4188L75.5373 104.332" stroke="#263238" stroke-miterlimit="10" stroke-dasharray="3.85 2.89"/>
<path d="M76.3183 67.8238L74.5691 67.8281L74.5734 69.5773L76.3227 69.573L76.3183 67.8238Z" fill="#263238"/>
<path d="M76.4117 105.368L74.6625 105.373L74.6668 107.122L76.416 107.118L76.4117 105.368Z" fill="#263238"/>
<path d="M31.8147 105.479L30.0654 105.483L30.0698 107.233L31.819 107.228L31.8147 105.479Z" fill="#263238"/>
<path d="M31.7215 67.9345L29.9723 67.9389L29.9766 69.6881L31.7259 69.6837L31.7215 67.9345Z" fill="#263238"/>
<path d="M53.9728 67.8793L52.2235 67.8836L52.2279 69.6329L53.9771 69.6285L53.9728 67.8793Z" fill="#263238"/>
<path d="M54.1159 105.424L52.3667 105.428L52.371 107.177L54.1203 107.173L54.1159 105.424Z" fill="#263238"/>
<path d="M76.3651 86.5988L74.6158 86.6032L74.6202 88.3524L76.3694 88.3481L76.3651 86.5988Z" fill="#263238"/>
<path d="M31.7681 86.7096L30.0189 86.7139L30.0233 88.4632L31.7725 88.4588L31.7681 86.7096Z" fill="#263238"/>
<path d="M257.663 66.8205C258.266 67.693 258.752 68.4277 259.25 69.2411C259.749 70.0546 260.221 70.8418 260.68 71.6618C261.599 73.2886 262.452 74.9418 263.232 76.6736C264.036 78.4008 264.745 80.1702 265.358 81.9741C266.011 83.8253 266.529 85.7218 266.906 87.6485L267.155 89.1442L267.188 89.3344L267.227 89.5706C267.227 89.8002 267.28 89.997 267.286 90.2266C267.3 90.4844 267.3 90.7428 267.286 91.0007L267.254 91.4139L267.181 91.8731C267.126 92.199 267.043 92.5194 266.932 92.8309C266.812 93.1773 266.658 93.5113 266.473 93.828C266.105 94.4702 265.612 95.0323 265.023 95.4811C264.157 96.1399 263.14 96.5728 262.065 96.7407C261.358 96.8564 260.641 96.8916 259.926 96.8456C259.343 96.8185 258.762 96.7505 258.188 96.6423C257.174 96.4471 256.173 96.1908 255.19 95.8747C253.393 95.2728 251.64 94.5496 249.942 93.7099C248.267 92.9022 246.641 91.9954 245.074 90.9941L246.964 86.8088C250.222 87.6899 253.524 88.4037 256.856 88.9474C257.592 89.0587 258.335 89.1223 259.08 89.1376C259.556 89.1785 260.035 89.125 260.49 88.9802C260.53 88.9474 260.379 88.9015 259.946 89.1901C259.586 89.4528 259.313 89.8156 259.159 90.2331C259.118 90.3354 259.085 90.4406 259.06 90.548L259.021 90.7579C259.023 90.7951 259.023 90.8323 259.021 90.8695V90.7842V90.6464L258.726 89.5443C257.775 86.4652 256.54 83.4808 255.039 80.6293C254.298 79.1467 253.484 77.6839 252.658 76.2341C252.244 75.5059 251.818 74.7909 251.392 74.0759C250.965 73.3608 250.506 72.613 250.125 72.016L257.663 66.8205Z" fill="#FFB573"/>
<path d="M247.685 87.1631L244.838 84.3291L242.011 90.6333C242.011 90.6333 244.687 92.1224 247.068 91.04L247.685 87.1631Z" fill="#FFB573"/>
<path d="M240.633 82.0659L238.534 87.3927L242.004 90.6333L244.838 84.3291L240.633 82.0659Z" fill="#FFB573"/>
<path d="M250.238 68.9303L195.621 59.3096L186 113.927L240.617 123.548L250.238 68.9303Z" fill="#80B3FF"/>
<path opacity="0.6" d="M250.238 68.9303L195.621 59.3096L186 113.927L240.617 123.548L250.238 68.9303Z" fill="white"/>
<path d="M247.109 71.1167L197.808 62.4326L189.124 111.733L238.424 120.417L247.109 71.1167Z" fill="white"/>
<path opacity="0.3" d="M221.012 87.621C225.193 84.6923 226.209 78.9287 223.28 74.7476C220.351 70.5665 214.588 69.5512 210.407 72.48C206.225 75.4087 205.21 81.1723 208.139 85.3534C211.068 89.5345 216.831 90.5497 221.012 87.621Z" fill="#80B3FF"/>
<path opacity="0.2" d="M227.264 93.5066L210.739 105.078L203.143 94.2282L190.672 102.96L189.124 111.743L238.422 120.422L239.971 111.645L227.264 93.5066Z" fill="#80B3FF"/>
<path d="M229.973 46.9503C229.973 47.3898 229.763 47.7506 229.475 47.7571C229.186 47.7637 228.95 47.4095 228.943 46.9765C228.937 46.5435 229.16 46.1762 229.442 46.1762C229.724 46.1762 229.967 46.5173 229.973 46.9503Z" fill="#263238"/>
<path d="M229.803 47.744C229.307 49.0885 228.632 50.3596 227.795 51.5226C228.098 51.7288 228.442 51.8667 228.803 51.9268C229.165 51.9868 229.535 51.9675 229.888 51.8702L229.803 47.744Z" fill="#FF5652"/>
<path d="M231.515 44.4968C231.447 44.5103 231.376 44.4961 231.318 44.4574C231.061 44.2628 230.761 44.134 230.443 44.0826C230.125 44.0311 229.799 44.0585 229.494 44.1622C229.431 44.1883 229.36 44.1881 229.296 44.1617C229.233 44.1352 229.183 44.0847 229.157 44.0212C229.13 43.9577 229.131 43.8864 229.157 43.8231C229.184 43.7597 229.234 43.7095 229.298 43.6834C229.684 43.5548 230.095 43.5199 230.498 43.5815C230.901 43.6431 231.283 43.7994 231.613 44.0376C231.669 44.0761 231.707 44.1349 231.719 44.2012C231.731 44.2676 231.717 44.3361 231.679 44.3918C231.64 44.4466 231.581 44.4841 231.515 44.4968Z" fill="#263238"/>
<path d="M242.621 48.6165C242.345 52.6443 242.66 60.7722 245.737 63.0485C245.737 63.0485 244.983 66.3285 237.681 67.2535C229.658 68.2571 233.345 63.7504 233.345 63.7504C237.596 62.1498 237.078 58.9157 235.93 55.9571L242.621 48.6165Z" fill="#FFB573"/>
<path d="M262.511 222.798H262.465C262.368 222.747 262.289 222.667 262.24 222.57C262.19 222.472 262.173 222.361 262.189 222.253C262.191 222.167 262.212 222.082 262.251 222.005C262.289 221.928 262.345 221.86 262.412 221.807C263.029 221.282 264.826 221.512 264.905 221.518C264.929 221.523 264.952 221.534 264.97 221.55C264.989 221.566 265.002 221.587 265.01 221.61C265.017 221.634 265.017 221.658 265.01 221.682C265.003 221.705 264.989 221.726 264.971 221.741C264.551 222.083 263.16 223.021 262.511 222.798ZM264.564 221.722C263.954 221.676 262.944 221.669 262.596 221.978C262.557 222.009 262.525 222.049 262.502 222.095C262.479 222.14 262.467 222.189 262.465 222.24C262.465 222.483 262.557 222.529 262.589 222.548C262.911 222.712 263.901 222.214 264.564 221.722Z" fill="#80B3FF"/>
<path d="M263.98 221.558C263.324 221.341 262.668 220.967 262.57 220.587C262.544 220.494 262.55 220.395 262.589 220.307C262.627 220.219 262.694 220.146 262.78 220.101C262.86 220.046 262.952 220.009 263.048 219.992C263.144 219.975 263.243 219.979 263.337 220.003C264.131 220.167 264.958 221.505 264.997 221.558C265.01 221.577 265.017 221.6 265.017 221.623C265.017 221.647 265.01 221.67 264.997 221.689C264.987 221.71 264.971 221.727 264.951 221.738C264.931 221.75 264.908 221.756 264.885 221.755C264.576 221.731 264.271 221.665 263.98 221.558ZM263.377 220.279H263.285C263.224 220.262 263.159 220.26 263.097 220.271C263.035 220.283 262.976 220.308 262.924 220.344C262.786 220.436 262.806 220.508 262.812 220.541C262.917 220.889 263.941 221.374 264.63 221.499C264.328 220.988 263.896 220.566 263.377 220.279Z" fill="#80B3FF"/>
<path d="M222.678 231.765C221.983 231.765 221.314 231.667 221.084 231.358C221.027 231.276 220.995 231.177 220.995 231.076C220.995 230.975 221.027 230.877 221.084 230.794C221.129 230.721 221.189 230.657 221.258 230.606C221.328 230.556 221.407 230.519 221.491 230.499C222.39 230.25 224.286 231.326 224.364 231.372C224.387 231.386 224.405 231.407 224.415 231.431C224.426 231.456 224.429 231.483 224.423 231.509C224.42 231.535 224.409 231.559 224.391 231.577C224.373 231.596 224.35 231.609 224.325 231.614C223.781 231.71 223.231 231.761 222.678 231.765ZM221.819 230.716C221.736 230.705 221.653 230.705 221.57 230.716C221.518 230.727 221.469 230.75 221.426 230.781C221.383 230.813 221.347 230.853 221.321 230.899C221.229 231.057 221.262 231.135 221.321 231.181C221.57 231.529 222.941 231.536 223.945 231.398C223.288 231.032 222.566 230.8 221.819 230.716Z" fill="#80B3FF"/>
<path d="M224.312 231.608H224.259C223.603 231.319 222.291 230.145 222.409 229.535C222.409 229.39 222.534 229.213 222.888 229.174C223.015 229.161 223.144 229.175 223.265 229.213C223.387 229.251 223.5 229.314 223.597 229.397C224.286 229.961 224.436 231.417 224.436 231.483C224.439 231.505 224.435 231.527 224.426 231.546C224.417 231.566 224.402 231.583 224.384 231.595C224.363 231.608 224.337 231.613 224.312 231.608ZM223 229.41H222.895C222.665 229.41 222.652 229.528 222.646 229.554C222.587 229.922 223.466 230.866 224.128 231.24C224.07 230.625 223.822 230.043 223.42 229.574C223.299 229.475 223.149 229.419 222.993 229.417L223 229.41Z" fill="#80B3FF"/>
<path d="M230.262 231.483H224.85L224.312 218.953H229.724L230.262 231.483Z" fill="#FFB573"/>
<path d="M270.73 220.056L265.712 221.433L259.29 209.684L264.308 208.307L270.73 220.056Z" fill="#FFB573"/>
<path d="M264.958 220.889L270.376 218.114C270.473 218.067 270.582 218.054 270.686 218.077C270.791 218.099 270.885 218.156 270.954 218.238L274.096 222.03C274.171 222.123 274.224 222.233 274.252 222.349C274.279 222.466 274.28 222.588 274.254 222.705C274.228 222.822 274.177 222.932 274.103 223.026C274.029 223.121 273.934 223.197 273.827 223.25C271.924 224.182 270.947 224.562 268.579 225.763C267.116 226.511 262.76 229.751 260.562 230.355C258.365 230.958 257.512 228.826 258.358 228.387C261.135 226.959 263.271 224.537 264.341 221.604C264.451 221.297 264.671 221.042 264.958 220.889Z" fill="#263238"/>
<path d="M224.863 230.86H230.767C230.874 230.86 230.977 230.897 231.061 230.963C231.144 231.03 231.202 231.123 231.226 231.227L232.295 236.042C232.322 236.158 232.323 236.279 232.296 236.396C232.269 236.512 232.216 236.62 232.14 236.713C232.065 236.805 231.969 236.879 231.861 236.929C231.752 236.979 231.634 237.003 231.515 237C229.383 236.967 226.3 236.843 223.643 236.843C220.507 236.843 217.804 237.013 214.131 237.013C211.907 237.013 211.29 234.763 212.222 234.56C216.453 233.635 219.91 233.536 223.571 231.28C223.954 231.023 224.402 230.878 224.863 230.86Z" fill="#263238"/>
<path d="M248.138 73.0722C248.702 74.5219 249.325 75.9389 249.955 77.2706C251.031 79.5731 252.107 81.5805 252.887 82.9647C253.583 84.2176 254.042 84.9327 254.042 84.9327L265.85 79.068C265.85 79.068 261.087 65.3773 256.115 63.8488C251.031 62.3597 245.586 66.545 248.138 73.0722Z" fill="#263238"/>
<path opacity="0.2" d="M253.379 74.4235C252.349 75.1779 251.615 77.2181 251.09 79.6125C251.746 80.9245 252.402 82.0725 252.887 82.9647C253.583 84.2176 254.042 84.9327 254.042 84.9327L255.393 84.2767C255.367 80.8928 254.683 77.5464 253.379 74.4235Z" fill="black"/>
<path d="M223.144 81.8035C223.144 83.6403 223.19 85.6674 223.289 87.9043C223.558 93.9723 224.22 101.536 225.486 110.936H254.429C254.632 106.495 251.838 84.8146 256.128 63.875C252.925 63.2616 249.687 62.854 246.432 62.6549C242.334 62.4186 238.225 62.4186 234.126 62.6549C231.317 62.9439 228.534 63.4461 225.801 64.1571C225.801 64.1571 223.138 67.1682 223.144 81.8035Z" fill="#263238"/>
<path d="M230.59 73.2099C230.16 74.1104 229.68 74.9864 229.153 75.8339C228.674 76.608 228.189 77.3559 227.69 78.0775C226.693 79.5207 225.65 80.9114 224.555 82.2693C222.349 85.0257 219.906 87.583 217.253 89.9117C215.839 91.1517 214.322 92.2709 212.72 93.2573L212.064 93.6378L211.894 93.7296L211.658 93.8477L211.179 94.0773C210.563 94.3679 209.916 94.588 209.25 94.7333C208.072 94.9701 206.865 95.0319 205.668 94.917C203.671 94.6793 201.731 94.0954 199.935 93.1917C199.104 92.7845 198.3 92.3244 197.527 91.8141C196.745 91.3071 195.998 90.7483 195.29 90.1413L197.613 86.2053C200.453 86.9531 203.654 87.6223 205.859 87.3074C206.314 87.2639 206.759 87.1395 207.171 86.94C207.306 86.8737 207.434 86.7923 207.551 86.6973L207.61 86.6383H207.649L207.741 86.5661L208.141 86.2906C209.265 85.435 210.33 84.5059 211.33 83.5091C213.471 81.3417 215.463 79.0317 217.293 76.5949C218.231 75.3682 219.136 74.1087 220.008 72.8426C220.435 72.1866 220.861 71.5831 221.255 70.9599C221.648 70.3367 222.042 69.7003 222.245 69.3002L230.59 73.2099Z" fill="#FFB573"/>
<path d="M198.767 86.7498L193.775 84.3816L193.323 91.0794C193.323 91.0794 197.206 91.7354 199.259 90.2331L198.767 86.7498Z" fill="#FFB573"/>
<path d="M187.484 85.5231L189.406 90.6267L193.322 91.0794L193.775 84.3816L187.484 85.5231Z" fill="#FFB573"/>
<path d="M234.165 69.661C233.994 74.8368 223.341 86.7498 223.341 86.7498L212.091 79.4157C212.091 79.4157 215.679 72.7245 220.271 67.8898C227.284 60.6082 234.368 63.4552 234.165 69.661Z" fill="#263238"/>
<path opacity="0.2" d="M224.312 218.953L224.587 225.415H230.006L229.73 218.953H224.312Z" fill="black"/>
<path opacity="0.2" d="M264.308 208.307L259.29 209.691L262.603 215.746L267.621 214.361L264.308 208.307Z" fill="black"/>
<path d="M244.543 45.7235C244.326 51.0896 244.477 54.2515 241.827 57.0527C237.839 61.2707 231.174 58.955 229.783 53.6349C228.53 48.8395 229.094 40.8691 234.296 38.6256C235.441 38.1245 236.695 37.9246 237.938 38.0451C239.182 38.1656 240.374 38.6023 241.401 39.3138C242.428 40.0253 243.256 40.9879 243.806 42.1098C244.356 43.2318 244.61 44.4758 244.543 45.7235Z" fill="#FFB573"/>
<path d="M233.83 48.2819C231.895 46.9043 229.999 44.0638 230.15 41.9515C228.359 41.8794 227.159 38.9274 228.143 36.7757C228.76 38.1598 230.892 37.143 231.725 36.0475C231.279 34.9914 231.351 33.2398 234.414 32C234.158 32.8922 234.29 34.3944 237.366 33.312C241.099 32 247.659 32.879 245.737 37.3202C248.361 37.799 251.779 43.2242 248.879 46.0778C245.98 48.9314 245.383 53.543 242.903 54.0154C240.423 54.4877 233.975 54.6517 233.83 48.2819Z" fill="#263238"/>
<path d="M243.992 37.143C245.035 36.7089 246.195 36.6391 247.283 36.945C248.371 37.2509 249.324 37.9146 249.988 38.829C248.1 37.9279 246.072 37.3577 243.992 37.143Z" fill="#263238"/>
<path d="M235.241 48.0523C235.187 49.2444 234.742 50.3856 233.975 51.2995C232.951 52.4934 231.83 51.7981 231.6 50.3877C231.397 49.1216 231.685 46.9699 232.958 46.2942C234.231 45.6186 235.287 46.6157 235.241 48.0523Z" fill="#FFB573"/>
<path d="M235.753 110.936C235.753 110.936 233.201 151.891 238.042 166.992C245.704 190.909 259.375 215.345 259.375 215.345L269.149 212.407C269.149 212.407 258.398 186.613 254.862 166.487C251.687 148.388 254.429 125.742 254.429 110.956L235.753 110.936Z" fill="#80B3FF"/>
<path opacity="0.2" d="M235.359 120.088C238.088 119.294 240.22 119.596 240.771 122.023C242.214 128.366 237.884 145.101 235.726 152.756C234.834 141.736 235.037 128.616 235.359 120.088Z" fill="black"/>
<path d="M256.613 212.544C256.574 212.544 259.165 215.569 259.165 215.569L269.845 212.354L268.487 208.746L256.613 212.544Z" fill="#263238"/>
<path d="M225.519 110.936C225.519 110.936 217.365 145.488 216.788 161.993C216.132 180.505 222.606 224.162 222.606 224.162H231.79C231.79 224.162 232.919 180.164 233.325 163.305C233.771 144.937 244.556 110.936 244.556 110.936H225.519Z" fill="#80B3FF"/>
<path d="M220.809 220.515C220.77 220.515 221.327 224.32 221.327 224.32H232.479L232.781 220.921L220.809 220.515Z" fill="#263238"/>
<path d="M229.534 61.3888C230.78 60.9559 240.233 59.7554 247.095 60.1227C251.031 60.3327 253.222 60.7787 254.822 61.5331C256.423 62.2875 253.556 66.2039 252.231 66.6827C252.769 68.1784 249.784 70.0874 248.085 70.9927C247.429 72.3965 240.692 73.6954 236.756 70.6778C233.732 68.3555 225.998 62.6155 229.534 61.3888Z" fill="#80B3FF"/>
</svg>
