<svg width="328" height="255" viewBox="0 0 328 255" fill="none" xmlns="http://www.w3.org/2000/svg">
<path d="M328 224.676H0V224.84H328V224.676Z" fill="#EBEBEB"/>
<path d="M56.1405 230.922H34.4138V231.086H56.1405V230.922Z" fill="#EBEBEB"/>
<path d="M142.936 229.144H112.268V229.308H142.936V229.144Z" fill="#EBEBEB"/>
<path d="M86.5855 235.992H73.9968V236.156H86.5855V235.992Z" fill="#EBEBEB"/>
<path d="M224.706 233.145H204.888V233.309H224.706V233.145Z" fill="#EBEBEB"/>
<path d="M243.219 233.145H230.545V233.309H243.219V233.145Z" fill="#EBEBEB"/>
<path d="M295.141 235.914H256.726V236.078H295.141V235.914Z" fill="#EBEBEB"/>
<path d="M155.472 195.419H28.8049C27.8126 195.417 26.8616 195.022 26.1605 194.319C25.4595 193.617 25.0657 192.665 25.0657 191.673V13.615C25.0744 12.6284 25.4719 11.6851 26.172 10.9899C26.8722 10.2947 27.8183 9.90376 28.8049 9.90207H155.472C156.465 9.90207 157.418 10.2967 158.121 10.9992C158.823 11.7016 159.218 12.6544 159.218 13.6478V191.673C159.218 192.667 158.823 193.619 158.121 194.322C157.418 195.024 156.465 195.419 155.472 195.419ZM28.8049 10.0333C27.8561 10.035 26.9468 10.4131 26.2765 11.0847C25.6062 11.7562 25.2297 12.6662 25.2297 13.615V191.673C25.2297 192.622 25.6062 193.532 26.2765 194.203C26.9468 194.875 27.8561 195.253 28.8049 195.255H155.472C156.421 195.253 157.331 194.875 158.003 194.204C158.674 193.533 159.052 192.623 159.054 191.673V13.615C159.052 12.6656 158.674 11.7556 158.003 11.0843C157.331 10.4129 156.421 10.035 155.472 10.0333H28.8049Z" fill="#EBEBEB"/>
<path d="M297.371 195.419H170.698C169.705 195.417 168.753 195.022 168.051 194.32C167.349 193.618 166.954 192.666 166.952 191.673V13.615C166.962 12.6278 167.361 11.6845 168.063 10.9894C168.764 10.2944 169.711 9.90374 170.698 9.90207H297.371C298.357 9.90548 299.301 10.2971 300 10.9922C300.699 11.6872 301.095 12.6296 301.104 13.615V191.673C301.104 192.664 300.711 193.615 300.012 194.317C299.312 195.019 298.363 195.415 297.371 195.419ZM170.698 10.0333C169.748 10.035 168.838 10.4129 168.167 11.0843C167.496 11.7556 167.118 12.6656 167.116 13.615V191.673C167.118 192.623 167.496 193.533 168.167 194.204C168.838 194.875 169.748 195.253 170.698 195.255H297.371C298.321 195.253 299.231 194.875 299.902 194.204C300.573 193.533 300.951 192.623 300.953 191.673V13.615C300.951 12.6656 300.573 11.7556 299.902 11.0843C299.231 10.4129 298.321 10.035 297.371 10.0333H170.698Z" fill="#EBEBEB"/>
<path d="M192.11 34.8891H45.0344V126.926H192.11V34.8891Z" fill="#F0F0F0"/>
<path d="M189.236 122.603V39.2187L47.9142 39.2187V122.603L189.236 122.603Z" fill="#FFF7E2"/>
<path d="M66.5118 122.596L81.0094 39.2121H91.7022L77.2046 122.596H66.5118Z" fill="white"/>
<path d="M79.6712 122.596L94.1688 39.2121H98.951L84.4534 122.596H79.6712Z" fill="white"/>
<path d="M103.064 122.596L117.562 39.2121H128.248L113.75 122.596H103.064Z" fill="white"/>
<path d="M130.013 122.596L144.51 39.2121H149.293L134.795 122.596H130.013Z" fill="white"/>
<path d="M85.772 122.596V39.2121H85.0438V122.596H85.772Z" fill="#FFF2CF"/>
<path d="M48.6424 122.596L48.6424 39.2121H47.9142L47.9142 122.596H48.6424Z" fill="#FFF2CF"/>
<path d="M85.0438 122.596V39.2121H82.164V122.596H85.0438Z" fill="#F0F0F0"/>
<path d="M121.452 122.603V39.2187H120.724V122.603H121.452Z" fill="#FFF2CF"/>
<path d="M120.717 122.603V39.2187H117.837V122.603H120.717Z" fill="#F0F0F0"/>
<path d="M157.145 122.596V39.2121H156.417V122.596H157.145Z" fill="#FFF2CF"/>
<path d="M156.417 122.596V39.2121H153.537V122.596H156.417Z" fill="#F0F0F0"/>
<path d="M192.838 126.926V34.8891H192.11V126.926H192.838Z" fill="#FFF2CF"/>
<path d="M207.053 28.5653H38.5006C38.2482 28.5636 38.0066 28.463 37.8275 28.2852C37.6485 28.1073 37.5463 27.8664 37.5428 27.6141C37.5428 27.3594 37.6435 27.1152 37.823 26.9345C38.0024 26.7538 38.246 26.6515 38.5006 26.6497H207.053C207.18 26.6497 207.305 26.6747 207.422 26.7231C207.539 26.7716 207.646 26.8426 207.735 26.9322C207.825 27.0217 207.896 27.128 207.944 27.245C207.993 27.362 208.018 27.4874 208.018 27.6141C208.014 27.8675 207.911 28.1095 207.731 28.2875C207.55 28.4655 207.307 28.5653 207.053 28.5653Z" fill="#FFF2CF"/>
<g opacity="0.8">
<path d="M104.816 24.7933H40.8623V149.059H104.816V24.7933Z" fill="#FFF7E2"/>
<path d="M65.9215 150.43H60.562L62.0708 26.1643H64.4652L65.9215 150.43Z" fill="#FFE49F"/>
<path d="M54.1004 150.43H51.5092L52.2373 26.1643H53.3919L54.1004 150.43Z" fill="#FFE49F"/>
<path d="M81.4686 150.43H78.8774L79.6056 26.1643H80.7602L81.4686 150.43Z" fill="#FFE49F"/>
<path d="M94.6346 150.43H92.0499L92.7715 26.1643H93.9326L94.6346 150.43Z" fill="#FFE49F"/>
</g>
<g opacity="0.8">
<path d="M203.754 24.7867H171.78V149.053H203.754V24.7867Z" fill="#FFF7E2"/>
<path d="M184.31 150.424H181.633L182.381 26.1643H183.582L184.31 150.424Z" fill="#FFE49F"/>
<path d="M178.399 150.424H177.107L177.468 26.1643H178.045L178.399 150.424Z" fill="#FFE49F"/>
<path d="M192.083 150.424H190.791L191.152 26.1643H191.729L192.083 150.424Z" fill="#FFE49F"/>
<path d="M198.663 150.424H197.371L197.738 26.1643H198.315L198.663 150.424Z" fill="#FFE49F"/>
</g>
<path d="M170.094 223.555H176.248V160.828H170.094V223.555Z" fill="#F0F0F0"/>
<path d="M42.1349 160.835L177.743 160.835V157.082L42.1349 157.082V160.835Z" fill="#F0F0F0"/>
<path d="M46.1431 224.676L173.742 224.676V223.555L46.1431 223.555V224.676Z" fill="#F0F0F0"/>
<path d="M170.094 160.828H43.6371V223.555H170.094V160.828Z" fill="#FFF7E2"/>
<path d="M164.971 167.814H48.7736V187.061H164.971V167.814Z" fill="#F0F0F0"/>
<path d="M164.971 196.127H48.7736V215.374H164.971V196.127Z" fill="#F0F0F0"/>
<path d="M66.5578 169.677H147.18C147.84 169.677 148.374 169.143 148.374 168.484V167.88C148.374 167.221 147.84 166.686 147.18 166.686H66.5578C65.8984 166.686 65.3639 167.221 65.3639 167.88V168.484C65.3639 169.143 65.8984 169.677 66.5578 169.677Z" fill="#FFF7E2"/>
<path d="M66.5578 197.977H147.18C147.84 197.977 148.374 197.443 148.374 196.783V196.18C148.374 195.52 147.84 194.986 147.18 194.986H66.5578C65.8984 194.986 65.3639 195.52 65.3639 196.18V196.783C65.3639 197.443 65.8984 197.977 66.5578 197.977Z" fill="#FFF7E2"/>
<path d="M272.632 221.756C276.523 217.865 276.523 211.556 272.632 207.664C268.74 203.773 262.431 203.773 258.539 207.664C254.648 211.556 254.648 217.865 258.539 221.756C262.431 225.648 268.74 225.648 272.632 221.756Z" fill="#FFEBB7"/>
<path d="M280.886 224.67C287.752 224.67 293.317 219.104 293.317 212.239C293.317 205.373 287.752 199.807 280.886 199.807C274.02 199.807 268.455 205.373 268.455 212.239C268.455 219.104 274.02 224.67 280.886 224.67Z" fill="#FFF7E2"/>
<path d="M218.382 119.329L288.437 119.329V31.8978L218.382 31.8978V119.329Z" fill="#FFE49F"/>
<path d="M215.306 119.329L287.387 119.329V31.8978L215.306 31.8978V119.329Z" fill="#FFF7E2"/>
<path d="M285.189 116.889V34.3381L217.497 34.3381V116.889H285.189Z" fill="#FFF7E2"/>
<path d="M251.346 90.2621C264.121 90.2621 274.477 79.9062 274.477 67.1315C274.477 54.3569 264.121 44.0009 251.346 44.0009C238.572 44.0009 228.216 54.3569 228.216 67.1315C228.216 79.9062 238.572 90.2621 251.346 90.2621Z" fill="#CCE0FF"/>
<path d="M218.133 116.889V34.3381H217.503V116.889H218.133Z" fill="#FFE49F"/>
<path d="M270.305 106.78H232.381C231.796 106.778 231.234 106.545 230.82 106.131C230.406 105.717 230.172 105.155 230.171 104.569C230.172 103.984 230.406 103.422 230.82 103.008C231.234 102.594 231.796 102.36 232.381 102.359H270.305C270.891 102.36 271.452 102.594 271.866 103.008C272.28 103.422 272.514 103.984 272.516 104.569C272.514 105.155 272.28 105.717 271.866 106.131C271.452 106.545 270.891 106.778 270.305 106.78Z" fill="white"/>
<path d="M164 254.301C234.246 254.301 291.192 250.977 291.192 246.876C291.192 242.774 234.246 239.45 164 239.45C93.7539 239.45 36.8082 242.774 36.8082 246.876C36.8082 250.977 93.7539 254.301 164 254.301Z" fill="#FFF7E2"/>
<path d="M128.497 154.603H125.847V237.003H128.497V154.603Z" fill="#80B3FF"/>
<path opacity="0.8" d="M128.497 154.603H125.847V237.003H128.497V154.603Z" fill="white"/>
<path d="M123.197 237.009H125.847L125.847 154.609H123.197L123.197 237.009Z" fill="#80B3FF"/>
<path opacity="0.7" d="M123.197 237.009H125.847L125.847 154.609H123.197L123.197 237.009Z" fill="white"/>
<path d="M125.847 241.713C126.988 241.713 127.913 240.788 127.913 239.646C127.913 238.505 126.988 237.58 125.847 237.58C124.706 237.58 123.781 238.505 123.781 239.646C123.781 240.788 124.706 241.713 125.847 241.713Z" fill="#263238"/>
<path d="M128.163 237.009H123.531V237.901H128.163V237.009Z" fill="#263238"/>
<path d="M177.566 154.603V148.377H126.706V154.603H177.566Z" fill="#80B3FF"/>
<path opacity="0.8" d="M177.566 154.603V148.377H126.706V154.603H177.566Z" fill="white"/>
<path d="M126.706 154.603V148.377H111.258V154.603H126.706Z" fill="#80B3FF"/>
<path opacity="0.7" d="M126.706 154.603V148.377H111.258V154.603H126.706Z" fill="white"/>
<path d="M117.85 154.603H115.2V237.003H117.85V154.603Z" fill="#80B3FF"/>
<path opacity="0.8" d="M117.85 154.603H115.2V237.003H117.85V154.603Z" fill="white"/>
<path d="M112.543 237.009H115.194L115.194 154.609H112.543L112.543 237.009Z" fill="#80B3FF"/>
<path opacity="0.7" d="M112.543 237.009H115.194L115.194 154.609H112.543L112.543 237.009Z" fill="white"/>
<path d="M115.2 241.713C116.341 241.713 117.267 240.788 117.267 239.646C117.267 238.505 116.341 237.58 115.2 237.58C114.059 237.58 113.134 238.505 113.134 239.646C113.134 240.788 114.059 241.713 115.2 241.713Z" fill="#263238"/>
<path d="M117.516 237.009H112.884V237.901H117.516V237.009Z" fill="#263238"/>
<path d="M176.084 154.603H173.433V237.003H176.084V154.603Z" fill="#80B3FF"/>
<path opacity="0.8" d="M176.084 154.603H173.433V237.003H176.084V154.603Z" fill="white"/>
<path d="M170.783 237.009H173.433V154.609H170.783V237.009Z" fill="#80B3FF"/>
<path opacity="0.7" d="M170.783 237.009H173.433V154.609H170.783V237.009Z" fill="white"/>
<path d="M175.5 239.646C175.5 240.055 175.378 240.455 175.151 240.794C174.924 241.134 174.602 241.399 174.224 241.556C173.846 241.712 173.431 241.753 173.03 241.673C172.629 241.593 172.261 241.397 171.972 241.108C171.683 240.819 171.486 240.45 171.407 240.05C171.327 239.649 171.368 239.233 171.524 238.856C171.681 238.478 171.945 238.155 172.285 237.928C172.625 237.701 173.025 237.58 173.433 237.58C173.981 237.582 174.505 237.8 174.893 238.187C175.28 238.574 175.498 239.099 175.5 239.646Z" fill="#263238"/>
<path d="M175.749 237.009H171.118V237.901H175.749V237.009Z" fill="#263238"/>
<path d="M165.437 154.603H162.786V237.003H165.437V154.603Z" fill="#80B3FF"/>
<path opacity="0.8" d="M165.437 154.603H162.786V237.003H165.437V154.603Z" fill="white"/>
<path d="M160.136 237.009H162.786V154.609H160.136V237.009Z" fill="#80B3FF"/>
<path opacity="0.7" d="M160.136 237.009H162.786V154.609H160.136V237.009Z" fill="white"/>
<path d="M164.853 239.646C164.854 240.057 164.733 240.459 164.506 240.801C164.279 241.142 163.955 241.409 163.576 241.567C163.197 241.725 162.78 241.766 162.377 241.686C161.974 241.607 161.604 241.409 161.314 241.119C161.024 240.828 160.826 240.458 160.746 240.056C160.667 239.653 160.708 239.236 160.866 238.857C161.024 238.478 161.29 238.154 161.632 237.927C161.974 237.699 162.376 237.579 162.786 237.58C163.334 237.582 163.859 237.8 164.246 238.187C164.633 238.574 164.851 239.099 164.853 239.646Z" fill="#263238"/>
<path d="M165.102 237.009H160.471V237.901H165.102V237.009Z" fill="#263238"/>
<path d="M124.915 194.166V190.44H113.134V194.166H124.915Z" fill="#80B3FF"/>
<path opacity="0.7" d="M124.915 194.166V190.44H113.134V194.166H124.915Z" fill="white"/>
<path d="M175.277 194.153V190.427H127.172V194.153H175.277Z" fill="#80B3FF"/>
<path opacity="0.8" d="M175.277 194.153V190.427H127.172V194.153H175.277Z" fill="white"/>
<path d="M145.73 179.839H140.41C139.769 179.839 139.249 180.359 139.249 181V189.272C139.249 189.913 139.769 190.433 140.41 190.433H145.73C146.372 190.433 146.892 189.913 146.892 189.272V181C146.892 180.359 146.372 179.839 145.73 179.839Z" fill="#80B3FF"/>
<path opacity="0.3" d="M145.73 179.839H140.41C139.769 179.839 139.249 180.359 139.249 181V189.272C139.249 189.913 139.769 190.433 140.41 190.433H145.73C146.372 190.433 146.892 189.913 146.892 189.272V181C146.892 180.359 146.372 179.839 145.73 179.839Z" fill="white"/>
<path d="M146.892 182.87H144.254V188.19H146.892V182.87Z" fill="white"/>
<path d="M143.52 182.87H140.883V188.19H143.52V182.87Z" fill="white"/>
<path d="M145.507 178.402H140.627C140.435 178.402 140.279 178.558 140.279 178.75V179.485C140.279 179.677 140.435 179.832 140.627 179.832H145.507C145.699 179.832 145.855 179.677 145.855 179.485V178.75C145.855 178.558 145.699 178.402 145.507 178.402Z" fill="#80B3FF"/>
<path d="M138.672 178.927H132.892C132.197 178.927 131.633 179.491 131.633 180.187V189.174C131.633 189.869 132.197 190.433 132.892 190.433H138.672C139.367 190.433 139.931 189.869 139.931 189.174V180.187C139.931 179.491 139.367 178.927 138.672 178.927Z" fill="#80B3FF"/>
<path opacity="0.5" d="M138.672 178.927H132.892C132.197 178.927 131.633 179.491 131.633 180.187V189.174C131.633 189.869 132.197 190.433 132.892 190.433H138.672C139.367 190.433 139.931 189.869 139.931 189.174V180.187C139.931 179.491 139.367 178.927 138.672 178.927Z" fill="white"/>
<path d="M139.059 182.22H134.342V188H139.059V182.22Z" fill="white"/>
<path d="M138.436 177.366H133.135C132.925 177.366 132.755 177.536 132.755 177.746V178.54C132.755 178.75 132.925 178.92 133.135 178.92H138.436C138.646 178.92 138.816 178.75 138.816 178.54V177.746C138.816 177.536 138.646 177.366 138.436 177.366Z" fill="#80B3FF"/>
<path d="M136.304 137.488H118.592V148.377H136.304V137.488Z" fill="#80B3FF"/>
<path opacity="0.2" d="M124.522 148.377H136.304V137.488H124.522V148.377Z" fill="white"/>
<path opacity="0.5" d="M118.592 141.981H136.304V137.481H118.592V141.981Z" fill="white"/>
<path opacity="0.5" d="M118.592 143.877H136.304V142.932H118.592V143.877Z" fill="white"/>
<path d="M135.359 144.874H125.467V147.38H135.359V144.874Z" fill="white"/>
<path d="M159.1 144.126C158.999 144.041 158.936 143.92 158.924 143.789C158.912 143.658 158.951 143.527 159.034 143.424L164.282 137.14C164.368 137.038 164.49 136.973 164.623 136.961C164.755 136.949 164.888 136.99 164.991 137.074C165.091 137.16 165.154 137.281 165.166 137.412C165.178 137.543 165.139 137.674 165.056 137.776L159.808 144.061C159.723 144.163 159.6 144.227 159.467 144.239C159.335 144.252 159.202 144.211 159.1 144.126Z" fill="#80B3FF"/>
<path d="M160.805 144.166C160.703 144.08 160.639 143.958 160.627 143.825C160.614 143.692 160.655 143.56 160.74 143.457L165.988 137.179C166.029 137.128 166.08 137.086 166.138 137.055C166.196 137.024 166.259 137.004 166.325 136.998C166.39 136.992 166.456 136.999 166.519 137.019C166.581 137.039 166.64 137.071 166.69 137.114C166.741 137.155 166.783 137.206 166.814 137.264C166.845 137.322 166.864 137.385 166.87 137.451C166.877 137.516 166.87 137.582 166.85 137.645C166.83 137.707 166.798 137.766 166.755 137.816L161.507 144.1C161.422 144.2 161.301 144.263 161.17 144.276C161.038 144.288 160.908 144.248 160.805 144.166Z" fill="#80B3FF"/>
<path d="M162.242 144.526C162.191 144.485 162.148 144.433 162.117 144.374C162.086 144.316 162.067 144.252 162.061 144.186C162.054 144.12 162.062 144.053 162.081 143.99C162.101 143.927 162.134 143.869 162.176 143.818L167.424 137.54C167.466 137.489 167.517 137.447 167.575 137.415C167.633 137.384 167.696 137.365 167.761 137.359C167.827 137.353 167.893 137.36 167.956 137.38C168.018 137.4 168.076 137.432 168.126 137.474C168.228 137.559 168.292 137.68 168.304 137.812C168.317 137.943 168.276 138.075 168.192 138.176L162.944 144.461C162.86 144.563 162.738 144.627 162.607 144.639C162.475 144.651 162.344 144.611 162.242 144.526Z" fill="#80B3FF"/>
<path d="M155.78 143.024C153.353 143.024 150.611 142.322 148.19 141.712C146.439 141.26 143.795 140.584 143.421 140.971C143.421 140.971 143.349 141.148 143.598 141.745C143.639 141.825 143.663 141.913 143.668 142.003C143.674 142.093 143.66 142.184 143.629 142.268C143.598 142.353 143.55 142.43 143.487 142.495C143.425 142.561 143.35 142.612 143.267 142.647C143.183 142.682 143.094 142.699 143.004 142.698C142.914 142.696 142.825 142.677 142.743 142.639C142.66 142.602 142.587 142.548 142.526 142.481C142.466 142.414 142.42 142.336 142.391 142.25C142.247 141.902 141.801 140.846 142.431 140.112C143.303 139.101 145.376 139.633 148.518 140.44C150.86 141.043 153.517 141.752 155.78 141.752C158.044 141.752 160.694 141.096 163.042 140.44C166.184 139.633 168.29 139.128 169.13 140.112C169.786 140.846 169.314 141.902 169.163 142.25C169.097 142.413 168.97 142.543 168.809 142.612C168.648 142.681 168.466 142.683 168.303 142.617C168.141 142.552 168.011 142.425 167.942 142.264C167.873 142.103 167.871 141.921 167.936 141.758C168.192 141.161 168.113 140.977 168.113 140.977C167.739 140.597 165.096 141.273 163.351 141.725C160.95 142.322 158.201 143.024 155.78 143.024Z" fill="#80B3FF"/>
<path opacity="0.5" d="M155.78 143.024C153.353 143.024 150.611 142.322 148.19 141.712C146.439 141.26 143.795 140.584 143.421 140.971C143.421 140.971 143.349 141.148 143.598 141.745C143.639 141.825 143.663 141.913 143.668 142.003C143.674 142.093 143.66 142.184 143.629 142.268C143.598 142.353 143.55 142.43 143.487 142.495C143.425 142.561 143.35 142.612 143.267 142.647C143.183 142.682 143.094 142.699 143.004 142.698C142.914 142.696 142.825 142.677 142.743 142.639C142.66 142.602 142.587 142.548 142.526 142.481C142.466 142.414 142.42 142.336 142.391 142.25C142.247 141.902 141.801 140.846 142.431 140.112C143.303 139.101 145.376 139.633 148.518 140.44C150.86 141.043 153.517 141.752 155.78 141.752C158.044 141.752 160.694 141.096 163.042 140.44C166.184 139.633 168.29 139.128 169.13 140.112C169.786 140.846 169.314 141.902 169.163 142.25C169.097 142.413 168.97 142.543 168.809 142.612C168.648 142.681 168.466 142.683 168.303 142.617C168.141 142.552 168.011 142.425 167.942 142.264C167.873 142.103 167.871 141.921 167.936 141.758C168.192 141.161 168.113 140.977 168.113 140.977C167.739 140.597 165.096 141.273 163.351 141.725C160.95 142.322 158.201 143.024 155.78 143.024Z" fill="white"/>
<path d="M155.78 142.368C149.778 142.368 141.217 137.776 142.995 141.988C144.773 146.199 149.666 148.377 155.78 148.377C161.894 148.377 166.781 146.212 168.559 141.988C170.337 137.763 161.783 142.368 155.78 142.368Z" fill="#80B3FF"/>
<path d="M120.54 91.7053C120.592 91.9956 120.746 92.2582 120.973 92.4466L122.941 94.1128C123.128 94.269 123.354 94.3701 123.595 94.4049C123.836 94.4396 124.082 94.4066 124.305 94.3096L126.273 93.424C128.198 92.565 129.912 91.2981 131.298 89.711L131.764 89.1862C131.951 88.9715 132.094 88.7217 132.183 88.4513C132.273 88.181 132.307 87.8955 132.285 87.6115C132.263 87.3276 132.185 87.0509 132.055 86.7975C131.925 86.5442 131.746 86.3192 131.528 86.1358L129.507 84.4368C129.121 84.1086 128.63 83.9284 128.123 83.9284C127.616 83.9284 127.126 84.1086 126.739 84.4368L124.384 86.4573C124.384 86.4573 120.094 89.0485 120.54 91.7053Z" fill="#FFB573"/>
<path d="M119.267 92.7418C119.338 91.7348 119.559 90.7442 119.923 89.8029C121.59 89.4946 125.762 92.9451 126.313 94.3949C125.959 95.1952 123.951 96.7958 123.951 96.7958C122.672 95.4051 120.264 93.7323 119.267 92.7418Z" fill="#FFF2CF"/>
<path d="M102.139 81.9506C102.716 83.9186 103.346 85.8866 103.983 87.8546C104.619 89.8226 105.295 91.7906 105.951 93.7586C106.607 95.7266 107.341 97.6027 108.089 99.4067C108.463 100.312 108.85 101.184 109.237 101.959C109.421 102.346 109.611 102.68 109.768 102.969L109.867 103.133L109.913 103.212C109.865 103.15 109.804 103.098 109.736 103.061L109.329 102.726C109.162 102.635 108.983 102.569 108.798 102.529C108.611 102.492 108.42 102.492 108.233 102.529C108.037 102.608 108.378 102.569 108.824 102.3C110.052 101.492 111.157 100.511 112.104 99.387C113.28 98.0476 114.376 96.6391 115.384 95.169C115.909 94.4211 116.427 93.647 116.919 92.8664L117.654 91.6922L118.31 90.5507L126.667 94.8803C126.392 95.4379 126.168 95.8709 125.913 96.3563L125.237 97.8061C124.725 98.7289 124.192 99.6451 123.636 100.555C122.506 102.424 121.266 104.224 119.923 105.947C119.199 106.863 118.426 107.739 117.608 108.571C116.684 109.525 115.669 110.387 114.577 111.143C113.126 112.17 111.462 112.859 109.709 113.156C108.539 113.332 107.345 113.283 106.193 113.012C105.041 112.731 103.953 112.235 102.985 111.549H102.953C102.828 111.457 102.69 111.346 102.572 111.241C102.323 111.011 102.08 110.769 101.844 110.519C101.608 110.27 101.509 110.132 101.345 109.929L101.116 109.64L100.939 109.398L100.591 108.899C100.191 108.289 99.8432 107.712 99.5349 107.167C98.9182 106.072 98.4 105.029 97.908 103.999C96.924 101.939 96.0581 99.9184 95.2184 97.8979C94.3787 95.8774 93.5915 93.8635 92.8174 91.843C92.0434 89.8226 91.3021 87.8218 90.5608 85.7291L102.139 81.9506Z" fill="#80B3FF"/>
<path opacity="0.6" d="M102.139 81.9506C102.716 83.9186 103.346 85.8866 103.983 87.8546C104.619 89.8226 105.295 91.7906 105.951 93.7586C106.607 95.7266 107.341 97.6027 108.089 99.4067C108.463 100.312 108.85 101.184 109.237 101.959C109.421 102.346 109.611 102.68 109.768 102.969L109.867 103.133L109.913 103.212C109.865 103.15 109.804 103.098 109.736 103.061L109.329 102.726C109.162 102.635 108.983 102.569 108.798 102.529C108.611 102.492 108.42 102.492 108.233 102.529C108.037 102.608 108.378 102.569 108.824 102.3C110.052 101.492 111.157 100.511 112.104 99.387C113.28 98.0476 114.376 96.6391 115.384 95.169C115.909 94.4211 116.427 93.647 116.919 92.8664L117.654 91.6922L118.31 90.5507L126.667 94.8803C126.392 95.4379 126.168 95.8709 125.913 96.3563L125.237 97.8061C124.725 98.7289 124.192 99.6451 123.636 100.555C122.506 102.424 121.266 104.224 119.923 105.947C119.199 106.863 118.426 107.739 117.608 108.571C116.684 109.525 115.669 110.387 114.577 111.143C113.126 112.17 111.462 112.859 109.709 113.156C108.539 113.332 107.345 113.283 106.193 113.012C105.041 112.731 103.953 112.235 102.985 111.549H102.953C102.828 111.457 102.69 111.346 102.572 111.241C102.323 111.011 102.08 110.769 101.844 110.519C101.608 110.27 101.509 110.132 101.345 109.929L101.116 109.64L100.939 109.398L100.591 108.899C100.191 108.289 99.8432 107.712 99.5349 107.167C98.9182 106.072 98.4 105.029 97.908 103.999C96.924 101.939 96.0581 99.9184 95.2184 97.8979C94.3787 95.8774 93.5915 93.8635 92.8174 91.843C92.0434 89.8226 91.3021 87.8218 90.5608 85.7291L102.139 81.9506Z" fill="white"/>
<path d="M89.6358 182.666C81.9081 158.171 75.9385 128.363 75.9385 128.363L99.1675 126.08C99.1675 126.08 100.689 164.429 102.139 181.413C103.648 199.073 109.552 240.086 109.552 240.086L102.487 240.663C102.487 240.663 90.3509 204.59 89.6358 182.666Z" fill="#80B3FF"/>
<path opacity="0.2" d="M84.9979 148.377L81.7638 154.137C83.4169 160.861 85.3521 168.254 87.4644 175.49C87.1692 164.134 85.9819 151.014 84.9979 148.377Z" fill="black"/>
<path d="M119.005 241.726C119.005 241.726 109.014 240.899 108.056 239.482L102.684 240.296L103.576 245.957L106.856 245.459L107.289 244.862L108.201 245.255C110.884 244.855 117.982 243.681 119.576 242.821C119.583 242.605 119.534 242.391 119.434 242.199C119.334 242.007 119.186 241.844 119.005 241.726Z" fill="#263238"/>
<path d="M67.0497 181.033C67.4696 155.849 65.8492 139.016 68.0075 126.585L89.2356 126.263C89.2356 126.263 84.027 166.22 81.4292 182.856C78.8315 199.493 75.5252 240.584 75.5252 240.584H68.9652C68.9652 240.584 63.258 200.509 67.0497 181.033Z" fill="#80B3FF"/>
<path d="M82 244.094C82 244.094 75.7024 241.792 74.8693 240.25H69.431L69.8443 245.983H74.2789L74.7578 245.452L75.6434 245.983C78.3526 245.983 80.8389 245.878 82.5051 245.268C82.525 245.046 82.4892 244.822 82.401 244.617C82.3128 244.412 82.175 244.233 82 244.094Z" fill="#263238"/>
<path d="M68.9587 76.3549C76.4634 75.4234 87.1955 75.5086 94.3853 76.7485C96.1816 77.0769 97.8296 77.9606 99.0971 79.2752C100.365 80.5898 101.188 82.2689 101.45 84.076C102.966 94.9394 101.66 113.924 100.696 133.033C84.296 138.655 66.9317 132.955 66.9317 132.955C66.3347 129.104 67.6795 116.469 68.5848 109.726C67.2269 102.765 64.3536 94.7885 62.4512 85.5389C62.2199 84.5036 62.2084 83.4313 62.4174 82.3913C62.6264 81.3513 63.0513 80.3667 63.6646 79.5012C64.2779 78.6356 65.066 77.9084 65.9779 77.3664C66.8898 76.8245 67.9053 76.4799 68.9587 76.3549Z" fill="white"/>
<path d="M75.6564 62.0147L84.9323 69.0208C83.8302 71.9662 83.476 75.0298 88.3041 76.204C89.5112 77.7981 87.3857 79.6283 85.3849 80.4614C82.164 80.0613 77.6179 78.992 75.6564 76.2893C76.2731 74.1901 76.483 66.364 75.6564 62.0147Z" fill="#FFB573"/>
<path d="M87.425 78.6902C87.0684 79.7168 86.4593 80.6372 85.6538 81.3667C84.3418 81.3667 82.446 79.8973 82.446 79.8973C82.446 79.8973 83.1807 77.8309 84.2172 77.4045C86.8609 78.0539 87.425 78.6902 87.425 78.6902Z" fill="#263238"/>
<path d="M84.4534 80.5861C84.6307 80.3883 84.8564 80.2402 85.1083 80.1562C85.3602 80.0723 85.6296 80.0554 85.8901 80.1072C87.6022 83.3085 90.2853 103.021 91.3349 108.755C90.8822 112.232 90.2066 113.425 89.3013 117.401C88.4747 114.324 87.2939 112.5 85.9819 109.07C86.3558 104.97 84.9914 85.8538 84.4534 80.5861Z" fill="#263238"/>
<path opacity="0.2" d="M84.9389 69.0208L84.8602 68.9618L79.6778 65.0258C79.1595 65.0258 78.1624 64.993 78.5888 68.6272C78.8512 70.9429 82.3608 73.4423 84.6699 73.908C83.9155 72.5173 84.2829 70.7723 84.9258 69.0602L84.9389 69.0208Z" fill="black"/>
<path d="M91.184 53.4933C93.047 56.3928 91.7416 60.8602 90.3115 62.2902C87.7072 57.4752 88.3304 52.1747 91.184 53.4933Z" fill="#263238"/>
<path d="M76.4043 56.4781C76.2599 61.8901 75.8991 65.0586 78.3723 68.0368C82.1115 72.5238 88.9929 70.5821 90.7575 65.3013C92.3451 60.5518 92.3123 52.4896 87.2086 49.9312C86.0802 49.3667 84.8272 49.0974 83.5665 49.1484C82.3059 49.1994 81.0787 49.5691 79.9997 50.223C78.9206 50.8768 78.0249 51.7935 77.3961 52.8873C76.7674 53.9812 76.4261 55.2166 76.4043 56.4781Z" fill="#FFB573"/>
<path d="M77.7425 60.7421C80.419 60.4928 81.1865 55.8483 79.5859 52.1222C82.9512 51.2629 86.2115 52.6733 88.4616 53.5064C90.7116 54.3395 94.0507 54.4642 94.0507 51.6762C92.8961 52.3322 90.6329 51.2957 90.3968 50.1411C92.8371 50.456 93.0864 46.6381 91.7088 46.0214C91.7088 47.9894 85.1947 46.7627 81.7704 45.5426C75.2891 43.2269 71.5368 46.9661 73.5113 50.397C68.4339 52.8898 71.5433 57.7442 75.5712 61.549C76.258 61.1894 76.9876 60.9183 77.7425 60.7421Z" fill="#263238"/>
<path d="M79.3759 58.5051C78.9626 62.159 89.4127 64.0746 91.1839 63.9237C91.735 67.0922 93.9063 69.1717 91.7153 71.1397C89.5242 73.1077 81.731 73.6128 78.9758 69.6112C76.2206 65.6096 78.3526 58.7872 78.3526 58.7872L79.3759 58.5051Z" fill="#263238"/>
<path d="M86.9527 65.2094C87.2322 65.2319 87.513 65.2319 87.7924 65.2094C87.8147 65.2064 87.836 65.1981 87.8546 65.1854C87.8732 65.1726 87.8885 65.1556 87.8994 65.1358C87.9102 65.1161 87.9163 65.094 87.9171 65.0715C87.9178 65.049 87.9133 65.0266 87.9039 65.0061C87.8959 64.9666 87.8731 64.9316 87.8402 64.9085C87.8072 64.8853 87.7667 64.8756 87.7268 64.8814C87.0968 64.9614 86.4569 64.8992 85.8541 64.6994C85.2513 64.4996 84.7009 64.1673 84.2434 63.7269C84.2153 63.6996 84.1776 63.6844 84.1385 63.6844C84.0993 63.6844 84.0617 63.6996 84.0335 63.7269C84.0063 63.755 83.991 63.7927 83.991 63.8318C83.991 63.871 84.0063 63.9087 84.0335 63.9368C84.8193 64.7021 85.8572 65.1546 86.9527 65.2094Z" fill="#FFB573"/>
<path d="M75.0989 50.3117C72.6258 50.7184 71.8189 48.265 72.7438 46.3757C69.267 47.9501 72.0091 52.1222 75.0989 50.3117Z" fill="#263238"/>
<path d="M73.9049 60.2566C74.0542 60.8538 74.3208 61.4154 74.689 61.9086C75.0573 62.4019 75.5199 62.8171 76.05 63.1299C77.4801 63.963 78.615 62.7888 78.5822 61.2275C78.5428 59.8237 77.7622 57.6983 76.155 57.508C75.8047 57.4713 75.4507 57.5222 75.125 57.6562C74.7992 57.7901 74.5118 58.003 74.2887 58.2755C74.0656 58.5481 73.9137 58.8718 73.8467 59.2176C73.7797 59.5634 73.7997 59.9205 73.9049 60.2566Z" fill="#FFB573"/>
<path d="M84.8142 58.1115C84.7748 58.551 84.9782 58.925 85.2668 58.9446C85.5555 58.9643 85.8179 58.6298 85.8572 58.1968C85.8966 57.7638 85.6932 57.3834 85.4046 57.3571C85.116 57.3309 84.8536 57.672 84.8142 58.1115Z" fill="#263238"/>
<path d="M90.0098 58.879C89.9704 59.3186 90.1737 59.6925 90.4624 59.7122C90.751 59.7318 91.0134 59.3973 91.0528 58.9578C91.0922 58.5182 90.8888 58.1443 90.6002 58.1246C90.3115 58.105 90.0491 58.4461 90.0098 58.879Z" fill="#263238"/>
<path d="M88.5599 59.2267C88.9627 60.6154 89.5589 61.9404 90.3311 63.1627C90.0125 63.3535 89.6563 63.4729 89.2871 63.5125C88.9178 63.5521 88.5444 63.5111 88.1926 63.3923L88.5599 59.2267Z" fill="#ED893E"/>
<path d="M82.7478 56.419C82.7033 56.4183 82.66 56.4046 82.6231 56.3797C82.5658 56.3432 82.5249 56.2858 82.509 56.2198C82.4931 56.1537 82.5034 56.084 82.5379 56.0254C82.7435 55.6638 83.0321 55.3562 83.38 55.1281C83.7279 54.9 84.125 54.7579 84.5387 54.7134C84.6003 54.7233 84.6564 54.7548 84.6969 54.8023C84.7375 54.8498 84.7597 54.9101 84.7597 54.9726C84.7597 55.035 84.7375 55.0954 84.6969 55.1429C84.6564 55.1904 84.6003 55.2218 84.5387 55.2317C84.2136 55.267 83.9015 55.3788 83.6279 55.5577C83.3543 55.7367 83.1269 55.9779 82.9643 56.2616C82.9476 56.3062 82.9182 56.3449 82.8797 56.3729C82.8412 56.4009 82.7953 56.4169 82.7478 56.419Z" fill="#263238"/>
<path d="M91.8399 57.2718C91.7974 57.2727 91.7554 57.263 91.7176 57.2435C91.6798 57.224 91.6474 57.1954 91.6235 57.1603C91.4516 56.885 91.2143 56.6565 90.9328 56.4952C90.6512 56.3338 90.3341 56.2445 90.0097 56.2354C89.9756 56.2362 89.9416 56.2303 89.9098 56.2178C89.878 56.2053 89.849 56.1866 89.8245 56.1628C89.8001 56.1389 89.7806 56.1104 89.7674 56.079C89.7541 56.0475 89.7473 56.0137 89.7473 55.9795C89.7455 55.9457 89.7506 55.9119 89.7624 55.8801C89.7741 55.8483 89.7922 55.8193 89.8155 55.7947C89.8388 55.7702 89.8669 55.7506 89.8981 55.7373C89.9292 55.7239 89.9627 55.7171 89.9966 55.7171C90.4061 55.7286 90.8067 55.839 91.1642 56.0389C91.5218 56.2389 91.8256 56.5223 92.0499 56.8651C92.0697 56.893 92.0838 56.9245 92.0912 56.9579C92.0986 56.9912 92.0993 57.0257 92.0932 57.0594C92.0871 57.093 92.0743 57.1251 92.0556 57.1537C92.0369 57.1823 92.0126 57.2068 91.9843 57.2259C91.9425 57.2567 91.8918 57.2728 91.8399 57.2718Z" fill="#263238"/>
<path d="M75.8532 74.8461C75.8532 74.8461 73.2292 75.5546 73.2292 75.5611C73.2292 76.2171 73.9574 77.4635 75.7942 79.0707C77.5129 80.5664 81.2325 83.151 82.8921 83.151C82.6888 81.183 83.2923 78.3622 84.2041 77.4045C82.0459 77.516 77.9459 76.263 75.8532 74.8461Z" fill="#FFF2CF"/>
<path d="M84.2173 77.4045C86.0606 78.1261 88.0942 80.8616 88.6584 82.7246C89.6293 82.2064 90.6658 78.4738 90.095 76.0662C89.1974 75.5793 88.1687 75.3887 87.1562 75.5218C87.0315 76.3221 86.4542 77.2864 84.2173 77.4045Z" fill="#FFF2CF"/>
<path d="M75.9188 240.775L68.6372 240.978L67.8763 236.845L76.4043 237.357L75.9188 240.775Z" fill="#80B3FF"/>
<path opacity="0.2" d="M75.9188 240.775L68.6372 240.978L67.8763 236.845L76.4043 237.357L75.9188 240.775Z" fill="black"/>
<path d="M109.88 240.033L102.087 241.24L100.768 237.796L109.408 235.842L109.88 240.033Z" fill="#80B3FF"/>
<path opacity="0.2" d="M109.88 240.033L102.087 241.24L100.768 237.796L109.408 235.842L109.88 240.033Z" fill="black"/>
<path d="M71.9106 74.8461C78.4706 83.6365 81.1799 134.929 77.4932 179.15C67.8762 180.823 58.1609 167.106 58.1609 167.106C58.1609 167.106 64.5438 122.629 62.871 108.414C61.1982 94.1981 59.3351 85.8866 59.7943 81.6619C60.2535 77.4373 67.1612 75.5546 71.9106 74.8461Z" fill="#80B3FF"/>
<path opacity="0.7" d="M71.9106 74.8461C78.4706 83.6365 81.1799 134.929 77.4932 179.15C67.8762 180.823 58.1609 167.106 58.1609 167.106C58.1609 167.106 64.5438 122.629 62.871 108.414C61.1982 94.1981 59.3351 85.8866 59.7943 81.6619C60.2535 77.4373 67.1612 75.5546 71.9106 74.8461Z" fill="white"/>
<path d="M90.259 75.5021C94.5886 90.7803 99.9547 144.48 97.9933 176.611C101.641 173.607 105.819 166.699 105.728 164.2C105.642 161.871 104.055 120.038 103.451 113.806C103.104 103.664 103.359 88.2744 102.139 82.3507C100.919 76.427 94.7395 75.1085 90.259 75.5021Z" fill="#80B3FF"/>
<path opacity="0.7" d="M90.259 75.5021C94.5886 90.7803 99.9547 144.48 97.9933 176.611C101.641 173.607 105.819 166.699 105.728 164.2C105.642 161.871 104.055 120.038 103.451 113.806C103.104 103.664 103.359 88.2744 102.139 82.3507C100.919 76.427 94.7395 75.1085 90.259 75.5021Z" fill="white"/>
<path d="M87.4841 125.358L68.8799 124.978C68.7072 124.978 68.5366 124.939 68.3809 124.865C68.2252 124.79 68.0883 124.681 67.9805 124.546C67.8726 124.411 67.7967 124.254 67.7582 124.085C67.7197 123.917 67.7197 123.742 67.7582 123.574L72.6519 97.255C72.7374 96.8847 72.9449 96.5539 73.2413 96.3159C73.5376 96.0779 73.9053 95.9466 74.2854 95.943L92.883 96.3432C93.0557 96.3428 93.2263 96.3814 93.382 96.4561C93.5378 96.5308 93.6746 96.6396 93.7825 96.7746C93.8903 96.9095 93.9663 97.067 94.0048 97.2354C94.0432 97.4038 94.0432 97.5787 94.0047 97.747L89.1175 124.046C89.03 124.415 88.8219 124.745 88.526 124.982C88.2302 125.22 87.8635 125.352 87.4841 125.358Z" fill="#80B3FF"/>
<path d="M81.5932 113.347C81.4511 113.087 81.4068 112.784 81.4686 112.494L81.954 109.975C82.0029 109.736 82.1171 109.516 82.284 109.339C82.4508 109.162 82.6636 109.034 82.8987 108.971L84.9979 108.433C87.0379 107.903 89.1688 107.822 91.243 108.197L91.899 108.322C92.1797 108.372 92.4475 108.478 92.6867 108.633C92.9258 108.788 93.1316 108.99 93.2917 109.226C93.4518 109.462 93.5632 109.727 93.6192 110.007C93.6752 110.287 93.6747 110.575 93.6177 110.854L93.0995 113.439C92.9988 113.937 92.7246 114.383 92.3258 114.697C91.9269 115.012 91.4293 115.175 90.9216 115.157L87.8253 115.046C87.8253 115.046 82.8987 115.702 81.5932 113.347Z" fill="#FFB573"/>
<path d="M81.9999 108.243C82.9404 107.876 83.9315 107.655 84.9388 107.587C85.9097 108.971 84.5059 114.2 83.3972 115.321C82.5247 115.321 80.2353 114.167 80.2353 114.167C81.0159 112.422 81.5407 109.562 81.9999 108.243Z" fill="#FFF2CF"/>
<path d="M70.9988 85.224C70.2641 87.1067 69.5294 89.0878 68.8209 91.0296C68.1124 92.9714 67.4302 94.9656 66.7808 96.8746C66.1313 98.7835 65.5212 100.765 65.003 102.654C64.7471 103.592 64.511 104.524 64.347 105.363C64.2617 105.79 64.1961 106.17 64.1502 106.492V106.682V106.774V106.806C64.145 106.728 64.1296 106.651 64.1043 106.577L63.9796 106.065C63.9373 105.943 63.8703 105.832 63.7828 105.737C63.7172 105.678 63.7107 105.737 63.7828 105.79C64.1975 106.102 64.6638 106.34 65.1604 106.492C66.8312 107.007 68.558 107.32 70.3035 107.423C72.2921 107.567 74.2872 107.602 76.2796 107.528C77.2964 107.528 78.3198 107.436 79.3431 107.357L80.8716 107.226L82.3279 107.075L83.8302 116.364C83.1742 116.482 82.6428 116.568 82.0524 116.653L80.3403 116.896C79.1988 117.047 78.0508 117.178 76.8963 117.283C74.5436 117.502 72.1806 117.592 69.818 117.552C67.2098 117.53 64.6142 117.187 62.0903 116.528C60.4813 116.1 58.9541 115.408 57.5705 114.482C56.687 113.872 55.8979 113.136 55.2286 112.297C54.4729 111.34 53.9033 110.25 53.5492 109.083V109.043C53.5027 108.886 53.4655 108.726 53.4377 108.564C53.3852 108.23 53.3393 107.908 53.3065 107.548C53.2737 107.187 53.3065 107.036 53.3065 106.774V106.118L53.3393 105.514C53.3983 104.786 53.4771 104.117 53.5689 103.5C53.7591 102.254 53.9822 101.112 54.2249 99.9971C54.7104 97.7667 55.2679 95.6413 55.8452 93.529C56.4225 91.4166 57.0391 89.3437 57.6689 87.2773C58.2987 85.2109 58.9416 83.1707 59.6369 81.0715L70.9988 85.224Z" fill="#80B3FF"/>
<path opacity="0.7" d="M70.9988 85.224C70.2641 87.1067 69.5294 89.0878 68.8209 91.0296C68.1124 92.9714 67.4302 94.9656 66.7808 96.8746C66.1313 98.7835 65.5212 100.765 65.003 102.654C64.7471 103.592 64.511 104.524 64.347 105.363C64.2617 105.79 64.1961 106.17 64.1502 106.492V106.682V106.774V106.806C64.145 106.728 64.1296 106.651 64.1043 106.577L63.9796 106.065C63.9373 105.943 63.8703 105.832 63.7828 105.737C63.7172 105.678 63.7107 105.737 63.7828 105.79C64.1975 106.102 64.6638 106.34 65.1604 106.492C66.8312 107.007 68.558 107.32 70.3035 107.423C72.2921 107.567 74.2872 107.602 76.2796 107.528C77.2964 107.528 78.3198 107.436 79.3431 107.357L80.8716 107.226L82.3279 107.075L83.8302 116.364C83.1742 116.482 82.6428 116.568 82.0524 116.653L80.3403 116.896C79.1988 117.047 78.0508 117.178 76.8963 117.283C74.5436 117.502 72.1806 117.592 69.818 117.552C67.2098 117.53 64.6142 117.187 62.0903 116.528C60.4813 116.1 58.9541 115.408 57.5705 114.482C56.687 113.872 55.8979 113.136 55.2286 112.297C54.4729 111.34 53.9033 110.25 53.5492 109.083V109.043C53.5027 108.886 53.4655 108.726 53.4377 108.564C53.3852 108.23 53.3393 107.908 53.3065 107.548C53.2737 107.187 53.3065 107.036 53.3065 106.774V106.118L53.3393 105.514C53.3983 104.786 53.4771 104.117 53.5689 103.5C53.7591 102.254 53.9822 101.112 54.2249 99.9971C54.7104 97.7667 55.2679 95.6413 55.8452 93.529C56.4225 91.4166 57.0391 89.3437 57.6689 87.2773C58.2987 85.2109 58.9416 83.1707 59.6369 81.0715L70.9988 85.224Z" fill="white"/>
<path d="M212.124 233.559C201.868 239.08 190.402 241.969 178.753 241.969H176.464C175.813 241.969 175.189 242.227 174.729 242.687C174.269 243.147 174.011 243.771 174.011 244.422C174.011 245.073 174.269 245.697 174.729 246.157C175.189 246.617 175.813 246.876 176.464 246.876H250.061C250.527 246.876 250.988 246.784 251.419 246.605C251.849 246.427 252.241 246.166 252.57 245.836C252.9 245.507 253.161 245.115 253.34 244.685C253.518 244.254 253.61 243.793 253.61 243.327V236.688C253.61 236.222 253.518 235.76 253.34 235.33C253.161 234.899 252.9 234.508 252.57 234.178C252.241 233.849 251.849 233.587 251.419 233.409C250.988 233.231 250.527 233.139 250.061 233.139H213.81C213.222 233.139 212.643 233.283 212.124 233.559Z" fill="#263238"/>
<path d="M238.784 236.688H223.794C222.857 236.687 221.94 236.409 221.16 235.888C220.381 235.368 219.772 234.628 219.412 233.762L211.383 214.43C211.086 213.709 210.971 212.926 211.048 212.15C211.124 211.374 211.391 210.629 211.824 209.981C212.257 209.333 212.844 208.801 213.531 208.433C214.218 208.065 214.985 207.871 215.765 207.87H230.741C231.68 207.87 232.598 208.148 233.379 208.669C234.16 209.189 234.769 209.929 235.13 210.796L243.153 230.134C243.45 230.854 243.566 231.635 243.489 232.41C243.413 233.184 243.147 233.928 242.716 234.576C242.284 235.223 241.699 235.755 241.014 236.123C240.328 236.492 239.562 236.685 238.784 236.688Z" fill="#FFF2CF"/>
<path opacity="0.2" d="M236.928 236.032H223.696C223.106 236.034 222.53 235.86 222.039 235.533C221.548 235.206 221.166 234.74 220.941 234.195L212.334 213.465C212.147 213.012 212.074 212.52 212.122 212.031C212.17 211.543 212.337 211.074 212.61 210.667C212.882 210.259 213.251 209.924 213.683 209.692C214.116 209.461 214.599 209.34 215.089 209.339H228.295C228.885 209.339 229.462 209.514 229.952 209.842C230.443 210.17 230.825 210.637 231.05 211.183L239.657 231.906C239.843 232.357 239.917 232.847 239.87 233.333C239.823 233.819 239.658 234.286 239.388 234.694C239.119 235.101 238.754 235.436 238.325 235.669C237.896 235.903 237.416 236.027 236.928 236.032Z" fill="black"/>
<path d="M234.743 197.407H208.661C206.11 197.407 204.042 199.474 204.042 202.025V205.757C204.042 208.308 206.11 210.376 208.661 210.376H234.743C237.294 210.376 239.361 208.308 239.361 205.757V202.025C239.361 199.474 237.294 197.407 234.743 197.407Z" fill="#263238"/>
<path d="M201.589 167.539H251.871V189.751C251.873 191.202 251.589 192.638 251.035 193.979C250.48 195.32 249.667 196.538 248.642 197.564C247.616 198.59 246.399 199.404 245.058 199.959C243.718 200.514 242.281 200.799 240.831 200.798H201.589V167.539Z" fill="#FFF2CF"/>
<path opacity="0.2" d="M202.619 172.164H242.72V189.876C242.72 192.211 241.793 194.45 240.142 196.101C238.491 197.752 236.251 198.679 233.917 198.679H202.619V172.164Z" fill="black"/>
<path opacity="0.6" d="M207.408 246.39H176.792C176.281 246.382 175.794 246.175 175.433 245.814C175.072 245.453 174.865 244.965 174.857 244.455C174.865 243.944 175.072 243.457 175.433 243.096C175.794 242.735 176.281 242.528 176.792 242.52H207.408C207.918 242.528 208.405 242.735 208.767 243.096C209.128 243.457 209.334 243.944 209.343 244.455C209.334 244.965 209.128 245.453 208.767 245.814C208.405 246.175 207.918 246.382 207.408 246.39Z" fill="black"/>
<path d="M167.451 171.278C167.452 171.547 167.373 171.81 167.225 172.034C167.076 172.258 166.865 172.434 166.617 172.537C166.369 172.641 166.096 172.669 165.832 172.617C165.568 172.566 165.325 172.437 165.135 172.247C164.944 172.058 164.814 171.816 164.761 171.552C164.708 171.288 164.735 171.015 164.837 170.767C164.94 170.518 165.114 170.306 165.338 170.156C165.561 170.007 165.824 169.927 166.093 169.927C166.271 169.926 166.447 169.96 166.612 170.028C166.777 170.095 166.926 170.195 167.052 170.32C167.179 170.446 167.279 170.595 167.347 170.759C167.415 170.924 167.451 171.1 167.451 171.278Z" fill="#263238"/>
<path d="M184.756 213.183C186.307 213.183 187.564 211.926 187.564 210.376C187.564 208.825 186.307 207.568 184.756 207.568C183.205 207.568 181.948 208.825 181.948 210.376C181.948 211.926 183.205 213.183 184.756 213.183Z" fill="#263238"/>
<path d="M190.181 229.341C190.045 229.374 189.901 229.353 189.779 229.284C189.657 229.214 189.566 229.101 189.525 228.967L173.086 171.468C173.053 171.332 173.073 171.188 173.143 171.066C173.212 170.944 173.325 170.854 173.46 170.812C173.596 170.779 173.74 170.8 173.862 170.869C173.984 170.939 174.074 171.052 174.116 171.186L190.561 228.685C190.596 228.822 190.575 228.967 190.504 229.09C190.433 229.212 190.317 229.302 190.181 229.341Z" fill="#FFF2CF"/>
<path d="M165.87 171.278C165.871 171.132 165.93 170.993 166.033 170.89C166.136 170.787 166.275 170.729 166.421 170.727H173.584C173.73 170.729 173.869 170.787 173.972 170.89C174.075 170.993 174.134 171.132 174.135 171.278C174.135 171.425 174.077 171.566 173.974 171.67C173.871 171.774 173.731 171.834 173.584 171.836H166.421C166.274 171.834 166.134 171.774 166.031 171.67C165.927 171.566 165.87 171.425 165.87 171.278Z" fill="#FFF2CF"/>
<path d="M166.066 175.476H166.132C166.418 175.476 166.65 175.244 166.65 174.958V168.759C166.65 168.473 166.418 168.241 166.132 168.241H166.066C165.78 168.241 165.548 168.473 165.548 168.759V174.958C165.548 175.244 165.78 175.476 166.066 175.476Z" fill="#FFF2CF"/>
<path d="M154.521 170.911C153.895 170.68 153.315 170.341 152.809 169.907C152.631 169.744 152.502 169.534 152.436 169.302C152.37 169.07 152.369 168.824 152.433 168.592C152.497 168.359 152.625 168.149 152.801 167.984C152.977 167.819 153.196 167.706 153.432 167.657C157.368 166.811 165.706 164.902 169.215 163.564C168.074 166.666 160.779 170.57 158.404 171.035C157.121 171.335 155.782 171.292 154.521 170.911Z" fill="black"/>
<path d="M154.521 170.911C157.322 171.698 160.077 169.382 160.116 166.194C160.124 165.838 160.236 165.491 160.439 165.199C160.642 164.906 160.927 164.679 161.258 164.548C164.112 163.4 170.212 161.648 173.171 160.821C173.391 160.759 173.623 160.749 173.848 160.79C174.074 160.831 174.287 160.923 174.471 161.059C174.655 161.195 174.806 161.372 174.911 161.575C175.017 161.778 175.074 162.003 175.08 162.232C175.113 164.2 174.555 167.06 171.144 168.011C159.959 171.134 157.033 171.868 154.521 170.911Z" fill="#263238"/>
<path d="M300.802 136.595L300.146 136.497C300.252 135.679 300.183 134.849 299.944 134.06C299.704 133.271 299.299 132.542 298.757 131.922C298.214 131.301 297.545 130.803 296.795 130.461C296.045 130.119 295.231 129.94 294.406 129.937H283.254V129.281H294.406C295.328 129.285 296.238 129.485 297.076 129.869C297.914 130.253 298.661 130.811 299.266 131.507C299.871 132.202 300.32 133.019 300.584 133.902C300.848 134.785 300.92 135.715 300.796 136.628L300.802 136.595Z" fill="#80B3FF"/>
<path d="M296.814 142.244L296.361 141.765L298.795 139.462L299.287 139.888L299.228 139.961L296.814 142.244Z" fill="#80B3FF"/>
<path d="M226.038 182.719H176.759C172.082 182.719 170.921 176.218 175.31 174.597L194.045 167.683C203.326 164.258 211.929 159.222 219.458 152.805L240.903 134.542C243.25 132.544 246.231 131.447 249.313 131.446H294.413C295.226 131.445 296.023 131.678 296.707 132.118C297.392 132.557 297.936 133.183 298.275 133.923C298.613 134.662 298.732 135.484 298.618 136.289C298.503 137.094 298.159 137.849 297.627 138.465L279.515 155.521C274.071 160.159 268.108 164.15 261.744 167.414L239.086 179.039C233.49 181.912 232.336 182.719 226.038 182.719Z" fill="#80B3FF"/>
<path opacity="0.2" d="M270.803 160.487C270.744 160.488 270.686 160.472 270.635 160.442C270.584 160.412 270.543 160.369 270.515 160.316L269.859 159.09C269.214 157.925 268.269 156.955 267.122 156.279C265.976 155.603 264.669 155.246 263.338 155.245H219.209C219.122 155.245 219.039 155.211 218.977 155.149C218.916 155.088 218.881 155.004 218.881 154.917C218.881 154.83 218.916 154.747 218.977 154.686C219.039 154.624 219.122 154.589 219.209 154.589H263.318C264.767 154.588 266.189 154.976 267.437 155.712C268.684 156.448 269.711 157.506 270.41 158.775L271.066 160.001C271.106 160.078 271.115 160.168 271.09 160.251C271.066 160.334 271.01 160.405 270.935 160.448C270.894 160.469 270.849 160.483 270.803 160.487Z" fill="black"/>
<path opacity="0.2" d="M223.447 175.299H176.595C172.462 176.611 173.558 182.01 177.96 182.01H223.447C225.828 182.01 227.625 180.121 227.206 178.074C226.992 177.251 226.502 176.527 225.817 176.021C225.133 175.516 224.296 175.261 223.447 175.299Z" fill="black"/>
<path d="M192.589 212.422H146.793C145.691 212.423 144.616 212.089 143.708 211.465C142.8 210.84 142.104 209.955 141.71 208.926C141.317 207.896 141.246 206.772 141.505 205.701C141.765 204.631 142.344 203.664 143.166 202.93L166.434 182.115C168.92 179.887 172.142 178.656 175.48 178.658H221.275C222.377 178.657 223.453 178.992 224.361 179.616C225.268 180.24 225.965 181.126 226.358 182.155C226.752 183.184 226.823 184.308 226.563 185.379C226.303 186.45 225.724 187.416 224.903 188.15L201.635 208.965C199.149 211.194 195.927 212.425 192.589 212.422Z" fill="#80B3FF"/>
<path opacity="0.2" d="M188.338 211.616H146.354C145.358 211.612 144.404 211.215 143.7 210.511C142.995 209.807 142.598 208.852 142.595 207.857C142.598 206.861 142.995 205.907 143.7 205.203C144.404 204.498 145.358 204.101 146.354 204.098H188.338C189.335 204.099 190.29 204.496 190.996 205.2C191.702 205.905 192.1 206.86 192.103 207.857C192.1 208.854 191.702 209.809 190.996 210.513C190.29 211.217 189.335 211.614 188.338 211.616Z" fill="black"/>
<path d="M227.245 102.05L225.244 103.533C225.861 109.988 232.29 112.192 234.028 107.771C235.504 104.084 231.693 102.116 227.245 102.05Z" fill="#263238"/>
<path d="M229.075 102.109C228.931 104.012 227.888 106.544 224.733 105.534C224.624 105.497 224.527 105.434 224.449 105.351C224.37 105.268 224.314 105.167 224.284 105.057C224.254 104.946 224.252 104.831 224.278 104.719C224.303 104.608 224.356 104.505 224.431 104.419C225.457 103.248 226.664 102.249 228.006 101.46C228.116 101.392 228.243 101.356 228.372 101.355C228.502 101.354 228.629 101.39 228.74 101.457C228.85 101.524 228.94 101.621 229 101.736C229.059 101.851 229.085 101.98 229.075 102.109Z" fill="#80B3FF"/>
<path d="M211.724 83.9054C212.072 81.2814 221.781 79.4512 226.156 87.6643C228.57 92.1776 228.708 97.0976 228.452 100.22C228.372 101.196 228.013 102.128 227.417 102.905C226.822 103.682 226.015 104.272 225.093 104.602C221.636 105.862 215.909 107.423 213.016 105.396C207.244 101.388 211.724 83.9054 211.724 83.9054Z" fill="#263238"/>
<path d="M211.724 83.9054C202.101 90.8721 203.006 100.496 208.864 103.152C216.723 98.6326 211.724 83.9054 211.724 83.9054Z" fill="#263238"/>
<path d="M176.779 128.697L175.283 124.702L170.599 129.812C170.599 129.812 173.269 132.541 176.057 133.007L176.464 132.351C176.787 131.805 176.983 131.192 177.038 130.56C177.092 129.927 177.004 129.291 176.779 128.697Z" fill="#BA6763"/>
<path d="M170.665 124.807L169.406 126.644C169.139 127.026 169.028 127.495 169.094 127.957C169.159 128.418 169.397 128.837 169.76 129.13L170.599 129.819L175.283 124.702L172.659 124.046C172.289 123.954 171.899 123.978 171.543 124.114C171.186 124.25 170.88 124.492 170.665 124.807Z" fill="#BA6763"/>
<path d="M207.211 120.556C207.027 121.074 206.876 121.461 206.706 121.868C206.535 122.275 206.358 122.708 206.174 123.115C205.813 123.941 205.433 124.748 205.033 125.548C204.239 127.156 203.363 128.721 202.409 130.239C201.44 131.768 200.386 133.242 199.253 134.654C198.105 136.092 196.855 137.447 195.514 138.708L194.471 139.639L194.215 139.869L194.15 139.928L194.032 140.026L193.677 140.302C193.219 140.61 192.717 140.849 192.188 141.01C191.394 141.239 190.563 141.309 189.741 141.214C189.132 141.152 188.53 141.031 187.944 140.853C186.088 140.251 184.322 139.399 182.696 138.321C179.744 136.415 176.996 134.21 174.496 131.741C174.182 131.432 173.99 131.02 173.957 130.58C173.924 130.141 174.052 129.705 174.317 129.353C174.581 129 174.965 128.756 175.396 128.666C175.828 128.576 176.277 128.645 176.661 128.861H176.72C179.567 130.475 182.506 132.102 185.373 133.394C186.671 134.011 188.036 134.48 189.44 134.791C189.669 134.834 189.902 134.852 190.135 134.844C190.306 134.844 190.345 134.778 190.194 134.844C190.065 134.869 189.942 134.92 189.833 134.995C189.793 135.016 189.756 135.043 189.722 135.073L189.768 135.021L189.965 134.818L190.752 133.998C192.822 131.693 194.644 129.178 196.19 126.493C196.997 125.142 197.718 123.738 198.433 122.327C198.788 121.619 199.129 120.904 199.444 120.189L199.909 119.113L200.329 118.103L200.395 117.945C200.743 117.044 201.435 116.318 202.318 115.927C203.201 115.536 204.204 115.511 205.105 115.859C206.006 116.207 206.732 116.899 207.124 117.782C207.515 118.666 207.539 119.668 207.191 120.569L207.211 120.556Z" fill="#BA6763"/>
<path d="M204.147 114.029C197.928 117.703 197.253 124.315 194.425 126.913C197.469 134.129 202.52 134.181 202.52 134.181C202.52 134.181 211.048 109.962 204.147 114.029Z" fill="#80B3FF"/>
<path opacity="0.3" d="M204.147 114.029C197.928 117.703 197.253 124.315 194.425 126.913C197.469 134.129 202.52 134.181 202.52 134.181C202.52 134.181 211.048 109.962 204.147 114.029Z" fill="white"/>
<path d="M228.485 145.97C229.272 137.396 229.543 128.782 229.298 120.176C229.147 116.62 227.573 113.347 224.05 112.96C223.106 112.868 222.082 112.789 221.079 112.737C217.497 112.484 213.902 112.484 210.32 112.737C209.152 112.848 207.952 112.992 206.811 113.156C204.81 113.437 202.985 114.452 201.692 116.004C200.4 117.557 199.731 119.535 199.818 121.553C199.923 123.882 196.242 129.274 200.782 132.397C201.169 135.762 200.657 141.509 200.821 147.36C197.751 152.641 187.478 156.708 186.586 161.832C185.327 169.1 193.179 171.836 200.644 172.328C223.512 173.941 234.953 170.793 228.485 145.97Z" fill="#80B3FF"/>
<path opacity="0.4" d="M228.485 145.97C229.272 137.396 229.543 128.782 229.298 120.176C229.147 116.62 227.573 113.347 224.05 112.96C223.106 112.868 222.082 112.789 221.079 112.737C217.497 112.484 213.902 112.484 210.32 112.737C209.152 112.848 207.952 112.992 206.811 113.156C204.81 113.437 202.985 114.452 201.692 116.004C200.4 117.557 199.731 119.535 199.818 121.553C199.923 123.882 196.242 129.274 200.782 132.397C201.169 135.762 200.657 141.509 200.821 147.36C197.751 152.641 187.478 156.708 186.586 161.832C185.327 169.1 193.179 171.836 200.644 172.328C223.512 173.941 234.953 170.793 228.485 145.97Z" fill="white"/>
<path opacity="0.6" d="M204.744 158.302C201.996 158.899 195.003 156.748 190.916 157.6C189.929 157.784 189.012 158.235 188.264 158.903C187.516 159.572 186.965 160.433 186.671 161.392C186.626 161.545 186.591 161.701 186.566 161.858C185.3 169.126 193.126 171.862 200.618 172.354C207.178 172.8 212.537 173.01 216.821 172.479C217.883 172.36 218.878 171.898 219.653 171.163C220.429 170.428 220.943 169.459 221.118 168.405C221.964 162.75 212.583 156.603 204.744 158.302Z" fill="#80B3FF"/>
<path opacity="0.3" d="M209.822 134.391C213.102 137.514 219.517 143.103 221.715 143.995C216.821 143.306 211.389 136.963 209.822 134.391Z" fill="#80B3FF"/>
<path opacity="0.3" d="M204.357 128.527C207.762 134.398 213.357 143.109 215.627 145.392C209.684 141.246 204.974 131.584 204.357 128.527Z" fill="#80B3FF"/>
<path d="M203.17 162.435C199.64 157.286 191.637 157.076 189.053 159.509C184.743 163.55 176.471 170.78 171.564 176.408C165.417 183.46 157.237 205.351 154.39 212.777C153.163 216.148 147.528 219.547 142.28 218.93C139.945 218.654 141.539 221.554 143.205 221.967C147.377 223.069 147.141 221.593 149.555 222.085C151.589 222.505 151.444 223.023 153.858 223.607C155.216 223.935 155.977 222.597 156.24 220.983C156.502 219.369 157.099 218.182 160.53 212.98C167.389 204.381 173.425 195.157 178.557 185.428C192.739 178.343 195.613 176.106 200.782 171.514C203.458 169.113 205.413 165.702 203.17 162.435Z" fill="#BA6763"/>
<path opacity="0.2" d="M203.17 162.435C202.792 161.887 202.366 161.373 201.897 160.9C200.412 161.549 199.043 162.435 197.843 163.524C193.494 167.526 185.333 175.004 182.637 177.74C180.622 179.698 179.377 182.314 179.127 185.113C192.818 178.251 195.711 176.014 200.775 171.475C203.458 169.12 205.413 165.702 203.17 162.435Z" fill="black"/>
<path d="M219.996 100.647C219.34 104.11 218.638 110.454 221.059 112.763C216.583 113.846 212.48 116.111 209.179 119.323C206.745 114.803 210.301 112.763 210.301 112.763C214.158 111.844 214.059 108.978 213.384 106.288L219.996 100.647Z" fill="#BA6763"/>
<path opacity="0.2" d="M217.3 102.949L213.364 106.288C213.532 106.913 213.644 107.552 213.699 108.197C215.168 107.981 217.195 106.36 217.352 104.819C217.448 104.197 217.43 103.564 217.3 102.949Z" fill="black"/>
<path d="M223.644 94.2965C222.292 99.925 221.84 102.339 218.507 104.76C213.482 108.407 207.001 105.527 206.699 99.6101C206.41 94.2834 208.667 85.9718 214.532 84.673C220.396 83.3741 225.008 88.6614 223.644 94.2965Z" fill="#BA6763"/>
<path d="M212.498 84.4827C215.345 89.7307 220.246 90.8328 220.337 94.4736C220.429 98.1144 226.517 99.5642 225.848 94.7032C225.179 89.8422 221.243 80.5205 212.498 84.4827Z" fill="#263238"/>
<path d="M213.2 84.2662C212.8 88.6024 215.922 88.6286 216.736 88.3334C213.233 89.6913 211.035 87.625 211.488 85.2634C211.688 84.9867 211.943 84.755 212.238 84.5832C212.533 84.4114 212.861 84.3035 213.2 84.2662Z" fill="#263238"/>
<path d="M214.853 94.3555C214.768 94.8213 214.453 95.1558 214.151 95.0968C213.85 95.0378 213.672 94.6245 213.751 94.1653C213.83 93.7061 214.145 93.365 214.453 93.424C214.761 93.483 214.932 93.8701 214.853 94.3555Z" fill="#263238"/>
<path d="M209.133 93.4306C209.054 93.8898 208.739 94.2243 208.438 94.1718C208.136 94.1194 207.959 93.6995 208.037 93.2338C208.116 92.768 208.431 92.44 208.739 92.4925C209.048 92.5449 209.218 92.9648 209.133 93.4306Z" fill="#263238"/>
<path d="M208.864 92.5581L207.808 92.0398C207.808 92.0398 208.228 92.9976 208.864 92.5581Z" fill="#263238"/>
<path d="M210.576 94.4736C209.981 95.461 209.252 96.3616 208.411 97.1501C208.619 97.3602 208.869 97.5229 209.145 97.6271C209.422 97.7312 209.717 97.7744 210.012 97.7536L210.576 94.4736Z" fill="#630F0F"/>
<path d="M212.373 99.925C212.109 99.9258 211.846 99.9016 211.586 99.8528C211.568 99.8505 211.551 99.8444 211.535 99.8351C211.52 99.8258 211.506 99.8133 211.496 99.7985C211.486 99.7837 211.478 99.7669 211.475 99.7492C211.471 99.7314 211.471 99.7131 211.475 99.6954C211.477 99.6774 211.483 99.6601 211.492 99.6445C211.502 99.629 211.514 99.6156 211.529 99.6051C211.544 99.5946 211.561 99.5873 211.578 99.5837C211.596 99.58 211.614 99.5801 211.632 99.5838C212.206 99.6993 212.8 99.6775 213.364 99.5202C213.929 99.3629 214.448 99.0745 214.879 98.6786C214.892 98.6655 214.908 98.6551 214.924 98.648C214.941 98.6409 214.959 98.6372 214.978 98.6372C214.996 98.6372 215.014 98.6409 215.031 98.648C215.048 98.6551 215.063 98.6655 215.076 98.6786C215.101 98.7042 215.114 98.7383 215.114 98.7737C215.114 98.8091 215.101 98.8432 215.076 98.8688C214.348 99.5604 213.378 99.9395 212.373 99.925Z" fill="#263238"/>
<path d="M224.352 98.7376C224.038 99.1605 223.637 99.5119 223.177 99.7686C222.717 100.025 222.207 100.181 221.682 100.227C220.37 100.299 220.035 98.7835 220.705 97.4649C221.302 96.2841 222.719 94.8409 223.912 95.3723C225.106 95.9037 225.179 97.6355 224.352 98.7376Z" fill="#BA6763"/>
<path d="M217.49 92.6565C217.417 92.6355 217.354 92.5889 217.313 92.5253C217.147 92.2206 216.912 91.9595 216.625 91.7634C216.339 91.5673 216.011 91.4417 215.667 91.3969C215.63 91.3953 215.595 91.3865 215.562 91.371C215.529 91.3556 215.5 91.3339 215.475 91.3071C215.451 91.2802 215.432 91.2489 215.42 91.2148C215.408 91.1807 215.402 91.1445 215.404 91.1083C215.409 91.0346 215.443 90.9659 215.498 90.9168C215.553 90.8678 215.626 90.8423 215.699 90.8459C216.136 90.8934 216.554 91.0459 216.918 91.2904C217.283 91.5349 217.583 91.8641 217.792 92.2498C217.811 92.2806 217.823 92.3149 217.828 92.3506C217.833 92.3863 217.831 92.4227 217.822 92.4576C217.813 92.4925 217.797 92.5251 217.775 92.5537C217.753 92.5822 217.725 92.606 217.694 92.6237C217.632 92.6599 217.56 92.6716 217.49 92.6565Z" fill="#263238"/>
<path d="M207.585 90.6819C207.514 90.6761 207.448 90.6432 207.401 90.5901C207.351 90.5366 207.323 90.4663 207.323 90.3933C207.323 90.3202 207.351 90.2499 207.401 90.1965C207.727 89.9008 208.12 89.687 208.545 89.573C208.971 89.4589 209.417 89.4477 209.848 89.5405C209.883 89.551 209.916 89.5683 209.944 89.5915C209.972 89.6148 209.996 89.6434 210.013 89.6758C210.03 89.7081 210.04 89.7436 210.043 89.7801C210.047 89.8165 210.043 89.8533 210.032 89.8882C210.022 89.923 210.005 89.9555 209.983 89.9837C209.96 90.012 209.932 90.0354 209.9 90.0525C209.868 90.0697 209.833 90.0802 209.797 90.0835C209.761 90.0869 209.725 90.0829 209.69 90.0718C209.35 90.0017 208.998 90.0127 208.663 90.1038C208.328 90.195 208.019 90.3638 207.762 90.5966C207.716 90.6469 207.653 90.6775 207.585 90.6819Z" fill="#263238"/>
<path d="M214.578 93.4699L213.521 92.9517C213.521 92.9517 213.941 93.9226 214.578 93.4699Z" fill="#263238"/>
<path d="M219.216 149.512L214.997 148.922L217.241 155.482C217.241 155.482 220.915 154.439 222.66 152.202L222.259 151.546C221.936 151.001 221.495 150.536 220.968 150.184C220.441 149.832 219.842 149.602 219.216 149.512Z" fill="#BA6763"/>
<path d="M212.879 153.028L213.882 154.996C214.093 155.411 214.452 155.732 214.888 155.895C215.325 156.058 215.806 156.051 216.237 155.875L217.241 155.462L214.997 148.902L213.161 150.922C212.904 151.202 212.739 151.554 212.689 151.931C212.638 152.308 212.704 152.69 212.879 153.028Z" fill="#BA6763"/>
<path d="M228.406 116.646C229.246 118.214 229.908 119.703 230.591 121.238C231.273 122.773 231.857 124.354 232.414 125.962C233.596 129.257 234.38 132.681 234.75 136.162C234.75 136.628 234.815 137.087 234.828 137.566V137.927C234.842 138.145 234.842 138.365 234.828 138.583C234.798 138.96 234.732 139.334 234.632 139.698C234.324 140.788 233.841 141.82 233.201 142.755C232.19 144.252 231.022 145.637 229.718 146.888C227.304 149.243 224.668 151.359 221.846 153.205C221.479 153.45 221.037 153.552 220.6 153.495C220.163 153.437 219.762 153.222 219.472 152.891C219.181 152.56 219.021 152.134 219.021 151.694C219.021 151.253 219.181 150.827 219.471 150.496L219.511 150.45C221.577 148.082 223.67 145.642 225.487 143.234C226.355 142.096 227.13 140.889 227.803 139.626C228.034 139.195 228.198 138.73 228.288 138.248C228.288 138.196 228.288 138.157 228.288 138.176C228.285 138.191 228.285 138.207 228.288 138.222V137.98C228.255 137.652 228.203 137.324 228.15 136.969C227.595 134.053 226.758 131.197 225.651 128.441C225.106 127.005 224.503 125.581 223.899 124.158C223.296 122.734 222.587 121.297 221.99 119.992L221.951 119.92C221.566 119.063 221.527 118.091 221.841 117.206C222.155 116.321 222.798 115.591 223.637 115.169C224.475 114.746 225.445 114.663 226.343 114.937C227.241 115.211 227.999 115.821 228.459 116.64L228.406 116.646Z" fill="#BA6763"/>
<path d="M217.982 162.448C215.126 159.981 211.423 158.718 207.655 158.926C203.886 159.134 200.345 160.797 197.777 163.564C193.756 167.893 188.882 173.24 184.001 178.868C176.707 187.239 166.532 216.536 165.843 217.69L169.123 220.012C177.598 210.157 184.928 199.374 190.975 187.868C205.157 180.784 212.925 175.968 218.061 171.376C218.692 170.814 219.196 170.122 219.539 169.349C219.881 168.576 220.055 167.739 220.048 166.893C220.042 166.047 219.854 165.212 219.499 164.445C219.144 163.677 218.629 162.994 217.989 162.442L217.982 162.448Z" fill="#BA6763"/>
<path d="M170.271 224.099C170.206 222.472 169.51 220.636 172.941 215.433C172.941 215.433 167.483 213.374 166.801 215.23C165.568 218.602 160.759 224.847 155.479 224.926C153.13 224.959 155.977 227.55 157.702 227.674C162.012 227.917 161.638 226.907 164.079 226.913C165.546 226.829 167.018 226.908 168.467 227.15C169.845 227.405 170.344 225.726 170.271 224.099Z" fill="#BA6763"/>
<path d="M224.47 113.052C228.662 113.603 231.476 118.3 234.028 125.653C231.872 129.584 228.526 132.731 224.47 134.64C222.299 130.376 220.141 124.656 219.74 121.52C219.34 118.385 219.911 112.448 224.47 113.052Z" fill="#80B3FF"/>
<path opacity="0.4" d="M224.47 113.052C228.662 113.603 231.476 118.3 234.028 125.653C231.872 129.584 228.526 132.731 224.47 134.64C222.299 130.376 220.141 124.656 219.74 121.52C219.34 118.385 219.911 112.448 224.47 113.052Z" fill="white"/>
<path d="M227.842 229.813C227.768 229.801 227.698 229.775 227.635 229.735C227.572 229.695 227.518 229.643 227.475 229.582C227.433 229.52 227.404 229.451 227.389 229.378C227.374 229.305 227.374 229.23 227.389 229.157L237.629 170.235C237.641 170.161 237.668 170.091 237.707 170.028C237.747 169.965 237.799 169.911 237.861 169.868C237.922 169.826 237.991 169.797 238.064 169.782C238.137 169.767 238.212 169.767 238.285 169.782C238.359 169.795 238.429 169.822 238.491 169.862C238.554 169.902 238.608 169.954 238.65 170.015C238.692 170.076 238.721 170.145 238.737 170.218C238.752 170.291 238.752 170.366 238.738 170.438L228.498 229.354C228.487 229.428 228.461 229.499 228.422 229.563C228.382 229.627 228.33 229.682 228.269 229.725C228.207 229.768 228.138 229.798 228.064 229.813C227.991 229.828 227.915 229.828 227.842 229.813Z" fill="#FFF2CF"/>
<path d="M230.486 170.307C230.487 170.162 230.546 170.022 230.649 169.919C230.752 169.816 230.891 169.758 231.037 169.756H238.2C238.346 169.756 238.487 169.814 238.59 169.918C238.693 170.021 238.751 170.161 238.751 170.307C238.752 170.38 238.738 170.452 238.711 170.519C238.684 170.586 238.643 170.647 238.592 170.699C238.54 170.75 238.479 170.791 238.412 170.818C238.345 170.845 238.273 170.859 238.2 170.858H231.037C230.891 170.858 230.75 170.8 230.647 170.697C230.544 170.594 230.486 170.453 230.486 170.307Z" fill="#FFF2CF"/>
<path d="M230.676 174.486H230.741C231.028 174.486 231.26 174.254 231.26 173.968V167.768C231.26 167.482 231.028 167.25 230.741 167.25H230.676C230.39 167.25 230.158 167.482 230.158 167.768V173.968C230.158 174.254 230.39 174.486 230.676 174.486Z" fill="#FFF2CF"/>
<path d="M234.028 210.376C234.029 210.933 233.865 211.478 233.556 211.942C233.248 212.405 232.808 212.767 232.294 212.981C231.779 213.195 231.213 213.251 230.666 213.143C230.12 213.034 229.618 212.766 229.224 212.372C228.83 211.978 228.562 211.476 228.453 210.93C228.345 210.383 228.401 209.817 228.615 209.302C228.829 208.788 229.191 208.348 229.654 208.04C230.118 207.731 230.663 207.567 231.22 207.568C231.965 207.568 232.679 207.864 233.206 208.39C233.732 208.917 234.028 209.631 234.028 210.376Z" fill="white"/>
<path d="M232.073 170.307C232.073 170.576 231.994 170.838 231.844 171.062C231.695 171.285 231.483 171.459 231.235 171.562C230.987 171.665 230.714 171.691 230.45 171.639C230.187 171.587 229.945 171.457 229.755 171.267C229.565 171.077 229.436 170.836 229.383 170.572C229.331 170.309 229.358 170.036 229.461 169.788C229.564 169.539 229.738 169.327 229.961 169.178C230.184 169.029 230.447 168.949 230.715 168.949C231.075 168.949 231.421 169.092 231.675 169.347C231.93 169.602 232.073 169.947 232.073 170.307Z" fill="white"/>
<path d="M219.137 169.914C218.804 169.787 218.481 169.633 218.173 169.454C217.897 169.294 217.676 169.054 217.539 168.765C217.402 168.477 217.356 168.154 217.407 167.838C217.457 167.523 217.602 167.231 217.821 166.999C218.041 166.768 218.326 166.608 218.638 166.542C222.751 165.643 230.492 163.846 233.831 162.606C232.696 165.709 225.402 169.612 223.02 170.078C221.734 170.367 220.394 170.311 219.137 169.914Z" fill="black"/>
<path d="M219.137 169.914C221.938 170.707 224.693 168.392 224.739 165.204C224.744 164.847 224.855 164.5 225.057 164.205C225.259 163.911 225.543 163.683 225.874 163.55C228.734 162.409 234.828 160.657 237.787 159.831C238.007 159.767 238.24 159.756 238.465 159.796C238.691 159.837 238.905 159.929 239.089 160.065C239.274 160.202 239.424 160.379 239.53 160.583C239.635 160.786 239.692 161.012 239.696 161.241C239.735 163.209 239.171 166.069 235.76 167.021C224.582 170.143 221.649 170.871 219.137 169.914Z" fill="#263238"/>
<path d="M182.937 43.4769C186.787 27.1651 176.685 10.8208 160.373 6.9709C144.061 3.12098 127.717 13.2233 123.867 29.5351C120.017 45.8468 130.119 62.1911 146.431 66.041C162.743 69.891 179.087 59.7886 182.937 43.4769Z" fill="#80B3FF"/>
<path d="M127.093 41.1145L114.262 54.7921L132.906 55.6843L127.093 41.1145Z" fill="#80B3FF"/>
<path d="M179.407 42.6436C182.796 28.2817 173.902 13.8913 159.54 10.5016C145.178 7.11187 130.787 16.0065 127.398 30.3684C124.008 44.7302 132.903 59.1207 147.265 62.5103C161.626 65.9 176.017 57.0054 179.407 42.6436Z" fill="white"/>
<path d="M135.136 31.7272C136.904 32.3009 138.624 33.0138 140.279 33.8592C141.923 34.6804 143.521 35.5892 145.068 36.5816C145.835 37.0867 146.609 37.5853 147.351 38.1363C148.092 38.6874 148.833 39.245 149.555 39.8222C151.034 41.014 152.424 42.3119 153.714 43.7058L148.571 44.0534C149.977 41.7809 151.563 39.6245 153.314 37.605C155.028 35.636 156.855 33.7677 158.785 32.0093C160.716 30.268 162.746 28.6406 164.866 27.1352C166.996 25.591 169.262 24.2428 171.636 23.1074C170.324 25.4362 168.874 27.5682 167.398 29.6674C165.922 31.7666 164.4 33.787 162.885 35.7878L158.293 41.6918C156.784 43.6598 155.315 45.5819 153.95 47.5171L151.418 51.0989L148.794 47.8648C147.771 46.5922 146.655 45.313 145.514 44.0206L142.017 40.0846C140.843 38.7726 139.656 37.4606 138.495 36.0371C137.334 34.6136 136.258 33.2622 135.136 31.7272Z" fill="#80B3FF"/>
</svg>
