<svg width="328" height="262" viewBox="0 0 328 262" fill="none" xmlns="http://www.w3.org/2000/svg">
<path d="M328 229.466H0V229.641H328V229.466Z" fill="#EBEBEB"/>
<path d="M295.134 240.743H273.408V240.918H295.134V240.743Z" fill="#EBEBEB"/>
<path d="M217.28 242.649H211.58V242.824H217.28V242.649Z" fill="#EBEBEB"/>
<path d="M272.752 234.239H260.163V234.414H272.752V234.239Z" fill="#EBEBEB"/>
<path d="M62.7463 235.416H34.4137V235.591H62.7463V235.416Z" fill="#EBEBEB"/>
<path d="M72.7438 235.416H68.5913V235.591H72.7438V235.416Z" fill="#EBEBEB"/>
<path d="M147.698 238.374H86.2444V238.549H147.698V238.374Z" fill="#EBEBEB"/>
<path d="M155.472 198.207H28.805C27.8127 198.205 26.8616 197.783 26.1606 197.032C25.4595 196.282 25.0658 195.265 25.0658 194.205V3.96694C25.0744 2.91285 25.472 1.90496 26.1721 1.1622C26.8722 0.419443 27.8184 0.00180572 28.805 0H155.472C156.465 0 157.418 0.421637 158.121 1.17215C158.823 1.92267 159.218 2.94059 159.218 4.00198V194.205C159.218 195.266 158.823 196.284 158.121 197.035C157.418 197.785 156.465 198.207 155.472 198.207ZM28.805 0.140175C27.8562 0.142032 26.9468 0.546026 26.2765 1.26348C25.6063 1.98094 25.2298 2.95323 25.2298 3.96694V194.205C25.2298 195.219 25.6063 196.191 26.2765 196.908C26.9468 197.626 27.8562 198.03 28.805 198.032H155.472C156.421 198.03 157.331 197.626 158.003 196.909C158.674 196.192 159.052 195.219 159.054 194.205V3.96694C159.052 2.95259 158.674 1.98031 158.003 1.26305C157.331 0.545798 156.421 0.142028 155.472 0.140175H28.805Z" fill="#EBEBEB"/>
<path d="M297.371 198.207H170.698C169.705 198.205 168.753 197.783 168.051 197.033C167.349 196.283 166.954 195.266 166.952 194.205V3.96694C166.962 2.91221 167.361 1.90433 168.062 1.16176C168.764 0.419198 169.71 0.00178603 170.698 0H297.371C298.357 0.00364769 299.301 0.4221 300 1.16466C300.699 1.90722 301.095 2.91406 301.104 3.96694V194.205C301.104 195.264 300.711 196.28 300.011 197.03C299.312 197.78 298.362 198.203 297.371 198.207ZM170.698 0.140175C169.748 0.142028 168.838 0.545798 168.167 1.26305C167.496 1.98031 167.118 2.95259 167.116 3.96694V194.205C167.118 195.219 167.496 196.192 168.167 196.909C168.838 197.626 169.748 198.03 170.698 198.032H297.371C298.321 198.03 299.231 197.626 299.902 196.909C300.573 196.192 300.951 195.219 300.953 194.205V3.96694C300.951 2.95259 300.573 1.98031 299.902 1.26305C299.231 0.545798 298.321 0.142028 297.371 0.140175H170.698Z" fill="#EBEBEB"/>
<path d="M248.145 185.486V195.438L252.081 198.494H233.713L239.578 196.167V186.18L248.145 185.486Z" fill="#E0E0E0"/>
<path d="M198.597 198.207V229.557H280.597V198.207H198.597ZM200.073 200.239H264.256V210.486H200.08L200.073 200.239Z" fill="#E0E0E0"/>
<path d="M198.597 198.207V229.557H266.231V198.207H198.597ZM200.073 200.239H264.256V210.486H200.08L200.073 200.239Z" fill="#EBEBEB"/>
<path d="M200.073 210.486H213.298V200.239H200.073V210.486Z" fill="#E0E0E0"/>
<path d="M247.889 210.486H264.256V205.363H247.889V210.486Z" fill="#E0E0E0"/>
<path d="M234.362 210.486H246.682V207.444H234.362V210.486Z" fill="#E0E0E0"/>
<path d="M219.78 210.486H231.516V204.263H219.78V210.486Z" fill="#E0E0E0"/>
<path d="M252.626 212.715L252.973 213.941H257.683L258.038 212.715H264.257V226.319H243.612V212.715H252.626Z" fill="#E0E0E0"/>
<path d="M228.091 212.715L228.445 213.941H233.156L233.51 212.715H242.517V226.319H221.872V212.715H228.091Z" fill="#E0E0E0"/>
<path d="M209.146 212.715L209.494 213.941H214.204L214.558 212.715H220.777V226.319H200.132V212.715H209.146Z" fill="#E0E0E0"/>
<path d="M210.589 191.436H271.591C272.869 191.436 273.906 190.329 273.906 188.962V151.543C273.906 150.176 272.869 149.069 271.591 149.069H210.589C209.31 149.069 208.273 150.176 208.273 151.543V188.962C208.273 190.329 209.31 191.436 210.589 191.436Z" fill="#E0E0E0"/>
<path d="M209.048 191.436H270.049C271.328 191.436 272.365 190.329 272.365 188.962V151.543C272.365 150.176 271.328 149.069 270.049 149.069H209.048C207.769 149.069 206.732 150.176 206.732 151.543V188.962C206.732 190.329 207.769 191.436 209.048 191.436Z" fill="#E6E6E6"/>
<path d="M270.436 189.376V151.122H208.661V189.376H270.436Z" fill="#F0F0F0"/>
<path d="M125.388 36.8939H47.5667V122.807H125.388V36.8939Z" fill="#EBEBEB"/>
<path d="M128.11 36.8939H50.2889V122.807H128.11V36.8939Z" fill="#F0F0F0"/>
<path d="M126.05 38.9335H52.2505V120.816H126.05V38.9335Z" fill="#E0E0E0"/>
<path d="M124.207 38.9335H52.2505V120.816H124.207V38.9335Z" fill="#F5F5F5"/>
<path d="M88.9734 38.9335H87.5105V120.816H88.9734V38.9335Z" fill="#EBEBEB"/>
<path d="M97.3571 38.9335L117.864 120.809H119.832L99.3251 38.9335H97.3571Z" fill="white"/>
<path d="M89.5965 37.6719H88.3435V122.386H89.5965V37.6719Z" fill="#F0F0F0"/>
<path d="M104.796 38.9335L124.207 116.422V73.8299L115.469 38.9335H104.796Z" fill="white"/>
<path d="M52.2505 46.3627V54.2195L68.9326 120.809H70.9006L52.2505 46.3627Z" fill="white"/>
<path d="M52.2505 62.2305V104.823L56.2521 120.809H66.9186L52.2505 62.2305Z" fill="white"/>
<path d="M262.105 41.7931H214.984V103.049H262.105V41.7931Z" fill="#E6E6E6"/>
<path d="M251.32 87.8755L226.563 61.8731L253.347 57.1492L251.32 87.8755Z" fill="#E0E0E0"/>
<path d="M227.16 81.7149L225.933 61.775L244.576 66.6671L245.928 81.9181L227.16 81.7149Z" fill="#F0F0F0"/>
<path d="M256.868 59.3382C259.807 56.1988 259.807 51.1088 256.868 47.9694C253.93 44.8299 249.166 44.8299 246.227 47.9694C243.289 51.1088 243.289 56.1988 246.227 59.3382C249.166 62.4777 253.93 62.4777 256.868 59.3382Z" fill="#FAFAFA"/>
<path d="M229.6 88.8216C229.601 88.0489 229.388 87.2932 228.987 86.6501C228.586 86.0071 228.015 85.5056 227.347 85.2093C226.68 84.9129 225.944 84.835 225.235 84.9854C224.526 85.1358 223.874 85.5078 223.362 86.0542C222.851 86.6006 222.503 87.2968 222.362 88.0547C222.221 88.8127 222.294 89.5982 222.572 90.3118C222.849 91.0254 223.318 91.6351 223.92 92.0635C224.522 92.4919 225.229 92.7199 225.953 92.7185C226.92 92.7166 227.846 92.3055 228.53 91.5751C229.214 90.8447 229.598 89.8546 229.6 88.8216Z" fill="#E0E0E0"/>
<path d="M226.812 95.6762L237.347 88.8217L228.491 81.021L226.812 95.6762Z" fill="#F5F5F5"/>
<path d="M239.263 98.5006H241.336V49.5867H239.263V98.5006Z" fill="#E0E0E0"/>
<path d="M219.406 96.3351H222.089V49.5869H219.406V96.3351Z" fill="#EBEBEB"/>
<path d="M243.671 96.5593H257.369V81.9251H243.671V96.5593Z" fill="#EBEBEB"/>
<path d="M87.1824 198.747L78.51 172.043C78.51 172.043 90.528 181.568 90.4624 171.013C90.3968 160.458 84.9782 168.658 83.1086 164.754C81.239 160.85 88.4419 160.892 85.9097 154.977C83.3776 149.062 76.1944 158.152 74.9217 152.909C73.6491 147.667 71.6417 145.004 66.3937 145.473C66.3937 145.473 63.5664 152.37 67.0497 157.353C70.5331 162.336 58.4496 158.334 59.696 163.345C60.9424 168.357 64.944 172.73 66.7217 169.205C68.4995 165.679 70.7364 172.436 67.7123 174.181C64.6881 175.926 71.6483 183.468 73.203 179.508C74.2712 176.877 75.5902 174.371 77.139 172.029L85.1356 200.604L87.1824 198.747Z" fill="#EBEBEB"/>
<path d="M96.1237 198.985L105.898 181.905C105.898 181.905 96.2286 186.558 97.7768 179.262C99.3249 171.966 101.903 178.512 103.753 176.115C105.603 173.718 100.604 172.611 103.195 168.896C105.787 165.182 109.473 172.66 111.067 169.24C112.661 165.82 114.459 164.299 118.021 165.469C118.021 165.469 119.005 170.698 115.895 173.585C112.786 176.473 121.695 175.688 120.14 178.926C118.585 182.164 115.18 184.575 114.452 181.849C113.724 179.122 111.212 183.44 113.062 185.129C114.912 186.818 109.008 190.918 108.509 187.932C108.141 185.94 107.583 183.993 106.843 182.122L97.2717 200.604L96.1237 198.985Z" fill="#E6E6E6"/>
<path d="M89.5374 199.146L94.0113 171.637C94.0113 171.637 83.7055 182.97 82.2033 172.66C80.701 162.35 87.1955 169.429 88.4419 165.301C89.6883 161.173 82.6625 162.448 84.25 156.245C85.8375 150.043 94.2015 157.689 94.6607 152.363C95.1199 147.036 96.6943 144.092 101.877 143.665C101.877 143.665 105.662 149.903 103.018 155.355C100.374 160.808 111.546 154.858 111.087 159.953C110.628 165.048 107.367 169.997 105.117 166.857C102.867 163.717 101.68 170.697 104.888 171.875C108.096 173.052 102.415 181.603 100.329 178.008C98.8962 175.625 97.2364 173.408 95.3758 171.391L91.8399 200.604L89.5374 199.146Z" fill="#F5F5F5"/>
<path d="M83.968 230.076H99.3315C99.85 230.077 100.349 229.866 100.727 229.487C101.105 229.108 101.333 228.589 101.365 228.036L102.992 199.749C103.009 199.453 102.969 199.157 102.875 198.878C102.781 198.599 102.634 198.344 102.445 198.128C102.255 197.912 102.026 197.74 101.771 197.622C101.517 197.504 101.242 197.443 100.965 197.443H82.3346C82.0573 197.443 81.7829 197.504 81.5285 197.622C81.274 197.74 81.0448 197.912 80.855 198.128C80.6651 198.344 80.5186 198.599 80.4245 198.878C80.3303 199.157 80.2905 199.453 80.3075 199.749L81.9344 228.071C81.9741 228.618 82.2058 229.128 82.583 229.5C82.9601 229.871 83.4549 230.077 83.968 230.076Z" fill="#EBEBEB"/>
<path d="M80.5241 200.604H102.992C103.492 200.604 103.974 200.407 104.346 200.052C104.719 199.696 104.956 199.207 105.013 198.676C105.047 198.371 105.02 198.062 104.934 197.768C104.849 197.475 104.705 197.205 104.514 196.975C104.323 196.745 104.089 196.561 103.827 196.435C103.564 196.309 103.28 196.244 102.992 196.244H80.5241C80.2377 196.244 79.9545 196.309 79.6931 196.434C79.4317 196.559 79.1979 196.742 79.0072 196.97C78.8164 197.198 78.673 197.467 78.5862 197.759C78.4994 198.05 78.4713 198.358 78.5036 198.662C78.557 199.195 78.7928 199.688 79.1658 200.047C79.5387 200.405 80.0225 200.603 80.5241 200.604Z" fill="#F5F5F5"/>
<path d="M175.218 261.117C250.27 261.117 311.111 257.565 311.111 253.183C311.111 248.801 250.27 245.249 175.218 245.249C100.167 245.249 39.326 248.801 39.326 253.183C39.326 257.565 100.167 261.117 175.218 261.117Z" fill="#F5F5F5"/>
<path d="M249.742 45.2974V242.572C249.742 242.98 249.661 243.384 249.503 243.761C249.345 244.138 249.114 244.479 248.824 244.765C248.533 245.052 248.188 245.277 247.809 245.429C247.43 245.581 247.024 245.655 246.616 245.649H140.616C140.246 245.655 139.879 245.586 139.537 245.447C139.194 245.308 138.882 245.102 138.621 244.84C138.36 244.579 138.153 244.268 138.014 243.925C137.876 243.582 137.807 243.215 137.813 242.845V45.0451C137.799 44.7177 137.851 44.391 137.965 44.0836C138.078 43.7763 138.251 43.4944 138.474 43.2541C138.697 43.0138 138.964 42.8198 139.262 42.6834C139.56 42.5469 139.882 42.4706 140.21 42.4589H165.406C165.795 42.4665 166.173 42.59 166.491 42.8134C166.809 43.0369 167.054 43.3503 167.193 43.7134L168.35 46.5169C168.492 46.8786 168.738 47.1897 169.058 47.4106C169.377 47.6316 169.755 47.7523 170.144 47.7575H217.53C217.915 47.7545 218.291 47.6369 218.609 47.4198C218.927 47.2026 219.174 46.8956 219.317 46.538L220.474 43.6854C220.613 43.3215 220.857 43.0071 221.175 42.7825C221.493 42.5578 221.871 42.433 222.261 42.4238H247.03C247.769 42.4476 248.47 42.7632 248.978 43.3015C249.486 43.8399 249.761 44.5573 249.742 45.2974Z" fill="#263238"/>
<path d="M249.749 55.6213H137.827V231.66H249.749V55.6213Z" fill="#CCE0FF"/>
<path opacity="0.7" d="M249.749 55.6213H137.827V231.66H249.749V55.6213Z" fill="white"/>
<path opacity="0.6" d="M151.045 50.9464H152.496V49.019H151.045V50.9464Z" fill="white"/>
<path opacity="0.6" d="M148.683 50.9464H150.134V48.3742H148.683V50.9464Z" fill="white"/>
<path opacity="0.6" d="M146.321 50.9464H147.772V47.7294H146.321V50.9464Z" fill="white"/>
<path opacity="0.6" d="M143.959 50.9464H145.41V47.0846H143.959V50.9464Z" fill="white"/>
<path opacity="0.6" d="M236.776 48.3112H235.921V50.2386H236.776V48.3112Z" fill="white"/>
<path opacity="0.6" d="M237.365 50.9464H244.205V47.6032H237.365V50.9464Z" fill="white"/>
<path d="M188.247 73.1011H225.078C225.188 73.1115 225.299 73.0988 225.403 73.0639C225.508 73.029 225.604 72.9726 225.686 72.8984C225.767 72.8241 225.833 72.7337 225.877 72.6328C225.922 72.532 225.945 72.4229 225.945 72.3126C225.945 72.2023 225.922 72.0933 225.877 71.9924C225.833 71.8915 225.767 71.8011 225.686 71.7269C225.604 71.6526 225.508 71.5963 225.403 71.5614C225.299 71.5264 225.188 71.5138 225.078 71.5241H188.247C188.051 71.5427 187.869 71.6337 187.736 71.7796C187.603 71.9254 187.53 72.1155 187.53 72.3126C187.53 72.5098 187.603 72.6999 187.736 72.8457C187.869 72.9915 188.051 73.0826 188.247 73.1011Z" fill="#263238"/>
<path d="M233.461 76.0238H188.044C187.963 76.0148 187.881 76.0231 187.803 76.0481C187.725 76.073 187.653 76.1141 187.592 76.1687C187.531 76.2232 187.483 76.29 187.449 76.3647C187.416 76.4394 187.399 76.5202 187.399 76.602C187.399 76.6838 187.416 76.7646 187.449 76.8393C187.483 76.9139 187.531 76.9807 187.592 77.0353C187.653 77.0898 187.725 77.131 187.803 77.1559C187.881 77.1809 187.963 77.1892 188.044 77.1802H233.461C233.603 77.1645 233.735 77.0968 233.83 76.9901C233.926 76.8834 233.979 76.7452 233.979 76.602C233.979 76.4587 233.926 76.3205 233.83 76.2138C233.735 76.1071 233.603 76.0395 233.461 76.0238Z" fill="#263238"/>
<path d="M220.137 79.3387H188.044C187.963 79.3297 187.881 79.338 187.803 79.363C187.725 79.388 187.653 79.4291 187.592 79.4836C187.531 79.5382 187.483 79.605 187.449 79.6796C187.416 79.7543 187.399 79.8352 187.399 79.9169C187.399 79.9987 187.416 80.0796 187.449 80.1542C187.483 80.2289 187.531 80.2957 187.592 80.3502C187.653 80.4048 187.725 80.4459 187.803 80.4709C187.881 80.4958 187.963 80.5041 188.044 80.4952H220.137C220.279 80.4795 220.411 80.4118 220.507 80.3051C220.602 80.1984 220.655 80.0602 220.655 79.9169C220.655 79.7737 220.602 79.6355 220.507 79.5288C220.411 79.4221 220.279 79.3544 220.137 79.3387Z" fill="#263238"/>
<path d="M248.41 100.786H139.158V210.038H248.41V100.786Z" fill="#CCE0FF"/>
<path d="M244.892 221.854L241.815 219.198L238.731 221.854V214.551H244.892V221.854Z" fill="#CCE0FF"/>
<path d="M233.776 214.551H229.136C228.831 214.551 228.539 214.672 228.323 214.888C228.108 215.104 227.987 215.396 227.987 215.701V218.869C227.987 219.174 228.108 219.466 228.323 219.681C228.539 219.897 228.831 220.018 229.136 220.018H230.713V221.854L231.912 220.018H233.776C233.927 220.019 234.077 219.99 234.217 219.932C234.357 219.875 234.484 219.79 234.591 219.684C234.698 219.577 234.782 219.45 234.84 219.31C234.897 219.17 234.926 219.02 234.925 218.869V215.701C234.926 215.55 234.897 215.4 234.84 215.26C234.782 215.12 234.698 214.993 234.591 214.886C234.484 214.779 234.357 214.694 234.217 214.637C234.077 214.579 233.927 214.55 233.776 214.551Z" fill="#CCE0FF"/>
<path d="M224.476 215.42C223.621 214.018 221.966 214.544 221.111 215.63C220.263 214.537 218.616 213.983 217.74 215.385C216.275 217.74 219.261 219.948 220.677 220.817L221.076 221.062L221.483 220.817C222.878 219.969 225.919 217.796 224.476 215.42Z" fill="#CCE0FF"/>
<g opacity="0.3">
<path opacity="0.7" d="M226.102 109.981H230.237L228.169 115.343L226.102 109.981Z" fill="white"/>
<path opacity="0.7" d="M239.425 136.67L240.68 140.609L234.947 140.259L239.425 136.67Z" fill="white"/>
<path d="M237.813 119.387L235.851 124.202L241.815 126.283V122.386L237.813 119.387Z" fill="white"/>
<path d="M160.479 108.691H163.514L160.479 112.665V108.691Z" fill="white"/>
<path d="M149.069 128.281L152.503 127.496L153.463 130.446L149.503 131.827L149.069 128.281Z" fill="white"/>
<path d="M183.818 112.665C184.557 112.665 185.156 112.066 185.156 111.326C185.156 110.587 184.557 109.988 183.818 109.988C183.078 109.988 182.479 110.587 182.479 111.326C182.479 112.066 183.078 112.665 183.818 112.665Z" fill="white"/>
<path d="M164.313 201.087C164.313 201.613 164.157 202.127 163.864 202.564C163.572 203.001 163.157 203.341 162.671 203.542C162.185 203.743 161.651 203.795 161.136 203.692C160.62 203.589 160.147 203.335 159.776 202.963C159.404 202.591 159.152 202.117 159.05 201.601C158.948 201.086 159.002 200.551 159.204 200.066C159.406 199.581 159.748 199.166 160.186 198.875C160.623 198.584 161.138 198.43 161.663 198.431C162.012 198.431 162.357 198.5 162.679 198.634C163.001 198.767 163.293 198.963 163.539 199.21C163.785 199.456 163.98 199.749 164.113 200.071C164.246 200.394 164.314 200.739 164.313 201.087Z" fill="white"/>
<path d="M151.522 178.008L152.503 179.669L147.758 181.701L146.679 180.594L151.522 178.008Z" fill="white"/>
<path d="M182.479 205.201L181.554 202.854H185.163L182.479 205.201Z" fill="white"/>
<path d="M220.824 202.854L221.104 200.239L226.052 201.543V205.363L220.824 202.854Z" fill="white"/>
<path d="M231.456 189.376H235.879L233.671 191.99L231.456 189.376Z" fill="white"/>
<path d="M238.731 162.476L237.813 168.027L238.829 168.952L239.782 162.476H238.731Z" fill="white"/>
<path d="M143.84 146.216L147.758 149.062L144.954 151.122L143.84 146.216Z" fill="white"/>
<path d="M161.222 123.69C161.465 123.69 161.663 123.492 161.663 123.249C161.663 123.005 161.465 122.807 161.222 122.807C160.978 122.807 160.78 123.005 160.78 123.249C160.78 123.492 160.978 123.69 161.222 123.69Z" fill="white"/>
<path d="M217.964 118.426C218.305 118.426 218.581 118.15 218.581 117.81C218.581 117.469 218.305 117.193 217.964 117.193C217.624 117.193 217.348 117.469 217.348 117.81C217.348 118.15 217.624 118.426 217.964 118.426Z" fill="white"/>
<path d="M201.41 202.349C201.41 202.481 201.357 202.607 201.264 202.701C201.171 202.794 201.044 202.847 200.912 202.847C200.78 202.847 200.653 202.794 200.56 202.701C200.467 202.607 200.414 202.481 200.414 202.349C200.414 202.217 200.467 202.09 200.56 201.997C200.653 201.904 200.78 201.851 200.912 201.851C201.044 201.851 201.171 201.904 201.264 201.997C201.357 202.09 201.41 202.217 201.41 202.349Z" fill="white"/>
<path d="M207.248 106.287L212.182 105.544V107.948L207.248 108.691V106.287Z" fill="white"/>
<path d="M239.782 108.691H241.401L240.588 110.675L239.782 108.691Z" fill="white"/>
<path d="M146.679 111.327H149.069L147.87 112.665L146.679 111.327Z" fill="white"/>
<path d="M237.28 205.201L237.049 200.604L240.589 201.851L237.28 205.201Z" fill="white"/>
<path d="M240.68 178.744L238.829 177.265V178.744L240.68 179.858V178.744Z" fill="white"/>
<path d="M145.795 163.955L147.87 165.714L146.833 167.284L144.085 165.083L145.795 163.955Z" fill="white"/>
<path d="M144.085 122.807H146.679L143.84 123.69L144.085 122.807Z" fill="white"/>
</g>
<path d="M189.285 118.609L193.974 114.2L198.613 118.651L204.248 115.546L207.641 121.013L213.871 119.415L215.792 125.547H222.226L222.569 131.967L228.8 133.565L227.524 139.873L233.166 142.971L230.37 148.76L235.059 153.162L230.91 158.075L234.358 163.507L229.115 167.235L231.106 173.347L225.106 175.653L225.513 182.073L219.121 182.816L217.922 189.138L211.544 188.261L208.811 194.086L202.854 191.654L198.754 196.616L193.588 192.782L188.388 196.567L184.337 191.57L178.358 193.939L175.681 188.093L169.303 188.899L168.16 182.57L161.775 181.764L162.245 175.351L156.267 172.989L158.313 166.892L153.106 163.114L156.61 157.717L152.503 152.762L157.241 148.41L154.5 142.586L160.17 139.544L158.958 133.229L165.203 131.694L165.602 125.274L172.036 125.337L174.02 119.218L180.236 120.88L183.678 115.448L189.285 118.609Z" fill="#CCE0FF"/>
<path opacity="0.4" d="M231.61 159.477L235.759 154.57L231.071 150.169L233.874 144.38L228.232 141.282L229.508 134.974L223.277 133.376L222.933 126.956H216.499L214.579 120.823L208.348 122.421L204.956 116.955L199.349 120.059L194.709 115.609L190.02 120.017L184.413 116.856L180.972 122.295L174.755 120.627L172.772 126.746L166.338 126.683L165.938 133.103L159.694 134.638L160.906 140.945L155.236 143.987L157.977 149.811L153.204 154.192L157.311 159.147L153.806 164.544L159.014 168.322L156.967 174.419L162.946 176.781L162.476 183.194L168.861 184L169.997 190.308L176.381 189.502L179.059 195.347L185.037 192.978L189.088 197.975L194.289 194.191L199.454 198.025L203.554 193.062L209.512 195.494L212.245 189.67L218.616 190.546L219.822 184.238L226.214 183.495L225.8 177.075L231.807 174.77L229.816 168.651L235.059 164.929L231.61 159.477ZM230.321 164.004L225.688 167.298L227.447 172.702L222.141 174.735L222.506 180.405L216.857 181.063L215.799 186.67L210.192 185.899L207.774 191.044L202.517 188.899L198.894 193.273L194.331 189.887L189.74 193.231L186.166 188.815L180.881 190.918L178.519 185.752L172.877 186.453L171.875 180.846L166.268 180.145L166.688 174.482L161.404 172.38L163.212 166.997L158.614 163.661L161.712 158.895L158.082 154.521L162.287 150.674L159.799 145.501L164.81 142.817L163.738 137.21L169.261 135.857L169.611 130.187L175.288 130.243L177.04 124.839L182.528 126.311L185.57 121.51L190.525 124.314L194.66 120.417L198.76 124.349L203.737 121.608L206.736 126.437L212.238 125.036L213.934 130.46H219.618L219.92 136.137L225.422 137.539L224.3 143.104L229.276 145.838L226.809 150.954L230.951 154.844L227.286 159.182L230.321 164.004Z" fill="#003380"/>
<path opacity="0.4" d="M189.285 118.609L193.974 114.2L198.613 118.651L204.248 115.546L207.641 121.013L213.871 119.415L215.792 125.547H222.226L222.569 131.967L228.8 133.565L227.524 139.873L233.166 142.971L230.37 148.76L235.059 153.162L230.91 158.075L234.358 163.507L229.115 167.235L231.106 173.347L225.106 175.653L225.513 182.073L219.121 182.816L217.922 189.138L211.544 188.261L208.811 194.086L202.854 191.654L198.754 196.616L193.588 192.782L188.388 196.567L184.337 191.57L178.358 193.939L175.681 188.093L169.303 188.899L168.16 182.57L161.775 181.764L162.245 175.351L156.267 172.989L158.313 166.892L153.106 163.114L156.61 157.717L152.503 152.762L157.241 148.41L154.5 142.586L160.17 139.544L158.958 133.229L165.203 131.694L165.602 125.274L172.036 125.337L174.02 119.218L180.236 120.88L183.678 115.448L189.285 118.609Z" fill="#003380"/>
<path d="M230.91 158.075L235.059 153.169L230.37 148.767L233.173 142.978L227.531 139.88L228.807 133.572L222.576 131.974L222.233 125.554H215.799L213.878 119.422L207.648 121.02L204.255 115.553L198.648 118.658L194.009 114.207L189.32 118.616L183.713 115.455L180.272 120.893L174.055 119.225L172.071 125.344L165.637 125.281L165.238 131.701L158.993 133.236L160.206 139.544L154.535 142.585L157.276 148.41L152.503 152.79L156.61 157.745L153.106 163.142L158.313 166.92L156.267 173.017L162.245 175.379L161.775 181.792L168.16 182.598L169.296 188.906L175.681 188.1L178.358 193.945L184.337 191.576L188.388 196.574L193.588 192.789L198.754 196.623L202.854 191.66L208.811 194.093L211.544 188.268L217.915 189.144L219.121 182.837L225.513 182.094L225.099 175.674L231.106 173.368L229.115 167.249L234.358 163.527L230.91 158.075ZM229.62 162.602L224.987 165.896L226.746 171.3L221.441 173.333L221.805 179.003L216.156 179.662L215.098 185.269L209.491 184.498L207.073 189.642L201.816 187.497L198.193 191.871L193.63 188.486L189.039 191.829L185.465 187.413L180.18 189.516L177.818 184.35L172.176 185.051L171.174 179.444L165.567 178.743L165.988 173.08L160.703 170.978L162.511 165.595L157.914 162.259L161.012 157.493L157.381 153.119L161.586 149.272L159.098 144.099L164.109 141.415L163.037 135.808L168.56 134.455L168.91 128.785L174.587 128.841L176.34 123.438L181.827 124.909L184.869 120.108L189.824 122.912L193.96 119.015L198.06 122.947L203.036 120.207L206.036 125.036L211.537 123.634L213.234 129.059H218.918L219.219 134.736L224.721 136.137L223.599 141.702L228.576 144.436L226.109 149.552L230.251 153.442L226.585 157.78L229.62 162.602Z" fill="#CCE0FF"/>
<path opacity="0.6" d="M230.91 158.075L235.059 153.169L230.37 148.767L233.173 142.978L227.531 139.88L228.807 133.572L222.576 131.974L222.233 125.554H215.799L213.878 119.422L207.648 121.02L204.255 115.553L198.648 118.658L194.009 114.207L189.32 118.616L183.713 115.455L180.272 120.893L174.055 119.225L172.071 125.344L165.637 125.281L165.238 131.701L158.993 133.236L160.206 139.544L154.535 142.585L157.276 148.41L152.503 152.79L156.61 157.745L153.106 163.142L158.313 166.92L156.267 173.017L162.245 175.379L161.775 181.792L168.16 182.598L169.296 188.906L175.681 188.1L178.358 193.945L184.337 191.576L188.388 196.574L193.588 192.789L198.754 196.623L202.854 191.66L208.811 194.093L211.544 188.268L217.915 189.144L219.121 182.837L225.513 182.094L225.099 175.674L231.106 173.368L229.115 167.249L234.358 163.527L230.91 158.075ZM229.62 162.602L224.987 165.896L226.746 171.3L221.441 173.333L221.805 179.003L216.156 179.662L215.098 185.269L209.491 184.498L207.073 189.642L201.816 187.497L198.193 191.871L193.63 188.486L189.039 191.829L185.465 187.413L180.18 189.516L177.818 184.35L172.176 185.051L171.174 179.444L165.567 178.743L165.988 173.08L160.703 170.978L162.511 165.595L157.914 162.259L161.012 157.493L157.381 153.119L161.586 149.272L159.098 144.099L164.109 141.415L163.037 135.808L168.56 134.455L168.91 128.785L174.587 128.841L176.34 123.438L181.827 124.909L184.869 120.108L189.824 122.912L193.96 119.015L198.06 122.947L203.036 120.207L206.036 125.036L211.537 123.634L213.234 129.059H218.918L219.219 134.736L224.721 136.137L223.599 141.702L228.576 144.436L226.109 149.552L230.251 153.442L226.585 157.78L229.62 162.602Z" fill="white"/>
<path opacity="0.4" d="M173.186 153.358C173.186 153.358 176.76 152.741 178.519 153.358C180.278 153.975 187.722 166.674 187.722 166.674C187.722 166.674 202.16 146.812 213.703 138.128C213.703 138.128 198.725 151.543 190.042 174.062C190.042 174.062 187.119 175.351 185.051 173.045C184.456 172.345 177.748 160.913 176.452 160.486C175.435 160.142 172.155 160.311 172.155 160.311L173.186 153.358Z" fill="#003380"/>
<path d="M172.485 152.657C172.485 152.657 176.059 152.04 177.819 152.657C179.578 153.274 187.021 165.974 187.021 165.974C187.021 165.974 201.459 146.111 213.002 137.427C213.002 137.427 198.025 150.842 189.341 173.361C189.341 173.361 186.418 174.65 184.351 172.345C183.755 171.644 177.048 160.213 175.751 159.785C174.735 159.442 171.455 159.61 171.455 159.61L172.485 152.657Z" fill="white"/>
<path d="M177.875 79.3038C177.889 82.1768 177.165 85.0054 175.772 87.518L175.464 88.0437C174.462 89.7057 173.179 91.1808 171.672 92.4031L171.588 92.4732C170.161 93.6232 168.556 94.5323 166.836 95.1646C164.977 95.8458 163.012 96.1922 161.033 96.1878C160.403 96.1917 159.773 96.1565 159.147 96.0827C158.096 95.971 157.059 95.7574 156.049 95.4449C153.591 94.6891 151.341 93.3745 149.475 91.6041C147.435 89.6849 145.904 87.2886 145.02 84.6308C144.135 81.9729 143.926 79.137 144.409 76.378C144.893 73.6191 146.055 71.0236 147.791 68.8252C149.527 66.6267 151.781 64.8942 154.353 63.7835C156.924 62.6728 159.731 62.2187 162.522 62.4621C165.312 62.7055 167.999 63.6388 170.339 65.1779C172.679 66.717 174.6 68.8138 175.929 71.2796C177.258 73.7453 177.953 76.5028 177.952 79.3038H177.875Z" fill="#CCE0FF"/>
<path d="M175.744 87.5179L175.435 88.0435C171.571 87.9831 167.715 88.4189 163.962 89.3401L162.708 89.6485L161.853 89.8728C160.78 90.1602 159.75 90.4615 158.874 90.7489L158.474 90.8821L158.187 90.9732C157.143 91.3236 156.253 91.639 155.573 91.8983C154.556 92.2838 153.975 92.5361 153.975 92.5361C153.642 92.1076 153.338 91.6581 153.064 91.1904L153.022 91.1133C151.501 88.5622 148.816 82.7029 150.078 74.2924C151.48 64.9357 159.238 65.5315 161.993 66.0501C162.322 66.1046 162.647 66.1795 162.967 66.2744C162.967 66.2744 171.651 68.321 171.973 73.7317C172.019 74.4559 172.108 75.1768 172.239 75.8904C173.056 79.8636 174.229 83.7552 175.744 87.5179Z" fill="#263238"/>
<path d="M166.808 95.1646C164.949 95.8458 162.984 96.1922 161.004 96.1879C160.374 96.1917 159.745 96.1566 159.119 96.0827C158.068 95.971 157.031 95.7574 156.021 95.4449L155.481 91.0365L155.222 88.9338L166.78 90.5739V91.5621L166.815 94.4637V95.1646H166.808Z" fill="#CCE0FF"/>
<path d="M171.56 92.4731C170.133 93.6231 168.528 94.5322 166.808 95.1644C164.949 95.8456 162.984 96.1921 161.005 96.1877C160.375 96.1915 159.745 96.1564 159.119 96.0826C158.068 95.9709 157.031 95.7572 156.021 95.4448C153.563 94.6889 151.313 93.3744 149.447 91.604C149.98 91.5199 150.519 91.4568 151.059 91.3867H151.192C151.83 91.3167 152.468 91.2536 153.106 91.2045C153.863 91.1414 154.613 91.0924 155.37 91.0643H155.503L156.428 91.0293H157.528H158.818C160.22 91.0293 161.64 91.0807 163.079 91.1835L164.53 91.3026L165.294 91.3797L166.401 91.5479L166.647 91.583H166.815L168.118 91.8073C168.322 91.8423 168.525 91.8914 168.728 91.9194L169.114 91.9965L169.527 92.0736L170.228 92.2138L170.719 92.3119L171.56 92.4731Z" fill="#263238"/>
<path d="M163.85 95.3187C159.035 94.4987 157.661 92.3681 157.661 92.3681C159.722 90.5878 159.477 87.8194 159.063 86.0602C158.931 85.5113 158.752 84.9744 158.53 84.4552L164.313 85.7869C164.145 86.591 164.035 87.4061 163.983 88.2259C163.939 88.8324 163.97 89.4421 164.074 90.0412C164.397 91.7933 165.392 91.8634 165.392 91.8634C166.31 93.8609 163.85 95.3187 163.85 95.3187Z" fill="#E4897B"/>
<path opacity="0.2" d="M163.962 88.2679C163.918 88.8744 163.949 89.4841 164.053 90.0832C161.754 89.6766 160.072 87.7563 159.042 86.1022C158.91 85.5533 158.731 85.0164 158.509 84.4972L164.292 85.8289C164.124 86.633 164.014 87.4481 163.962 88.2679Z" fill="black"/>
<path d="M163.177 69.2603C168.651 69.4986 170.291 72.5054 170.445 78.1614C170.649 85.2262 168.868 90.1674 162.091 88.3731C152.881 85.9271 154.087 68.8678 163.177 69.2603Z" fill="#E4897B"/>
<path d="M166.92 77.6987C167.325 78.5361 167.828 79.3221 168.42 80.0396C168.248 80.2579 168.021 80.4255 167.762 80.5243C167.502 80.623 167.221 80.6493 166.948 80.6003L166.92 77.6987Z" fill="#DE5753"/>
<path d="M161.292 74.2925C161.23 74.2928 161.17 74.2704 161.124 74.2294C161.099 74.2065 161.08 74.1788 161.067 74.148C161.053 74.1173 161.047 74.0842 161.047 74.0507C161.047 74.0172 161.053 73.9841 161.067 73.9533C161.08 73.9226 161.099 73.8949 161.124 73.872C161.47 73.54 161.89 73.2941 162.349 73.1541C162.808 73.0141 163.293 72.9839 163.766 73.066C163.799 73.0719 163.83 73.0842 163.858 73.1022C163.886 73.1202 163.91 73.1435 163.929 73.1709C163.948 73.1982 163.961 73.2291 163.968 73.2616C163.975 73.2941 163.975 73.3276 163.969 73.3603C163.963 73.393 163.951 73.4243 163.933 73.4522C163.915 73.4801 163.892 73.5042 163.864 73.5231C163.837 73.542 163.806 73.5553 163.774 73.5623C163.741 73.5692 163.708 73.5696 163.675 73.5636C163.288 73.5022 162.891 73.5282 162.516 73.6398C162.14 73.7513 161.793 73.9456 161.502 74.2084C161.476 74.2378 161.444 74.2607 161.407 74.2753C161.371 74.2899 161.331 74.2958 161.292 74.2925Z" fill="#263238"/>
<path d="M169.85 74.0682C169.797 74.0668 169.745 74.0497 169.702 74.0191C169.438 73.7953 169.128 73.6333 168.793 73.5448C168.458 73.4562 168.108 73.4435 167.768 73.5075C167.736 73.5184 167.703 73.5229 167.669 73.5207C167.636 73.5185 167.603 73.5096 167.573 73.4946C167.543 73.4796 167.516 73.4588 167.494 73.4333C167.472 73.4078 167.456 73.3782 167.446 73.3463C167.425 73.2821 167.431 73.2126 167.461 73.1525C167.491 73.0923 167.543 73.0462 167.607 73.0239C168.023 72.9328 168.455 72.9378 168.869 73.0386C169.283 73.1394 169.669 73.3333 169.997 73.6056C170.051 73.6461 170.087 73.7062 170.097 73.7729C170.108 73.8397 170.092 73.9079 170.053 73.9631C170.029 73.9946 169.998 74.0204 169.963 74.0386C169.928 74.0567 169.889 74.0669 169.85 74.0682Z" fill="#263238"/>
<path d="M156.799 78.2314C156.799 78.2314 159.554 73.844 159.315 70.3536C159.315 70.3536 170.354 66.3867 170.417 77.4184C170.417 77.4184 171.896 67.6903 162.497 67.0665C153.099 66.4428 152.545 80.2149 157.227 84.5253C157.227 84.5253 155.096 80.9719 156.799 78.2314Z" fill="#263238"/>
<path d="M157.647 79.4228C157.62 78.7882 157.343 78.19 156.877 77.7582C156.412 77.3265 155.794 77.096 155.159 77.1169C153.449 77.229 152.496 80.6773 156.68 81.6936C157.276 81.8408 157.64 81.3011 157.647 79.4228Z" fill="#E4897B"/>
<path d="M167.053 82.2124C166.681 82.7674 166.348 83.3483 166.058 83.9505L165.714 83.8524C164.187 83.3758 163.612 82.6539 163.479 81.9951C163.411 81.67 163.423 81.3334 163.514 81.0139C163.558 80.8317 163.629 80.6571 163.724 80.4952C164.537 81.2058 165.493 81.7339 166.527 82.0442C166.85 82.1563 167.053 82.2124 167.053 82.2124Z" fill="#263238"/>
<path d="M166.534 82.0442L166.226 82.5488C164.824 82.1002 163.829 81.5956 163.514 81.0139C163.558 80.8317 163.629 80.6571 163.724 80.4952C164.539 81.2067 165.498 81.7349 166.534 82.0442Z" fill="white"/>
<path d="M165.714 83.8523C164.187 83.3757 163.612 82.6538 163.479 81.995C164.059 82.1844 164.6 82.4764 165.077 82.8571C165.392 83.1108 165.615 83.4602 165.714 83.8523Z" fill="#DE5753"/>
<path d="M163.051 69.6667C163.051 69.6667 160.458 78.5818 154.795 78.2243C149.132 77.8669 158.369 66.8351 158.369 66.8351C158.369 66.8351 167.768 63.7443 172.127 68.8537C176.487 73.963 170.417 77.4183 170.417 77.4183C170.417 77.4183 171.062 70.4587 163.051 69.6667Z" fill="#263238"/>
<path d="M158.846 77.3483C158.811 77.3478 158.777 77.3369 158.748 77.3169C158.719 77.2969 158.697 77.2688 158.685 77.2361C158.668 77.1942 158.668 77.1475 158.685 77.1057C158.702 77.064 158.735 77.0303 158.776 77.0119C163.191 75.1195 162.848 69.099 162.848 69.0359C162.846 68.9906 162.862 68.9463 162.892 68.9123C162.922 68.8783 162.964 68.8573 163.009 68.8537C163.055 68.8516 163.1 68.8671 163.135 68.897C163.171 68.9269 163.193 68.9691 163.198 69.0149C163.198 69.078 163.556 75.3228 158.916 77.3343L158.846 77.3483Z" fill="#263238"/>
<path d="M163.696 77.3902C163.745 77.8108 163.556 78.1822 163.275 78.2173C162.995 78.2523 162.722 77.9299 162.673 77.5164C162.624 77.1029 162.813 76.7244 163.093 76.6894C163.374 76.6543 163.647 76.9627 163.696 77.3902Z" fill="#263238"/>
<path d="M162.974 76.7175L163.857 76.2479C163.857 76.2479 163.486 77.096 162.974 76.7175Z" fill="#263238"/>
<path d="M168.945 76.6755C168.995 77.096 168.805 77.4674 168.525 77.5025C168.245 77.5375 167.971 77.2221 167.922 76.8016C167.873 76.3811 168.062 76.0096 168.343 75.9746C168.623 75.9395 168.91 76.2549 168.945 76.6755Z" fill="#263238"/>
<path d="M168.209 76.0027L169.086 75.5331C169.086 75.5331 168.742 76.3952 168.209 76.0027Z" fill="#263238"/>
<path d="M171.644 92.403L171.56 92.4731C170.133 93.623 168.528 94.5321 166.808 95.1644V94.6668V94.4495L165.89 92.5922L166.359 91.4848L166.759 90.5597L167.165 91.4428L171.644 92.403Z" fill="#CCE0FF"/>
<path opacity="0.6" d="M171.644 92.403L171.56 92.4731C170.133 93.623 168.528 94.5321 166.808 95.1644V94.6668V94.4495L165.89 92.5922L166.359 91.4848L166.759 90.5597L167.165 91.4428L171.644 92.403Z" fill="white"/>
<path d="M161.11 92.4522L159.196 94.8562L159.098 96.0897C158.047 95.978 157.01 95.7644 156 95.4519C153.542 94.6961 151.292 93.3815 149.426 91.6111L151.017 91.3868H151.15L154.521 90.9103L155.222 88.9408L158.657 90.9874L161.131 92.4662L161.11 92.4522Z" fill="#CCE0FF"/>
<path opacity="0.6" d="M161.103 92.4522L159.196 94.8562L159.098 96.0898C158.047 95.978 157.01 95.7644 156 95.452C153.542 94.6961 151.292 93.3815 149.426 91.6112L151.15 91.3729L154.521 90.9033L155.222 88.9338L158.657 90.9804L161.103 92.4522Z" fill="white"/>
<path d="M179.031 93.5875C179.031 94.4955 178.762 95.3831 178.257 96.138C177.753 96.893 177.036 97.4814 176.197 97.8288C175.358 98.1763 174.435 98.2672 173.545 98.0901C172.654 97.9129 171.836 97.4757 171.194 96.8337C170.552 96.1916 170.115 95.3737 169.938 94.4832C169.761 93.5926 169.852 92.6696 170.199 91.8308C170.547 90.9919 171.135 90.2749 171.89 89.7705C172.645 89.2661 173.532 88.9968 174.44 88.9968C175.658 88.9968 176.826 89.4805 177.686 90.3414C178.547 91.2023 179.031 92.37 179.031 93.5875Z" fill="white"/>
<path d="M178.358 93.5877C178.358 94.3626 178.128 95.12 177.698 95.7643C177.267 96.4086 176.655 96.9108 175.94 97.2073C175.224 97.5039 174.436 97.5814 173.676 97.4303C172.916 97.2791 172.218 96.906 171.67 96.358C171.122 95.8101 170.749 95.112 170.598 94.352C170.446 93.592 170.524 92.8043 170.821 92.0884C171.117 91.3725 171.619 90.7606 172.264 90.3301C172.908 89.8996 173.665 89.6698 174.44 89.6698C175.479 89.6698 176.476 90.0826 177.211 90.8173C177.945 91.5521 178.358 92.5486 178.358 93.5877Z" fill="#263238"/>
<path d="M174.286 95.6271L172.197 93.7838L172.66 93.2582L174.174 94.5899L176.164 91.8564L176.732 92.27L174.286 95.6271Z" fill="white"/>
<path d="M271.995 233.776C271.995 233.776 267.909 224.868 272.576 216.086C277.244 207.304 278.59 205.237 275.618 203.435C272.646 201.634 271.28 210.444 271.28 210.444C271.28 210.444 268.771 204.368 270.845 198.018C272.92 191.668 274.209 181.316 271.385 180.201C268.56 179.087 270.845 193.112 268.392 197.892C267.142 194.537 266.337 191.033 265.995 187.47C265.652 182.367 266.184 174.216 263.949 172.127C261.713 170.039 260.29 171.483 262.484 182.746C263.802 189.475 264.529 196.306 264.657 203.162C264.657 203.162 259.813 188.388 256.561 187.96C253.309 187.533 253.316 192.313 256.099 196.462C258.881 200.611 264.25 208.047 265.133 211.881C265.133 211.881 259.813 200.765 255.027 204.171C250.24 207.578 259.19 214.292 263.178 216.724C267.166 219.156 269.941 234.358 269.941 234.358L271.995 233.776Z" fill="#CCE0FF"/>
<path opacity="0.2" d="M271.995 233.776C271.995 233.776 267.909 224.868 272.576 216.086C277.244 207.304 278.59 205.237 275.618 203.435C272.646 201.634 271.28 210.444 271.28 210.444C271.28 210.444 268.771 204.368 270.845 198.018C272.92 191.668 274.209 181.316 271.385 180.201C268.56 179.087 270.845 193.112 268.392 197.892C267.142 194.537 266.337 191.033 265.995 187.47C265.652 182.367 266.184 174.216 263.949 172.127C261.713 170.039 260.29 171.483 262.484 182.746C263.802 189.475 264.529 196.306 264.657 203.162C264.657 203.162 259.813 188.388 256.561 187.96C253.309 187.533 253.316 192.313 256.099 196.462C258.881 200.611 264.25 208.047 265.133 211.881C265.133 211.881 259.813 200.765 255.027 204.171C250.24 207.578 259.19 214.292 263.178 216.724C267.166 219.156 269.941 234.358 269.941 234.358L271.995 233.776Z" fill="black"/>
<path d="M268.771 237.435C268.771 237.435 272.745 228.464 267.972 219.752C263.199 211.04 261.825 208.993 264.783 207.136C267.74 205.279 269.205 214.096 269.205 214.096C269.205 214.096 271.637 207.984 269.493 201.662C267.348 195.34 265.925 185.01 268.736 183.86C271.546 182.711 269.436 196.763 271.939 201.501C273.149 198.129 273.915 194.614 274.216 191.044C274.49 185.935 273.866 177.798 276.074 175.674C278.281 173.55 279.725 174.973 277.665 186.271C276.428 193.031 275.783 199.886 275.737 206.758C275.737 206.758 280.405 191.913 283.65 191.437C286.895 190.96 286.951 195.74 284.218 199.931C281.484 204.122 276.2 211.636 275.366 215.469C275.366 215.469 280.552 204.256 285.374 207.613C290.196 210.97 281.337 217.796 277.377 220.277C273.417 222.759 270.831 238.017 270.831 238.017L268.771 237.435Z" fill="#CCE0FF"/>
<path d="M287.106 231.036H254.263L256.919 254.543H284.449L287.106 231.036Z" fill="#263238"/>
<path d="M69.4915 238.605L89.7117 236.622V211.741H97.7156V236.608L117.992 238.605C118.964 238.699 119.865 239.152 120.521 239.875C121.177 240.598 121.539 241.54 121.538 242.516V245.551H65.9451V242.502C65.9475 241.528 66.3118 240.59 66.9672 239.87C67.6226 239.15 68.5223 238.699 69.4915 238.605Z" fill="#263238"/>
<path opacity="0.1" d="M69.4915 238.605L89.7117 236.622V211.741H97.7156V236.608L117.992 238.605C118.964 238.699 119.865 239.152 120.521 239.875C121.177 240.598 121.539 241.54 121.538 242.516V245.551H65.9451V242.502C65.9475 241.528 66.3118 240.59 66.9672 239.87C67.6226 239.15 68.5223 238.699 69.4915 238.605Z" fill="white"/>
<path d="M120.23 254.47C123.084 254.007 125.022 251.317 124.559 248.463C124.095 245.609 121.406 243.671 118.552 244.134C115.698 244.598 113.76 247.287 114.223 250.141C114.686 252.995 117.376 254.933 120.23 254.47Z" fill="#263238"/>
<path d="M73.2493 250.161C73.7126 247.307 71.7745 244.618 68.9203 244.154C66.0662 243.691 63.3769 245.629 62.9136 248.483C62.4503 251.338 64.3884 254.027 67.2426 254.49C70.0967 254.954 72.786 253.015 73.2493 250.161Z" fill="#263238"/>
<path d="M96.1738 217.845H91.2046C90.4369 217.845 89.7006 217.54 89.1578 216.997C88.6149 216.455 88.31 215.718 88.31 214.951V192.572H99.0684V214.951C99.0684 215.718 98.7634 216.455 98.2205 216.997C97.6777 217.54 96.9414 217.845 96.1738 217.845Z" fill="#263238"/>
<path opacity="0.2" d="M96.1738 217.845H91.2046C90.4369 217.845 89.7006 217.54 89.1578 216.997C88.6149 216.455 88.31 215.718 88.31 214.951V192.572H99.0684V214.951C99.0684 215.718 98.7634 216.455 98.2205 216.997C97.6777 217.54 96.9414 217.845 96.1738 217.845Z" fill="white"/>
<path d="M65.7419 148.683C65.7419 148.683 71.7343 186.117 83.5651 192.565H71.5381C71.5381 192.565 59.6583 179.809 56.0698 148.683H65.7419Z" fill="#263238"/>
<path opacity="0.1" d="M65.7419 148.683C65.7419 148.683 71.7343 186.117 83.5651 192.565H71.5381C71.5381 192.565 59.6583 179.809 56.0698 148.683H65.7419Z" fill="white"/>
<path d="M70.9494 187.273H117.852C118.781 187.273 119.673 187.642 120.33 188.299C120.987 188.957 121.356 189.848 121.356 190.777V195.466H67.4451V190.777C67.4451 189.848 67.8143 188.957 68.4715 188.299C69.1287 187.642 70.02 187.273 70.9494 187.273Z" fill="#CCE0FF"/>
<path d="M122.19 191.366H66.6039C65.8259 191.366 65.1952 191.997 65.1952 192.775V194.051C65.1952 194.829 65.8259 195.459 66.6039 195.459H122.19C122.968 195.459 123.599 194.829 123.599 194.051V192.775C123.599 191.997 122.968 191.366 122.19 191.366Z" fill="#263238"/>
<path opacity="0.6" d="M122.19 191.366H66.6039C65.8259 191.366 65.1952 191.997 65.1952 192.775V194.051C65.1952 194.829 65.8259 195.459 66.6039 195.459H122.19C122.968 195.459 123.599 194.829 123.599 194.051V192.775C123.599 191.997 122.968 191.366 122.19 191.366Z" fill="white"/>
<path d="M54.612 156.295H73.886C79.493 156.295 83.2006 151.767 82.0722 146.181L80.6004 138.724C79.479 133.117 73.9911 128.617 68.3491 128.617H49.0611C43.4541 128.617 39.7465 133.145 40.8749 138.724L42.3677 146.181C43.4541 151.767 48.97 156.295 54.612 156.295Z" fill="#CCE0FF"/>
<path d="M72.7576 119.387H85.0369L86.1653 126.711L75.2457 128.617L72.7576 119.387Z" fill="#CCE0FF"/>
<path d="M154.297 221.132L149.889 222.856L146.721 216.878L143.84 211.446L148.725 208.517L151.676 215.189L154.297 221.132Z" fill="#E4897B"/>
<path opacity="0.2" d="M151.676 215.189L146.721 216.878L143.84 211.446L148.725 208.517L151.676 215.189Z" fill="black"/>
<path d="M150.765 211.93L144.765 215.168C144.765 215.168 122.106 175.33 118.623 175.66C115.139 175.989 82.0863 197.036 72.0078 189.236C61.9292 181.435 71.7344 158.04 71.7344 158.04C71.7344 158.04 91.4289 150.554 93.6928 155.131C94.6857 156.985 95.5703 158.894 96.3421 160.85C96.7836 162.252 97.12 163.493 97.12 163.493C97.7578 163.233 118.349 154.788 127.545 159.287C136.895 163.934 150.765 211.93 150.765 211.93Z" fill="#CCE0FF"/>
<path opacity="0.3" d="M150.765 211.93L144.765 215.168C144.765 215.168 122.106 175.33 118.623 175.66C115.139 175.989 82.0863 197.036 72.0078 189.236C61.9292 181.435 71.7344 158.04 71.7344 158.04C71.7344 158.04 91.4289 150.554 93.6928 155.131C94.6857 156.985 95.5703 158.894 96.3421 160.85C96.7836 162.252 97.12 163.493 97.12 163.493C97.7578 163.233 118.349 154.788 127.545 159.287C136.895 163.934 150.765 211.93 150.765 211.93Z" fill="white"/>
<path d="M118.188 244.415L113.485 243.876L113.464 237.245L113.457 231.155L119.141 230.888L118.637 238.051L118.188 244.415Z" fill="#E4897B"/>
<path opacity="0.2" d="M118.623 238.199L113.45 237.372V231.225L119.134 230.924L118.623 238.199Z" fill="black"/>
<path d="M141.836 213.171L150.611 208.776L151.522 212.491L144.877 215.918L141.836 213.171Z" fill="#263238"/>
<path d="M87.609 189.32C87.609 189.32 89.0528 189.158 111.214 185.051C111.214 185.051 111.719 213.402 112.77 234.526L119.597 234.75C119.597 234.75 129.409 187.848 128.239 180.783C127.068 173.718 118.658 172.744 118.658 172.744C118.658 172.744 104.002 184.098 87.609 189.32Z" fill="#CCE0FF"/>
<path opacity="0.4" d="M87.609 189.32C87.609 189.32 89.0528 189.158 111.214 185.051C111.214 185.051 111.719 213.402 112.77 234.526L119.597 234.75C119.597 234.75 129.409 187.848 128.239 180.783C127.068 173.718 118.658 172.744 118.658 172.744C118.658 172.744 104.002 184.098 87.609 189.32Z" fill="white"/>
<path opacity="0.3" d="M87.609 189.32C87.609 189.32 89.0528 189.158 111.214 185.051C111.214 185.051 111.719 213.402 112.77 234.526L119.597 234.75C119.597 234.75 129.409 187.848 128.239 180.783C127.068 173.718 118.658 172.744 118.658 172.744C118.658 172.744 104.002 184.098 87.609 189.32Z" fill="black"/>
<path d="M111.488 232.641L120.795 232.423L119.527 236.257L111.971 236.327L111.488 232.641Z" fill="#263238"/>
<path opacity="0.3" d="M97.12 163.514L85.037 167.817C85.037 167.817 91.3939 163.072 96.3421 160.871C96.7836 162.301 97.12 163.514 97.12 163.514Z" fill="black"/>
<path d="M70.9565 156.379L70.7812 159.967L93.4265 155.166L92.9008 151.206L70.9565 156.379Z" fill="#263238"/>
<path opacity="0.2" d="M70.9565 156.379L70.7812 159.967L93.4265 155.166L92.9008 151.206L70.9565 156.379Z" fill="black"/>
<path d="M77.8379 154.184L76.7078 154.394L77.7727 160.134L78.9029 159.924L77.8379 154.184Z" fill="#CCE0FF"/>
<path d="M87.7196 152.726L82.7762 153.84L83.6206 157.587L88.564 156.472L87.7196 152.726Z" fill="white"/>
<path d="M91.5916 150.796L90.4614 151.006L91.5254 156.746L92.6555 156.537L91.5916 150.796Z" fill="#CCE0FF"/>
<path opacity="0.3" d="M77.8379 154.184L76.7078 154.394L77.7727 160.134L78.9029 159.924L77.8379 154.184Z" fill="white"/>
<path opacity="0.3" d="M91.5916 150.796L90.4614 151.006L91.5254 156.746L92.6555 156.537L91.5916 150.796Z" fill="white"/>
<path d="M163.058 228.947C162.321 228.721 161.549 228.633 160.78 228.688C160.78 228.688 157.942 227.503 154.473 221.84L151.536 222.226C151.041 222.3 150.582 222.525 150.22 222.87C149.857 223.215 149.61 223.663 149.51 224.153C149.486 224.29 149.486 224.43 149.51 224.566C149.634 225.278 149.805 225.98 150.022 226.669C150.775 228.945 151.664 231.173 152.685 233.341L153.169 233.145L151.662 228.891C151.157 227.447 152.917 228.667 153.849 230.068C154.781 231.47 156.099 232.823 159.238 231.638C162.89 230.216 164.334 229.459 163.058 228.947Z" fill="#CCE0FF"/>
<path d="M153.757 220.34C153.757 220.34 158.474 227.496 160.766 228.688C160.766 228.688 158.173 230.79 154.711 227.412C150.239 223.088 149.496 224.567 149.496 224.567C149.456 223.719 149.496 222.87 149.615 222.03C149.987 220.39 153.757 220.34 153.757 220.34Z" fill="#E4897B"/>
<path d="M125.225 252.756C124.561 252.365 123.832 252.097 123.073 251.964C123.073 251.964 120.592 250.135 118.595 243.827L115.651 243.504C115.151 243.458 114.648 243.568 114.212 243.819C113.777 244.07 113.43 244.45 113.219 244.906C113.156 245.032 113.114 245.167 113.093 245.306C113.047 246.02 113.047 246.736 113.093 247.45C113.287 249.837 113.624 252.211 114.102 254.557L114.614 254.48L114.158 249.994C114.011 248.467 115.434 250.072 116.009 251.656C116.583 253.24 117.536 254.866 120.866 254.459C124.755 253.947 126.339 253.555 125.225 252.756Z" fill="#CCE0FF"/>
<path d="M118.223 242.187C118.223 242.187 121.111 250.261 123.073 251.964C123.073 251.964 120.06 253.366 117.466 249.293C114.144 244.023 113.065 245.291 113.065 245.291C113.223 244.459 113.458 243.642 113.766 242.852C114.551 241.339 118.223 242.187 118.223 242.187Z" fill="#E4897B"/>
<path d="M83.593 94.6178C83.593 94.6178 72.5262 89.2421 68.8747 100.821C65.2231 112.399 69.905 120.389 69.905 120.389C69.905 120.389 82.7099 117.109 93.4894 119.401C93.4894 119.401 91.1625 109.532 91.7232 103.869C92.2838 98.2063 83.593 94.6178 83.593 94.6178Z" fill="#263238"/>
<path d="M92.2278 120.823C94.6598 120.928 104.843 134.616 104.843 134.616L108.628 129.71C108.628 129.71 114.459 141.043 111.572 146.44C108.684 151.837 93.4753 137.091 93.4753 137.091L92.2278 120.823Z" fill="#CCE0FF"/>
<path opacity="0.6" d="M92.2209 120.823L93.2162 131.764L93.4685 137.098C93.4685 137.098 95.9706 139.523 99.1316 142.046C103.778 145.753 109.848 149.664 111.565 146.454C114.453 141.064 108.614 129.724 108.614 129.724L104.837 134.63V134.588C104.248 133.747 94.5759 120.928 92.2209 120.823Z" fill="white"/>
<path opacity="0.2" d="M93.2162 131.764L93.4685 137.098C93.4685 137.098 95.9706 139.523 99.1316 142.046C99.4329 135.64 93.4685 126.311 93.4685 126.311L93.2162 131.764Z" fill="black"/>
<path opacity="0.2" d="M104.851 134.617L104.304 135.661L105.888 141.829C105.888 141.829 101.514 137.848 104.304 133.951L104.851 134.617Z" fill="black"/>
<path d="M93.5035 133.033C93.5035 133.201 93.5035 133.376 93.5035 133.551C93.5035 134.308 93.5035 135.107 93.4544 135.955C93.4544 136.025 93.4544 136.096 93.4544 136.173C93.4544 136.628 93.4544 137.098 93.4544 137.574C93.4544 137.658 93.4544 137.736 93.4544 137.82C93.4544 138.521 93.4053 139.221 93.3773 139.922C93.3773 140.02 93.3773 140.119 93.3773 140.217C93.3773 141.17 93.3002 142.172 93.2511 143.23C93.139 145.606 93.0058 148.242 92.8376 151.164L92.5222 151.241L71.1106 156.316H71.0265C71.0265 156.316 71.8885 144.863 70.4097 138.38C70.399 138.324 70.385 138.267 70.3676 138.212C70.3676 138.114 70.3256 138.016 70.2976 137.918C70.2695 137.82 70.1994 137.553 70.1574 137.364C70.1153 137.175 70.0593 136.986 70.0032 136.789C69.814 136.089 69.6107 135.388 69.3934 134.617C69.2533 134.112 69.0991 133.593 68.9379 133.061L68.8538 132.794C68.6645 132.164 68.4613 131.512 68.251 130.839C68.1879 130.643 68.1319 130.453 68.0688 130.25C67.7604 129.29 67.431 128.274 67.0735 127.208C66.6811 126.008 66.2512 124.734 65.7839 123.389C68.2394 122.606 70.7418 121.978 73.2763 121.51L74.3626 121.314L75.5121 121.125C77.4324 120.816 79.3739 120.599 81.3153 120.459C82.0956 120.403 82.8736 120.361 83.6492 120.333C84.1188 120.333 84.6024 120.333 85.0509 120.333H85.2472L86.6489 120.375H87.3007H87.7143H88.1628L88.8637 120.417H89.3963L90.3565 120.48L90.735 120.515H91.0714H91.3798H91.6321L92.2419 120.571C92.2419 120.571 92.2419 120.571 92.298 120.571L92.347 120.62C92.3939 120.676 92.4339 120.737 92.4662 120.802C92.6815 121.259 92.8347 121.742 92.9217 122.239C92.9217 122.379 92.9778 122.534 93.0129 122.702C93.0479 122.87 93.097 123.227 93.146 123.536C93.1951 123.844 93.2091 123.984 93.2371 124.237C93.2652 124.489 93.2862 124.692 93.3072 124.938C93.5146 127.631 93.5801 130.333 93.5035 133.033Z" fill="#263238"/>
<path d="M81.8759 124.973C76.7735 124.321 75.2456 122.134 75.2456 122.134C77.3482 120.172 76.9487 117.277 76.4161 115.469C76.2557 114.895 76.0447 114.337 75.7853 113.801L81.9249 114.95C81.7821 115.803 81.7025 116.665 81.6866 117.529C81.6636 118.167 81.7225 118.806 81.8618 119.429C82.2754 121.265 83.3197 121.293 83.3197 121.293C84.399 123.304 81.8759 124.973 81.8759 124.973Z" fill="#E4897B"/>
<path opacity="0.2" d="M81.6869 117.529C81.6638 118.167 81.7227 118.806 81.8621 119.429C79.4231 119.113 77.5798 117.158 76.4163 115.469C76.256 114.895 76.0449 114.337 75.7855 113.801L81.9252 114.95C81.7824 115.803 81.7027 116.665 81.6869 117.529Z" fill="black"/>
<path d="M83.3199 97.7297C88.9689 98.8791 90.1674 102.278 89.3964 108.18C88.4292 115.56 85.7659 120.396 79.0165 117.403C69.8631 113.338 73.9422 95.8163 83.3199 97.7297Z" fill="#E4897B"/>
<path d="M85.8079 107.121C86.0893 108.058 86.4823 108.957 86.9784 109.799C86.7646 109.997 86.5005 110.132 86.215 110.19C85.9295 110.248 85.6335 110.227 85.3594 110.128L85.8079 107.121Z" fill="#DE5753"/>
<path d="M80.6003 102.65C80.563 102.65 80.5261 102.641 80.4922 102.626C80.4584 102.61 80.4283 102.587 80.4041 102.559C80.3797 102.536 80.3602 102.508 80.3469 102.477C80.3336 102.447 80.3268 102.413 80.3268 102.38C80.3268 102.346 80.3336 102.313 80.3469 102.283C80.3602 102.252 80.3797 102.224 80.4041 102.201C80.817 101.914 81.2916 101.729 81.7896 101.659C82.2876 101.59 82.795 101.639 83.2706 101.802C83.3019 101.813 83.3307 101.83 83.3554 101.852C83.3801 101.874 83.4002 101.901 83.4145 101.931C83.4288 101.961 83.4371 101.993 83.4389 102.027C83.4406 102.06 83.4359 102.093 83.4248 102.124C83.4138 102.155 83.3967 102.184 83.3745 102.209C83.3523 102.234 83.3255 102.254 83.2956 102.268C83.2656 102.282 83.2332 102.291 83.2 102.292C83.1669 102.294 83.1337 102.289 83.1024 102.278C82.7077 102.152 82.2899 102.115 81.879 102.169C81.4682 102.224 81.0746 102.369 80.7265 102.594C80.6897 102.623 80.6464 102.642 80.6003 102.65Z" fill="#263238"/>
<path d="M89.4945 103.82C89.4283 103.819 89.3653 103.791 89.3193 103.743C89.0784 103.467 88.7796 103.247 88.444 103.099C88.1084 102.951 87.7444 102.879 87.3779 102.888C87.3451 102.894 87.3115 102.893 87.279 102.886C87.2465 102.878 87.2159 102.864 87.189 102.845C87.1621 102.825 87.1395 102.8 87.1226 102.771C87.1057 102.743 87.0948 102.711 87.0905 102.678C87.0846 102.645 87.0853 102.611 87.0928 102.579C87.1002 102.546 87.1142 102.516 87.1339 102.489C87.1536 102.462 87.1785 102.439 87.2072 102.423C87.2359 102.406 87.2677 102.395 87.3008 102.39C87.7465 102.364 88.1925 102.44 88.6043 102.612C89.0162 102.785 89.3831 103.049 89.6768 103.386C89.7003 103.409 89.7189 103.437 89.7317 103.468C89.7444 103.498 89.751 103.531 89.751 103.564C89.751 103.598 89.7444 103.631 89.7317 103.661C89.7189 103.692 89.7003 103.72 89.6768 103.743C89.6282 103.791 89.5629 103.819 89.4945 103.82Z" fill="#263238"/>
<path d="M75.2107 105.986C75.2107 105.986 78.7992 101.886 79.1286 98.2202C79.1286 98.2202 91.2467 95.9353 89.4875 107.409C89.4875 107.409 92.6344 97.5403 82.9764 95.3396C73.3184 93.1388 70.4588 107.346 74.608 112.595C74.608 112.595 72.9819 108.558 75.2107 105.986Z" fill="#263238"/>
<path d="M75.8905 107.367C75.9296 107.038 75.9036 106.704 75.8138 106.385C75.724 106.066 75.5723 105.768 75.3673 105.508C75.1623 105.247 74.908 105.03 74.6189 104.868C74.3299 104.706 74.0118 104.602 73.6827 104.563C71.8955 104.395 70.3256 107.815 74.5028 109.567C75.1055 109.82 75.5821 109.28 75.8905 107.367Z" fill="#E4897B"/>
<path d="M85.1982 111.824C84.718 112.341 84.2753 112.891 83.8735 113.471L83.5371 113.303C82.0232 112.56 81.5677 111.719 81.5186 111.011C81.5063 110.661 81.5759 110.313 81.7218 109.995C81.7989 109.814 81.9003 109.644 82.0232 109.49C82.749 110.375 83.6575 111.092 84.6865 111.593C85.0019 111.733 85.1982 111.824 85.1982 111.824Z" fill="#263238"/>
<path d="M84.6864 111.565L84.2869 112.041C82.8851 111.341 81.953 110.64 81.7217 109.995C81.7987 109.814 81.9001 109.644 82.0231 109.49C82.7517 110.365 83.6601 111.072 84.6864 111.565Z" fill="white"/>
<path d="M83.5372 113.303C82.0233 112.56 81.5677 111.719 81.5187 111.011C82.0929 111.299 82.6086 111.691 83.0396 112.168C83.3217 112.484 83.4959 112.881 83.5372 113.303Z" fill="#DE5753"/>
<path d="M83.1165 98.1223C83.1165 98.1223 78.9113 106.953 73.1221 105.643C67.3329 104.332 78.7291 94.4287 78.7291 94.4287C78.7291 94.4287 89.0109 92.7536 92.6835 98.8232C96.356 104.893 89.4875 107.444 89.4875 107.444C89.4875 107.444 91.3097 100.281 83.1165 98.1223Z" fill="#263238"/>
<path d="M77.5095 105.404C77.471 105.403 77.434 105.389 77.4038 105.365C77.3735 105.341 77.3517 105.308 77.3413 105.271C77.3351 105.249 77.3334 105.226 77.3364 105.203C77.3395 105.18 77.3471 105.158 77.3589 105.139C77.3707 105.119 77.3865 105.102 77.4052 105.088C77.4238 105.075 77.445 105.066 77.4675 105.061C82.3736 103.82 83.0184 97.5053 83.0254 97.4422C83.0307 97.3969 83.0534 97.3555 83.0888 97.3267C83.1241 97.298 83.1693 97.2841 83.2147 97.288C83.2378 97.2887 83.2606 97.2943 83.2813 97.3045C83.3021 97.3148 83.3204 97.3294 83.3351 97.3473C83.3497 97.3653 83.3603 97.3862 83.3661 97.4086C83.372 97.431 83.3729 97.4544 83.3688 97.4773C83.3688 97.5403 82.668 104.101 77.5516 105.397L77.5095 105.404Z" fill="#263238"/>
<path d="M82.5068 106.259C82.5068 106.708 82.2334 107.058 81.9391 107.051C81.6447 107.044 81.4064 106.666 81.4274 106.217C81.4485 105.769 81.7008 105.411 82.0022 105.425C82.3035 105.439 82.5278 105.832 82.5068 106.259Z" fill="#263238"/>
<path d="M81.8761 105.439L82.8643 105.096C82.8643 105.096 82.3457 105.902 81.8761 105.439Z" fill="#263238"/>
<path d="M88.0859 106.385C88.0859 106.834 87.8055 107.191 87.5111 107.177C87.2168 107.163 86.9855 106.792 86.9995 106.343C87.0135 105.895 87.2728 105.544 87.5742 105.558C87.8756 105.572 88.0999 105.937 88.0859 106.385Z" fill="#263238"/>
<path d="M87.4479 105.572L88.4361 105.229C88.4361 105.229 87.9175 106.028 87.4479 105.572Z" fill="#263238"/>
<path d="M95.9355 129.858C95.9252 129.933 95.9314 130.009 95.9538 130.081C95.9761 130.153 96.014 130.22 96.0647 130.276C96.1155 130.332 96.1779 130.376 96.2476 130.406C96.3173 130.435 96.3925 130.449 96.4681 130.446H102.327C102.489 130.44 102.644 130.378 102.766 130.271C102.887 130.164 102.967 130.018 102.993 129.858L104.297 118.293C104.314 118.212 104.314 118.128 104.296 118.047C104.278 117.966 104.243 117.89 104.193 117.823C104.143 117.757 104.08 117.702 104.007 117.662C103.934 117.622 103.854 117.599 103.771 117.592H97.9119C97.7366 117.613 97.5741 117.695 97.4526 117.823C97.331 117.951 97.2579 118.117 97.2461 118.293L95.9355 129.858Z" fill="#263238"/>
<path opacity="0.5" d="M97.8979 118.216L96.5663 129.893C96.5497 129.961 96.5494 130.032 96.5653 130.1C96.5812 130.169 96.6129 130.232 96.6579 130.286C96.7029 130.34 96.7599 130.383 96.8243 130.41C96.8887 130.438 96.9588 130.451 97.0289 130.446H101.998C102.334 130.446 102.944 130.264 102.979 129.935L104.311 118.216C104.311 117.887 103.778 117.62 103.442 117.62H98.4726C98.3189 117.628 98.1737 117.693 98.0669 117.804C97.96 117.915 97.8996 118.062 97.8979 118.216Z" fill="white"/>
<path d="M108.215 130.825L105.159 125.638C105.183 124.511 105.096 123.384 104.9 122.274C104.633 121.629 101.641 120.172 101.052 120.396C100.463 120.62 100.253 125.961 100.786 126.704C101.318 127.447 103.19 128.225 103.19 128.225L103.063 129.241L104.851 134.638L108.215 130.825Z" fill="#E4897B"/>
<path d="M109.441 130.236L108.432 129.22L103.617 134.617L104.304 136.754L109.441 130.236Z" fill="#CCE0FF"/>
<path d="M85.037 119.387L84.4272 121.63L85.6678 123.452L88.4152 149.076L95.9356 147.968C95.4169 128 95.2347 127.895 92.3331 120.711L85.5977 120.242L85.037 119.387Z" fill="#CCE0FF"/>
<path opacity="0.6" d="M85.037 119.387L84.4272 121.63L85.6678 123.452L88.4152 149.076L95.9356 147.968C95.4169 128 95.2347 127.895 92.3331 120.711L85.5977 120.242L85.037 119.387Z" fill="white"/>
<path d="M72.7576 119.387L79.437 122.19L77.7969 124.994L79.4159 151.227L69.2953 154.192C69.2953 154.192 61.9502 134.918 65.7139 123.48L72.3441 121.566L72.7576 119.387Z" fill="#CCE0FF"/>
<path opacity="0.6" d="M79.1565 147.05L79.4159 151.206L74.9022 152.524L69.2953 154.164C67.2236 148.464 65.776 142.556 64.9779 136.544C64.4382 131.981 64.4522 127.279 65.7138 123.452L72.344 121.538L72.7576 119.387L79.4369 122.19L77.7968 124.994L78.4416 135.409L79.1565 147.05Z" fill="white"/>
<path opacity="0.2" d="M85.0789 138.857C85.0789 138.857 82.5628 142.522 79.1566 147.05C77.8389 148.802 76.3531 150.681 74.9023 152.524L69.2953 154.164C67.2237 148.464 65.7761 142.556 64.9779 136.544C67.7253 133.79 71.0895 130.453 71.0895 130.453C71.0895 130.453 72.6314 135.219 71.9516 139.361L78.4417 135.388L80.4602 134.154L85.0789 138.857Z" fill="black"/>
<path d="M79.5981 135.899L86.5438 130.446C86.9461 129.267 87.4406 128.121 88.0226 127.019C88.4432 126.507 94.5337 124.265 95.0314 124.216C95.529 124.167 95.0314 129.206 94.2674 130.061C93.5035 130.916 88.6044 132.612 88.6044 132.612L81.3433 139.474L79.5981 135.899Z" fill="#E4897B"/>
<path d="M65.7139 123.452C61.6348 125.498 59.8195 148.529 66.9053 152.503C73.9912 156.477 84.5673 138.486 84.5673 138.486L80.4532 134.119C80.4532 134.119 71.8325 141.338 70.7952 140.672C69.7579 140.006 70.9354 132.963 70.9354 132.963C70.9354 132.963 72.1479 130.86 69.5967 127.475C67.0455 124.09 65.7139 123.452 65.7139 123.452Z" fill="#CCE0FF"/>
<path opacity="0.6" d="M65.7139 123.452C61.6348 125.498 59.8195 148.529 66.9053 152.503C73.9912 156.477 84.5673 138.486 84.5673 138.486L80.4532 134.119C80.4532 134.119 71.8325 141.338 70.7952 140.672C69.7579 140.006 70.9354 132.963 70.9354 132.963C70.9354 132.963 72.1479 130.86 69.5967 127.475C67.0455 124.09 65.7139 123.452 65.7139 123.452Z" fill="white"/>
<path d="M84.6446 140.112L85.8781 139.369L81.2593 132.598L79.5632 133.544L84.6446 140.112Z" fill="#CCE0FF"/>
</svg>
