<svg width="328" height="245" viewBox="0 0 328 245" fill="none" xmlns="http://www.w3.org/2000/svg">
<path d="M328 214.774H0V214.938H328V214.774Z" fill="#FFF2CF"/>
<path d="M295.134 225.329H273.408V225.493H295.134V225.329Z" fill="#FFF2CF"/>
<path d="M217.28 227.114H211.58V227.278H217.28V227.114Z" fill="#FFF2CF"/>
<path d="M272.752 219.242H260.163V219.406H272.752V219.242Z" fill="#FFF2CF"/>
<path d="M62.7464 220.344H34.4138V220.508H62.7464V220.344Z" fill="#FFF2CF"/>
<path d="M72.7439 220.344H68.5914V220.508H72.7439V220.344Z" fill="#FFF2CF"/>
<path d="M147.698 223.112H86.2443V223.276H147.698V223.112Z" fill="#FFF2CF"/>
<path d="M155.472 185.517H28.8049C27.8126 185.515 26.8616 185.12 26.1605 184.417C25.4595 183.715 25.0657 182.763 25.0657 181.771V3.71296C25.0744 2.72635 25.4719 1.78299 26.172 1.08779C26.8722 0.392589 27.8183 0.00169011 28.8049 0H155.472C156.465 0 157.418 0.394642 158.121 1.09711C158.823 1.79957 159.218 2.75232 159.218 3.74576V181.771C159.218 182.764 158.823 183.717 158.121 184.42C157.418 185.122 156.465 185.517 155.472 185.517ZM28.8049 0.1312C27.8561 0.132938 26.9468 0.511067 26.2765 1.18259C25.6062 1.85411 25.2297 2.76415 25.2297 3.71296V181.771C25.2297 182.72 25.6062 183.63 26.2765 184.301C26.9468 184.973 27.8561 185.351 28.8049 185.353H155.472C156.421 185.351 157.331 184.973 158.003 184.302C158.674 183.63 159.052 182.72 159.054 181.771V3.71296C159.052 2.76355 158.674 1.85352 158.003 1.18219C157.331 0.510854 156.421 0.132935 155.472 0.1312H28.8049Z" fill="#FFF2CF"/>
<path d="M297.371 185.517H170.698C169.705 185.515 168.753 185.12 168.051 184.418C167.349 183.716 166.954 182.764 166.952 181.771V3.71296C166.962 2.72575 167.361 1.7824 168.062 1.08738C168.764 0.392359 169.71 0.00167168 170.698 0H297.371C298.357 0.00341415 299.301 0.395075 300 1.09009C300.699 1.78511 301.095 2.72749 301.104 3.71296V181.771C301.104 182.762 300.711 183.713 300.012 184.415C299.312 185.117 298.362 185.513 297.371 185.517ZM170.698 0.1312C169.748 0.132935 168.838 0.510854 168.167 1.18219C167.496 1.85352 167.118 2.76355 167.116 3.71296V181.771C167.118 182.72 167.496 183.63 168.167 184.302C168.838 184.973 169.748 185.351 170.698 185.353H297.371C298.321 185.351 299.231 184.973 299.902 184.302C300.573 183.63 300.951 182.72 300.953 181.771V3.71296C300.951 2.76355 300.573 1.85352 299.902 1.18219C299.231 0.510854 298.321 0.132935 297.371 0.1312H170.698Z" fill="#FFF2CF"/>
<path d="M146.085 84.4468H43.3944V214.479H146.085V84.4468Z" fill="#FFF7E2"/>
<path d="M142.45 89.1898H47.0221V116.998H142.45V89.1898Z" fill="#FFEBB7"/>
<path d="M52.4407 93.6899H47.0221V116.991H52.4407V93.6899Z" fill="#FFF2CF"/>
<path d="M78.6544 93.6899H73.2358V116.991H78.6544V93.6899Z" fill="#FFF2CF"/>
<path d="M108.411 93.0984L103.071 94.0188L107.029 116.981L112.369 116.061L108.411 93.0984Z" fill="#FFF2CF"/>
<path d="M59.1581 96.7599H53.7396V116.991H59.1581V96.7599Z" fill="#FFF2CF"/>
<path d="M71.6155 96.7599H66.197V116.991H71.6155V96.7599Z" fill="#FFF2CF"/>
<path d="M103.064 96.7599H97.6456V116.991H103.064V96.7599Z" fill="#FFF2CF"/>
<path d="M85.773 96.0626L80.4835 97.2382L84.8726 116.987L90.1621 115.812L85.773 96.0626Z" fill="#FFF2CF"/>
<path d="M63.8484 92.5288H61.1392V116.991H63.8484V92.5288Z" fill="#FFF2CF"/>
<path d="M96.0909 92.5288H93.3816V116.991H96.0909V92.5288Z" fill="#FFF2CF"/>
<path d="M47.0221 149.201H142.45V121.393L47.0221 121.393V149.201Z" fill="#FFEBB7"/>
<path d="M137.032 149.201H142.45V125.899H137.032V149.201Z" fill="#FFF2CF"/>
<path d="M110.818 149.201H116.237V125.899H110.818V149.201Z" fill="#FFF2CF"/>
<path d="M77.1048 148.283L82.4446 149.204L86.4027 126.241L81.0629 125.321L77.1048 148.283Z" fill="#FFF2CF"/>
<path d="M130.308 149.201H135.726V128.97H130.308V149.201Z" fill="#FFF2CF"/>
<path d="M117.857 149.201H123.276V128.97H117.857V149.201Z" fill="#FFF2CF"/>
<path d="M86.4018 149.201H91.8203V128.97H86.4018V149.201Z" fill="#FFF2CF"/>
<path d="M99.318 148.02L104.608 149.196L108.997 129.447L103.707 128.271L99.318 148.02Z" fill="#FFF2CF"/>
<path d="M125.624 149.201H128.333V124.738H125.624V149.201Z" fill="#FFF2CF"/>
<path d="M93.3816 149.201H96.0909V124.738H93.3816V149.201Z" fill="#FFF2CF"/>
<path d="M52.4407 125.9H47.0221V149.201H52.4407V125.9Z" fill="#FFF2CF"/>
<path d="M59.1581 128.97H53.7396V149.201H59.1581V128.97Z" fill="#FFF2CF"/>
<path d="M71.6155 128.97H66.197V149.201H71.6155V128.97Z" fill="#FFF2CF"/>
<path d="M63.8484 124.738H61.1392V149.201H63.8484V124.738Z" fill="#FFF2CF"/>
<path d="M142.45 153.602H47.0221V181.41H142.45V153.602Z" fill="#FFEBB7"/>
<path d="M107.21 158.103H101.792V181.404H107.21V158.103Z" fill="#FFF2CF"/>
<path d="M136.972 157.516L131.632 158.436L135.59 181.399L140.93 180.478L136.972 157.516Z" fill="#FFF2CF"/>
<path d="M87.7137 161.179H82.2952V181.41H87.7137V161.179Z" fill="#FFF2CF"/>
<path d="M100.178 161.179H94.7592V181.41H100.178V161.179Z" fill="#FFF2CF"/>
<path d="M131.626 161.179H126.208V181.41H131.626V161.179Z" fill="#FFF2CF"/>
<path d="M114.34 160.479L109.051 161.654L113.44 181.403L118.729 180.228L114.34 160.479Z" fill="#FFF2CF"/>
<path d="M92.4042 156.948H89.6949V181.41H92.4042V156.948Z" fill="#FFF2CF"/>
<path d="M124.647 156.948H121.937V181.41H124.647V156.948Z" fill="#FFF2CF"/>
<path d="M74.6067 157.521L69.2668 158.442L73.2249 181.404L78.5647 180.484L74.6067 157.521Z" fill="#FFF2CF"/>
<path d="M69.2605 161.179H63.8419V181.41H69.2605V161.179Z" fill="#FFF2CF"/>
<path d="M51.9705 160.482L46.681 161.658L51.0702 181.407L56.3597 180.231L51.9705 160.482Z" fill="#FFF2CF"/>
<path d="M62.2806 156.948H59.5714V181.41H62.2806V156.948Z" fill="#FFF2CF"/>
<path d="M200.264 136.861H258.136C259.631 136.861 261.111 137.156 262.492 137.729C263.872 138.302 265.126 139.142 266.182 140.201C267.237 141.259 268.073 142.516 268.642 143.898C269.212 145.28 269.502 146.761 269.498 148.256V193.441H188.928V148.256C188.921 145.242 190.111 142.349 192.237 140.212C194.363 138.075 197.25 136.87 200.264 136.861Z" fill="#FFE49F"/>
<path d="M171.793 170.357H182.145C183.035 170.353 183.917 170.526 184.74 170.864C185.564 171.202 186.312 171.7 186.942 172.329C187.572 172.957 188.072 173.704 188.413 174.526C188.754 175.348 188.929 176.23 188.928 177.12V214.512H165.037V177.12C165.036 176.232 165.21 175.353 165.549 174.532C165.888 173.712 166.386 172.966 167.013 172.338C167.641 171.71 168.386 171.211 169.206 170.872C170.026 170.532 170.905 170.357 171.793 170.357Z" fill="#FFEBB7"/>
<path d="M171.793 170.357H172.01C172.898 170.357 173.777 170.532 174.597 170.872C175.417 171.212 176.162 171.71 176.79 172.338C177.417 172.966 177.915 173.712 178.254 174.532C178.593 175.353 178.767 176.232 178.767 177.12V214.512H165.037V177.12C165.036 176.232 165.21 175.353 165.549 174.532C165.888 173.712 166.386 172.966 167.013 172.338C167.641 171.71 168.386 171.212 169.206 170.872C170.026 170.532 170.905 170.357 171.793 170.357Z" fill="#FFF2CF"/>
<path d="M261.068 197.312H181.653V214.479H261.068V197.312Z" fill="#FFE49F"/>
<path d="M258.129 181.614H181.541C177.748 181.614 174.673 184.689 174.673 188.482V192.752C174.673 196.546 177.748 199.621 181.541 199.621H258.129C261.923 199.621 264.998 196.546 264.998 192.752V188.482C264.998 184.689 261.923 181.614 258.129 181.614Z" fill="#CCE0FF"/>
<path d="M257.998 181.614H248.506C244.713 181.614 241.638 184.689 241.638 188.482V192.752C241.638 196.546 244.713 199.621 248.506 199.621H257.998C261.792 199.621 264.867 196.546 264.867 192.752V188.482C264.867 184.689 261.792 181.614 257.998 181.614Z" fill="#FFEBB7"/>
<path d="M259.028 170.357H269.386C270.274 170.357 271.153 170.532 271.973 170.872C272.793 171.212 273.537 171.71 274.164 172.338C274.791 172.967 275.288 173.712 275.627 174.533C275.965 175.353 276.138 176.232 276.137 177.12V214.512H252.278V177.12C252.276 176.232 252.45 175.353 252.788 174.533C253.126 173.712 253.623 172.967 254.25 172.338C254.877 171.71 255.622 171.212 256.442 170.872C257.262 170.532 258.141 170.357 259.028 170.357Z" fill="#FFEBB7"/>
<path d="M259.028 170.357H259.251C260.139 170.357 261.018 170.532 261.837 170.872C262.657 171.212 263.402 171.71 264.029 172.338C264.656 172.967 265.153 173.712 265.491 174.533C265.83 175.353 266.003 176.232 266.001 177.12V214.512H252.278V177.12C252.276 176.232 252.45 175.353 252.788 174.533C253.126 173.712 253.623 172.967 254.25 172.338C254.877 171.71 255.622 171.212 256.442 170.872C257.262 170.532 258.141 170.357 259.028 170.357Z" fill="#FFF7E2"/>
<path d="M98.5677 68.6397C106.99 67.2726 112.709 59.3371 111.342 50.9152C109.975 42.4933 102.039 36.7742 93.6171 38.1413C85.1952 39.5083 79.4761 47.4439 80.8432 55.8658C82.2103 64.2877 90.1458 70.0068 98.5677 68.6397Z" fill="#FFEBB7"/>
<path d="M98.1977 66.3603C105.361 65.1976 110.225 58.4482 109.062 51.2851C107.9 44.122 101.15 39.2578 93.9871 40.4205C86.824 41.5832 81.9597 48.3326 83.1225 55.4957C84.2852 62.6588 91.0346 67.5231 98.1977 66.3603Z" fill="#FFF7E2"/>
<path d="M95.4677 62.4119V53.2279L89.3866 56.6719" fill="#FFF7E2"/>
<path d="M95.4677 63.0679C95.2937 63.0679 95.1268 62.9988 95.0038 62.8757C94.8808 62.7527 94.8117 62.5858 94.8117 62.4119V54.3496L89.708 57.2426C89.5566 57.3276 89.3776 57.3491 89.2104 57.3023C89.0432 57.2556 88.9013 57.1445 88.8158 56.9933C88.7303 56.8427 88.7078 56.6643 88.7533 56.4972C88.7988 56.3301 88.9085 56.1877 89.0585 56.1012L95.1462 52.6572C95.246 52.6011 95.3586 52.5721 95.4731 52.573C95.5875 52.574 95.6996 52.6048 95.7984 52.6625C95.8972 52.7202 95.9792 52.8027 96.0363 52.9019C96.0934 53.0011 96.1235 53.1135 96.1237 53.2279V62.4119C96.1237 62.5858 96.0546 62.7527 95.9315 62.8757C95.8085 62.9988 95.6416 63.0679 95.4677 63.0679Z" fill="#FFEBB7"/>
<path d="M281.168 33.9022H182.276V121.655H281.168V33.9022Z" fill="#FFE49F"/>
<path d="M278.564 36.3096H184.749V119.3H278.564V36.3096Z" fill="#FFF7E2"/>
<path d="M206.765 36.3096L184.749 119.117V80.2092L196.374 36.3096H206.765Z" fill="white"/>
<path d="M214.564 36.3096L192.352 119.3H188.81L211.022 36.3096H214.564Z" fill="white"/>
<path d="M278.564 88.6781V101.936L274.07 119.3H270.528L278.564 88.6781Z" fill="white"/>
<path d="M217.471 34.8205H215.89V121.157H217.471V34.8205Z" fill="#FFE49F"/>
<path d="M248.099 34.8205H246.518V121.157H248.099V34.8205Z" fill="#FFE49F"/>
<path d="M164 244.399C234.246 244.399 291.192 241.075 291.192 236.973C291.192 232.872 234.246 229.548 164 229.548C93.7539 229.548 36.8082 232.872 36.8082 236.973C36.8082 241.075 93.7539 244.399 164 244.399Z" fill="#CCE0FF"/>
<path d="M263.646 220.567C263.646 220.567 266.762 213.771 263.2 207.066C259.638 200.362 258.608 198.788 260.878 197.41C263.148 196.032 264.191 202.776 264.191 202.776C265.313 199.731 265.428 196.406 264.519 193.29C262.944 188.442 261.954 180.544 264.106 179.698C266.257 178.852 264.519 189.538 266.395 193.199C267.347 190.636 267.962 187.962 268.225 185.241C268.481 181.345 268.081 175.126 269.78 173.532C271.479 171.938 272.575 173.04 270.902 181.633C269.896 186.771 269.341 191.986 269.242 197.22C269.242 197.22 272.935 185.943 275.422 185.615C277.908 185.287 277.901 188.934 275.776 192.103C273.65 195.271 269.55 200.946 268.881 203.865C268.881 203.865 272.942 195.376 276.589 197.961C280.237 200.546 273.414 205.682 270.37 207.539C267.327 209.395 265.214 220.993 265.214 220.993L263.646 220.567Z" fill="#80B3FF"/>
<path opacity="0.2" d="M263.646 220.567C263.646 220.567 266.762 213.771 263.2 207.066C259.638 200.362 258.608 198.788 260.878 197.41C263.148 196.032 264.191 202.776 264.191 202.776C265.313 199.731 265.428 196.406 264.519 193.29C262.944 188.442 261.954 180.544 264.106 179.698C266.257 178.852 264.519 189.538 266.395 193.199C267.347 190.636 267.962 187.962 268.225 185.241C268.481 181.345 268.081 175.126 269.78 173.532C271.479 171.938 272.575 173.04 270.902 181.633C269.896 186.771 269.341 191.986 269.242 197.22C269.242 197.22 272.935 185.943 275.422 185.615C277.908 185.287 277.901 188.934 275.776 192.103C273.65 195.271 269.55 200.946 268.881 203.865C268.881 203.865 272.942 195.376 276.589 197.961C280.237 200.546 273.414 205.682 270.37 207.539C267.327 209.395 265.214 220.993 265.214 220.993L263.646 220.567Z" fill="black"/>
<path d="M266.106 223.355C266.106 223.355 263.069 216.513 266.71 209.861C270.351 203.209 271.4 201.648 269.15 200.244C266.9 198.84 265.772 205.558 265.772 205.558C264.685 202.501 264.609 199.175 265.555 196.072C267.189 191.244 268.278 183.359 266.133 182.479C263.988 181.6 265.601 192.319 263.686 195.947C262.764 193.372 262.18 190.689 261.947 187.964C261.737 184.067 262.216 177.855 260.53 176.234C258.844 174.614 257.742 175.703 259.317 184.323C260.26 189.47 260.751 194.69 260.786 199.922C260.786 199.922 257.224 188.593 254.751 188.233C252.278 187.872 252.232 191.513 254.318 194.714C256.404 197.915 260.432 203.649 261.088 206.574C261.088 206.574 257.152 198.046 253.452 200.578C249.752 203.111 256.535 208.346 259.553 210.248C262.571 212.15 264.552 223.781 264.552 223.781L266.106 223.355Z" fill="#80B3FF"/>
<path d="M252.107 218.474H277.173L275.146 236.416H254.134L252.107 218.474Z" fill="#263238"/>
<path d="M159.146 233.536V235.891C159.146 235.961 159.132 236.03 159.105 236.094C159.078 236.159 159.039 236.217 158.99 236.267C158.941 236.316 158.882 236.355 158.818 236.382C158.753 236.409 158.684 236.422 158.614 236.422H92.0828C91.5153 236.423 90.9565 236.283 90.4553 236.017C89.9541 235.751 89.5258 235.366 89.2079 234.896C88.89 234.426 88.6922 233.885 88.6319 233.321C88.5715 232.757 88.6505 232.187 88.8618 231.66L109.946 179.442L144.018 179.672L142.857 186.448L135.339 230.302C135.283 230.634 135.3 230.975 135.389 231.3C135.478 231.626 135.636 231.928 135.853 232.185C136.071 232.443 136.341 232.651 136.647 232.793C136.952 232.936 137.285 233.01 137.622 233.011H158.614C158.684 233.01 158.753 233.023 158.817 233.049C158.882 233.075 158.94 233.114 158.99 233.163C159.039 233.211 159.078 233.27 159.105 233.334C159.132 233.398 159.146 233.467 159.146 233.536Z" fill="#263238"/>
<path opacity="0.5" d="M159.146 233.536V235.891C159.146 235.961 159.132 236.03 159.105 236.094C159.078 236.159 159.039 236.217 158.99 236.267C158.941 236.316 158.882 236.355 158.818 236.382C158.753 236.409 158.684 236.422 158.614 236.422H92.0828C91.5153 236.423 90.9565 236.283 90.4553 236.017C89.9541 235.751 89.5258 235.366 89.2079 234.896C88.89 234.426 88.6922 233.885 88.6319 233.321C88.5715 232.757 88.6505 232.187 88.8618 231.66L101.936 199.286L109.946 179.442L144.018 179.672L142.857 186.448L139.577 205.518L135.333 230.302C135.277 230.634 135.294 230.975 135.382 231.3C135.471 231.626 135.629 231.928 135.847 232.185C136.064 232.443 136.335 232.651 136.64 232.793C136.946 232.936 137.279 233.01 137.616 233.011H158.608C158.678 233.01 158.747 233.022 158.813 233.047C158.878 233.073 158.937 233.111 158.987 233.16C159.037 233.209 159.077 233.268 159.104 233.332C159.132 233.397 159.146 233.466 159.146 233.536Z" fill="white"/>
<path opacity="0.2" d="M137.622 233.005H94.3262C94.0768 233.004 93.8313 232.942 93.6115 232.824C93.3917 232.706 93.2041 232.536 93.0655 232.329C92.9268 232.121 92.8412 231.883 92.8163 231.635C92.7913 231.387 92.8278 231.136 92.9224 230.905L111.408 186.442H142.851L135.333 230.295C135.277 230.628 135.294 230.97 135.383 231.295C135.472 231.621 135.631 231.923 135.849 232.181C136.067 232.439 136.338 232.647 136.645 232.789C136.951 232.931 137.285 233.005 137.622 233.005Z" fill="black"/>
<path opacity="0.1" d="M144.018 179.665L142.857 186.442L139.584 205.512L101.936 199.286L109.946 179.436L144.018 179.665Z" fill="black"/>
<path d="M210.268 82.3281H52.5325C52.0027 82.3281 51.4781 82.4324 50.9886 82.6352C50.4991 82.8379 50.0544 83.1351 49.6798 83.5097C49.3051 83.8843 49.008 84.3291 48.8052 84.8186C48.6025 85.308 48.4981 85.8327 48.4981 86.3625V193.153C48.4981 194.223 48.9232 195.249 49.6798 196.005C50.4364 196.762 51.4625 197.187 52.5325 197.187H210.268C211.338 197.187 212.365 196.762 213.123 196.006C213.88 195.249 214.307 194.223 214.309 193.153V86.3625C214.307 85.2919 213.88 84.2657 213.123 83.5093C212.365 82.7529 211.338 82.3281 210.268 82.3281Z" fill="#263238"/>
<path opacity="0.6" d="M210.268 82.3281H52.5325C52.0027 82.3281 51.4781 82.4324 50.9886 82.6352C50.4991 82.8379 50.0544 83.1351 49.6798 83.5097C49.3051 83.8843 49.008 84.3291 48.8052 84.8186C48.6025 85.308 48.4981 85.8327 48.4981 86.3625V193.153C48.4981 194.223 48.9232 195.249 49.6798 196.005C50.4364 196.762 51.4625 197.187 52.5325 197.187H210.268C211.338 197.187 212.365 196.762 213.123 196.006C213.88 195.249 214.307 194.223 214.309 193.153V86.3625C214.307 85.2919 213.88 84.2657 213.123 83.5093C212.365 82.7529 211.338 82.3281 210.268 82.3281Z" fill="white"/>
<path opacity="0.2" d="M55.8781 197.181H52.5325C51.4637 197.181 50.4385 196.756 49.6821 196.001C48.9257 195.246 48.4999 194.222 48.4981 193.153V86.369C48.4973 85.8387 48.601 85.3133 48.8033 84.8231C49.0057 84.3329 49.3027 83.8873 49.6774 83.512C50.0522 83.1367 50.4972 82.8389 50.9871 82.6358C51.477 82.4326 52.0022 82.3281 52.5325 82.3281H55.8781C55.3461 82.3255 54.8188 82.4281 54.3267 82.6301C53.8345 82.8321 53.3871 83.1294 53.0103 83.505C52.6335 83.8806 52.3347 84.327 52.1311 84.8185C51.9275 85.3101 51.8232 85.837 51.824 86.369V193.153C51.824 193.684 51.9291 194.21 52.1331 194.7C52.3372 195.191 52.6362 195.636 53.013 196.01C53.3898 196.384 53.837 196.681 54.3287 196.881C54.8204 197.082 55.347 197.184 55.8781 197.181Z" fill="black"/>
<path d="M210.674 85.7983H55.4845V188.771H210.674V85.7983Z" fill="#80B3FF"/>
<path opacity="0.4" d="M130.938 124.994C138.379 124.994 144.412 118.962 144.412 111.52C144.412 104.078 138.379 98.0458 130.938 98.0458C123.496 98.0458 117.463 104.078 117.463 111.52C117.463 118.962 123.496 124.994 130.938 124.994Z" fill="white"/>
<path d="M127.723 109.473V108.24C127.723 107.652 127.957 107.088 128.373 106.672C128.789 106.256 129.352 106.023 129.941 106.023H131.909C132.202 106.019 132.493 106.074 132.765 106.184C133.037 106.294 133.285 106.457 133.493 106.663C133.702 106.869 133.868 107.115 133.981 107.385C134.094 107.656 134.152 107.947 134.152 108.24V109.5H135.589V108.24C135.587 107.271 135.201 106.343 134.517 105.658C133.832 104.973 132.903 104.588 131.935 104.586H129.967C128.998 104.588 128.07 104.973 127.385 105.658C126.7 106.343 126.315 107.271 126.313 108.24V109.5L127.723 109.473Z" fill="white"/>
<path d="M124.476 111.133V117.752C124.476 117.849 124.495 117.944 124.532 118.033C124.569 118.122 124.623 118.203 124.691 118.272C124.759 118.34 124.84 118.394 124.93 118.431C125.019 118.468 125.114 118.487 125.211 118.487H136.664C136.761 118.487 136.856 118.468 136.946 118.431C137.035 118.394 137.116 118.34 137.184 118.272C137.252 118.203 137.306 118.122 137.343 118.033C137.38 117.944 137.399 117.849 137.399 117.752V111.133C137.399 110.938 137.322 110.751 137.184 110.613C137.046 110.476 136.859 110.398 136.664 110.398H125.211C125.114 110.398 125.019 110.417 124.93 110.454C124.84 110.491 124.759 110.545 124.691 110.613C124.623 110.682 124.569 110.763 124.532 110.852C124.495 110.941 124.476 111.036 124.476 111.133ZM131.351 114.879V116.191H130.544V114.879C130.426 114.813 130.327 114.718 130.255 114.604C130.184 114.489 130.144 114.358 130.137 114.223C130.137 114.005 130.224 113.797 130.377 113.643C130.531 113.489 130.74 113.403 130.957 113.403C131.175 113.403 131.383 113.489 131.537 113.643C131.691 113.797 131.777 114.005 131.777 114.223C131.769 114.36 131.725 114.492 131.65 114.607C131.576 114.722 131.473 114.816 131.351 114.879Z" fill="white"/>
<path d="M98.0654 136.153H85.339C84.5818 136.153 83.968 136.767 83.968 137.524V150.25C83.968 151.007 84.5818 151.621 85.339 151.621H98.0654C98.8226 151.621 99.4364 151.007 99.4364 150.25V137.524C99.4364 136.767 98.8226 136.153 98.0654 136.153Z" fill="white"/>
<path d="M117.686 136.133H104.96C104.203 136.133 103.589 136.747 103.589 137.504V150.231C103.589 150.988 104.203 151.602 104.96 151.602H117.686C118.444 151.602 119.057 150.988 119.057 150.231V137.504C119.057 136.747 118.444 136.133 117.686 136.133Z" fill="white"/>
<path d="M137.301 136.113H124.574C123.817 136.113 123.203 136.727 123.203 137.484V150.211C123.203 150.968 123.817 151.582 124.574 151.582H137.301C138.058 151.582 138.672 150.968 138.672 150.211V137.484C138.672 136.727 138.058 136.113 137.301 136.113Z" fill="white"/>
<path d="M156.915 136.087H144.189C143.432 136.087 142.818 136.701 142.818 137.458V150.185C142.818 150.942 143.432 151.556 144.189 151.556H156.915C157.672 151.556 158.286 150.942 158.286 150.185V137.458C158.286 136.701 157.672 136.087 156.915 136.087Z" fill="white"/>
<path d="M176.53 136.068H163.803C163.046 136.068 162.432 136.681 162.432 137.439V150.165C162.432 150.922 163.046 151.536 163.803 151.536H176.53C177.287 151.536 177.901 150.922 177.901 150.165V137.439C177.901 136.681 177.287 136.068 176.53 136.068Z" fill="white"/>
<path d="M166.762 144.104C166.762 141.381 168.218 139.833 170.173 139.833C172.128 139.833 173.578 141.381 173.578 144.104C173.578 146.826 172.121 148.374 170.173 148.374C168.225 148.374 166.762 146.826 166.762 144.104ZM172.384 144.104C172.384 141.965 171.472 140.896 170.173 140.896C168.874 140.896 167.956 141.965 167.956 144.104C167.956 146.242 168.861 147.311 170.173 147.311C171.485 147.311 172.384 146.236 172.384 144.104Z" fill="#263238"/>
<path d="M107.912 144.104C107.912 141.381 109.368 139.833 111.323 139.833C113.278 139.833 114.728 141.381 114.728 144.104C114.728 146.826 113.272 148.374 111.323 148.374C109.375 148.374 107.912 146.826 107.912 144.104ZM113.534 144.104C113.534 141.965 112.629 140.896 111.323 140.896C110.018 140.896 109.106 141.965 109.106 144.104C109.106 146.242 110.011 147.311 111.323 147.311C112.635 147.311 113.534 146.242 113.534 144.104Z" fill="#263238"/>
<path d="M88.2079 143.954C88.2079 141.231 89.6642 139.683 91.6191 139.683C93.574 139.683 95.0237 141.231 95.0237 143.954C95.0237 146.676 93.5674 148.224 91.6191 148.224C89.6708 148.224 88.2079 146.676 88.2079 143.954ZM93.8298 143.954C93.8298 141.815 92.9245 140.746 91.6191 140.746C90.3136 140.746 89.4018 141.815 89.4018 143.954C89.4018 146.092 90.3071 147.161 91.6191 147.161C92.9311 147.161 93.8298 146.092 93.8298 143.954Z" fill="#263238"/>
<path d="M127.343 143.954C127.343 141.231 128.799 139.683 130.754 139.683C132.709 139.683 134.159 141.231 134.159 143.954C134.159 146.676 132.703 148.224 130.754 148.224C128.806 148.224 127.343 146.676 127.343 143.954ZM132.965 143.954C132.965 141.815 132.06 140.746 130.754 140.746C129.449 140.746 128.537 141.815 128.537 143.954C128.537 146.092 129.442 147.161 130.754 147.161C132.066 147.161 132.965 146.092 132.965 143.954Z" fill="#263238"/>
<path d="M146.911 143.954C146.911 141.231 148.367 139.683 150.322 139.683C152.277 139.683 153.727 141.231 153.727 143.954C153.727 146.676 152.27 148.224 150.322 148.224C148.374 148.224 146.911 146.676 146.911 143.954ZM152.533 143.954C152.533 141.815 151.627 140.746 150.322 140.746C149.017 140.746 148.105 141.815 148.105 143.954C148.105 146.092 149.01 147.161 150.322 147.161C151.634 147.161 152.533 146.092 152.533 143.954Z" fill="#263238"/>
<g opacity="0.6">
<path d="M116.263 132.374V132.669H113.987V129.448H116.191V129.744H114.328V130.892H115.987V131.2H114.328V132.394L116.263 132.374Z" fill="white"/>
<path d="M119.215 131.266V132.669H118.887V131.298C118.906 131.196 118.902 131.091 118.873 130.992C118.844 130.892 118.792 130.801 118.72 130.725C118.649 130.65 118.561 130.592 118.464 130.557C118.366 130.522 118.262 130.511 118.159 130.524C118.043 130.516 117.927 130.533 117.819 130.574C117.711 130.616 117.613 130.68 117.532 130.763C117.452 130.847 117.39 130.946 117.352 131.056C117.314 131.165 117.301 131.282 117.313 131.397V132.669H116.991V130.249H117.299V130.695C117.398 130.544 117.535 130.421 117.696 130.341C117.858 130.26 118.038 130.224 118.218 130.236C118.355 130.224 118.492 130.243 118.621 130.291C118.749 130.339 118.865 130.415 118.961 130.514C119.056 130.612 119.129 130.731 119.173 130.861C119.217 130.991 119.231 131.129 119.215 131.266Z" fill="white"/>
<path d="M121.36 132.512C121.216 132.629 121.034 132.689 120.848 132.683C120.754 132.69 120.659 132.678 120.57 132.645C120.481 132.613 120.4 132.562 120.332 132.495C120.265 132.428 120.213 132.348 120.18 132.259C120.147 132.17 120.133 132.075 120.14 131.981V130.544H119.707V130.268H120.14V129.744H120.468V130.268H121.203V130.544H120.468V131.987C120.468 132.276 120.612 132.427 120.881 132.427C121.012 132.431 121.139 132.389 121.242 132.309L121.36 132.512Z" fill="white"/>
<path d="M123.984 131.561H121.964C121.979 131.798 122.087 132.02 122.266 132.177C122.444 132.335 122.677 132.415 122.915 132.4C123.054 132.405 123.192 132.379 123.32 132.325C123.448 132.27 123.563 132.189 123.656 132.086L123.84 132.296C123.661 132.464 123.438 132.578 123.198 132.626C122.957 132.674 122.708 132.653 122.478 132.566C122.248 132.479 122.048 132.33 121.899 132.135C121.75 131.94 121.659 131.707 121.636 131.462C121.627 131.303 121.651 131.143 121.706 130.993C121.762 130.843 121.847 130.707 121.958 130.591C122.069 130.476 122.203 130.385 122.35 130.324C122.498 130.263 122.657 130.233 122.816 130.236C122.976 130.233 123.134 130.263 123.281 130.324C123.428 130.385 123.56 130.477 123.67 130.592C123.78 130.707 123.865 130.844 123.919 130.994C123.973 131.144 123.995 131.303 123.984 131.462C123.984 131.462 123.984 131.521 123.984 131.561ZM121.964 131.318H123.676C123.657 131.104 123.559 130.905 123.4 130.759C123.242 130.614 123.035 130.534 122.82 130.534C122.605 130.534 122.398 130.614 122.239 130.759C122.081 130.905 121.982 131.104 121.964 131.318Z" fill="white"/>
<path d="M125.867 130.236V130.544H125.788C125.673 130.538 125.557 130.557 125.451 130.601C125.344 130.645 125.248 130.712 125.17 130.798C125.092 130.883 125.034 130.984 125.001 131.095C124.967 131.205 124.958 131.322 124.975 131.436V132.669H124.64V130.249H124.955V130.721C125.039 130.557 125.172 130.422 125.335 130.335C125.498 130.249 125.683 130.214 125.867 130.236Z" fill="white"/>
<path d="M129.724 130.249L128.517 132.958C128.314 133.43 128.058 133.581 127.71 133.581C127.603 133.585 127.496 133.567 127.396 133.529C127.295 133.491 127.204 133.433 127.126 133.358L127.277 133.116C127.333 133.176 127.401 133.223 127.477 133.255C127.553 133.286 127.635 133.302 127.717 133.299C127.933 133.299 128.077 133.201 128.215 132.899L128.32 132.663L127.264 130.249H127.605L128.51 132.302L129.422 130.249H129.724Z" fill="white"/>
<path d="M129.888 131.462C129.887 131.218 129.958 130.979 130.093 130.775C130.227 130.572 130.42 130.413 130.645 130.318C130.87 130.224 131.118 130.199 131.358 130.245C131.598 130.292 131.818 130.409 131.991 130.581C132.164 130.754 132.282 130.973 132.33 131.213C132.378 131.452 132.354 131.701 132.261 131.926C132.168 132.152 132.01 132.345 131.807 132.481C131.604 132.617 131.365 132.689 131.121 132.689C130.958 132.695 130.795 132.668 130.643 132.609C130.491 132.55 130.353 132.46 130.237 132.344C130.122 132.229 130.031 132.092 129.971 131.94C129.911 131.788 129.882 131.626 129.888 131.462ZM132.013 131.462C132.006 131.286 131.946 131.116 131.843 130.974C131.739 130.831 131.596 130.722 131.431 130.66C131.266 130.598 131.086 130.586 130.914 130.626C130.742 130.665 130.586 130.755 130.464 130.882C130.343 131.01 130.262 131.171 130.231 131.344C130.2 131.518 130.221 131.697 130.291 131.859C130.361 132.02 130.477 132.158 130.625 132.254C130.772 132.351 130.945 132.402 131.121 132.4C131.241 132.4 131.36 132.375 131.47 132.326C131.58 132.278 131.679 132.208 131.76 132.12C131.842 132.032 131.905 131.929 131.945 131.815C131.985 131.702 132.002 131.582 131.994 131.462H132.013Z" fill="white"/>
<path d="M135.169 130.249V132.669H134.861V132.223C134.771 132.373 134.642 132.495 134.489 132.577C134.335 132.659 134.162 132.697 133.988 132.689C133.849 132.703 133.709 132.685 133.578 132.638C133.448 132.59 133.329 132.514 133.231 132.414C133.134 132.315 133.06 132.195 133.015 132.063C132.97 131.931 132.955 131.791 132.971 131.653V130.249H133.293V131.62C133.273 131.722 133.278 131.827 133.307 131.926C133.336 132.026 133.388 132.117 133.459 132.193C133.53 132.268 133.618 132.326 133.716 132.361C133.813 132.396 133.918 132.407 134.021 132.394C134.135 132.4 134.249 132.382 134.355 132.34C134.461 132.297 134.556 132.232 134.635 132.149C134.713 132.066 134.772 131.967 134.807 131.858C134.843 131.75 134.854 131.635 134.841 131.521V130.249H135.169Z" fill="white"/>
<path d="M137.301 130.236V130.544H137.222C137.107 130.538 136.992 130.557 136.885 130.601C136.778 130.645 136.682 130.712 136.604 130.798C136.526 130.883 136.469 130.984 136.435 131.095C136.401 131.205 136.392 131.322 136.409 131.436V132.669H136.081V130.249H136.396V130.721C136.48 130.558 136.611 130.424 136.773 130.338C136.934 130.251 137.119 130.215 137.301 130.236Z" fill="white"/>
<path d="M138.908 131.062C138.896 130.725 138.985 130.392 139.164 130.106C139.343 129.82 139.603 129.594 139.911 129.457C140.219 129.32 140.561 129.278 140.893 129.336C141.225 129.395 141.532 129.551 141.775 129.785C142.017 130.02 142.185 130.321 142.255 130.651C142.325 130.98 142.295 131.324 142.169 131.636C142.043 131.949 141.826 132.217 141.547 132.406C141.267 132.594 140.938 132.695 140.6 132.696C140.381 132.704 140.162 132.669 139.956 132.591C139.751 132.512 139.563 132.393 139.405 132.241C139.247 132.088 139.121 131.905 139.036 131.702C138.95 131.5 138.907 131.282 138.908 131.062ZM141.945 131.062C141.953 130.792 141.879 130.525 141.734 130.297C141.589 130.069 141.378 129.89 141.13 129.782C140.881 129.675 140.606 129.645 140.34 129.696C140.075 129.747 139.83 129.877 139.639 130.068C139.448 130.259 139.318 130.504 139.267 130.769C139.216 131.035 139.246 131.31 139.354 131.558C139.461 131.807 139.64 132.017 139.868 132.163C140.096 132.308 140.363 132.382 140.633 132.374C140.981 132.374 141.315 132.236 141.561 131.99C141.807 131.744 141.945 131.41 141.945 131.062Z" fill="white"/>
<path d="M143.625 129.744H142.496V129.448H145.12V129.744H143.985V132.669H143.644L143.625 129.744Z" fill="white"/>
<path d="M148.158 130.544C148.158 131.2 147.659 131.639 146.846 131.639H145.986V132.656H145.632V129.435H146.833C147.659 129.448 148.158 129.888 148.158 130.544ZM147.817 130.544C147.817 130.026 147.475 129.731 146.833 129.731H145.98V131.338H146.833C147.475 131.351 147.817 131.062 147.817 130.544Z" fill="white"/>
</g>
<g opacity="0.6">
<path d="M118.178 159.992L118.31 159.736C118.604 159.992 118.982 160.13 119.372 160.123C119.969 160.123 120.232 159.874 120.232 159.552C120.232 158.673 118.264 159.211 118.264 158.024C118.264 157.552 118.631 157.145 119.444 157.145C119.797 157.14 120.144 157.238 120.442 157.427L120.33 157.696C120.065 157.527 119.758 157.436 119.444 157.434C118.861 157.434 118.598 157.696 118.598 158.017C118.598 158.896 120.566 158.365 120.566 159.533C120.566 160.012 120.192 160.412 119.372 160.412C118.935 160.428 118.509 160.278 118.178 159.992Z" fill="white"/>
<path d="M123.328 159.277H121.307C121.323 159.514 121.431 159.736 121.61 159.893C121.788 160.051 122.021 160.131 122.259 160.117C122.398 160.121 122.536 160.095 122.664 160.041C122.792 159.986 122.907 159.905 123 159.802L123.184 160.012C123.068 160.144 122.924 160.248 122.763 160.317C122.602 160.387 122.427 160.419 122.252 160.412C122.086 160.422 121.919 160.397 121.763 160.339C121.606 160.281 121.464 160.192 121.344 160.076C121.224 159.96 121.13 159.82 121.067 159.665C121.005 159.511 120.975 159.345 120.979 159.178C120.971 159.019 120.996 158.86 121.052 158.71C121.108 158.561 121.194 158.425 121.304 158.31C121.415 158.195 121.548 158.104 121.695 158.042C121.842 157.981 122.001 157.95 122.16 157.952C122.32 157.948 122.479 157.977 122.627 158.038C122.775 158.099 122.908 158.19 123.019 158.306C123.129 158.421 123.214 158.558 123.269 158.709C123.323 158.859 123.346 159.019 123.335 159.178C123.335 159.178 123.328 159.244 123.328 159.277ZM121.307 159.034H123.02C123.001 158.82 122.903 158.621 122.744 158.476C122.586 158.33 122.378 158.25 122.164 158.25C121.949 158.25 121.741 158.33 121.583 158.476C121.425 158.621 121.326 158.82 121.307 159.034Z" fill="white"/>
<path d="M126.234 158.982V160.386H125.913V159.015C125.931 158.913 125.925 158.809 125.896 158.71C125.866 158.611 125.814 158.521 125.743 158.446C125.672 158.372 125.585 158.315 125.488 158.28C125.391 158.245 125.287 158.234 125.184 158.247C125.069 158.239 124.953 158.256 124.845 158.297C124.737 158.338 124.639 158.403 124.558 158.486C124.477 158.569 124.416 158.669 124.378 158.778C124.34 158.888 124.326 159.004 124.338 159.119V160.386H123.984V157.971H124.299V158.418C124.397 158.265 124.533 158.142 124.695 158.06C124.856 157.978 125.037 157.941 125.217 157.952C125.356 157.937 125.495 157.954 125.626 158C125.757 158.047 125.876 158.123 125.974 158.222C126.072 158.321 126.146 158.44 126.191 158.572C126.236 158.704 126.251 158.844 126.234 158.982Z" fill="white"/>
<path d="M129.337 156.974V160.386H129.022V159.907C128.926 160.066 128.789 160.198 128.625 160.286C128.461 160.375 128.277 160.418 128.091 160.412C127.78 160.389 127.489 160.25 127.277 160.021C127.065 159.793 126.947 159.493 126.947 159.182C126.947 158.87 127.065 158.57 127.277 158.342C127.489 158.114 127.78 157.975 128.091 157.952C128.272 157.945 128.452 157.986 128.613 158.07C128.774 158.154 128.91 158.278 129.009 158.431V156.974H129.337ZM129.015 159.179C129.008 159.003 128.949 158.833 128.845 158.69C128.742 158.548 128.599 158.439 128.434 158.377C128.27 158.315 128.09 158.302 127.919 158.341C127.747 158.38 127.59 158.469 127.469 158.596C127.347 158.723 127.265 158.883 127.234 159.057C127.202 159.23 127.222 159.408 127.291 159.57C127.36 159.732 127.475 159.87 127.622 159.967C127.769 160.065 127.941 160.116 128.117 160.117C128.239 160.119 128.36 160.095 128.472 160.048C128.585 160.002 128.687 159.932 128.771 159.844C128.855 159.756 128.921 159.651 128.963 159.537C129.005 159.422 129.023 159.3 129.015 159.179Z" fill="white"/>
<path d="M133.273 158.89V160.386H132.958V160.012C132.867 160.146 132.742 160.254 132.596 160.324C132.449 160.394 132.287 160.425 132.125 160.412C131.58 160.412 131.246 160.123 131.246 159.703C131.246 159.283 131.482 159.047 132.177 159.047H132.945V158.903C132.954 158.815 132.944 158.725 132.914 158.641C132.884 158.558 132.836 158.481 132.773 158.419C132.71 158.356 132.634 158.308 132.551 158.278C132.467 158.248 132.377 158.238 132.289 158.247C131.994 158.242 131.707 158.345 131.482 158.536L131.338 158.293C131.615 158.072 131.961 157.955 132.315 157.965C132.442 157.95 132.57 157.963 132.691 158.004C132.812 158.045 132.922 158.112 133.014 158.2C133.105 158.289 133.176 158.396 133.221 158.516C133.266 158.635 133.284 158.763 133.273 158.89ZM132.945 159.657V159.264H132.184C131.718 159.264 131.567 159.447 131.567 159.697C131.567 159.946 131.79 160.149 132.177 160.149C132.341 160.16 132.504 160.118 132.642 160.03C132.78 159.941 132.886 159.811 132.945 159.657Z" fill="white"/>
<path d="M136.402 157.971V160.064C136.428 160.228 136.414 160.397 136.363 160.555C136.311 160.713 136.223 160.857 136.105 160.975C135.988 161.092 135.844 161.18 135.686 161.232C135.528 161.283 135.359 161.297 135.195 161.271C134.787 161.287 134.387 161.157 134.067 160.904L134.231 160.654C134.5 160.872 134.836 160.988 135.182 160.982C135.799 160.982 136.074 160.707 136.074 160.11V159.802C135.97 159.953 135.83 160.075 135.666 160.156C135.501 160.238 135.319 160.276 135.136 160.267C134.975 160.28 134.813 160.258 134.66 160.205C134.508 160.151 134.368 160.067 134.25 159.957C134.131 159.847 134.037 159.714 133.972 159.566C133.907 159.418 133.874 159.258 133.874 159.096C133.874 158.935 133.907 158.775 133.972 158.627C134.037 158.479 134.131 158.346 134.25 158.236C134.368 158.126 134.508 158.042 134.66 157.988C134.813 157.935 134.975 157.913 135.136 157.926C135.322 157.917 135.508 157.956 135.675 158.04C135.841 158.124 135.983 158.249 136.087 158.404V157.945L136.402 157.971ZM136.087 159.119C136.094 158.937 136.045 158.756 135.949 158.601C135.852 158.445 135.711 158.323 135.544 158.248C135.376 158.173 135.191 158.15 135.011 158.182C134.83 158.214 134.664 158.299 134.532 158.426C134.4 158.553 134.309 158.716 134.271 158.895C134.233 159.074 134.249 159.26 134.318 159.43C134.386 159.6 134.504 159.745 134.655 159.848C134.807 159.95 134.986 160.005 135.169 160.005C135.288 160.012 135.408 159.995 135.521 159.953C135.634 159.912 135.736 159.847 135.823 159.764C135.909 159.681 135.977 159.581 136.023 159.47C136.068 159.359 136.09 159.239 136.087 159.119Z" fill="white"/>
<path d="M139.138 158.89V160.386H138.829V160.012C138.738 160.146 138.612 160.253 138.466 160.323C138.32 160.394 138.158 160.424 137.996 160.412C137.445 160.412 137.111 160.123 137.111 159.703C137.111 159.284 137.353 159.047 138.049 159.047H138.81V158.903C138.81 158.49 138.58 158.247 138.154 158.247C137.861 158.244 137.576 158.346 137.353 158.536L137.202 158.293C137.482 158.072 137.83 157.956 138.186 157.965C138.312 157.951 138.44 157.965 138.56 158.006C138.68 158.047 138.789 158.115 138.88 158.203C138.971 158.291 139.041 158.399 139.086 158.518C139.13 158.636 139.148 158.764 139.138 158.89ZM138.81 159.657V159.264H138.055C137.583 159.264 137.432 159.448 137.432 159.697C137.432 159.946 137.662 160.149 138.049 160.149C138.212 160.161 138.374 160.119 138.511 160.03C138.648 159.942 138.753 159.811 138.81 159.657Z" fill="white"/>
<path d="M139.951 157.204C139.96 157.147 139.99 157.096 140.033 157.059C140.077 157.021 140.133 157.001 140.19 157.001C140.248 157.001 140.304 157.021 140.347 157.059C140.391 157.096 140.42 157.147 140.43 157.204C140.42 157.261 140.391 157.312 140.347 157.349C140.304 157.387 140.248 157.407 140.19 157.407C140.133 157.407 140.077 157.387 140.033 157.349C139.99 157.312 139.96 157.261 139.951 157.204ZM140.023 157.972H140.351V160.386H140.023V157.972Z" fill="white"/>
<path d="M143.48 158.982V160.386H143.159V159.015C143.177 158.913 143.171 158.809 143.142 158.71C143.112 158.611 143.06 158.521 142.989 158.446C142.918 158.372 142.831 158.315 142.734 158.28C142.637 158.245 142.533 158.234 142.431 158.247C142.315 158.239 142.199 158.256 142.091 158.297C141.983 158.339 141.885 158.403 141.804 158.486C141.724 158.569 141.662 158.669 141.624 158.778C141.586 158.888 141.573 159.004 141.584 159.12V160.386H141.263V157.972H141.571V158.418C141.669 158.265 141.806 158.142 141.967 158.06C142.129 157.978 142.309 157.941 142.49 157.952C142.626 157.941 142.763 157.961 142.891 158.009C143.018 158.058 143.134 158.134 143.228 158.233C143.323 158.331 143.395 158.45 143.438 158.579C143.482 158.709 143.496 158.846 143.48 158.982Z" fill="white"/>
</g>
<path opacity="0.4" d="M149.214 176.785H112.655C111.21 176.784 109.825 176.209 108.804 175.186C107.784 174.164 107.21 172.779 107.21 171.334C107.21 169.889 107.784 168.504 108.804 167.482C109.825 166.46 111.21 165.884 112.655 165.883H149.214C150.66 165.883 152.046 166.457 153.068 167.479C154.091 168.502 154.665 169.888 154.665 171.334C154.665 172.78 154.091 174.166 153.068 175.189C152.046 176.211 150.66 176.785 149.214 176.785Z" fill="white"/>
<path d="M116.676 171.059C116.673 170.803 116.723 170.55 116.821 170.314C116.92 170.079 117.067 169.866 117.251 169.69C117.436 169.513 117.655 169.376 117.894 169.288C118.134 169.2 118.389 169.161 118.644 169.176C118.905 169.167 119.164 169.213 119.405 169.313C119.646 169.412 119.863 169.563 120.041 169.753L119.7 170.081C119.568 169.939 119.408 169.827 119.229 169.752C119.05 169.678 118.857 169.642 118.664 169.648C118.431 169.65 118.202 169.71 117.998 169.822C117.794 169.935 117.621 170.096 117.494 170.291C117.367 170.486 117.291 170.71 117.272 170.942C117.253 171.174 117.291 171.408 117.384 171.621C117.477 171.835 117.622 172.022 117.804 172.166C117.987 172.31 118.203 172.407 118.433 172.447C118.662 172.488 118.898 172.471 119.119 172.398C119.34 172.325 119.54 172.198 119.7 172.029L120.041 172.357C119.862 172.548 119.644 172.699 119.402 172.798C119.16 172.898 118.899 172.944 118.638 172.935C118.383 172.949 118.129 172.911 117.89 172.823C117.651 172.735 117.433 172.599 117.249 172.423C117.065 172.247 116.92 172.035 116.821 171.8C116.722 171.566 116.673 171.313 116.676 171.059Z" fill="white"/>
<path d="M120.396 171.059C120.377 170.666 120.477 170.277 120.682 169.941C120.887 169.606 121.187 169.339 121.545 169.176C121.902 169.013 122.301 168.961 122.688 169.026C123.076 169.091 123.435 169.271 123.72 169.542C124.004 169.814 124.201 170.164 124.284 170.548C124.368 170.932 124.335 171.332 124.189 171.697C124.043 172.062 123.791 172.375 123.466 172.596C123.141 172.816 122.757 172.934 122.364 172.935C122.109 172.948 121.855 172.91 121.616 172.821C121.378 172.733 121.159 172.597 120.975 172.421C120.791 172.245 120.645 172.034 120.545 171.8C120.445 171.565 120.394 171.313 120.396 171.059ZM123.774 171.059C123.778 170.775 123.697 170.496 123.542 170.258C123.387 170.02 123.165 169.834 122.904 169.723C122.642 169.612 122.354 169.581 122.075 169.634C121.796 169.688 121.539 169.823 121.338 170.023C121.136 170.223 120.998 170.478 120.942 170.757C120.886 171.035 120.914 171.324 121.023 171.586C121.132 171.848 121.316 172.073 121.552 172.23C121.789 172.387 122.067 172.47 122.351 172.469C122.538 172.475 122.725 172.443 122.9 172.375C123.074 172.306 123.233 172.203 123.366 172.071C123.5 171.939 123.605 171.781 123.675 171.607C123.745 171.433 123.779 171.246 123.774 171.059Z" fill="white"/>
<path d="M128.261 169.248V172.922H127.828L125.624 170.18V172.922H125.099V169.248H125.532L127.736 171.984V169.248H128.261Z" fill="white"/>
<path d="M130.091 169.674H128.832V169.248H131.856V169.701H130.61V172.922H130.091V169.674Z" fill="white"/>
<path d="M132.44 169.248H132.965V172.922H132.44V169.248Z" fill="white"/>
<path d="M137.229 169.248V172.922H136.796L134.592 170.18V172.922H134.067V169.248H134.48L136.684 171.984V169.248H137.229Z" fill="white"/>
<path d="M138.298 171.308V169.248H138.823V171.314C138.823 172.128 139.197 172.495 139.859 172.495C140.522 172.495 140.896 172.128 140.896 171.314V169.248H141.407V171.334C141.407 171.746 141.244 172.142 140.952 172.433C140.66 172.725 140.265 172.889 139.853 172.889C139.44 172.889 139.045 172.725 138.753 172.433C138.462 172.142 138.298 171.746 138.298 171.334V171.308Z" fill="white"/>
<path d="M145.147 172.436V172.895H142.483V169.248H145.107V169.701H143.008V170.829H144.845V171.275H143.008V172.462L145.147 172.436Z" fill="white"/>
<path opacity="0.1" d="M193.235 83.0399C171.777 104.537 116.667 152.386 54.222 148.843V83.0399H193.235Z" fill="white"/>
<path opacity="0.1" d="M210.668 125.788V189.256H117.24C120.822 176.438 127.986 158.883 141.88 146.34C166.873 123.774 195.882 123.84 210.668 125.788Z" fill="white"/>
<path d="M230.407 76.155L232.585 85.772L234.763 76.155H230.407Z" fill="#80B3FF"/>
<path opacity="0.7" d="M230.407 76.155L232.585 85.772L234.763 76.155H230.407Z" fill="white"/>
<path d="M256.962 48.9244H208.214C205.102 48.9244 202.579 51.4473 202.579 54.5595V72.652C202.579 75.7641 205.102 78.287 208.214 78.287H256.962C260.074 78.287 262.597 75.7641 262.597 72.652V54.5595C262.597 51.4473 260.074 48.9244 256.962 48.9244Z" fill="#80B3FF"/>
<path opacity="0.7" d="M256.962 48.9244H208.214C205.102 48.9244 202.579 51.4473 202.579 54.5595V72.652C202.579 75.7641 205.102 78.287 208.214 78.287H256.962C260.074 78.287 262.597 75.7641 262.597 72.652V54.5595C262.597 51.4473 260.074 48.9244 256.962 48.9244Z" fill="white"/>
<g opacity="0.5">
<path d="M214.564 59.696V60.9621H214.046V59.696L212.59 57.3082H213.154L214.328 59.2762L215.509 57.3082H216.027L214.564 59.696Z" fill="#263238"/>
<path d="M215.909 59.5778C215.904 59.29 215.985 59.0072 216.141 58.7653C216.297 58.5235 216.521 58.3336 216.786 58.2198C217.05 58.1061 217.343 58.0736 217.625 58.1265C217.908 58.1795 218.169 58.3155 218.375 58.5171C218.58 58.7188 218.721 58.977 218.779 59.2589C218.837 59.5409 218.81 59.8337 218.701 60.1001C218.592 60.3666 218.406 60.5946 218.167 60.7551C217.928 60.9156 217.647 61.0013 217.359 61.0013C217.168 61.0105 216.978 60.9801 216.8 60.9121C216.622 60.8442 216.459 60.7401 216.323 60.6064C216.187 60.4727 216.08 60.3124 216.009 60.1353C215.937 59.9583 215.904 59.7685 215.909 59.5778ZM218.291 59.5778C218.301 59.4485 218.285 59.3183 218.243 59.1955C218.201 59.0727 218.134 58.96 218.046 58.8644C217.958 58.7689 217.852 58.6926 217.733 58.6405C217.614 58.5883 217.486 58.5614 217.356 58.5614C217.226 58.5614 217.098 58.5883 216.979 58.6405C216.86 58.6926 216.753 58.7689 216.665 58.8644C216.577 58.96 216.51 59.0727 216.468 59.1955C216.426 59.3183 216.41 59.4485 216.421 59.5778C216.41 59.7072 216.426 59.8373 216.468 59.9601C216.51 60.0829 216.577 60.1957 216.665 60.2912C216.753 60.3867 216.86 60.463 216.979 60.5152C217.098 60.5673 217.226 60.5943 217.356 60.5943C217.486 60.5943 217.614 60.5673 217.733 60.5152C217.852 60.463 217.958 60.3867 218.046 60.2912C218.134 60.1957 218.201 60.0829 218.243 59.9601C218.285 59.8373 218.301 59.7072 218.291 59.5778Z" fill="#263238"/>
<path d="M222.089 58.1872V60.9686H221.616V60.5488C221.507 60.695 221.364 60.8125 221.2 60.8914C221.035 60.9702 220.854 61.008 220.672 61.0014C220.509 61.0182 220.344 60.9982 220.19 60.9429C220.036 60.8876 219.896 60.7985 219.781 60.6821C219.666 60.5656 219.578 60.4249 219.525 60.2701C219.471 60.1154 219.453 59.9506 219.471 59.7878V58.1872H219.976V59.7354C219.976 60.2798 220.252 60.5488 220.731 60.5488C220.851 60.5566 220.971 60.5377 221.083 60.4935C221.195 60.4492 221.296 60.3807 221.378 60.2929C221.46 60.205 221.522 60.1 221.558 59.9855C221.595 59.8709 221.606 59.7497 221.59 59.6304V58.1872H222.089Z" fill="#263238"/>
<path d="M224.549 58.1609V58.6529H224.431C224.308 58.645 224.186 58.6643 224.072 58.7096C223.958 58.7549 223.855 58.825 223.772 58.9148C223.688 59.0046 223.626 59.1119 223.589 59.2289C223.552 59.3458 223.541 59.4695 223.558 59.591V60.9752H223.04V58.1872H223.525V58.6595C223.631 58.4873 223.783 58.3489 223.964 58.2606C224.146 58.1722 224.348 58.1376 224.549 58.1609Z" fill="#263238"/>
<path d="M226.392 59.1318C226.375 58.7394 226.476 58.3508 226.682 58.0162C226.887 57.6815 227.188 57.416 227.546 57.2539C227.904 57.0918 228.302 57.0405 228.689 57.1065C229.076 57.1725 229.435 57.3529 229.719 57.6244C230.003 57.896 230.199 58.2462 230.282 58.6301C230.365 59.014 230.331 59.414 230.185 59.7786C230.039 60.1432 229.787 60.4557 229.462 60.676C229.137 60.8962 228.753 61.0141 228.36 61.0145C228.105 61.0289 227.85 60.9907 227.61 60.9023C227.371 60.8139 227.152 60.6772 226.967 60.5006C226.783 60.3241 226.636 60.1114 226.537 59.876C226.439 59.6405 226.389 59.3872 226.392 59.1318ZM229.771 59.1318C229.774 58.8478 229.694 58.5692 229.539 58.3313C229.384 58.0934 229.161 57.907 228.9 57.796C228.639 57.6849 228.35 57.6541 228.071 57.7076C227.792 57.7611 227.536 57.8964 227.334 58.0962C227.132 58.2961 226.995 58.5515 226.939 58.8298C226.883 59.1082 226.911 59.3969 227.019 59.6593C227.128 59.9216 227.312 60.1457 227.549 60.3029C227.785 60.4602 228.063 60.5434 228.347 60.5422C228.535 60.5485 228.721 60.5164 228.896 60.4479C229.071 60.3795 229.23 60.276 229.363 60.144C229.496 60.0119 229.601 59.854 229.671 59.6799C229.741 59.5059 229.775 59.3194 229.771 59.1318Z" fill="#263238"/>
<path d="M231.778 57.728H230.518V57.2753H233.536V57.728H232.276V60.9424H231.758L231.778 57.728Z" fill="#263238"/>
<path d="M237.092 58.5807C237.092 59.3745 236.514 59.8599 235.556 59.8599H234.651V60.9686H234.126V57.3015H235.556C236.514 57.3015 237.092 57.7804 237.092 58.5807ZM236.567 58.5807C236.567 58.0559 236.212 57.7541 235.543 57.7541H234.651V59.4007H235.543C236.212 59.4007 236.567 59.1055 236.567 58.5807Z" fill="#263238"/>
<path d="M239.027 59.1318C239.044 58.7522 239.172 58.3858 239.393 58.0768C239.614 57.7679 239.92 57.5297 240.274 57.391C240.628 57.2522 241.014 57.2189 241.387 57.295C241.759 57.3711 242.101 57.5533 242.372 57.8198L242.031 58.1543C241.9 58.0115 241.739 57.8985 241.56 57.8227C241.382 57.7469 241.189 57.7101 240.995 57.7148C240.621 57.7148 240.262 57.8634 239.997 58.1279C239.733 58.3924 239.584 58.7512 239.584 59.1252C239.584 59.4993 239.733 59.858 239.997 60.1225C240.262 60.387 240.621 60.5356 240.995 60.5356C241.189 60.5403 241.382 60.5035 241.56 60.4277C241.739 60.3519 241.9 60.2389 242.031 60.0961L242.372 60.4307C242.101 60.6971 241.759 60.8794 241.387 60.9555C241.014 61.0315 240.628 60.9982 240.274 60.8595C239.92 60.7207 239.614 60.4825 239.393 60.1736C239.172 59.8647 239.044 59.4983 239.027 59.1187V59.1318Z" fill="#263238"/>
<path d="M242.674 59.5778C242.669 59.29 242.749 59.0072 242.906 58.7653C243.062 58.5235 243.286 58.3336 243.551 58.2198C243.815 58.1061 244.107 58.0736 244.39 58.1265C244.673 58.1795 244.934 58.3155 245.139 58.5171C245.345 58.7188 245.485 58.977 245.544 59.2589C245.602 59.5409 245.574 59.8337 245.466 60.1001C245.357 60.3666 245.171 60.5946 244.932 60.7551C244.693 60.9156 244.412 61.0013 244.124 61.0013C243.933 61.0105 243.743 60.9801 243.565 60.9121C243.386 60.8442 243.224 60.7401 243.088 60.6064C242.952 60.4727 242.845 60.3124 242.773 60.1353C242.702 59.9583 242.668 59.7685 242.674 59.5778ZM245.055 59.5778C245.066 59.4485 245.05 59.3183 245.008 59.1955C244.966 59.0727 244.899 58.96 244.811 58.8644C244.723 58.7689 244.616 58.6926 244.498 58.6405C244.379 58.5883 244.25 58.5614 244.121 58.5614C243.991 58.5614 243.862 58.5883 243.744 58.6405C243.625 58.6926 243.518 58.7689 243.43 58.8644C243.342 58.96 243.275 59.0727 243.233 59.1955C243.191 59.3183 243.175 59.4485 243.186 59.5778C243.175 59.7072 243.191 59.8373 243.233 59.9601C243.275 60.0829 243.342 60.1957 243.43 60.2912C243.518 60.3867 243.625 60.463 243.744 60.5152C243.862 60.5673 243.991 60.5943 244.121 60.5943C244.25 60.5943 244.379 60.5673 244.498 60.5152C244.616 60.463 244.723 60.3867 244.811 60.2912C244.899 60.1957 244.966 60.0829 245.008 59.9601C245.05 59.8373 245.066 59.7072 245.055 59.5778Z" fill="#263238"/>
<path d="M248.886 57.0719V60.962H248.408V60.5225C248.293 60.6755 248.143 60.7984 247.97 60.8807C247.798 60.963 247.608 61.0021 247.417 60.9948C247.057 60.9703 246.72 60.81 246.473 60.5464C246.227 60.2827 246.09 59.9354 246.09 59.5745C246.09 59.2137 246.227 58.8664 246.473 58.6027C246.72 58.339 247.057 58.1788 247.417 58.1543C247.602 58.1486 247.786 58.186 247.955 58.2634C248.123 58.3408 248.271 58.4561 248.388 58.6004V57.0719H248.886ZM248.388 59.5713C248.379 59.3877 248.316 59.2108 248.207 59.0625C248.099 58.9143 247.949 58.8013 247.777 58.7374C247.604 58.6736 247.417 58.6619 247.238 58.7036C247.059 58.7454 246.896 58.8388 246.77 58.9723C246.643 59.1058 246.559 59.2734 246.527 59.4545C246.495 59.6355 246.517 59.8219 246.59 59.9905C246.663 60.1591 246.785 60.3026 246.938 60.403C247.092 60.5034 247.273 60.5563 247.456 60.5553C247.583 60.5583 247.71 60.5348 247.827 60.4861C247.945 60.4375 248.051 60.3648 248.138 60.2728C248.226 60.1807 248.294 60.0713 248.337 59.9517C248.38 59.832 248.397 59.7046 248.388 59.5778V59.5713Z" fill="#263238"/>
<path d="M252.344 59.7484H250.093C250.125 59.9867 250.246 60.204 250.433 60.3554C250.62 60.5068 250.857 60.5807 251.097 60.5618C251.247 60.5672 251.396 60.54 251.534 60.4823C251.672 60.4245 251.796 60.3375 251.897 60.2273L252.18 60.5487C251.974 60.757 251.713 60.9014 251.427 60.9643C251.141 61.0273 250.843 61.0061 250.569 60.9034C250.295 60.8008 250.057 60.621 249.883 60.3857C249.709 60.1505 249.606 59.8699 249.588 59.5778C249.581 59.3915 249.612 59.2056 249.68 59.0317C249.747 58.8579 249.849 58.6996 249.98 58.5669C250.111 58.4341 250.268 58.3295 250.441 58.2597C250.614 58.1899 250.799 58.1562 250.986 58.1609C251.174 58.1515 251.362 58.1828 251.537 58.2526C251.712 58.3224 251.87 58.4291 252 58.5654C252.13 58.7018 252.229 58.8645 252.291 59.0426C252.352 59.2207 252.375 59.4099 252.357 59.5975C252.355 59.648 252.351 59.6984 252.344 59.7484ZM250.093 59.3876H251.904C251.885 59.165 251.783 58.9577 251.618 58.8067C251.454 58.6556 251.238 58.5718 251.015 58.5718C250.792 58.5718 250.576 58.6556 250.412 58.8067C250.247 58.9577 250.145 59.165 250.126 59.3876H250.093Z" fill="#263238"/>
</g>
<g opacity="0.5">
<path d="M225.995 66.5686C225.995 64.6006 227.051 63.4723 228.468 63.4723C229.885 63.4723 230.928 64.6006 230.928 66.5686C230.928 68.5366 229.872 69.6584 228.468 69.6584C227.064 69.6584 225.995 68.5366 225.995 66.5686ZM230.062 66.5686C230.062 65.0205 229.406 64.2464 228.468 64.2464C227.53 64.2464 226.861 65.0205 226.861 66.5686C226.861 68.1168 227.517 68.8908 228.468 68.8908C229.419 68.8908 230.062 68.1168 230.062 66.5686Z" fill="#263238"/>
<path d="M231.958 66.5686C231.958 64.6006 233.014 63.4723 234.431 63.4723C235.848 63.4723 236.891 64.6006 236.891 66.5686C236.891 68.5366 235.835 69.6584 234.431 69.6584C233.027 69.6584 231.958 68.5366 231.958 66.5686ZM236.025 66.5686C236.025 65.0205 235.369 64.2464 234.431 64.2464C233.493 64.2464 232.824 65.0205 232.824 66.5686C232.824 68.1168 233.48 68.8908 234.431 68.8908C235.382 68.8908 236.025 68.1168 236.025 66.5686Z" fill="#263238"/>
<path d="M220.032 66.5686C220.032 64.6006 221.088 63.4723 222.505 63.4723C223.922 63.4723 224.965 64.6006 224.965 66.5686C224.965 68.5366 223.909 69.6584 222.505 69.6584C221.101 69.6584 220.032 68.5366 220.032 66.5686ZM224.099 66.5686C224.099 65.0205 223.443 64.2464 222.505 64.2464C221.567 64.2464 220.898 65.0205 220.898 66.5686C220.898 68.1168 221.554 68.8908 222.505 68.8908C223.456 68.8908 224.099 68.1168 224.099 66.5686Z" fill="#263238"/>
<path d="M243.884 66.5686C243.884 64.6006 244.94 63.4723 246.357 63.4723C247.774 63.4723 248.817 64.6006 248.817 66.5686C248.817 68.5366 247.767 69.6584 246.357 69.6584C244.947 69.6584 243.884 68.5366 243.884 66.5686ZM247.958 66.5686C247.958 65.0205 247.302 64.2464 246.357 64.2464C245.412 64.2464 244.75 65.0205 244.75 66.5686C244.75 68.1168 245.406 68.8908 246.357 68.8908C247.308 68.8908 247.958 68.1168 247.958 66.5686Z" fill="#263238"/>
<path d="M237.921 66.5686C237.921 64.6006 238.977 63.4723 240.394 63.4723C241.811 63.4723 242.854 64.6006 242.854 66.5686C242.854 68.5366 241.804 69.6584 240.394 69.6584C238.984 69.6584 237.921 68.5366 237.921 66.5686ZM241.995 66.5686C241.995 65.0205 241.339 64.2464 240.394 64.2464C239.449 64.2464 238.787 65.0205 238.787 66.5686C238.787 68.1168 239.443 68.8908 240.394 68.8908C241.345 68.8908 241.995 68.1168 241.995 66.5686Z" fill="#263238"/>
</g>
<path d="M227.192 104.363C231.108 107.073 235.489 109.041 240.116 110.169H240.162C239.815 110.159 239.474 110.255 239.184 110.444C238.898 110.622 238.67 110.88 238.528 111.185C238.48 111.279 238.453 111.382 238.449 111.487C238.554 110.11 237.957 108.561 237.538 107.072C236.783 104.717 235.898 102.303 235.012 99.935L237.544 98.5771C239.637 101.785 246.623 111.94 241.854 114.879C241.036 115.356 240.07 115.51 239.145 115.312C233.948 114.542 228.993 112.609 224.647 109.657C224.345 109.447 224.083 109.263 223.729 109.001L227.206 104.35L227.192 104.363Z" fill="#DC897C"/>
<path d="M226.458 103.648C228.754 103.925 230.935 104.81 232.775 106.213L230.151 114.334C230.151 114.334 217.398 102.579 226.458 103.648Z" fill="#80B3FF"/>
<path opacity="0.6" d="M226.432 110.477C227.599 111.814 228.834 113.09 230.131 114.301L231.214 110.962L232.775 106.18C230.937 104.779 228.759 103.893 226.464 103.615C220.888 102.992 223.552 107.164 226.432 110.477Z" fill="white"/>
<path opacity="0.2" d="M226.432 110.477C227.599 111.814 228.834 113.09 230.131 114.301L231.214 110.962C229.852 109.902 228.177 109.325 226.451 109.322C226.412 109.706 226.405 110.092 226.432 110.477Z" fill="black"/>
<path d="M198.112 91.6366C198.112 91.6366 192.011 111.92 204.862 114.643C217.713 117.365 219.104 108.03 219.104 108.03C219.104 108.03 208.542 92.0499 198.112 91.6366Z" fill="#263238"/>
<path d="M195.101 98.354C195.077 98.3608 195.052 98.3608 195.029 98.354C195.01 98.345 194.994 98.3323 194.98 98.3167C194.967 98.3011 194.957 98.2829 194.951 98.2632C194.944 98.2436 194.942 98.2229 194.945 98.2024C194.947 98.1819 194.953 98.162 194.963 98.1441C195.155 97.7941 195.426 97.4934 195.753 97.2657C196.081 97.038 196.457 96.8896 196.852 96.8321C196.893 96.8334 196.932 96.8493 196.963 96.877C196.993 96.9047 197.012 96.9423 197.016 96.983C197.018 97.0037 197.016 97.0245 197.01 97.0443C197.003 97.0641 196.993 97.0824 196.98 97.0983C196.966 97.1141 196.95 97.1272 196.932 97.1367C196.913 97.1462 196.893 97.1519 196.872 97.1535C196.53 97.2094 196.205 97.3423 195.922 97.5424C195.639 97.7424 195.405 98.0043 195.239 98.3081C195.222 98.3272 195.2 98.3416 195.176 98.3496C195.152 98.3577 195.126 98.3592 195.101 98.354Z" fill="#263238"/>
<path d="M196.938 100.873C196.855 101.664 196.677 102.441 196.406 103.189C196.61 103.31 196.842 103.374 197.079 103.374C197.316 103.374 197.548 103.31 197.751 103.189L196.938 100.873Z" fill="#DE5753"/>
<path d="M195.698 99.9875C195.836 100.348 196.144 100.565 196.354 100.473C196.564 100.381 196.682 100.02 196.544 99.6595C196.406 99.2987 196.098 99.0822 195.888 99.174C195.678 99.2659 195.567 99.6267 195.698 99.9875Z" fill="#263238"/>
<path d="M195.993 99.1544H195.094C195.094 99.1544 195.737 99.6529 195.993 99.1544Z" fill="#263238"/>
<path d="M208.759 103.392C208.736 103.451 208.705 103.506 208.667 103.556C208.608 103.668 208.542 103.773 208.477 103.884C208.092 104.575 207.58 105.187 206.968 105.688C205 107.256 203.288 107.728 201.799 107.276L201.582 107.203C199.372 106.305 197.646 103.661 196.275 100.165C195.667 98.7963 195.284 97.3386 195.14 95.8481C195.14 95.8481 195.14 95.7956 195.14 95.7825C195.14 95.7693 195.14 95.6644 195.14 95.6119C195.089 94.7576 195.252 93.904 195.614 93.1285C195.976 92.353 196.526 91.6801 197.213 91.1708C197.801 90.7092 198.439 90.3153 199.116 89.9965C205.669 86.8018 212.045 97.206 208.759 103.392Z" fill="#E4897B"/>
<path opacity="0.2" d="M208.477 103.884C208.092 104.575 207.58 105.187 206.968 105.688C205 107.256 203.288 107.728 201.799 107.276C203.247 106.925 204.551 106.134 205.531 105.012C205.91 104.62 206.37 104.316 206.879 104.121C207.388 103.926 207.933 103.845 208.477 103.884Z" fill="black"/>
<path d="M195.107 95.8088C195.107 95.8088 196.938 100.624 202.284 100.539C202.284 100.539 206.456 104.475 209.271 103.222C213.108 101.523 213.895 94.5427 209.986 89.6686C204.908 83.3448 193.835 87.904 195.107 95.8088Z" fill="#263238"/>
<path d="M199.424 100.263C199.083 99.5348 199.089 98.0457 200.29 97.6783C201.49 97.3109 203.57 99.8628 200.985 101.857C200.618 102.146 200.132 101.772 199.424 100.263Z" fill="#E4897B"/>
<path d="M200.861 87.0446C200.861 87.0446 195.901 88.0221 194.301 90.9806C192.424 94.4181 192.333 97.0814 197.318 98.8526C197.318 98.8526 203.622 92.9486 206.338 92.2926C207.921 91.8999 209.534 91.641 211.16 91.5186C209.349 86.2771 202.861 84.8733 200.861 87.0446Z" fill="#263238"/>
<path d="M205.669 105.813C205.669 105.813 209.08 108.174 209.966 112.071L220.6 105.865C220.6 105.865 212.275 103.969 210.845 100.748C210.845 100.748 205.282 101.437 205.669 105.813Z" fill="#E4897B"/>
<path d="M216.231 131.364C216.231 131.364 202.455 117.831 200.972 113.58C200.972 113.58 206.765 104.56 218.343 104.179C229.921 103.799 237.8 125.827 237.8 125.827L216.231 131.364Z" fill="#80B3FF"/>
<path opacity="0.6" d="M237.8 125.834L216.237 131.37C216.237 131.37 213.233 128.412 209.874 124.81C208.838 123.689 207.755 122.508 206.712 121.34C203.977 118.237 201.563 115.207 200.979 113.56C200.979 113.56 206.765 104.54 218.343 104.16C229.921 103.779 237.8 125.834 237.8 125.834Z" fill="white"/>
<path d="M203.36 98.2294C203.36 98.2294 205.374 104.921 212.446 107.138C219.517 109.355 217.739 116.578 224.595 115.725C228.242 115.272 231.365 107.853 220.18 101.293C213.659 97.4815 216.191 84.9519 202.35 86.1262C202.337 86.1327 205.21 94.7198 203.36 98.2294Z" fill="#263238"/>
<path d="M210.228 233.359L206.948 232.611C207.44 216.211 209.808 196.38 211.901 181.482C212.229 179.147 212.557 176.943 212.859 174.883C213.01 173.906 213.148 172.967 213.285 172.062C213.941 167.595 214.545 164.066 214.906 161.881C215.175 160.287 215.325 159.414 215.325 159.414L227.133 162.294L226.287 165.273L223.499 175.113L223.184 176.234L221.334 182.722L218.199 193.763C218.395 210.432 210.228 233.359 210.228 233.359Z" fill="#E4897B"/>
<path d="M238.305 230.617L234.946 230.446C232.388 212.813 231.312 190.758 230.846 175.427C230.781 173.053 230.722 170.835 230.676 168.815C230.676 168.717 230.676 168.618 230.676 168.52C230.591 164.525 230.551 161.35 230.531 159.336C230.531 157.761 230.531 156.902 230.531 156.902L242.648 157.696L242.13 162.747L241.369 170.16L241.218 171.616L240.693 176.667L239.276 190.24C242.372 206.64 238.305 230.617 238.305 230.617Z" fill="#E4897B"/>
<path d="M239.565 229.961C239.565 229.541 234.382 229.869 234.382 229.869C234.382 229.869 231.201 233.103 228.111 233.805C225.021 234.507 226.753 236.39 230.204 236.39H238.732C241.198 236.416 239.663 234.323 239.565 229.961Z" fill="#263238"/>
<path d="M231.207 231.069C231.132 231.001 231.08 230.912 231.058 230.814C231.036 230.715 231.044 230.612 231.083 230.518C231.103 230.445 231.138 230.376 231.185 230.317C231.232 230.257 231.291 230.207 231.358 230.171C231.726 230.021 232.127 229.975 232.519 230.039C232.099 229.816 231.732 229.547 231.712 229.272C231.712 229.095 231.817 228.951 232.053 228.839C232.156 228.792 232.268 228.768 232.381 228.768C232.495 228.768 232.606 228.792 232.709 228.839C233.411 229.134 233.844 230.341 233.864 230.387C233.878 230.421 233.878 230.458 233.864 230.492V230.525C233.852 230.539 233.836 230.551 233.818 230.558C233.149 230.9 232.425 231.122 231.68 231.214C231.51 231.225 231.342 231.174 231.207 231.069ZM231.496 230.413C231.46 230.431 231.429 230.456 231.403 230.487C231.377 230.517 231.357 230.552 231.345 230.591C231.292 230.794 231.345 230.846 231.345 230.866C231.594 231.069 232.539 230.781 233.313 230.459C232.724 230.273 232.095 230.255 231.496 230.407V230.413ZM232.152 229.101C232.08 229.101 231.962 229.2 231.968 229.272C231.968 229.502 232.723 229.928 233.484 230.197C233.314 229.742 233.004 229.354 232.598 229.088C232.532 229.057 232.461 229.042 232.388 229.042C232.313 229.042 232.24 229.058 232.172 229.088L232.152 229.101Z" fill="#263238"/>
<path d="M211.888 229.961C211.888 229.541 206.712 229.869 206.712 229.869C206.712 229.869 203.531 233.103 200.441 233.805C197.351 234.507 199.076 236.39 202.527 236.39H211.055C213.528 236.416 212 234.323 211.888 229.961Z" fill="#263238"/>
<path d="M203.537 231.069C203.464 231 203.413 230.911 203.39 230.813C203.368 230.715 203.376 230.612 203.412 230.518C203.433 230.445 203.468 230.376 203.515 230.317C203.562 230.257 203.621 230.207 203.688 230.171C204.056 230.021 204.457 229.976 204.849 230.039C204.429 229.816 204.062 229.547 204.049 229.272C204.049 229.097 204.16 228.953 204.383 228.839C204.486 228.792 204.598 228.768 204.711 228.768C204.824 228.768 204.936 228.792 205.039 228.839C205.741 229.134 206.174 230.341 206.194 230.387C206.202 230.403 206.206 230.421 206.206 230.44C206.206 230.458 206.202 230.476 206.194 230.492C206.194 230.492 206.194 230.492 206.194 230.525L206.148 230.558C205.476 230.899 204.751 231.121 204.003 231.214C203.835 231.222 203.67 231.171 203.537 231.069ZM203.826 230.413C203.791 230.432 203.76 230.457 203.735 230.487C203.71 230.518 203.692 230.553 203.681 230.591C203.629 230.794 203.681 230.846 203.714 230.866C203.957 231.069 204.902 230.781 205.682 230.459C205.081 230.266 204.437 230.248 203.826 230.407V230.413ZM204.482 229.101C204.41 229.101 204.291 229.2 204.298 229.272C204.298 229.502 205.052 229.928 205.82 230.197C205.648 229.742 205.335 229.354 204.928 229.088C204.862 229.057 204.79 229.041 204.718 229.042C204.643 229.042 204.569 229.058 204.501 229.088L204.482 229.101Z" fill="#263238"/>
<path d="M213.436 164.348L216.231 144.668V131.351C223.598 125.814 237.8 125.814 237.8 125.814C237.8 125.814 248.709 140.948 243.409 165.83L229.711 167.798L228.839 163.154L227.12 167.798L213.436 164.348Z" fill="#263238"/>
<path opacity="0.2" d="M213.436 164.348L216.231 144.668V131.351C223.598 125.814 237.8 125.814 237.8 125.814C237.8 125.814 248.709 140.948 243.409 165.83L229.711 167.798L228.839 163.154L227.12 167.798L213.436 164.348Z" fill="white"/>
<path opacity="0.2" d="M228.839 163.226L231.463 155.032C231.463 155.032 234.231 154.193 237.787 148.695C237.8 148.695 237.183 158.05 228.839 163.226Z" fill="black"/>
<path opacity="0.2" d="M223.001 135.136L229.147 134.552C230.128 136.85 230.468 139.371 230.131 141.847L226.195 144.215L223.342 142.188C223.342 142.188 223.25 136.986 223.001 135.136Z" fill="black"/>
<path opacity="0.2" d="M237.8 133.634C238.625 135.661 239.234 137.77 239.617 139.925L241.795 140.85L242.969 139.387C242.969 139.387 242.176 135.103 240.831 133.004L237.8 133.634Z" fill="black"/>
<path d="M213.18 163.226L227.717 167.49L226.805 169.445L212.997 165.194L213.18 163.226Z" fill="#263238"/>
<path d="M229.147 167.208L229.39 169.005L243.645 167.208L243.861 164.945L229.147 167.208Z" fill="#263238"/>
<path d="M232.139 128.576C234.47 128.182 236.827 127.952 239.191 127.887L238.312 126.437C236.013 126.377 233.713 126.513 231.437 126.844L232.139 128.576Z" fill="#263238"/>
<path d="M219.065 130.36C217.182 131.174 216.099 131.784 216.099 131.784V133.575C217.158 133.041 218.218 132.553 219.281 132.112L219.065 130.36Z" fill="#263238"/>
<path d="M219.97 131.856C223.616 130.426 227.399 129.374 231.26 128.714L230.604 126.969C226.861 127.593 223.203 128.645 219.701 130.104L219.97 131.856Z" fill="#263238"/>
<path d="M180.557 136.979L176.831 135.484L176.175 139C176.175 139 179.534 141.033 180.938 138.613L180.557 136.979Z" fill="#E4897B"/>
<path d="M174.981 135.7L173.788 138.416L176.202 139L176.831 135.484L174.981 135.7Z" fill="#E4897B"/>
<path d="M237.741 99.1872L237.301 95.1987L233.903 96.3008C233.903 96.3008 233.693 100.237 236.495 100.315L237.741 99.1872Z" fill="#E4897B"/>
<path d="M236.232 93.6702L233.274 93.9063L233.903 96.3007L237.301 95.1986L236.232 93.6702Z" fill="#E4897B"/>
<path opacity="0.2" d="M209.874 124.83C208.838 123.708 207.755 122.528 206.712 121.36C206.312 118.92 206.056 116.768 206.056 116.768C207.306 117.695 208.308 118.915 208.974 120.322C209.639 121.728 209.949 123.276 209.874 124.83Z" fill="black"/>
<path d="M206.437 115.64C204.934 121.697 202.666 127.539 199.686 133.024C196.734 138.632 185.51 139.308 179.869 139.452L179.606 136.592C183.004 135.792 193.566 133.686 195.009 130.623C197.365 125.315 199.304 119.832 200.808 114.223L206.437 115.626V115.64Z" fill="#DC897C"/>
<path d="M203.222 110.693C200.014 112.793 198.296 118.251 197.751 120.92L204.416 125.827L207.781 122.547C209.146 115.016 204.442 109.9 203.222 110.693Z" fill="#80B3FF"/>
<path opacity="0.6" d="M203.222 110.693C200.014 112.793 198.296 118.251 197.751 120.92L204.416 125.827L207.781 122.547C209.146 115.016 204.442 109.9 203.222 110.693Z" fill="white"/>
<path d="M235.76 100.466L230.997 100.978C230.93 100.98 230.863 100.968 230.801 100.943C230.739 100.917 230.683 100.88 230.636 100.832C230.589 100.783 230.553 100.726 230.529 100.663C230.505 100.6 230.495 100.533 230.499 100.466L230.21 90.3836C230.201 90.2411 230.244 90.1001 230.331 89.9867C230.417 89.8733 230.542 89.7952 230.682 89.767L235.438 89.2619C235.506 89.2589 235.573 89.2703 235.636 89.2951C235.698 89.32 235.755 89.3578 235.802 89.4061C235.849 89.4544 235.886 89.5121 235.909 89.5754C235.932 89.6387 235.942 89.7063 235.937 89.7735L236.226 99.8563C236.235 99.9971 236.193 100.136 236.107 100.249C236.021 100.361 235.898 100.438 235.76 100.466Z" fill="#263238"/>
<path opacity="0.6" d="M235.76 100.466L230.997 100.978C230.93 100.98 230.863 100.968 230.801 100.943C230.739 100.917 230.683 100.88 230.636 100.832C230.589 100.783 230.553 100.726 230.529 100.663C230.505 100.6 230.495 100.533 230.499 100.466L230.21 90.3836C230.201 90.2411 230.244 90.1001 230.331 89.9867C230.417 89.8733 230.542 89.7952 230.682 89.767L235.438 89.2619C235.506 89.2589 235.573 89.2703 235.636 89.2951C235.698 89.32 235.755 89.3578 235.802 89.4061C235.849 89.4544 235.886 89.5121 235.909 89.5754C235.932 89.6387 235.942 89.7063 235.937 89.7735L236.226 99.8563C236.235 99.9971 236.193 100.136 236.107 100.249C236.021 100.361 235.898 100.438 235.76 100.466Z" fill="white"/>
<path d="M235.34 100.512L230.584 101.017C230.517 101.021 230.449 101.011 230.386 100.987C230.323 100.963 230.266 100.926 230.218 100.878C230.171 100.83 230.134 100.773 230.11 100.71C230.086 100.647 230.075 100.58 230.079 100.512L229.797 90.4229C229.785 90.2815 229.826 90.1407 229.912 90.0279C229.998 89.9151 230.123 89.8385 230.263 89.8129L235.019 89.3077C235.085 89.3049 235.152 89.3161 235.214 89.3405C235.276 89.365 235.333 89.4022 235.38 89.4498C235.427 89.4974 235.463 89.5543 235.487 89.6168C235.511 89.6793 235.521 89.7461 235.517 89.8129L235.806 99.9021C235.818 100.044 235.777 100.184 235.691 100.297C235.605 100.41 235.48 100.487 235.34 100.512Z" fill="#263238"/>
<path opacity="0.7" d="M235.34 100.512L230.584 101.017C230.517 101.021 230.449 101.011 230.386 100.987C230.323 100.963 230.266 100.926 230.218 100.878C230.171 100.83 230.134 100.773 230.11 100.71C230.086 100.647 230.075 100.58 230.079 100.512L229.797 90.4229C229.785 90.2815 229.826 90.1407 229.912 90.0279C229.998 89.9151 230.123 89.8385 230.263 89.8129L235.019 89.3077C235.085 89.3049 235.152 89.3161 235.214 89.3405C235.276 89.365 235.333 89.4022 235.38 89.4498C235.427 89.4974 235.463 89.5543 235.487 89.6168C235.511 89.6793 235.521 89.7461 235.517 89.8129L235.806 99.9021C235.818 100.044 235.777 100.184 235.691 100.297C235.605 100.41 235.48 100.487 235.34 100.512Z" fill="white"/>
<path d="M235.025 89.5046L233.779 89.6358L233.621 90.0229L231.693 90.2262L231.516 89.8785L230.269 90.0097C230.179 90.0286 230.099 90.0795 230.043 90.1531C229.988 90.2267 229.961 90.318 229.967 90.4099L230.249 100.493C230.247 100.536 230.253 100.58 230.269 100.621C230.284 100.663 230.308 100.7 230.339 100.731C230.37 100.762 230.407 100.786 230.449 100.802C230.49 100.817 230.534 100.824 230.577 100.821L235.333 100.315C235.423 100.298 235.503 100.248 235.559 100.176C235.615 100.103 235.642 100.013 235.635 99.9219L235.353 89.8326C235.355 89.7891 235.348 89.7456 235.332 89.7049C235.316 89.6643 235.292 89.6274 235.261 89.5966C235.23 89.5657 235.193 89.5416 235.153 89.5258C235.112 89.51 235.069 89.5028 235.025 89.5046Z" fill="#80B3FF"/>
<path opacity="0.8" d="M234.389 93.1519L230.892 93.5258C230.85 93.5277 230.807 93.5206 230.767 93.5051C230.727 93.4896 230.691 93.466 230.661 93.4358C230.631 93.4056 230.607 93.3694 230.592 93.3295C230.576 93.2897 230.569 93.2471 230.571 93.2044V92.2335C230.563 92.143 230.588 92.0527 230.643 91.98C230.697 91.9073 230.777 91.8574 230.866 91.8399L234.369 91.466C234.412 91.465 234.454 91.4729 234.494 91.4892C234.533 91.5055 234.569 91.5298 234.599 91.5607C234.628 91.5915 234.651 91.6282 234.666 91.6684C234.681 91.7085 234.687 91.7513 234.684 91.794L234.717 92.7649C234.722 92.8592 234.691 92.952 234.63 93.0241C234.569 93.0962 234.483 93.1419 234.389 93.1519Z" fill="white"/>
</svg>
