<svg width="328" height="245" viewBox="0 0 328 245" fill="none" xmlns="http://www.w3.org/2000/svg">
<path d="M291.212 180.4H172.666C171.647 180.398 170.67 179.993 169.949 179.272C169.229 178.552 168.823 177.575 168.822 176.556V3.84416C168.825 2.8263 169.231 1.85121 169.952 1.13208C170.672 0.412951 171.648 0.0082894 172.666 0.00656128H291.212C292.229 0.0082894 293.205 0.412951 293.926 1.13208C294.646 1.85121 295.052 2.8263 295.056 3.84416V176.556C295.054 177.575 294.648 178.552 293.928 179.272C293.207 179.993 292.231 180.398 291.212 180.4ZM172.666 0.170561C172.181 0.167103 171.7 0.259521 171.251 0.442507C170.802 0.625492 170.393 0.895438 170.049 1.23682C169.704 1.57821 169.431 1.98429 169.244 2.43175C169.057 2.87921 168.96 3.35921 168.959 3.84416V176.556C168.959 177.532 169.347 178.468 170.037 179.158C170.727 179.848 171.664 180.236 172.64 180.236H291.212C292.188 180.236 293.124 179.848 293.814 179.158C294.504 178.468 294.892 177.532 294.892 176.556V3.84416C294.892 2.86812 294.504 1.93206 293.814 1.2419C293.124 0.551733 292.188 0.164 291.212 0.164L172.666 0.170561Z" fill="#FFEBB7"/>
<path d="M154.481 180.4H35.9094C34.8904 180.398 33.9137 179.993 33.1931 179.272C32.4726 178.552 32.067 177.575 32.0653 176.556V3.84416C32.067 2.82516 32.4726 1.84839 33.1931 1.12785C33.9137 0.407301 34.8904 0.00173448 35.9094 0H154.481C155.5 0.00173448 156.477 0.407301 157.198 1.12785C157.918 1.84839 158.324 2.82516 158.326 3.84416V176.556C158.324 177.575 157.918 178.552 157.198 179.272C156.477 179.993 155.5 180.398 154.481 180.4ZM35.9094 0.170561C34.9345 0.17056 33.9995 0.55739 33.3095 1.24614C32.6195 1.93488 32.231 2.86926 32.2293 3.84416V176.556C32.2293 177.532 32.617 178.468 33.3072 179.158C33.9973 179.848 34.9334 180.236 35.9094 180.236H154.481C155.457 180.236 156.394 179.848 157.084 179.158C157.774 178.468 158.162 177.532 158.162 176.556V3.84416C158.162 2.86812 157.774 1.93206 157.084 1.2419C156.394 0.551733 155.457 0.164 154.481 0.164L35.9094 0.170561Z" fill="#FFEBB7"/>
<path d="M328 220.462H0V220.626H328V220.462Z" fill="#FFEBB7"/>
<path d="M115.541 8.8363H61.769V108.023H115.541V8.8363Z" fill="#FFF2CF"/>
<path d="M112.261 12.1163H65.0555V104.737H112.261V12.1163Z" fill="#FAFAFA"/>
<path d="M112.261 12.1163V16.295L65.0555 63.5008V45.0081L97.9474 12.1163H112.261Z" fill="white"/>
<path d="M112.261 48.2225V66.7152L74.2395 104.737H65.0555V95.4283L112.261 48.2225Z" fill="white"/>
<path d="M281.267 8.8363H209.231V47.9864H281.267V8.8363Z" fill="#FFF2CF"/>
<path d="M277.987 12.1163H212.511V44.6998H277.987V12.1163Z" fill="#FAFAFA"/>
<path d="M252.724 12.1163L220.141 44.6998H212.511V39.6355L240.03 12.1163H252.724Z" fill="white"/>
<path d="M277.987 12.1163V13.1397L246.426 44.6998H236.573L269.157 12.1163H277.987Z" fill="white"/>
<path d="M283.786 71.4581H206.706V74.397H283.786V71.4581Z" fill="#FFF2CF"/>
<path d="M278.131 71.3466V153.491H231.555V71.3466C231.555 70.9551 231.71 70.5797 231.987 70.3029C232.264 70.0261 232.639 69.8706 233.031 69.8706H276.655C277.046 69.8706 277.422 70.0261 277.699 70.3029C277.975 70.5797 278.131 70.9551 278.131 71.3466Z" fill="#FAFAFA"/>
<path d="M278.131 86.3755H231.555V88.173H278.131V86.3755Z" fill="#FFF2CF"/>
<path d="M278.131 90.7641H231.555V92.5681H278.131V90.7641Z" fill="#FFF2CF"/>
<path d="M288.292 77.8606C291.01 77.8606 293.212 75.6579 293.212 72.9406C293.212 70.2234 291.01 68.0206 288.292 68.0206C285.575 68.0206 283.372 70.2234 283.372 72.9406C283.372 75.6579 285.575 77.8606 288.292 77.8606Z" fill="#FFF2CF"/>
<path d="M203.242 77.8606C205.959 77.8606 208.162 75.6579 208.162 72.9406C208.162 70.2234 205.959 68.0206 203.242 68.0206C200.525 68.0206 198.322 70.2234 198.322 72.9406C198.322 75.6579 200.525 77.8606 203.242 77.8606Z" fill="#FFF2CF"/>
<path d="M260.609 71.3466V153.491H214.033V71.3466C214.033 70.9551 214.189 70.5797 214.465 70.3029C214.742 70.0261 215.118 69.8706 215.509 69.8706H259.133C259.525 69.8706 259.9 70.0261 260.177 70.3029C260.454 70.5797 260.609 70.9551 260.609 71.3466Z" fill="#FFF2CF"/>
<path d="M260.609 86.3755H214.033V88.173H260.609V86.3755Z" fill="#FFEBB7"/>
<path d="M260.609 90.7641H214.033V92.5681H260.609V90.7641Z" fill="#FFEBB7"/>
<path d="M58.0495 151.503H49.2525L49.8495 144.891L50.2496 140.476L50.8991 133.345H56.4029L57.0523 140.476L57.4525 144.891L58.0495 151.503Z" fill="#E6E6E6"/>
<path d="M57.0523 140.476L57.4525 144.891H49.8495L50.2496 140.476H57.0523Z" fill="#FFF2CF"/>
<path d="M67.9026 151.503H59.099L59.7026 144.891L60.1027 140.476L60.7522 133.345H66.2494L66.8989 140.476L67.299 144.891L67.9026 151.503Z" fill="#E6E6E6"/>
<path d="M67.299 144.891H59.7025L60.1027 140.476H66.8989L67.299 144.891Z" fill="#FFF2CF"/>
<path d="M85.9819 130.426H84.8405V136.33H85.9819V130.426Z" fill="#E6E6E6"/>
<path d="M88.6518 128.615H82.164V130.636H88.6518V128.615Z" fill="#E6E6E6"/>
<path d="M80.1107 151.503H90.7117C92.4428 150.363 93.7602 148.695 94.4682 146.747C95.1763 144.799 95.2373 142.674 94.6421 140.689C94.047 138.703 92.8275 136.962 91.1646 135.725C89.5017 134.487 87.4841 133.819 85.4112 133.819C83.3383 133.819 81.3207 134.487 79.6578 135.725C77.9949 136.962 76.7754 138.703 76.1803 140.689C75.5851 142.674 75.6461 144.799 76.3542 146.747C77.0622 148.695 78.3796 150.363 80.1107 151.503Z" fill="#E6E6E6"/>
<path d="M103.287 145.789H118.966C119.554 145.789 120.118 146.023 120.533 146.439C120.949 146.855 121.183 147.419 121.183 148.007V151.287H101.07V148.007C101.07 147.419 101.304 146.855 101.719 146.439C102.135 146.023 102.699 145.789 103.287 145.789Z" fill="#E6E6E6"/>
<path d="M127.881 151.503H43.9389V160.241H127.881V151.503Z" fill="#FFF2CF"/>
<path d="M50.6367 160.241L54.4808 168.913H60.1487V160.241H50.6367Z" fill="#80B3FF"/>
<path d="M50.6367 160.241L54.4808 168.913H60.1487V160.241H50.6367Z" fill="#E6E6E6"/>
<path d="M121.176 160.241L117.339 168.913H111.671V160.241H121.176Z" fill="#80B3FF"/>
<path d="M121.176 160.241L117.339 168.913H111.671V160.241H121.176Z" fill="#E6E6E6"/>
<path d="M304.489 228.373H36.6835C33.93 228.373 31.6979 230.605 31.6979 233.359V233.516C31.6979 236.27 33.93 238.502 36.6835 238.502H304.489C307.242 238.502 309.475 236.27 309.475 233.516V233.359C309.475 230.605 307.242 228.373 304.489 228.373Z" fill="#FFEBB7"/>
<path d="M296.138 244.412H47.3304C45.7646 244.412 44.2629 243.79 43.1556 242.683C42.0484 241.576 41.4264 240.074 41.4264 238.508H302.042C302.042 240.074 301.42 241.576 300.313 242.683C299.206 243.79 297.704 244.412 296.138 244.412Z" fill="#EBEBEB"/>
<path d="M265.332 193.251H263.437V203.091H265.332V193.251Z" fill="#80B3FF"/>
<path opacity="0.3" d="M265.332 193.251H263.437V203.091H265.332V193.251Z" fill="black"/>
<path d="M271.308 193.015L270.889 194.032L267.707 193.264H259.356V190.66H267.707L271.308 193.015Z" fill="#80B3FF"/>
<path d="M280.44 214.991C280.444 217.645 279.786 220.259 278.526 222.596C277.266 224.932 275.444 226.918 273.224 228.373H255.558C252.187 226.156 249.774 222.751 248.801 218.835C248.486 217.578 248.328 216.287 248.329 214.991C248.329 210.728 250.022 206.64 253.036 203.626C256.05 200.612 260.138 198.919 264.401 198.919C268.663 198.919 272.751 200.612 275.765 203.626C278.78 206.64 280.473 210.728 280.473 214.991H280.44Z" fill="#80B3FF"/>
<path opacity="0.3" d="M280.44 214.991C280.444 217.645 279.786 220.259 278.526 222.596C277.266 224.932 275.444 226.918 273.224 228.373H255.558C252.187 226.156 249.774 222.751 248.801 218.835C248.486 217.578 248.328 216.287 248.329 214.991C248.329 210.728 250.022 206.64 253.036 203.626C256.05 200.612 260.138 198.919 264.401 198.919C268.663 198.919 272.751 200.612 275.765 203.626C278.78 206.64 280.473 210.728 280.473 214.991H280.44Z" fill="white"/>
<path d="M280.44 214.991C280.44 216.286 280.284 217.577 279.974 218.835H248.801C248.486 217.578 248.328 216.287 248.329 214.991C248.327 212.752 248.794 210.537 249.7 208.49H279.069C279.975 210.537 280.442 212.752 280.44 214.991Z" fill="#80B3FF"/>
<path d="M43.3419 209.52H74.1739C75.2665 209.52 76.3144 209.954 77.087 210.726C77.8596 211.499 78.2936 212.547 78.2936 213.639V224.26C78.2936 225.353 77.8596 226.401 77.087 227.173C76.3144 227.946 75.2665 228.38 74.1739 228.38H42.9418C42.574 228.38 42.2098 228.307 41.8703 228.166C41.5307 228.024 41.2225 227.817 40.9634 227.556C40.7042 227.295 40.4993 226.986 40.3603 226.645C40.2214 226.305 40.1512 225.94 40.1538 225.572V218.783C40.1538 218.043 40.4475 217.334 40.9703 216.811C41.4932 216.288 42.2023 215.995 42.9418 215.995L42.1218 215.647C41.5397 215.407 41.0421 214.999 40.6917 214.476C40.3414 213.953 40.1542 213.338 40.1538 212.708C40.1555 211.863 40.4919 211.053 41.0895 210.456C41.687 209.858 42.4969 209.522 43.3419 209.52Z" fill="#80B3FF"/>
<path opacity="0.4" d="M43.3419 209.52H74.1739C75.2665 209.52 76.3144 209.954 77.087 210.726C77.8596 211.499 78.2936 212.547 78.2936 213.639V224.26C78.2936 225.353 77.8596 226.401 77.087 227.173C76.3144 227.946 75.2665 228.38 74.1739 228.38H42.9418C42.574 228.38 42.2098 228.307 41.8703 228.166C41.5307 228.024 41.2225 227.817 40.9634 227.556C40.7042 227.295 40.4993 226.986 40.3603 226.645C40.2214 226.305 40.1512 225.94 40.1538 225.572V218.783C40.1538 218.043 40.4475 217.334 40.9703 216.811C41.4932 216.288 42.2023 215.995 42.9418 215.995L42.1218 215.647C41.5397 215.407 41.0421 214.999 40.6917 214.476C40.3414 213.953 40.1542 213.338 40.1538 212.708C40.1555 211.863 40.4919 211.053 41.0895 210.456C41.687 209.858 42.4969 209.522 43.3419 209.52Z" fill="white"/>
<path opacity="0.2" d="M69.9952 224.778H47.1795C46.377 224.742 45.6195 224.397 45.0646 223.816C44.5097 223.235 44.2 222.462 44.2 221.659C44.2 220.856 44.5097 220.083 45.0646 219.502C45.6195 218.921 46.377 218.577 47.1795 218.54H67.85C67.9579 218.54 68.0614 218.583 68.1376 218.659C68.2139 218.735 68.2568 218.839 68.2568 218.947C68.2568 219.054 68.2139 219.158 68.1376 219.234C68.0614 219.31 67.9579 219.353 67.85 219.353H47.1795C46.8574 219.319 46.5316 219.352 46.2233 219.452C45.915 219.552 45.6312 219.715 45.3902 219.932C45.1493 220.148 44.9566 220.413 44.8247 220.709C44.6927 221.005 44.6246 221.325 44.6246 221.649C44.6246 221.973 44.6927 222.294 44.8247 222.589C44.9566 222.885 45.1493 223.15 45.3902 223.367C45.6312 223.583 45.915 223.747 46.2233 223.846C46.5316 223.946 46.8574 223.98 47.1795 223.945H69.9952C70.6064 223.944 71.1921 223.699 71.6237 223.267C72.0554 222.834 72.2977 222.247 72.2977 221.636V216.086C72.296 215.474 72.0522 214.888 71.6195 214.455C71.1868 214.023 70.6005 213.779 69.9886 213.777H45.3624C45.3093 213.777 45.2567 213.767 45.2077 213.746C45.1587 213.726 45.1143 213.696 45.0771 213.658C45.0398 213.62 45.0105 213.575 44.9908 213.526C44.971 213.476 44.9613 213.424 44.9622 213.371C44.9622 213.264 45.0044 213.163 45.0794 213.088C45.1545 213.013 45.2562 212.97 45.3624 212.97H69.9952C70.8216 212.97 71.6141 213.299 72.1985 213.883C72.7829 214.467 73.1112 215.26 73.1112 216.086V221.636C73.1146 222.048 73.0366 222.456 72.8816 222.837C72.7265 223.218 72.4975 223.564 72.2078 223.856C71.9181 224.149 71.5735 224.38 71.1937 224.539C70.8139 224.697 70.4066 224.778 69.9952 224.778Z" fill="black"/>
<path d="M81.4818 209.52H112.314C113.407 209.52 114.456 209.954 115.229 210.726C116.003 211.498 116.438 212.546 116.44 213.639V224.26C116.438 225.353 116.003 226.401 115.229 227.174C114.456 227.946 113.407 228.38 112.314 228.38H81.0882C80.3487 228.38 79.6396 228.086 79.1168 227.563C78.5939 227.04 78.3002 226.331 78.3002 225.592V218.783C78.3019 218.044 78.5962 217.336 79.1187 216.813C79.6411 216.291 80.3493 215.996 81.0882 215.995L80.255 215.647C79.6741 215.405 79.1773 214.997 78.8272 214.475C78.4771 213.952 78.2892 213.337 78.287 212.708C78.2888 211.862 78.6261 211.051 79.2251 210.453C79.824 209.855 80.6356 209.52 81.4818 209.52Z" fill="#80B3FF"/>
<path opacity="0.5" d="M81.4818 209.52H112.314C113.407 209.52 114.456 209.954 115.229 210.726C116.003 211.498 116.438 212.546 116.44 213.639V224.26C116.438 225.353 116.003 226.401 115.229 227.174C114.456 227.946 113.407 228.38 112.314 228.38H81.0882C80.3487 228.38 79.6396 228.086 79.1168 227.563C78.5939 227.04 78.3002 226.331 78.3002 225.592V218.783C78.3019 218.044 78.5962 217.336 79.1187 216.813C79.6411 216.291 80.3493 215.996 81.0882 215.995L80.255 215.647C79.6741 215.405 79.1773 214.997 78.8272 214.475C78.4771 213.952 78.2892 213.337 78.287 212.708C78.2888 211.862 78.6261 211.051 79.2251 210.453C79.824 209.855 80.6356 209.52 81.4818 209.52Z" fill="white"/>
<path opacity="0.2" d="M108.128 224.778H85.3128C84.5103 224.742 83.7528 224.397 83.1979 223.816C82.643 223.235 82.3333 222.462 82.3333 221.659C82.3333 220.856 82.643 220.083 83.1979 219.502C83.7528 218.921 84.5103 218.577 85.3128 218.54H105.983C106.091 218.54 106.195 218.583 106.271 218.659C106.347 218.735 106.39 218.839 106.39 218.947C106.39 219.054 106.347 219.158 106.271 219.234C106.195 219.31 106.091 219.353 105.983 219.353H85.3128C84.9907 219.319 84.6649 219.352 84.3566 219.452C84.0484 219.552 83.7645 219.715 83.5236 219.932C83.2826 220.148 83.0899 220.413 82.958 220.709C82.8261 221.005 82.7579 221.325 82.7579 221.649C82.7579 221.973 82.8261 222.294 82.958 222.589C83.0899 222.885 83.2826 223.15 83.5236 223.367C83.7645 223.583 84.0484 223.747 84.3566 223.846C84.6649 223.946 84.9907 223.98 85.3128 223.945H108.128C108.74 223.945 109.326 223.703 109.759 223.271C110.192 222.84 110.436 222.254 110.438 221.643V216.093C110.436 215.481 110.192 214.895 109.759 214.462C109.327 214.029 108.74 213.786 108.128 213.784H83.5023C83.3944 213.784 83.2909 213.741 83.2147 213.665C83.1384 213.588 83.0955 213.485 83.0955 213.377C83.0955 213.324 83.1061 213.271 83.1266 213.222C83.1471 213.173 83.1772 213.129 83.2151 213.092C83.2529 213.055 83.2978 213.025 83.3471 213.005C83.3964 212.986 83.4492 212.976 83.5023 212.977H108.128C108.955 212.977 109.747 213.305 110.332 213.89C110.916 214.474 111.244 215.267 111.244 216.093V221.636C111.248 222.048 111.17 222.456 111.015 222.837C110.86 223.218 110.631 223.564 110.341 223.856C110.051 224.149 109.707 224.38 109.327 224.539C108.947 224.697 108.54 224.778 108.128 224.778Z" fill="black"/>
<path d="M62.4053 190.804H93.2373C94.3299 190.804 95.3777 191.238 96.1503 192.011C96.9229 192.783 97.3569 193.831 97.3569 194.924V205.538C97.3569 206.631 96.9229 207.678 96.1503 208.451C95.3777 209.224 94.3299 209.658 93.2373 209.658H62.0117C61.2722 209.658 60.5631 209.364 60.0402 208.841C59.5174 208.318 59.2237 207.609 59.2237 206.87V200.067C59.2237 199.327 59.5174 198.618 60.0402 198.095C60.5631 197.573 61.2722 197.279 62.0117 197.279L61.1785 196.931C60.5965 196.691 60.0989 196.284 59.7485 195.76C59.3982 195.237 59.211 194.622 59.2105 193.992C59.2105 193.573 59.2932 193.158 59.4538 192.771C59.6145 192.383 59.8499 192.032 60.1466 191.736C60.4434 191.439 60.7956 191.205 61.1832 191.045C61.5708 190.885 61.986 190.803 62.4053 190.804Z" fill="#80B3FF"/>
<path opacity="0.7" d="M62.4053 190.804H93.2373C94.3299 190.804 95.3777 191.238 96.1503 192.011C96.9229 192.783 97.3569 193.831 97.3569 194.924V205.538C97.3569 206.631 96.9229 207.678 96.1503 208.451C95.3777 209.224 94.3299 209.658 93.2373 209.658H62.0117C61.2722 209.658 60.5631 209.364 60.0402 208.841C59.5174 208.318 59.2237 207.609 59.2237 206.87V200.067C59.2237 199.327 59.5174 198.618 60.0402 198.095C60.5631 197.573 61.2722 197.279 62.0117 197.279L61.1785 196.931C60.5965 196.691 60.0989 196.284 59.7485 195.76C59.3982 195.237 59.211 194.622 59.2105 193.992C59.2105 193.573 59.2932 193.158 59.4538 192.771C59.6145 192.383 59.8499 192.032 60.1466 191.736C60.4434 191.439 60.7956 191.205 61.1832 191.045C61.5708 190.885 61.986 190.803 62.4053 190.804Z" fill="white"/>
<g opacity="0.2">
<path d="M89.0586 206.063H66.2429C65.4404 206.026 64.6829 205.681 64.128 205.1C63.5731 204.519 63.2634 203.747 63.2634 202.943C63.2634 202.14 63.5731 201.368 64.128 200.787C64.6829 200.206 65.4404 199.861 66.2429 199.824H86.9135C87.0213 199.824 87.1248 199.867 87.201 199.943C87.2773 200.02 87.3202 200.123 87.3202 200.231C87.3202 200.339 87.2773 200.442 87.201 200.518C87.1248 200.595 87.0213 200.638 86.9135 200.638H66.2429C65.6763 200.698 65.1521 200.966 64.7712 201.39C64.3903 201.814 64.1796 202.364 64.1796 202.934C64.1796 203.503 64.3903 204.053 64.7712 204.477C65.1521 204.901 65.6763 205.169 66.2429 205.23H89.0586C89.6699 205.23 90.2562 204.987 90.6891 204.556C91.1219 204.124 91.366 203.538 91.3677 202.927V197.377C91.366 196.765 91.1221 196.179 90.6895 195.746C90.2568 195.314 89.6705 195.07 89.0586 195.068H64.4258C64.3179 195.068 64.2145 195.025 64.1382 194.949C64.0619 194.873 64.0191 194.769 64.0191 194.661C64.0191 194.608 64.0296 194.556 64.0501 194.507C64.0707 194.458 64.1007 194.413 64.1386 194.376C64.1764 194.339 64.2213 194.31 64.2706 194.29C64.3199 194.27 64.3727 194.26 64.4258 194.261H89.052C89.879 194.261 90.6723 194.589 91.2577 195.174C91.8431 195.758 92.1728 196.55 92.1746 197.377V202.927C92.1763 203.338 92.097 203.745 91.9413 204.124C91.7856 204.504 91.5564 204.85 91.267 205.141C90.9775 205.432 90.6335 205.664 90.2545 205.822C89.8756 205.98 89.4692 206.062 89.0586 206.063Z" fill="black"/>
</g>
<path d="M148.221 125.949L144.674 127.922L141.163 129.793C138.826 131.04 136.453 132.214 134.081 133.425C130.975 134.95 127.852 136.451 124.686 137.898C124.262 138.098 123.845 138.291 123.421 138.503C122.144 139.078 120.867 139.647 119.577 140.198L118.936 140.471L117.12 141.245C112.961 142.995 108.718 144.647 104.239 146.136C101.457 147.088 98.6289 147.896 95.7645 148.557C94.1262 148.932 92.4694 149.221 90.8009 149.423C89.8869 149.532 88.9184 149.611 87.8168 149.635C86.5393 149.67 85.2612 149.593 83.9972 149.405C83.1356 149.268 82.2857 149.066 81.4549 148.8C80.3417 148.454 79.2746 147.974 78.2771 147.371C76.9716 146.576 75.8126 145.563 74.851 144.375C73.8534 143.131 73.0959 141.713 72.6174 140.192L72.46 139.665L72.339 139.175C72.2613 138.854 72.2006 138.528 72.1574 138.201C72.1016 137.886 72.0632 137.569 72.0424 137.25C72.0424 136.893 72 136.536 72 136.191C72 135.979 72 135.913 72 135.773V135.416C72 135.186 72 134.902 72.0545 134.75L72.1271 134.212L72.1634 133.939L72.1998 133.721C72.3683 132.752 72.5967 131.794 72.8838 130.852C73.3498 129.23 73.8462 127.886 74.3486 126.53C74.851 125.174 75.3655 123.921 75.8861 122.662C76.9151 120.138 78.0228 117.711 79.1306 115.296C80.2383 112.881 81.352 110.502 82.5203 108.141L86.025 101.101C87.2357 98.7707 88.4463 96.4524 89.6569 94.1401C92.1145 89.5216 94.8626 84.5338 97.5259 79.9879L107.471 84.8668C104.445 94.7454 102.072 105.229 99.0392 115.005C97.8286 118.934 96.164 124.115 94.7355 126.125C95.3408 125.889 95.9884 125.634 96.618 125.368L97.8286 124.847L98.4339 124.593L98.676 124.484C100.171 123.837 101.703 123.147 103.186 122.426C105.401 121.397 107.621 120.322 109.844 119.2C114.281 116.96 118.736 114.63 123.161 112.233L129.644 108.504L139.141 102.82L148.221 125.949Z" fill="#80B3FF"/>
<g opacity="0.2">
<path d="M87.2781 149.629C87.2781 149.593 86.9694 145.997 82.938 143.092C78.9067 140.186 73.5497 141.5 73.4952 141.512L73.3439 140.906C73.5739 140.846 79.0217 139.49 83.2952 142.583C87.5687 145.676 87.8713 149.411 87.8774 149.568L87.2781 149.629Z" fill="black"/>
</g>
<g opacity="0.2">
<path d="M103.155 90.7443C101.791 90.7218 100.447 90.4146 99.2087 89.8424C95.0805 88.0265 94.8384 84.6428 94.8263 84.4975L95.4316 84.4612C95.4316 84.5944 95.6737 87.627 99.4508 89.3037C103.228 90.9804 105.631 89.6366 105.655 89.6184L105.964 90.139C105.094 90.5747 104.128 90.7829 103.155 90.7443Z" fill="black"/>
</g>
<path opacity="0.2" d="M97.8347 124.841C95.6798 128.516 91.9208 134.526 91.9208 134.526C92.5487 131.633 93.4884 128.816 94.7234 126.125C95.3287 125.889 95.9764 125.634 96.6059 125.368L97.8347 124.841Z" fill="black"/>
<path opacity="0.2" d="M134.299 113.788C134.377 119.666 127.913 131.494 124.704 137.886C124.281 138.086 123.863 138.279 123.439 138.491C122.162 139.066 120.885 139.635 119.596 140.186L118.954 140.458C126.284 130.531 134.299 113.788 134.299 113.788Z" fill="black"/>
<path d="M97.5684 79.5461C97.5684 79.5461 99.3419 65.6239 102.653 65.0186C105.964 64.4133 114.154 66.1021 117.096 67.4399C120.038 68.7776 107.574 84.9939 107.574 84.9939C103.131 88.1899 96.9025 82.8813 97.5684 79.5461Z" fill="#FFC3BD"/>
<path opacity="0.2" d="M114.547 72.3308L113.942 74.752C113.942 74.752 106 73.9288 103.264 73.0571C101.17 72.3852 101.448 70.8841 101.703 70.2243C101.742 70.1156 101.791 70.0103 101.848 69.9095L114.547 72.3308Z" fill="black"/>
<path d="M105.189 63.7172C105.189 63.7172 102.471 63.9351 101.37 65.969C100.268 68.0028 104.675 66.998 104.675 66.998L105.189 63.7172Z" fill="#FFC3BD"/>
<path d="M125.888 69.1734H120.381C119.968 69.1749 119.568 69.366 119.257 69.7114C118.946 70.0569 118.744 70.5333 118.688 71.0529L92.6388 69.0108V73.0039L118.667 72.6918C118.673 73.2634 118.856 73.8092 119.177 74.211C119.497 74.6127 119.93 74.838 120.381 74.8379H125.888C126.342 74.8362 126.777 74.6068 127.098 74.1998C127.419 73.7928 127.6 73.2413 127.602 72.6658V71.3651C127.603 71.0784 127.56 70.7942 127.474 70.5288C127.389 70.2634 127.263 70.022 127.104 69.8184C126.945 69.6148 126.755 69.453 126.546 69.3423C126.338 69.2316 126.114 69.1742 125.888 69.1734Z" fill="#0067FF"/>
<path d="M115.673 75.8053C115.645 75.8931 115.608 75.9782 115.564 76.0595C115.407 76.4227 110.486 85.345 107.532 82.7966C106.612 81.9976 108.367 78.0873 109.584 76.4348C108.119 76.3137 104.741 74.9699 104.505 73.3659C104.178 71.332 110.788 71.6347 114.045 73.2085C115.673 74.0135 115.945 74.976 115.673 75.8053Z" fill="#FFC3BD"/>
<path d="M103.289 65.4787C103.289 65.4787 102.974 70.0246 104.578 70.9265C106.182 71.8284 106.636 68.82 106.636 68.82C106.636 68.82 106.333 71.7921 108.173 72.1674C110.014 72.5426 110.401 69.7461 110.401 69.7461C110.401 69.7461 109.547 72.5548 111.091 73.1298C112.635 73.7048 113.21 70.7933 113.21 70.7933C113.21 70.7933 112.701 73.9046 115.026 73.9046C116.739 73.9046 118.113 68.2147 117.447 66.8346C117.323 66.5879 117.148 66.3712 116.931 66.1998C116.715 66.0283 116.464 65.9063 116.196 65.8422C115.928 65.7782 115.649 65.7737 115.379 65.8291C115.108 65.8844 114.854 65.9983 114.632 66.1627C114.539 65.804 114.338 65.4824 114.057 65.2411C113.775 64.9998 113.427 64.8503 113.058 64.8128C111.672 64.5586 111.533 65.1942 111.533 65.1942C111.351 64.8022 111.062 64.4699 110.699 64.2362C110.335 64.0026 109.913 63.8771 109.481 63.8746C108.723 63.8993 107.994 64.1714 107.405 64.6494C107.405 64.6494 106.424 62.6882 104.027 63.8262C103.5 64.0925 103.289 65.4787 103.289 65.4787Z" fill="#FFC3BD"/>
<path d="M143.106 39.7045C143.106 39.7045 155.636 33.4638 168.226 42.271C180.817 51.0783 175.375 68.0391 171.537 73.0874C167.7 78.1357 165.169 81.816 166.023 87.1003L143.106 39.7045Z" fill="black"/>
<path d="M166.41 89.9756C166.41 89.9756 176.065 88.9768 181.985 94.4064C185.369 97.5177 184.104 99.8179 184.104 99.8179L169.146 97.1485L166.41 89.9756Z" fill="#80B3FF"/>
<path opacity="0.2" d="M172.227 97.0274C172.227 97.0274 175.629 94.2551 171.289 92.8629C166.949 91.4707 154.237 93.8253 151.871 96.2345C150.454 97.6751 152.767 98.692 152.767 98.692L172.227 97.0274Z" fill="black"/>
<path d="M201.446 135.192C201.3 135.755 201.149 136.324 200.998 136.893C200.731 137.854 200.457 138.814 200.174 139.774C199.89 140.731 199.599 141.687 199.297 142.625C198.873 143.975 198.425 145.301 197.971 146.596L197.608 147.619C197.451 148.061 197.293 148.497 197.13 148.927C195.713 152.88 194.008 156.724 192.027 160.428C192.027 160.428 192.148 161.372 192.336 162.982C192.941 168.145 194.267 180.118 194.587 189.246C195.017 201.201 129.595 199.174 125.322 195.33C123.506 193.714 123.076 186.759 123.143 179.223C123.179 175.639 123.33 171.959 123.518 168.605C123.802 163.448 124.178 159.205 124.311 157.752C124.311 157.407 124.353 157.226 124.353 157.226C123.349 156.322 122.514 155.246 121.89 154.048C121.71 153.727 121.55 153.395 121.412 153.055C120.08 149.901 119.596 145.071 123.718 138.885C131.399 127.384 135.788 112.917 135.939 107.118C136.09 101.319 152.797 97.0577 152.797 97.0577H172.227C172.227 97.0577 194.587 100.968 201.845 107.118C205.925 110.55 204.654 122.783 201.446 135.192Z" fill="#80B3FF"/>
<path opacity="0.2" d="M201.446 135.192C201.3 135.755 201.149 136.324 200.998 136.893C200.731 137.854 200.457 138.814 200.175 139.774C199.89 140.731 199.599 141.687 199.297 142.625C195.265 137.365 190.707 129.508 187.136 122.723L201.446 135.192Z" fill="black"/>
<path opacity="0.2" d="M192.336 162.982C188.807 165.76 184.612 166.814 180.072 166.971C184.56 165.87 188.681 163.615 192.027 160.428C192.027 160.428 192.148 161.372 192.336 162.982Z" fill="black"/>
<path d="M204.92 228.059C205.84 224.112 206.536 216.667 205.289 211.11C203.618 204.102 200.059 197.686 194.999 192.558C194.999 192.558 151.066 205.596 123.318 194.906C121.605 196.722 117.58 212.95 114.59 228.071L204.92 228.059Z" fill="#80B3FF"/>
<g opacity="0.2">
<path d="M123.536 173.194L123.076 172.8C123.524 172.261 168.571 118.788 184.212 99.7756L184.679 100.163C169.037 119.176 124.008 172.655 123.536 173.194Z" fill="black"/>
</g>
<g opacity="0.2">
<path d="M143.642 100.289L139.882 132.15L140.484 132.221L144.243 100.36L143.642 100.289Z" fill="black"/>
</g>
<path d="M153.251 91.7431C153.251 91.7431 145.019 92.8387 144.353 100.326L153.929 98.4681L153.251 91.7431Z" fill="#80B3FF"/>
<path opacity="0.2" d="M124.311 157.752C124.311 157.407 124.353 157.226 124.353 157.226C123.349 156.322 122.514 155.246 121.89 154.048L148.493 122.856L124.311 157.752Z" fill="black"/>
<path d="M141.229 40.4309C141.229 40.4309 131.417 43.3909 128.796 51.9318C128.047 54.5216 127.817 57.234 128.119 59.9131C128.421 62.5922 129.25 65.1851 130.558 67.5428L141.229 40.4309Z" fill="black"/>
<path d="M152.27 101.386C152.936 99.6545 152.93 96.3011 152.506 94.4004C152.062 92.53 151.391 90.7209 150.509 89.0131L152.688 86.1682L164.794 73.1177C164.939 81.3317 165.605 92.9295 172.252 97.0214L148.511 122.826L152.27 101.386Z" fill="#FFC3BD"/>
<path d="M157.107 107.802C156.437 107.837 155.768 107.73 155.142 107.49C154.516 107.249 153.948 106.879 153.475 106.404C151.949 104.751 152.113 102.282 152.125 102.167L152.5 101.906C152.5 101.906 152.409 104.588 153.802 106.089C154.235 106.521 154.756 106.857 155.328 107.074C155.901 107.291 156.513 107.384 157.125 107.348C163.208 107.348 166.864 102.245 166.901 102.191L167.264 102.451C167.209 102.518 163.42 107.802 157.107 107.802Z" fill="white"/>
<g opacity="0.2">
<path d="M152.506 94.4064C152.062 92.5361 151.392 90.7269 150.509 89.0192L152.688 86.1742L159.492 84.9636C159.492 84.9636 157.3 92.0518 152.506 94.4064Z" fill="black"/>
</g>
<path d="M166.985 58.79C167.246 72.2824 167.185 75.7387 161.084 83.1719C151.901 94.3338 136.036 93.8919 131.829 80.7507C128.046 68.9108 128.258 48.8326 140.727 42.4708C153.009 36.1938 166.755 45.3097 166.985 58.8142" fill="#FFC3BD"/>
<path d="M161.574 67.6396C161.297 67.6371 161.023 67.5795 160.769 67.4701C157.742 66.2111 160.036 56.3506 160.163 55.9329L160.605 56.0419C159.946 58.79 158.735 66.1263 160.969 67.0525C161.172 67.1501 161.397 67.1967 161.622 67.1882C161.848 67.1798 162.068 67.1166 162.264 67.004C163.862 66.09 164.425 62.2039 164.431 62.1616L164.879 62.2281C164.879 62.3976 164.274 66.3745 162.494 67.3975C162.215 67.5602 161.897 67.6439 161.574 67.6396Z" fill="black"/>
<path d="M153.336 44.777C153.336 44.777 154.607 56.3143 160.357 56.7924C160.357 56.7924 161.471 64.6131 166.023 65.7692C170.575 66.9253 172.288 61.7681 169.776 53.7962C167.137 45.4368 158.832 36.5024 153.336 44.777Z" fill="black"/>
<path d="M140.503 78.0268C140.027 78.0301 139.553 77.9835 139.087 77.8875C139.006 77.8707 138.936 77.8226 138.891 77.7539C138.846 77.6853 138.831 77.6016 138.848 77.5213C138.864 77.441 138.912 77.3708 138.981 77.3259C139.05 77.2811 139.133 77.2654 139.214 77.2822C139.746 77.3972 144.492 78.2628 146.562 73.045C146.577 73.0081 146.599 72.9744 146.626 72.9459C146.654 72.9173 146.687 72.8946 146.724 72.8788C146.76 72.8631 146.8 72.8547 146.839 72.8541C146.879 72.8536 146.919 72.8608 146.956 72.8756C146.993 72.8903 147.026 72.9121 147.055 72.9398C147.083 72.9676 147.106 73.0006 147.122 73.0372C147.138 73.0737 147.146 73.113 147.147 73.1528C147.147 73.1925 147.14 73.232 147.125 73.269C145.503 77.367 142.361 78.0268 140.503 78.0268Z" fill="black"/>
<path d="M161.459 43.4333C161.459 43.4333 154.371 37.017 153.771 49.4864C153.578 53.3967 137.555 52.1679 131.98 52.3676C126.405 52.5674 133.409 42.9066 138.487 39.5048C143.566 36.1029 159.195 40.0919 161.459 43.4333Z" fill="black"/>
<path d="M144.093 65.3273C144.183 66.4229 143.669 67.3551 142.961 67.4157C142.252 67.4762 141.593 66.6287 141.508 65.5331C141.423 64.4375 141.926 63.5114 142.646 63.4509C143.366 63.3903 144.008 64.2378 144.093 65.3273Z" fill="black"/>
<path d="M133.518 66.5137C133.608 67.6094 133.1 68.5415 132.386 68.596C131.671 68.6505 131.018 67.8152 130.933 66.7196C130.848 65.6239 131.351 64.6978 132.071 64.6373C132.791 64.5768 133.433 65.4242 133.518 66.5137Z" fill="black"/>
<path d="M132.392 64.6736L129.704 64.1228C129.704 64.1228 131.211 66.0719 132.392 64.6736Z" fill="black"/>
<path d="M137.713 64.5949C137.713 64.5949 135.231 68.5113 133.385 71.1867C132.779 72.0584 133.221 72.5003 134.208 72.8877C135.33 73.2967 136.519 73.4878 137.713 73.4506V64.5949Z" fill="#ED847E"/>
<path d="M147.059 60.7209C146.972 60.7035 146.89 60.6674 146.819 60.6151C146.748 60.5629 146.689 60.4957 146.647 60.4183C146.258 59.7101 145.707 59.104 145.039 58.6495C144.371 58.195 143.605 57.9051 142.803 57.8033C142.635 57.7894 142.478 57.7113 142.365 57.5852C142.253 57.459 142.193 57.2944 142.198 57.1254C142.203 57.0411 142.224 56.9585 142.26 56.8824C142.297 56.8063 142.348 56.7382 142.411 56.682C142.474 56.6258 142.548 56.5825 142.627 56.5547C142.707 56.5269 142.792 56.5152 142.876 56.5201C143.893 56.6303 144.87 56.9837 145.722 57.5505C146.574 58.1173 147.278 58.8808 147.773 59.7766C147.857 59.9239 147.88 60.0984 147.837 60.2625C147.794 60.4266 147.688 60.5673 147.543 60.6543C147.473 60.6978 147.395 60.7267 147.314 60.7392C147.233 60.7517 147.15 60.7475 147.071 60.727" fill="black"/>
<path d="M128.621 60.0853C128.539 60.0898 128.457 60.0777 128.38 60.0496C128.303 60.0215 128.233 59.9781 128.173 59.9219C128.048 59.8054 127.973 59.6444 127.965 59.4735C127.957 59.3027 128.017 59.1355 128.13 59.0079C128.799 58.2375 129.643 57.6384 130.591 57.2603C131.538 56.8823 132.563 56.7364 133.578 56.8348C133.662 56.8479 133.742 56.8774 133.814 56.9214C133.886 56.9655 133.949 57.0233 133.998 57.0916C134.048 57.1599 134.084 57.2373 134.104 57.3194C134.124 57.4016 134.127 57.4868 134.114 57.5703C134.101 57.6537 134.071 57.7338 134.027 57.8059C133.983 57.878 133.925 57.9407 133.857 57.9904C133.789 58.0402 133.711 58.076 133.629 58.0958C133.547 58.1156 133.462 58.1191 133.378 58.106C132.571 58.0381 131.759 58.1636 131.009 58.472C130.26 58.7804 129.595 59.2629 129.069 59.8795C129.011 59.9449 128.94 59.9971 128.861 60.0326C128.782 60.0681 128.696 60.0861 128.609 60.0853" fill="black"/>
<path d="M142.961 63.4872L140.279 62.9424C140.279 62.9424 141.786 64.8855 142.961 63.4872Z" fill="black"/>
<path d="M172.524 67.7122C172.117 68.8714 171.469 69.9308 170.621 70.82C169.774 71.7092 168.747 72.4078 167.609 72.8695C164.691 73.9409 162.948 70.7872 163.523 67.4217C164.037 64.3952 166.18 60.158 169.225 60.5514C172.27 60.9449 173.662 64.6918 172.524 67.7365" fill="#FFC3BD"/>
<path d="M167.234 74.292C167.622 74.4876 168.061 74.5636 168.493 74.5104C168.925 74.4572 169.332 74.2771 169.662 73.9929C169.991 73.7087 170.23 73.3331 170.346 72.9136C170.463 72.4941 170.453 72.0495 170.317 71.6358C170.181 71.2222 169.925 70.858 169.583 70.5894C169.24 70.3208 168.825 70.1598 168.391 70.1267C167.957 70.0935 167.523 70.1897 167.143 70.4032C166.764 70.6166 166.456 70.9377 166.259 71.326C166.128 71.5846 166.049 71.8666 166.027 72.1558C166.004 72.4451 166.04 72.7358 166.13 73.0114C166.221 73.2869 166.365 73.5419 166.554 73.7617C166.744 73.9814 166.974 74.1617 167.234 74.292Z" fill="white"/>
<path d="M123.143 181.129C121.254 180.984 119.202 194.894 123.076 198.314C126.218 201.08 185.423 206.534 196.924 193.084C196.924 193.084 198.819 184.265 194.315 177.612C194.327 177.612 161.767 192.927 123.143 181.129Z" fill="#80B3FF"/>
<path opacity="0.5" d="M123.143 181.129C121.254 180.984 119.202 194.894 123.076 198.314C126.218 201.08 185.423 206.534 196.924 193.084C196.924 193.084 198.819 184.265 194.315 177.612C194.327 177.612 161.767 192.927 123.143 181.129Z" fill="white"/>
<path d="M120.879 190.445C120.879 190.445 125.721 194.852 154.776 195.118C189.787 195.433 195.169 185.615 197.336 186.147C199.503 186.68 198.692 192.019 197.336 194.476C195.98 196.934 183.171 203.683 156.695 203.683C134.353 203.683 123.536 200.881 121.89 198.762C119.42 195.566 120.879 190.445 120.879 190.445Z" fill="#80B3FF"/>
<path opacity="0.4" d="M120.879 190.445C120.879 190.445 125.721 194.852 154.776 195.118C189.787 195.433 195.169 185.615 197.336 186.147C199.503 186.68 198.692 192.019 197.336 194.476C195.98 196.934 183.171 203.683 156.695 203.683C134.353 203.683 123.536 200.881 121.89 198.762C119.42 195.566 120.879 190.445 120.879 190.445Z" fill="white"/>
<path d="M138.197 38.2034C138.197 38.2034 144.444 25.7219 155 22.7377C165.557 19.7535 170.436 26.7933 170.436 26.7933C170.436 26.7933 174.739 24.4447 178.795 29.1419C182.85 33.8391 184.769 46.248 182.633 51.5384C180.496 56.8288 177.717 57.5915 177.717 57.5915L138.197 38.2034Z" fill="#80B3FF"/>
<path opacity="0.2" d="M182.633 51.5686C180.502 56.8893 177.724 57.6217 177.724 57.6217L138.197 38.1792C138.197 38.1792 144.444 25.7219 155 22.7377C165.557 19.7535 170.436 26.7872 170.436 26.7872C171.03 26.5038 171.669 26.3236 172.324 26.2545C173.952 26.0548 176.416 26.3877 178.789 29.1419C182.85 33.833 184.775 46.2479 182.633 51.5686Z" fill="white"/>
<path opacity="0.2" d="M141.229 36.0121C141.229 36.0121 149.782 30.4614 159.425 33.3911C169.068 36.3208 173.71 45.8969 173.71 45.8969C173.71 45.8969 166.525 35.9153 156.459 34.396C151.327 33.6589 146.092 34.2144 141.229 36.0121Z" fill="black"/>
<path opacity="0.2" d="M175.944 37.5618C175.109 32.5256 170.436 26.7872 170.436 26.7872C171.03 26.5038 171.669 26.3237 172.324 26.2546C175.865 31.1152 175.944 37.5618 175.944 37.5618Z" fill="black"/>
<path d="M129.565 49.9827C129.565 49.9827 130.419 38.3608 141.762 35.4553C155 32.0413 170.321 44.2807 175.012 51.1933C179.703 58.106 177.947 63.2572 174.074 68.2934C174.074 68.2934 168.335 56.3566 152.96 49.1534C137.585 41.9502 129.565 49.9827 129.565 49.9827Z" fill="#80B3FF"/>
<path opacity="0.4" d="M176.955 63.4872C176.687 64.1312 176.38 64.7579 176.035 65.3636C175.449 66.3833 174.791 67.3603 174.067 68.2873C174.067 68.2873 168.335 56.3566 152.96 49.1534C137.585 41.9502 129.565 49.9767 129.565 49.9767C129.639 49.2628 129.763 48.555 129.934 47.8581C130.049 47.3678 130.207 46.8109 130.406 46.2056C131.617 42.5737 134.644 37.2712 141.756 35.4371C154.994 32.0232 170.321 44.2686 175.006 51.1752C178.232 55.945 178.414 59.8674 176.955 63.4872Z" fill="white"/>
<path opacity="0.2" d="M147.089 43.8812C135.957 41.2178 129.94 47.8702 129.94 47.8702C130.055 47.3799 130.213 46.823 130.413 46.2177C137.713 40.0617 147.089 43.8812 147.089 43.8812Z" fill="black"/>
<path opacity="0.2" d="M176.955 63.4872C176.687 64.1312 176.38 64.7579 176.035 65.3636C175.823 63.3056 174.279 53.8991 163.426 47.2043C163.85 47.3254 174.164 51.8531 176.955 63.4872Z" fill="black"/>
<path d="M243.999 156.469C244.01 157.356 243.933 158.242 243.769 159.114C243.65 159.755 243.49 160.388 243.291 161.009C243.182 161.348 243.073 161.662 242.958 161.965C242.843 162.268 242.782 162.419 242.691 162.631C242.528 163.037 242.352 163.406 242.183 163.763C241.506 165.138 240.737 166.467 239.883 167.74C239.102 168.908 238.309 169.967 237.516 170.996C234.467 174.852 231.192 178.525 227.71 181.995C224.363 185.415 220.912 188.653 217.42 191.801C215.247 193.744 213.074 195.645 210.846 197.509L210.344 197.927C209.133 198.95 207.886 199.954 206.621 200.953L199.242 193.502C200.78 191.541 202.319 189.577 203.861 187.612L204.291 187.067C208.249 182.025 212.16 176.959 215.894 171.892C218.509 168.26 221.106 164.628 223.194 161.112C223.715 160.234 224.187 159.362 224.605 158.551L224.847 158.073C223.969 156.959 222.849 155.652 221.675 154.393C220.271 152.873 218.757 151.366 217.196 149.829C214.109 146.754 210.81 143.739 207.511 140.701C205.858 139.181 204.182 137.674 202.499 136.173C200.816 134.672 199.139 133.146 197.445 131.645L192.378 127.117L187.372 122.608L201.082 106.458L203.849 108.734L206.536 111.034C208.316 112.578 210.065 114.146 211.815 115.725C213.564 117.305 215.271 118.928 216.984 120.568C218.697 122.208 220.374 123.861 222.056 125.538C223.739 127.214 225.398 128.927 227.038 130.677C228.679 132.426 230.313 134.2 231.923 136.04C233.533 137.88 235.107 139.793 236.675 141.814C238.383 143.966 239.941 146.233 241.336 148.6C241.529 148.939 241.723 149.29 241.941 149.659C242.05 149.859 242.159 150.071 242.268 150.264C242.377 150.458 242.443 150.616 242.528 150.797C242.613 150.979 242.722 151.221 242.819 151.439L242.97 151.772L243.049 151.953C243.127 152.141 243.206 152.335 243.279 152.522C243.743 153.787 243.987 155.122 243.999 156.469Z" fill="#80B3FF"/>
<g opacity="0.2">
<path d="M210.84 197.533L210.338 197.951L203.855 187.661L204.285 187.116L210.84 197.533Z" fill="black"/>
</g>
<g opacity="0.2">
<path d="M242.958 161.989C242.873 162.219 242.782 162.443 242.691 162.655C241.402 161.055 240.587 159.126 240.337 157.086C239.925 153.273 241.166 150.791 241.923 149.677C242.032 149.877 242.141 150.089 242.25 150.283C241.081 152.313 240.619 154.674 240.936 156.996C241.161 158.809 241.858 160.531 242.958 161.989Z" fill="black"/>
</g>
<path opacity="0.2" d="M235.736 156.081C231.875 156.687 224.95 158.309 224.95 158.309H224.877C224.879 158.283 224.879 158.257 224.877 158.23C224.562 157.758 224.181 157.183 223.667 156.548C227.615 155.566 231.724 155.407 235.736 156.081Z" fill="black"/>
<path d="M201.113 191.238C201.113 191.238 196.512 194.434 197.481 198.786C198.449 203.138 202.626 207.139 203.334 210.711C204.042 214.282 204.781 223.186 205.61 223.422C206.439 223.658 208.28 211.595 208.189 209.331C208.098 207.067 206.609 200.517 206.609 200.517L201.113 191.238Z" fill="#FFC3BD"/>
<path d="M208.08 211.086C208.08 211.086 209.157 215.662 208.685 217.321C208.213 218.979 207.323 223.005 207.438 224.137C207.553 225.268 205.622 223.749 206.028 220.372C206.551 217.243 207.236 214.144 208.08 211.086Z" fill="#FFC3BD"/>
<path d="M198.171 197.842C197.773 199.461 197.746 201.15 198.092 202.781C198.682 205.279 198.984 207.836 198.994 210.402C198.964 212.539 200.532 213.931 201.367 213.289C202.202 212.648 201.76 208.598 202.184 205.578C202.608 202.557 198.171 197.842 198.171 197.842Z" fill="#FFC3BD"/>
</svg>
