<svg width="328" height="245" viewBox="0 0 328 245" fill="none" xmlns="http://www.w3.org/2000/svg">
<path d="M328 214.774H0V214.938H328V214.774Z" fill="#EBEBEB"/>
<path d="M295.134 225.329H273.408V225.493H295.134V225.329Z" fill="#EBEBEB"/>
<path d="M217.28 227.114H211.58V227.278H217.28V227.114Z" fill="#EBEBEB"/>
<path d="M272.752 219.242H260.163V219.406H272.752V219.242Z" fill="#EBEBEB"/>
<path d="M62.7463 220.344H34.4137V220.508H62.7463V220.344Z" fill="#EBEBEB"/>
<path d="M72.7438 220.344H68.5913V220.508H72.7438V220.344Z" fill="#EBEBEB"/>
<path d="M147.698 223.112H86.2444V223.276H147.698V223.112Z" fill="#EBEBEB"/>
<path d="M155.472 185.517H28.805C27.8127 185.515 26.8616 185.12 26.1606 184.417C25.4595 183.715 25.0658 182.763 25.0658 181.771V3.71296C25.0744 2.72635 25.472 1.78299 26.1721 1.08779C26.8722 0.392589 27.8184 0.00169011 28.805 0H155.472C156.465 0 157.418 0.394642 158.121 1.09711C158.823 1.79957 159.218 2.75232 159.218 3.74576V181.771C159.218 182.764 158.823 183.717 158.121 184.42C157.418 185.122 156.465 185.517 155.472 185.517ZM28.805 0.1312C27.8562 0.132938 26.9468 0.511067 26.2765 1.18259C25.6063 1.85411 25.2298 2.76415 25.2298 3.71296V181.771C25.2298 182.72 25.6063 183.63 26.2765 184.301C26.9468 184.973 27.8562 185.351 28.805 185.353H155.472C156.421 185.351 157.331 184.973 158.003 184.302C158.674 183.63 159.052 182.72 159.054 181.771V3.71296C159.052 2.76355 158.674 1.85352 158.003 1.18219C157.331 0.510854 156.421 0.132935 155.472 0.1312H28.805Z" fill="#EBEBEB"/>
<path d="M297.371 185.517H170.698C169.705 185.515 168.753 185.12 168.051 184.418C167.349 183.716 166.954 182.764 166.952 181.771V3.71296C166.962 2.72575 167.361 1.7824 168.063 1.08738C168.764 0.392359 169.711 0.00167168 170.698 0H297.371C298.357 0.00341415 299.301 0.395075 300 1.09009C300.699 1.78511 301.095 2.72749 301.104 3.71296V181.771C301.104 182.762 300.711 183.713 300.012 184.415C299.312 185.117 298.363 185.513 297.371 185.517ZM170.698 0.1312C169.748 0.132935 168.838 0.510854 168.167 1.18219C167.496 1.85352 167.118 2.76355 167.116 3.71296V181.771C167.118 182.72 167.496 183.63 168.167 184.302C168.838 184.973 169.748 185.351 170.698 185.353H297.371C298.321 185.351 299.231 184.973 299.902 184.302C300.573 183.63 300.951 182.72 300.953 181.771V3.71296C300.951 2.76355 300.573 1.85352 299.902 1.18219C299.231 0.510854 298.321 0.132935 297.371 0.1312H170.698Z" fill="#EBEBEB"/>
<path d="M244.793 49.2065H235.497V78.1427H244.793V49.2065Z" fill="#FFF7E2"/>
<path d="M269.99 78.1427H239.145L234.487 44.2734H265.332L269.99 78.1427Z" fill="#FFEBB7"/>
<path d="M273.329 78.1427H241.474L236.816 44.2734H268.671L273.329 78.1427Z" fill="#F5F5F5"/>
<path d="M243.776 75.4728L239.853 46.9434H266.369L270.298 75.4728H243.776Z" fill="white"/>
<path d="M249.018 66.8332L247.542 56.1273C247.498 55.8448 247.516 55.5561 247.595 55.2813C247.674 55.0065 247.812 54.7522 247.999 54.5362C248.187 54.3202 248.419 54.1475 248.68 54.0303C248.94 53.9131 249.224 53.8542 249.51 53.8576H259.146C259.629 53.8539 260.096 54.0276 260.459 54.3456C260.821 54.6637 261.055 55.104 261.114 55.5828L262.584 66.2953C262.626 66.5774 262.607 66.8654 262.528 67.1393C262.448 67.4133 262.31 67.6667 262.123 67.882C261.936 68.0973 261.704 68.2693 261.444 68.3861C261.184 68.5029 260.901 68.5617 260.616 68.5585H250.992C250.509 68.5638 250.04 68.3908 249.676 68.0726C249.311 67.7544 249.077 67.3132 249.018 66.8332Z" fill="#F5F5F5"/>
<path d="M186.927 17.5021H47.9929V103.208H186.927V17.5021Z" fill="#FFF7E2"/>
<path d="M190.496 17.5021H49.6592V103.208H190.496V17.5021Z" fill="#FFEBB7"/>
<path d="M186.927 103.215H47.9929V109.847H186.927V103.215Z" fill="#FFF7E2"/>
<path d="M196.439 103.215H55.6025V109.847H196.439V103.215Z" fill="#FFEBB7"/>
<path d="M185.497 98.2163V22.5008L54.6579 22.5008V98.2163L185.497 98.2163Z" fill="#FAFAFA"/>
<path d="M64.2617 98.2163L93.5915 22.5008H107.433L78.1033 98.2163H64.2617Z" fill="white"/>
<path d="M81.0815 98.2163L110.411 22.5008H115.804L86.4739 98.2163H81.0815Z" fill="white"/>
<path d="M132.394 98.2163L161.724 22.5008H167.116L137.793 98.2163H132.394Z" fill="white"/>
<path d="M185.491 98.2163V22.5008H184.854V98.2163H185.491Z" fill="#FFF7E2"/>
<path d="M292.248 78.1427H262.833V214.774H292.248V78.1427Z" fill="#FFF7E2"/>
<path d="M289.289 214.774H292.248V206.358H286.187L289.289 214.774Z" fill="#FFEBB7"/>
<path d="M240.706 78.1427H211.291V214.774H240.706V78.1427Z" fill="#FFF7E2"/>
<path d="M292.248 78.1427H238.121V209.612H292.248V78.1427Z" fill="#FFEBB7"/>
<path d="M241.08 214.774H238.121V206.358H244.183L241.08 214.774Z" fill="#FFEBB7"/>
<path d="M289.952 80.5502H240.417V142.568H289.952V80.5502Z" fill="#FFF7E2"/>
<path d="M270.548 85.3784H259.822C257.516 85.3782 255.234 84.9081 253.116 83.9968C250.998 83.0855 249.088 81.7521 247.502 80.0779H282.867C281.282 81.753 279.372 83.087 277.254 83.9984C275.136 84.9098 272.854 85.3794 270.548 85.3784Z" fill="#FFEBB7"/>
<path d="M289.952 145.081H240.417V207.099H289.952V145.081Z" fill="#FFF7E2"/>
<path d="M270.548 149.909H259.822C257.516 149.909 255.234 149.439 253.116 148.527C250.998 147.616 249.088 146.283 247.502 144.609H282.867C281.282 146.284 279.372 147.618 277.254 148.529C275.136 149.44 272.854 149.91 270.548 149.909Z" fill="#FFEBB7"/>
<path d="M84.952 121.288H133.903L141.001 150.198H92.0434L84.952 121.288Z" fill="#FFF7E2"/>
<path d="M92.0433 150.198L92.2467 151.792H141.197L141.001 150.198H92.0433Z" fill="#FFF7E2"/>
<path d="M86.4608 121.288H135.412L142.509 150.198H93.5522L86.4608 121.288Z" fill="#FFEBB7"/>
<path d="M94.5886 148.873L88.1401 122.606H134.375L140.823 148.873H94.5886Z" fill="white"/>
<path d="M106.311 150.198L106.508 151.792H160.412L160.215 150.198H106.311Z" fill="#FFEBB7"/>
<path d="M172.712 151.792H166.847V214.768H172.712V151.792Z" fill="#FFF7E2"/>
<path d="M174.568 151.792H170.494V214.768H174.568V151.792Z" fill="#FFEBB7"/>
<path d="M100.256 159.001H175.834V151.792H100.256V159.001Z" fill="#FFEBB7"/>
<path d="M97.626 159.001H91.7614V214.768H97.626V159.001Z" fill="#FFF7E2"/>
<path d="M99.4759 159.001H95.4021V214.768H99.4759V159.001Z" fill="#FFEBB7"/>
<path d="M60.5028 159.001H54.6382V214.768H60.5028V159.001Z" fill="#FFF7E2"/>
<path d="M62.3594 159.001H58.2856V214.768H62.3594V159.001Z" fill="#FFEBB7"/>
<path d="M135.595 159.001H129.731V214.768H135.595V159.001Z" fill="#FFF7E2"/>
<path d="M137.445 159.001H133.371V214.768H137.445V159.001Z" fill="#FFEBB7"/>
<path d="M100.25 151.792H54.6382V159.001H100.25V151.792Z" fill="#FFF7E2"/>
<path d="M191.775 214.774H190.352L186.304 194.675L185.589 191.152L181.102 169.248H164.046L154.816 214.774H153.373L162.793 168.408C162.823 168.255 162.904 168.116 163.023 168.014C163.142 167.913 163.293 167.855 163.449 167.851H181.712C181.87 167.849 182.024 167.904 182.144 168.007C182.265 168.109 182.344 168.252 182.368 168.408L186.304 187.642L186.96 191.158L191.775 214.774Z" fill="#FFEBB7"/>
<path d="M219.163 214.774H217.733L208.483 169.248H191.427L186.96 191.158L186.304 194.675L182.217 214.774H180.794L185.589 191.158L186.297 187.649L190.233 168.415C190.264 168.262 190.346 168.123 190.465 168.022C190.584 167.921 190.733 167.863 190.889 167.857H209.093C209.25 167.862 209.4 167.92 209.519 168.021C209.639 168.122 209.72 168.261 209.749 168.415L219.163 214.774Z" fill="#FFEBB7"/>
<path d="M177.12 168.546H208.464C214.446 168.546 217.766 164.479 219.458 157.775L220.285 153.944C220.564 152.785 220.576 151.578 220.321 150.414C220.066 149.249 219.549 148.158 218.811 147.223C218.072 146.287 217.131 145.532 216.058 145.013C214.985 144.494 213.808 144.226 212.616 144.228H192.936C188.869 144.228 187.793 145.199 184.979 151.326C182.165 157.453 177.12 168.546 177.12 168.546Z" fill="#FFEBB7"/>
<path d="M194.209 168.546H160.805C160.389 168.546 159.991 168.381 159.697 168.087C159.403 167.793 159.237 167.394 159.237 166.978V166.834C159.237 166.27 159.348 165.713 159.564 165.192C159.78 164.672 160.096 164.199 160.494 163.8C160.892 163.402 161.365 163.086 161.886 162.87C162.406 162.655 162.964 162.544 163.528 162.544H194.209V168.553V168.546Z" fill="#FFEBB7"/>
<path d="M164 244.399C234.246 244.399 291.192 241.075 291.192 236.973C291.192 232.872 234.246 229.547 164 229.547C93.7538 229.547 36.8081 232.872 36.8081 236.973C36.8081 241.075 93.7538 244.399 164 244.399Z" fill="#F5F5F5"/>
<path d="M133.188 215.988L128.989 218.691L121.38 209.841L125.578 207.138L133.188 215.988Z" fill="#FF8B7B"/>
<path opacity="0.2" d="M125.585 207.138L121.38 209.841L125.309 214.407L129.507 211.698L125.585 207.138Z" fill="black"/>
<path d="M101.103 230.42L96.2746 230.892L91.2562 219.412L96.0844 218.94L101.103 230.42Z" fill="#FF8B7B"/>
<path opacity="0.2" d="M91.2627 219.419L93.8473 225.336H98.8789L96.0843 218.946L91.2627 219.419Z" fill="black"/>
<path d="M64.4388 75.44C62.0116 75.6565 61.946 71.5368 57.682 73.472C52.2635 75.9385 54.0937 79.763 49.8625 79.6056C45.6313 79.4481 42.7974 82.7478 43.742 85.2078C44.6867 87.6678 46.1495 89.9966 43.1582 90.9872C40.1668 91.9777 38.1332 92.8502 38.5662 95.3299C38.9991 97.8096 41.118 98.8067 37.5494 100.388C33.9807 101.969 34.3415 108.804 37.838 108.811C41.3345 108.817 37.9823 112.222 41.118 115.686C44.2537 119.149 49.0228 119.622 51.0105 117.916C52.9982 116.21 55.2155 114.8 58.9547 117.424C62.6939 120.048 69.0243 120.704 68.7356 116.545C68.447 112.386 64.7996 109.657 68.2371 107.492C71.6745 105.327 76.1091 104.258 74.7183 100.047C73.8327 97.4225 71.1563 95.1397 73.3145 93.1782C76.8241 89.9901 76.8438 82.7741 72.5404 80.9438C70.0411 79.8877 72.4486 74.7184 64.4388 75.44Z" fill="#263238"/>
<path d="M59.7681 107.859C59.6501 109.827 59.4008 111.579 59.1121 113.422C58.8235 115.266 58.4037 117.063 57.9248 118.867C57.458 120.691 56.8639 122.48 56.147 124.22C55.7928 125.099 55.3861 125.972 54.9531 126.844C54.7366 127.277 54.5005 127.703 54.2577 128.123C54.1462 128.34 54.0085 128.55 53.8838 128.779L53.6936 129.088C53.5644 129.293 53.4197 129.488 53.2606 129.671C52.8967 130.082 52.4495 130.411 51.9486 130.636C51.5012 130.838 51.0215 130.961 50.5317 130.997C49.8112 131.038 49.0895 130.94 48.4062 130.708C47.3886 130.358 46.4189 129.882 45.5198 129.291C43.9364 128.255 42.4382 127.095 41.0393 125.821C38.3424 123.368 35.8277 120.721 33.515 117.903L35.3781 116.112C36.6901 117.267 38.0021 118.441 39.3731 119.556C40.7441 120.671 42.0824 121.793 43.4797 122.836C44.81 123.86 46.2131 124.785 47.6781 125.604C48.2974 125.955 48.9586 126.226 49.6461 126.411C49.8115 126.462 49.9858 126.478 50.1577 126.457H50.0265C49.9399 126.499 49.8602 126.555 49.7904 126.621L49.7576 126.654L49.9019 126.385C49.9937 126.208 50.0987 126.037 50.184 125.854C50.3677 125.491 50.5448 125.123 50.7153 124.751C51.0433 124.004 51.3713 123.243 51.6337 122.449C52.1848 120.875 52.644 119.248 53.0507 117.595C53.4574 115.941 53.7657 114.255 54.0413 112.556C54.3168 110.857 54.5267 109.119 54.6973 107.505L59.7681 107.859Z" fill="#FF8B7B"/>
<path d="M63.5794 108.476C63.317 110.064 61.9985 113.068 60.9554 115.299C60.1813 116.912 59.5516 118.126 59.5516 118.126L58.6332 117.719L51.0302 114.334C51.6074 110.234 52.5455 105.806 57.0653 103.792C59.8861 102.546 64.0452 105.616 63.5794 108.476Z" fill="#80B3FF"/>
<path opacity="0.6" d="M63.5794 108.476C63.317 110.064 61.9985 113.068 60.9554 115.299C60.1813 116.912 59.5516 118.126 59.5516 118.126L58.6332 117.719L51.0302 114.334C51.6074 110.234 52.5455 105.806 57.0653 103.792C59.8861 102.546 64.0452 105.616 63.5794 108.476Z" fill="black"/>
<path opacity="0.3" d="M60.9359 115.299C60.1618 116.912 59.532 118.126 59.532 118.126L58.6136 117.719C58.7383 116.099 59.0597 113.547 59.9256 112.399C60.4665 113.282 60.8111 114.271 60.9359 115.299Z" fill="black"/>
<path d="M35.6667 117.614L36.2702 113.199L31.3174 114.8C31.3174 114.8 32.1046 117.47 33.8692 118.565L35.6667 117.614Z" fill="#FF8B7B"/>
<path d="M34.0267 109.427L30.5696 111.323L31.3174 114.826L36.2702 113.199L34.0267 109.427Z" fill="#FF8B7B"/>
<path d="M127.441 217.366L132 214.086C132.079 214.028 132.175 214.002 132.271 214.01C132.368 214.018 132.458 214.062 132.525 214.132L135.628 217.366C135.703 217.449 135.76 217.548 135.795 217.656C135.829 217.763 135.841 217.877 135.828 217.989C135.816 218.101 135.78 218.209 135.723 218.306C135.666 218.404 135.589 218.488 135.497 218.553C133.89 219.668 133.056 220.121 131.049 221.557C129.816 222.443 127.218 224.582 125.512 225.802C123.807 227.022 122.515 225.408 123.112 224.746C125.801 221.78 126.516 219.76 126.943 218.094C127.02 217.801 127.196 217.543 127.441 217.366Z" fill="#263238"/>
<path d="M95.6382 229.403H101.542C101.648 229.405 101.751 229.441 101.835 229.506C101.919 229.571 101.98 229.662 102.008 229.764L103.32 234.448C103.352 234.558 103.357 234.675 103.336 234.788C103.314 234.901 103.267 235.008 103.196 235.099C103.126 235.191 103.035 235.264 102.932 235.314C102.828 235.364 102.714 235.388 102.598 235.386C100.512 235.386 99.5218 235.386 96.9174 235.386H88.9536C86.7888 235.386 86.3296 233.195 87.2283 232.998C91.243 232.112 93.5587 230.886 94.7985 229.718C95.0283 229.51 95.3285 229.398 95.6382 229.403Z" fill="#263238"/>
<path d="M86.6248 126.254L67.2925 132.368C53.9101 105.878 55.819 104.475 55.819 104.475C55.819 104.475 58.9088 102.71 62.1232 101.24C62.6086 101.017 63.1006 100.801 63.5861 100.584C66.4419 99.4495 69.3751 98.52 72.3633 97.803C72.8029 97.6849 73.2424 97.58 73.6754 97.475C76.0551 96.9368 78.4646 96.5403 80.8914 96.2877C81.18 99.9547 81.4686 103.058 81.7835 105.754C82.1902 109.27 82.6298 112.084 83.0955 114.518C83.9564 118.518 85.1366 122.442 86.6248 126.254Z" fill="#80B3FF"/>
<path opacity="0.6" d="M86.6248 126.254L67.2925 132.368C53.9101 105.878 55.819 104.475 55.819 104.475C55.819 104.475 58.9088 102.71 62.1232 101.24C62.6086 101.017 63.1006 100.801 63.5861 100.584C66.4419 99.4495 69.3751 98.52 72.3633 97.803C72.8029 97.6849 73.2424 97.58 73.6754 97.475C76.0551 96.9368 78.4646 96.5403 80.8914 96.2877C81.18 99.9547 81.4686 103.058 81.7835 105.754C82.1902 109.27 82.6298 112.084 83.0955 114.518C83.9564 118.518 85.1366 122.442 86.6248 126.254Z" fill="black"/>
<path opacity="0.3" d="M83.148 114.531C81.2916 111.907 79.5138 105.8 79.973 103.51L81.8098 105.767C82.2165 109.283 82.656 112.097 83.148 114.531Z" fill="black"/>
<path d="M67.9813 109.421C67.9813 109.421 72.8554 108.365 74.4232 110.484C76.5749 108.365 75.814 100.086 74.7775 97.1339C73.9555 97.2735 73.1491 97.4932 72.37 97.7899L68.926 103.117L67.9813 109.421Z" fill="white"/>
<path d="M67.9813 109.421C67.9813 109.421 64.7013 110.156 64.3536 112.839C59.7616 109.421 60.0831 104.416 61.1196 101.464C61.9064 101.083 62.7339 100.792 63.5861 100.598L67.0301 104.389L67.9813 109.421Z" fill="white"/>
<path d="M69.1031 92.227C69.7591 94.6411 70.7562 97.0289 72.3831 97.8161C72.3831 97.8161 73.8984 102.159 67.9944 109.421C61.8149 105.019 63.5992 100.598 63.5992 100.598C66.5119 98.846 65.6919 96.5369 64.452 94.5164L66.1642 91.7678C66.3348 91.503 66.5785 91.2935 66.8659 91.1645C67.1532 91.0356 67.4718 90.9929 67.783 91.0415C68.0942 91.0901 68.3845 91.228 68.6189 91.4384C68.8532 91.6489 69.0214 91.9228 69.1031 92.227Z" fill="#FF8B7B"/>
<path opacity="0.2" d="M69.103 92.227C69.0246 91.9177 68.8569 91.6383 68.6209 91.4235C68.3848 91.2088 68.0909 91.0682 67.7755 91.0192C67.4602 90.9703 67.1374 91.0152 66.8474 91.1483C66.5574 91.2814 66.3129 91.4968 66.1444 91.7678L65.5934 92.6469C65.6393 93.2307 65.6655 93.7096 65.659 93.9589C65.6065 95.6645 68.0009 95.5858 69.9492 94.7658C69.6019 93.9427 69.319 93.0939 69.103 92.227Z" fill="black"/>
<path d="M57.236 85.6342C58.9416 90.2852 59.5582 92.2926 62.6808 94.0113C67.3712 96.6025 72.711 93.493 72.4355 88.4222C72.1862 83.863 69.4442 77.0143 64.2421 76.5092C63.0954 76.3931 61.9381 76.5719 60.88 77.0287C59.8219 77.4855 58.8981 78.2052 58.1962 79.1193C57.4943 80.0335 57.0377 81.1118 56.8696 82.252C56.7016 83.3922 56.8277 84.5564 57.236 85.6342Z" fill="#FF8B7B"/>
<path d="M69.2999 78.6413C67.6993 77.0997 66.0199 75.3088 62.8055 75.6565C59.25 76.0435 57.8461 78.1952 57.8461 78.1952L54.7892 84.8799C54.7892 84.8799 56.685 93.4866 59.8141 89.4719C61.6181 87.1496 61.6641 83.64 61.0081 81.016C62.2374 80.8427 63.4491 80.5617 64.6292 80.1763C66.0724 80.7143 67.6927 80.7143 68.8932 79.6122C69.1556 79.3695 69.3458 79.1792 69.4836 79.0283L69.5951 78.9037C69.9493 78.4511 69.6541 78.497 69.2999 78.6413ZM65.1671 80.032C66.2877 79.6696 67.4263 79.3652 68.5783 79.1202C68.15 79.5732 67.6042 79.8984 67.0019 80.0594C66.3996 80.2204 65.7644 80.2109 65.1671 80.032Z" fill="#263238"/>
<path d="M57.4722 90.364C57.9648 91.1896 58.7644 91.7863 59.696 92.0236C60.9293 92.332 61.5131 91.2233 61.1392 90.0556C60.8047 89.0257 59.7616 87.6219 58.5152 87.8187C58.2458 87.868 57.993 87.9842 57.7802 88.1568C57.5675 88.3293 57.4015 88.5526 57.2976 88.8061C57.1938 89.0596 57.1553 89.3351 57.1858 89.6073C57.2163 89.8796 57.3148 90.1398 57.4722 90.364Z" fill="#FF8B7B"/>
<path d="M67.2925 132.374C67.2925 132.374 66.6365 171.99 71.8123 186.304C76.7979 200.027 91.6694 223.617 91.6694 223.617L100.289 223.401C100.289 223.401 86.592 193.52 84.355 181.712C80.6289 162.117 81.4489 127.92 81.4489 127.92L67.2925 132.374Z" fill="#80B3FF"/>
<path opacity="0.3" d="M75.0333 135.792L77.349 129.232L81.449 127.92C81.449 127.92 81.0751 143.487 81.9738 159.631C78.2543 152.467 75.0333 139.348 75.0333 135.792Z" fill="black"/>
<path d="M90.4559 224.063L101.103 223.794L100.486 220.521L88.8618 221.072L90.4559 224.063Z" fill="#263238"/>
<path d="M71.504 131.095C71.504 131.095 84.952 161.855 93.644 179.363C100.663 193.507 122.508 212.478 122.508 212.478L128.497 208.326C128.497 208.326 112.058 185.851 107.21 176.261C91.6957 145.573 95.5202 132.925 86.5986 126.254L71.504 131.095Z" fill="#80B3FF"/>
<path d="M122.862 214.459L129.895 209.454L128.3 206.384L120.573 212.229L122.862 214.459Z" fill="#263238"/>
<path d="M86.592 125.027L88.0089 126.483C88.1204 126.595 88.0089 126.785 87.7793 126.857L67.5024 133.266C67.3318 133.325 67.1612 133.266 67.1153 133.181L66.3937 131.502C66.3412 131.39 66.4593 131.239 66.6496 131.18L86.2312 124.981C86.2901 124.957 86.3544 124.948 86.4176 124.956C86.4809 124.964 86.541 124.989 86.592 125.027Z" fill="#263238"/>
<path d="M84.624 128.051L85.1488 127.887C85.2538 127.887 85.3194 127.769 85.2866 127.71L84.3354 125.539C84.3073 125.503 84.2681 125.478 84.2242 125.468C84.1802 125.457 84.1339 125.461 84.0927 125.48L83.5679 125.65C83.4629 125.683 83.3973 125.762 83.4301 125.827L84.3879 127.992C84.4076 128.058 84.5125 128.084 84.624 128.051Z" fill="#80B3FF"/>
<path d="M69.0046 132.991L69.5294 132.827C69.6344 132.794 69.6934 132.715 69.6672 132.65L68.7094 130.478C68.7094 130.413 68.5717 130.393 68.4667 130.426L67.9419 130.59C67.8435 130.623 67.7779 130.701 67.8041 130.767L68.7619 132.938C68.7915 132.972 68.831 132.995 68.8747 133.004C68.9183 133.014 68.9639 133.009 69.0046 132.991Z" fill="#80B3FF"/>
<path d="M76.8111 130.544L77.3359 130.38C77.4408 130.347 77.5064 130.268 77.4736 130.203L76.5159 128.031C76.5159 127.972 76.3847 127.946 76.2797 127.979L75.7549 128.143C75.6499 128.143 75.5843 128.255 75.6171 128.32L76.5683 130.491C76.6011 130.544 76.7061 130.544 76.8111 130.544Z" fill="#80B3FF"/>
<path d="M65.3966 84.624C65.5147 85.011 65.8099 85.28 66.0526 85.1881C66.2953 85.0963 66.4134 84.7355 66.2953 84.355C66.1772 83.9745 65.8886 83.699 65.6393 83.7908C65.39 83.8827 65.2851 84.2238 65.3966 84.624Z" fill="#263238"/>
<path d="M69.7591 83.312C69.8771 83.699 70.1723 83.968 70.4151 83.8762C70.6578 83.7843 70.7759 83.4301 70.6643 83.043C70.5528 82.656 70.2511 82.387 70.0083 82.4789C69.7656 82.5707 69.6475 82.925 69.7591 83.312Z" fill="#263238"/>
<path d="M69.9033 82.5314L70.7496 81.9869C70.7496 81.9869 70.4937 82.8528 69.9033 82.5314Z" fill="#263238"/>
<path d="M68.67 84.3157C69.2787 85.0919 69.9892 85.7826 70.7824 86.369C70.6241 86.5666 70.4248 86.7277 70.1983 86.8409C69.9718 86.9542 69.7235 87.017 69.4704 87.025L68.67 84.3157Z" fill="#FF5652"/>
<path d="M68.1716 89.1504C68.1897 89.1358 68.2031 89.1162 68.2101 89.094C68.2171 89.0718 68.2174 89.0481 68.2109 89.0257C68.2018 88.9961 68.1819 88.971 68.1553 88.9552C68.1286 88.9394 68.097 88.9342 68.0666 88.9404C67.5902 89.0961 67.0835 89.1362 66.5885 89.0575C66.0935 88.9788 65.6243 88.7835 65.2196 88.4878C65.2075 88.4775 65.1935 88.4696 65.1784 88.4647C65.1633 88.4597 65.1474 88.4578 65.1316 88.459C65.1157 88.4603 65.1003 88.4646 65.0861 88.4718C65.072 88.479 65.0594 88.4889 65.049 88.5009C65.0387 88.513 65.0308 88.527 65.0259 88.5421C65.0209 88.5572 65.019 88.5731 65.0203 88.5889C65.0215 88.6048 65.0258 88.6202 65.033 88.6344C65.0402 88.6485 65.0501 88.6611 65.0621 88.6715C65.4972 88.993 66.0028 89.2059 66.5368 89.2926C67.0708 89.3794 67.6178 89.3373 68.1322 89.17L68.1716 89.1504Z" fill="#263238"/>
<path d="M63.7501 83.5547C63.7806 83.5259 63.8032 83.4898 63.8157 83.4497C63.9131 83.1697 64.0748 82.9164 64.2878 82.7101C64.5009 82.5039 64.7593 82.3506 65.0424 82.2624C65.0754 82.2589 65.1072 82.2486 65.1359 82.232C65.1646 82.2154 65.1895 82.193 65.209 82.1662C65.2284 82.1394 65.242 82.1087 65.2489 82.0763C65.2557 82.0439 65.2557 82.0104 65.2487 81.978C65.2418 81.9456 65.2281 81.915 65.2086 81.8882C65.189 81.8615 65.1641 81.8391 65.1353 81.8226C65.1066 81.8061 65.0747 81.7959 65.0417 81.7925C65.0088 81.7892 64.9755 81.7928 64.944 81.8032C64.5793 81.9075 64.2457 82.0995 63.9724 82.3626C63.6991 82.6256 63.4944 82.9515 63.3762 83.312C63.3646 83.3412 63.359 83.3725 63.3597 83.4039C63.3604 83.4354 63.3673 83.4664 63.3802 83.4951C63.393 83.5238 63.4114 83.5497 63.4344 83.5712C63.4574 83.5927 63.4844 83.6094 63.5139 83.6203C63.5557 83.6288 63.5988 83.6273 63.6399 83.6159C63.681 83.6045 63.7187 83.5835 63.7501 83.5547Z" fill="#263238"/>
<path d="M71.0907 80.8388C71.0885 80.8236 71.0885 80.8081 71.0907 80.7929C71.0988 80.7316 71.0838 80.6694 71.0487 80.6184C71.0135 80.5675 70.9607 80.5315 70.9004 80.5174C70.5329 80.4392 70.152 80.4495 69.7893 80.5476C69.4265 80.6457 69.0924 80.8287 68.8143 81.0815C68.7709 81.1268 68.7471 81.1874 68.7483 81.2502C68.7496 81.3129 68.7757 81.3726 68.8209 81.4161C68.8661 81.4596 68.9268 81.4833 68.9895 81.4821C69.0523 81.4809 69.112 81.4548 69.1555 81.4095C69.3776 81.2128 69.6433 81.0715 69.9307 80.9974C70.2181 80.9233 70.519 80.9184 70.8086 80.9831C70.8651 80.9969 70.9247 80.9898 70.9764 80.9634C71.0282 80.9369 71.0687 80.8927 71.0907 80.8388Z" fill="#263238"/>
<path d="M83.8565 100.932C84.6371 101.516 85.2931 102.06 85.9754 102.651C86.6576 103.241 87.2874 103.832 87.9434 104.448C89.2226 105.682 90.4558 106.967 91.6235 108.319C92.8042 109.678 93.8996 111.108 94.9035 112.602C95.1659 112.97 95.3955 113.37 95.6382 113.75C95.8809 114.131 96.1237 114.518 96.3402 114.925C96.5566 115.331 96.7862 115.692 96.9962 116.145L97.3438 116.873L97.6259 117.608C98.2306 119.471 98.5145 121.423 98.4656 123.38C98.4257 125.2 98.2304 127.013 97.8818 128.799C97.5406 130.551 97.0946 132.263 96.5698 133.942C96.0406 135.624 95.4231 137.278 94.7198 138.895L92.3451 138.016C92.7518 136.441 93.1389 134.788 93.4275 133.155C93.7481 131.537 93.9824 129.904 94.1294 128.261C94.2871 126.67 94.3244 125.069 94.241 123.472C94.194 122.715 94.102 121.962 93.9654 121.216C93.8215 120.527 93.6219 119.851 93.3685 119.195L93.1651 118.743L92.9421 118.329C92.7649 118.027 92.5222 117.673 92.2861 117.339C92.0499 117.004 91.8531 116.683 91.6301 116.348C91.407 116.014 91.1774 115.692 90.9282 115.377C89.9704 114.065 88.888 112.871 87.8122 111.658C86.7363 110.444 85.5555 109.303 84.355 108.187C83.7646 107.623 83.1546 107.072 82.5445 106.534C81.9344 105.996 81.2784 105.459 80.7142 104.999L83.8565 100.932Z" fill="#FF8B7B"/>
<path d="M93.0995 136.448L89.5046 139.072L94.0966 141.499C94.0966 141.499 95.4677 139.072 95.0282 137.045L93.0995 136.448Z" fill="#FF8B7B"/>
<path d="M88.3698 143.329L92.1286 144.491L94.1294 141.512L89.5046 139.085L88.3698 143.329Z" fill="#FF8B7B"/>
<path d="M80.9176 96.3007C83.4301 96.1892 88.3698 102.362 88.3698 102.362L83.2398 109.618C83.2398 109.618 77.4802 105.026 77.0341 101.831C76.6602 99.1084 77.7163 96.4319 80.9176 96.3007Z" fill="#80B3FF"/>
<path opacity="0.6" d="M80.9176 96.3007C83.4301 96.1892 88.3698 102.362 88.3698 102.362L83.2398 109.618C83.2398 109.618 77.4802 105.026 77.0341 101.831C76.6602 99.1084 77.7163 96.4319 80.9176 96.3007Z" fill="black"/>
<path d="M125.716 219.419H125.637C125.522 219.404 125.413 219.36 125.321 219.29C125.229 219.219 125.157 219.126 125.112 219.019C125.078 218.956 125.06 218.886 125.06 218.815C125.06 218.744 125.078 218.674 125.112 218.612C125.434 218.061 127.238 217.956 127.441 217.956C127.464 217.956 127.486 217.962 127.506 217.973C127.526 217.985 127.542 218.001 127.553 218.022C127.566 218.041 127.573 218.064 127.573 218.087C127.573 218.111 127.566 218.133 127.553 218.153C127.113 218.638 126.333 219.419 125.716 219.419ZM127.159 218.218C126.437 218.271 125.48 218.441 125.316 218.73C125.298 218.756 125.288 218.787 125.288 218.819C125.288 218.85 125.298 218.881 125.316 218.907C125.343 218.979 125.39 219.042 125.449 219.09C125.509 219.139 125.581 219.171 125.657 219.183C126.005 219.222 126.556 218.861 127.159 218.218Z" fill="#80B3FF"/>
<path d="M127.317 218.205C126.713 218.205 125.526 217.871 125.303 217.385C125.267 217.299 125.261 217.204 125.284 217.114C125.308 217.024 125.36 216.944 125.434 216.887C125.502 216.826 125.582 216.78 125.669 216.751C125.756 216.723 125.848 216.713 125.939 216.723C126.654 216.801 127.5 217.963 127.533 218.035C127.544 218.052 127.55 218.073 127.55 218.094C127.55 218.115 127.544 218.135 127.533 218.153C127.524 218.17 127.511 218.185 127.495 218.197C127.479 218.208 127.461 218.215 127.441 218.218L127.317 218.205ZM125.86 216.959C125.762 216.958 125.668 216.996 125.598 217.064C125.486 217.162 125.499 217.241 125.519 217.293C125.663 217.608 126.595 217.949 127.205 217.949C126.903 217.575 126.339 216.985 125.893 216.939L125.86 216.959Z" fill="#80B3FF"/>
<path d="M93.0077 230.381C92.6036 230.41 92.2005 230.314 91.8531 230.105C91.763 230.039 91.6891 229.953 91.6369 229.854C91.5846 229.755 91.5554 229.646 91.5514 229.534C91.546 229.472 91.5571 229.41 91.5836 229.353C91.6101 229.297 91.651 229.249 91.7022 229.213C92.2402 228.852 94.2541 229.764 94.6542 229.954C94.6766 229.964 94.6951 229.981 94.7069 230.002C94.7188 230.024 94.7233 230.048 94.7198 230.072C94.7177 230.097 94.7076 230.121 94.6911 230.14C94.6746 230.159 94.6525 230.172 94.628 230.177C94.0961 230.299 93.5532 230.367 93.0077 230.381ZM92.0696 229.357C91.9876 229.353 91.9059 229.371 91.8334 229.41C91.8165 229.423 91.8033 229.44 91.7952 229.459C91.7871 229.479 91.7844 229.5 91.7875 229.521C91.79 229.599 91.8103 229.674 91.8467 229.743C91.8831 229.811 91.9347 229.87 91.9974 229.915C92.3451 230.177 93.1651 230.217 94.2213 230.02C93.5431 229.688 92.8171 229.464 92.0696 229.357Z" fill="#80B3FF"/>
<path d="M94.6017 230.177H94.5624C93.9064 229.902 92.5419 228.819 92.5944 228.262C92.5944 228.144 92.6928 227.986 92.9945 227.953C94.1753 227.809 94.6739 229.921 94.6936 230.039C94.6979 230.061 94.6966 230.083 94.6897 230.104C94.6828 230.124 94.6705 230.143 94.6542 230.158C94.6388 230.169 94.6207 230.176 94.6017 230.177ZM93.152 228.176H93.0733C92.9486 228.176 92.883 228.229 92.8699 228.288C92.8305 228.609 93.7621 229.469 94.4443 229.843C94.2672 229.324 93.8408 228.176 93.152 228.176Z" fill="#80B3FF"/>
<path d="M65.5409 83.8302L66.3871 83.2858C66.3871 83.2858 66.1313 84.1517 65.5409 83.8302Z" fill="#263238"/>
<path d="M189.341 35.8635H94.0048C92.9862 35.8565 91.977 36.0583 91.0394 36.4563C90.1018 36.8543 89.2557 37.4402 88.5531 38.1777C87.8506 38.9153 87.3066 39.7889 86.9547 40.7448C86.6027 41.7006 86.4502 42.7184 86.5067 43.7355L95.448 229.101C95.5754 231.213 96.497 233.198 98.0278 234.659C99.5586 236.119 101.585 236.946 103.7 236.973H199.037C200.055 236.98 201.064 236.779 202.001 236.38C202.939 235.982 203.784 235.396 204.486 234.659C205.188 233.921 205.732 233.047 206.083 232.092C206.434 231.136 206.586 230.118 206.528 229.101L197.594 43.7355C197.466 41.6238 196.545 39.6385 195.014 38.1783C193.483 36.7181 191.457 35.8911 189.341 35.8635Z" fill="black"/>
<path d="M192.864 35.8635H97.5013C96.483 35.8565 95.4741 36.0582 94.5368 36.4563C93.5995 36.8544 92.7538 37.4404 92.0518 38.178C91.3498 38.9157 90.8064 39.7894 90.4552 40.7453C90.104 41.7011 89.9524 42.7188 90.0098 43.7355L98.9445 229.101C99.0719 231.213 99.9935 233.198 101.524 234.659C103.055 236.119 105.082 236.946 107.197 236.973H202.533C203.552 236.98 204.561 236.779 205.498 236.38C206.435 235.982 207.281 235.396 207.983 234.659C208.685 233.921 209.228 233.047 209.58 232.092C209.931 231.136 210.082 230.118 210.025 229.101L201.09 43.7355C200.963 41.6282 200.045 39.6466 198.52 38.1871C196.995 36.7275 194.975 35.8977 192.864 35.8635Z" fill="#263238"/>
<path d="M106.928 231.725C106.226 231.708 105.555 231.429 105.047 230.944C104.539 230.459 104.23 229.802 104.179 229.101L95.2578 43.7355C95.2418 43.3971 95.2946 43.0591 95.413 42.7417C95.5313 42.4244 95.7128 42.1343 95.9464 41.889C96.18 41.6438 96.4609 41.4484 96.7721 41.3148C97.0834 41.1811 97.4184 41.112 97.7571 41.1115H193.094C193.797 41.1262 194.469 41.4038 194.978 41.8895C195.486 42.3752 195.795 43.0337 195.842 43.7355L204.777 229.101C204.793 229.439 204.74 229.777 204.622 230.094C204.504 230.411 204.324 230.7 204.091 230.945C203.858 231.191 203.578 231.386 203.267 231.52C202.957 231.654 202.622 231.724 202.284 231.725H106.928Z" fill="#80B3FF"/>
<path opacity="0.1" d="M106.882 230.413C106.531 230.402 106.197 230.262 105.943 230.02C105.689 229.778 105.533 229.451 105.504 229.101L96.5697 43.7354C96.5636 43.567 96.5911 43.399 96.6508 43.2413C96.7104 43.0837 96.8009 42.9395 96.917 42.8173C97.0331 42.6951 97.1724 42.5973 97.3268 42.5297C97.4812 42.462 97.6475 42.4259 97.8161 42.4234H193.153C193.504 42.4337 193.838 42.5733 194.093 42.8155C194.347 43.0577 194.503 43.3853 194.53 43.7354L203.465 229.101C203.471 229.27 203.443 229.438 203.384 229.595C203.324 229.753 203.234 229.897 203.118 230.019C203.001 230.142 202.862 230.239 202.708 230.307C202.553 230.375 202.387 230.411 202.218 230.413H106.882Z" fill="black"/>
<g opacity="0.3">
<path d="M135.654 219.76H116.768C116.25 219.754 115.753 219.552 115.378 219.194C115.003 218.836 114.777 218.349 114.748 217.831L113.37 189.158C113.353 188.904 113.388 188.65 113.474 188.411C113.56 188.172 113.694 187.953 113.868 187.768C114.043 187.583 114.253 187.436 114.487 187.337C114.721 187.237 114.972 187.187 115.226 187.19H134.145C134.663 187.194 135.159 187.395 135.533 187.752C135.907 188.109 136.131 188.595 136.159 189.112L137.517 217.792C137.534 218.046 137.497 218.3 137.411 218.539C137.324 218.778 137.189 218.997 137.015 219.182C136.84 219.367 136.629 219.513 136.395 219.613C136.161 219.712 135.909 219.762 135.654 219.76ZM115.2 187.859C115.037 187.858 114.874 187.89 114.723 187.953C114.572 188.016 114.436 188.109 114.321 188.226C114.21 188.347 114.123 188.488 114.067 188.642C114.011 188.797 113.986 188.961 113.993 189.125L115.377 217.792C115.396 218.143 115.547 218.474 115.8 218.718C116.054 218.961 116.39 219.099 116.742 219.104H135.654C135.819 219.105 135.982 219.073 136.133 219.008C136.284 218.944 136.421 218.849 136.534 218.73C136.647 218.61 136.735 218.469 136.791 218.314C136.847 218.16 136.871 217.995 136.861 217.831L135.477 189.158C135.46 188.807 135.311 188.476 135.058 188.232C134.806 187.988 134.47 187.85 134.119 187.846L115.2 187.859Z" fill="#FAFAFA"/>
<path d="M133.87 194.517H116.112C116.025 194.517 115.942 194.483 115.88 194.421C115.819 194.36 115.784 194.276 115.784 194.189C115.784 194.102 115.819 194.019 115.88 193.957C115.942 193.896 116.025 193.861 116.112 193.861H133.89C133.977 193.861 134.06 193.896 134.122 193.957C134.183 194.019 134.218 194.102 134.218 194.189C134.218 194.276 134.183 194.36 134.122 194.421C134.06 194.483 133.977 194.517 133.89 194.517H133.87Z" fill="#FAFAFA"/>
<path d="M134.054 198.224H116.269C116.183 198.222 116.1 198.187 116.039 198.126C115.978 198.064 115.943 197.982 115.941 197.896C115.941 197.809 115.976 197.725 116.037 197.664C116.099 197.602 116.182 197.568 116.269 197.568H134.054C134.141 197.568 134.224 197.602 134.285 197.664C134.347 197.725 134.382 197.809 134.382 197.896C134.38 197.982 134.345 198.064 134.284 198.126C134.222 198.187 134.14 198.222 134.054 198.224Z" fill="#FAFAFA"/>
<path d="M134.231 201.93H116.447C116.36 201.928 116.278 201.893 116.216 201.832C116.155 201.771 116.12 201.688 116.119 201.602C116.119 201.515 116.153 201.431 116.215 201.37C116.276 201.308 116.36 201.274 116.447 201.274H134.231C134.318 201.274 134.401 201.308 134.463 201.37C134.524 201.431 134.559 201.515 134.559 201.602C134.559 201.689 134.524 201.772 134.463 201.834C134.401 201.895 134.318 201.93 134.231 201.93Z" fill="#FAFAFA"/>
<path d="M134.408 205.636H116.63C116.543 205.636 116.46 205.602 116.398 205.54C116.337 205.479 116.302 205.395 116.302 205.308C116.302 205.221 116.337 205.138 116.398 205.076C116.46 205.015 116.543 204.98 116.63 204.98H134.408C134.495 204.98 134.578 205.015 134.64 205.076C134.701 205.138 134.736 205.221 134.736 205.308C134.736 205.395 134.701 205.479 134.64 205.54C134.578 205.602 134.495 205.636 134.408 205.636Z" fill="#FAFAFA"/>
<path d="M134.585 209.343H116.807C116.72 209.343 116.637 209.308 116.575 209.247C116.514 209.185 116.479 209.102 116.479 209.015C116.479 208.928 116.514 208.844 116.575 208.783C116.637 208.721 116.72 208.687 116.807 208.687H134.585C134.672 208.687 134.755 208.721 134.817 208.783C134.878 208.844 134.913 208.928 134.913 209.015C134.913 209.102 134.878 209.185 134.817 209.247C134.755 209.308 134.672 209.343 134.585 209.343Z" fill="#FAFAFA"/>
<path d="M131.121 213.049H116.984C116.898 213.049 116.814 213.015 116.753 212.953C116.691 212.892 116.656 212.808 116.656 212.721C116.656 212.634 116.691 212.551 116.753 212.489C116.814 212.428 116.898 212.393 116.984 212.393H131.121C131.208 212.393 131.292 212.428 131.353 212.489C131.415 212.551 131.449 212.634 131.449 212.721C131.448 212.808 131.413 212.89 131.351 212.951C131.29 213.012 131.208 213.047 131.121 213.049Z" fill="#FAFAFA"/>
</g>
<path opacity="0.2" d="M181.843 60.0633H116.899L123.23 191.335C123.539 196.713 125.878 201.773 129.775 205.492C133.672 209.211 138.835 211.312 144.222 211.37H209.166L202.842 80.0975C202.536 74.7175 200.196 69.6548 196.298 65.935C192.399 62.2151 187.232 60.1162 181.843 60.0633Z" fill="black"/>
<path d="M197.751 60.0633H116.919C122.306 60.1194 127.47 62.2196 131.367 65.9389C135.265 69.6583 137.603 74.7191 137.911 80.0975L143.074 186.96C143.382 192.338 145.722 197.398 149.619 201.117C153.516 204.836 158.679 206.937 164.066 206.994H204.823C207.418 207.021 209.991 206.514 212.381 205.504C214.772 204.495 216.929 203.004 218.719 201.125C220.509 199.246 221.893 197.019 222.785 194.582C223.678 192.145 224.059 189.55 223.906 186.96L218.75 80.0975C218.444 74.7175 216.104 69.6548 212.206 65.935C208.307 62.2151 203.14 60.1162 197.751 60.0633Z" fill="#FAFAFA"/>
<path d="M183.142 186.96C183.296 189.549 182.916 192.142 182.025 194.578C181.134 197.014 179.752 199.241 177.964 201.12C176.176 202.999 174.021 204.49 171.632 205.5C169.243 206.511 166.672 207.019 164.079 206.994H244.904C247.498 207.019 250.07 206.511 252.459 205.5C254.848 204.49 257.003 202.999 258.792 201.12C260.58 199.241 261.963 197.015 262.855 194.579C263.746 192.143 264.127 189.549 263.974 186.96H183.142Z" fill="#FFF7E2"/>
<path d="M209.133 126.391H152.008C151.608 126.387 151.224 126.231 150.934 125.955C150.644 125.678 150.47 125.302 150.447 124.902C150.436 124.71 150.465 124.518 150.531 124.337C150.598 124.156 150.701 123.991 150.833 123.851C150.966 123.712 151.126 123.601 151.303 123.526C151.481 123.45 151.671 123.412 151.864 123.413H208.988C209.393 123.411 209.784 123.564 210.079 123.841C210.375 124.118 210.552 124.498 210.576 124.902C210.587 125.097 210.557 125.292 210.489 125.474C210.421 125.657 210.316 125.823 210.181 125.963C210.045 126.103 209.882 126.213 209.702 126.287C209.521 126.361 209.328 126.396 209.133 126.391Z" fill="#80B3FF"/>
<path d="M209.579 135.687H152.454C152.054 135.683 151.67 135.527 151.38 135.25C151.09 134.974 150.916 134.598 150.893 134.198C150.882 134.006 150.911 133.813 150.978 133.632C151.044 133.452 151.147 133.286 151.28 133.147C151.412 133.007 151.572 132.896 151.749 132.821C151.927 132.746 152.117 132.708 152.31 132.709H209.441C209.84 132.715 210.223 132.872 210.511 133.148C210.799 133.424 210.973 133.799 210.996 134.198C211.007 134.39 210.978 134.583 210.911 134.763C210.845 134.944 210.742 135.109 210.609 135.249C210.477 135.388 210.317 135.499 210.139 135.575C209.962 135.65 209.771 135.688 209.579 135.687Z" fill="#80B3FF"/>
<path d="M210.031 144.976H152.9C152.5 144.972 152.116 144.816 151.826 144.539C151.536 144.263 151.362 143.887 151.339 143.487C151.328 143.295 151.357 143.102 151.424 142.921C151.49 142.741 151.593 142.575 151.726 142.436C151.858 142.296 152.018 142.185 152.195 142.11C152.373 142.035 152.563 141.997 152.756 141.998H209.92C210.32 142.002 210.704 142.158 210.994 142.435C211.284 142.711 211.458 143.087 211.481 143.487C211.492 143.682 211.463 143.877 211.394 144.06C211.326 144.243 211.22 144.41 211.084 144.55C210.947 144.69 210.783 144.8 210.602 144.874C210.421 144.947 210.227 144.982 210.031 144.976Z" fill="#80B3FF"/>
<path d="M210.478 154.285H153.353C152.953 154.279 152.57 154.122 152.281 153.846C151.991 153.57 151.817 153.195 151.792 152.795C151.781 152.603 151.81 152.411 151.876 152.23C151.943 152.049 152.045 151.884 152.178 151.744C152.311 151.605 152.471 151.494 152.648 151.419C152.825 151.343 153.016 151.305 153.209 151.306H210.333C210.734 151.311 211.118 151.467 211.407 151.743C211.697 152.02 211.871 152.396 211.894 152.795C211.905 152.988 211.876 153.18 211.81 153.361C211.744 153.542 211.641 153.707 211.508 153.846C211.375 153.986 211.215 154.097 211.038 154.172C210.861 154.247 210.67 154.286 210.478 154.285Z" fill="#80B3FF"/>
<path d="M188.213 163.58H153.799C153.399 163.576 153.015 163.42 152.725 163.143C152.435 162.867 152.261 162.491 152.238 162.091C152.227 161.899 152.256 161.706 152.322 161.526C152.389 161.345 152.492 161.18 152.624 161.04C152.757 160.901 152.917 160.79 153.094 160.714C153.272 160.639 153.462 160.601 153.655 160.602H188.069C188.469 160.606 188.853 160.762 189.143 161.039C189.433 161.315 189.607 161.691 189.63 162.091C189.641 162.283 189.612 162.476 189.545 162.656C189.479 162.837 189.376 163.002 189.243 163.142C189.111 163.282 188.951 163.392 188.774 163.468C188.596 163.543 188.406 163.581 188.213 163.58Z" fill="#80B3FF"/>
<path d="M192.182 107.123C198.942 100.199 198.531 88.8345 191.264 81.7407C183.997 74.6468 172.626 74.5096 165.866 81.4342C159.107 88.3588 159.518 99.7229 166.785 106.817C174.051 113.911 185.422 114.048 192.182 107.123Z" fill="#80B3FF"/>
<path d="M193.835 94.2672C193.959 96.705 193.46 99.1342 192.385 101.326C191.22 103.676 189.416 105.65 187.18 107.021C184.944 108.393 182.367 109.106 179.744 109.08C177.031 109.059 174.369 108.334 172.021 106.974C169.672 105.615 167.718 103.668 166.348 101.326C165.071 99.1828 164.339 96.759 164.216 94.2672C164.103 92.3528 164.384 90.4355 165.043 88.6344C165.702 86.8334 166.725 85.1872 168.047 83.798C169.369 82.4088 170.963 81.3063 172.729 80.5592C174.495 79.812 176.396 79.4361 178.314 79.4547C182.294 79.5041 186.108 81.0596 188.988 83.8079C191.868 86.5562 193.6 90.2934 193.835 94.2672Z" fill="white"/>
<path opacity="0.4" d="M192.385 101.326C191.22 103.676 189.416 105.65 187.18 107.021C184.944 108.392 182.367 109.106 179.744 109.08C177.031 109.059 174.369 108.334 172.021 106.974C169.672 105.615 167.718 103.668 166.349 101.326C170.124 98.7351 174.601 97.3616 179.18 97.3896C183.869 97.3984 188.456 98.7655 192.385 101.326Z" fill="#80B3FF"/>
<path opacity="0.4" d="M183.61 93.9114C186.095 91.3655 185.945 87.1886 183.275 84.5818C180.605 81.9751 176.425 81.9257 173.94 84.4716C171.455 87.0174 171.605 91.1944 174.275 93.8011C176.945 96.4079 181.125 96.4572 183.61 93.9114Z" fill="#80B3FF"/>
<path d="M234.035 232.053H229.22L228.734 220.888H233.556L234.035 232.053Z" fill="#B55B52"/>
<path opacity="0.2" d="M228.741 220.895L228.983 226.648H233.805L233.556 220.895H228.741Z" fill="black"/>
<path d="M275.054 218.973L270.475 220.468L264.709 210.609L269.295 209.113L275.054 218.973Z" fill="#B55B52"/>
<path opacity="0.2" d="M269.295 209.113L264.709 210.609L267.687 215.693L272.266 214.197L269.295 209.113Z" fill="black"/>
<path d="M250.33 70.7955C250.927 71.5236 251.432 72.1731 251.95 72.8881C252.468 73.6032 252.96 74.2854 253.452 74.9939C254.423 76.4174 255.355 77.8737 256.227 79.376C258.043 82.4237 259.523 85.6592 260.642 89.0257L260.753 89.3537L260.806 89.5243L260.878 89.7932L261.009 90.3312L261.081 90.8231C261.159 91.4123 261.183 92.0074 261.154 92.6009C261.093 93.6018 260.948 94.5959 260.721 95.5726C260.305 97.3226 259.755 99.0377 259.074 100.703C257.777 103.894 256.205 106.967 254.377 109.887L251.097 108.319C252.081 105.242 253.065 102.093 253.787 99.0297C254.162 97.5529 254.447 96.0544 254.64 94.5427C254.72 93.89 254.745 93.2315 254.712 92.5747C254.702 92.3406 254.671 92.1079 254.62 91.8793L254.587 91.7612C254.575 91.74 254.564 91.7181 254.554 91.6956L254.502 91.571L254.397 91.3151L253.957 90.2852L253.465 89.2619C253.137 88.6059 252.776 87.8974 252.416 87.2151C251.668 85.8638 250.861 84.519 250.021 83.1808C249.182 81.8425 248.289 80.5568 247.397 79.2448C246.505 77.9328 245.528 76.6208 244.642 75.4334L250.33 70.7955Z" fill="#B55B52"/>
<path d="M251.399 107.505L249.516 111.671H254.902C254.902 111.671 255.761 108.509 253.806 107.23L251.399 107.505Z" fill="#B55B52"/>
<path d="M250.146 116.355L255.145 115.39L254.902 111.671H249.516L250.146 116.355Z" fill="#B55B52"/>
<path d="M226.464 49.6526C226.464 50.0462 226.261 50.3611 226.005 50.3611C225.749 50.3611 225.546 50.0462 225.546 49.6526C225.546 49.259 225.756 48.9507 226.005 48.9507C226.254 48.9507 226.464 49.2656 226.464 49.6526Z" fill="#263238"/>
<path d="M226.32 50.3611C225.858 51.548 225.233 52.6651 224.464 53.6804C224.729 53.8706 225.032 54.0008 225.353 54.0619C225.673 54.1231 226.003 54.1138 226.32 54.0347V50.3611Z" fill="#A02724"/>
<path d="M227.842 47.501C227.794 47.5015 227.748 47.4853 227.711 47.455C227.482 47.2831 227.217 47.1669 226.935 47.1156C226.654 47.0644 226.365 47.0795 226.09 47.1598C226.035 47.1748 225.977 47.1688 225.926 47.1431C225.876 47.1174 225.836 47.0738 225.816 47.0207C225.795 46.9676 225.795 46.9089 225.816 46.8558C225.836 46.8027 225.876 46.7591 225.926 46.7334C226.272 46.6237 226.639 46.5986 226.996 46.6602C227.354 46.7219 227.691 46.8685 227.98 47.0877C228.028 47.1243 228.06 47.1781 228.07 47.2379C228.08 47.2977 228.066 47.359 228.032 47.4091C228.009 47.4378 227.98 47.4609 227.948 47.4768C227.915 47.4927 227.878 47.501 227.842 47.501Z" fill="#263238"/>
<path d="M239.014 54.1332C238.318 57.6625 237.629 64.1241 240.096 66.4725C240.096 66.4725 239.132 70.0477 232.585 70.0477C225.369 70.0477 229.141 66.4725 229.141 66.4725C233.077 65.5345 232.972 62.6218 232.283 59.8797L239.014 54.1332Z" fill="#B55B52"/>
<path d="M241.041 67.6991C241.559 66.5708 242.13 65.2719 240.949 64.8652C239.637 64.4191 232.578 63.9665 230.131 64.8062C229.81 64.8953 229.509 65.0476 229.246 65.254C228.984 65.4605 228.765 65.7171 228.603 66.0089C228.44 66.3007 228.338 66.6218 228.301 66.9537C228.263 67.2855 228.293 67.6214 228.386 67.9419L241.041 67.6991Z" fill="#263238"/>
<path d="M269.485 221.616C269.131 221.958 268.73 222.233 268.429 222.187C268.333 222.168 268.246 222.12 268.179 222.049C268.113 221.979 268.069 221.89 268.055 221.794C268.035 221.719 268.031 221.641 268.045 221.565C268.059 221.489 268.089 221.417 268.133 221.354C268.527 220.744 270.101 220.482 270.187 220.475C270.208 220.472 270.229 220.475 270.249 220.483C270.268 220.491 270.285 220.504 270.298 220.521C270.311 220.539 270.317 220.561 270.317 220.583C270.317 220.605 270.311 220.627 270.298 220.646C270.062 220.997 269.789 221.322 269.485 221.616ZM268.415 221.367C268.381 221.399 268.35 221.434 268.324 221.472C268.297 221.51 268.28 221.553 268.272 221.598C268.264 221.644 268.266 221.69 268.278 221.735C268.33 221.938 268.429 221.958 268.461 221.958C268.796 222.01 269.511 221.302 269.951 220.751C269.4 220.84 268.875 221.051 268.415 221.367Z" fill="#80B3FF"/>
<path d="M270.272 220.665L270.219 220.698C269.675 220.842 268.251 220.75 267.95 220.291C267.905 220.218 267.885 220.132 267.895 220.046C267.904 219.961 267.942 219.881 268.002 219.819C268.059 219.753 268.128 219.698 268.205 219.659C268.283 219.619 268.368 219.596 268.455 219.589C269.176 219.537 270.219 220.462 270.265 220.501C270.281 220.515 270.293 220.532 270.299 220.552C270.304 220.572 270.304 220.593 270.298 220.613C270.297 220.633 270.287 220.652 270.272 220.665ZM268.219 219.931L268.179 219.97C268.087 220.081 268.127 220.14 268.14 220.167C268.317 220.436 269.314 220.586 269.931 220.514C269.523 220.146 269.017 219.904 268.475 219.819C268.383 219.826 268.297 219.866 268.232 219.931H268.219Z" fill="#80B3FF"/>
<path d="M227.278 232.296C226.661 232.296 226.064 232.211 225.867 231.935C225.814 231.863 225.785 231.776 225.785 231.686C225.785 231.596 225.814 231.509 225.867 231.437C225.906 231.37 225.958 231.311 226.02 231.265C226.082 231.219 226.153 231.186 226.228 231.168C227.029 230.951 228.714 231.909 228.787 231.955C228.807 231.966 228.824 231.984 228.833 232.005C228.843 232.026 228.845 232.05 228.839 232.073C228.836 232.095 228.826 232.116 228.811 232.132C228.795 232.148 228.776 232.16 228.754 232.165C228.266 232.25 227.773 232.294 227.278 232.296ZM226.517 231.365C226.443 231.354 226.368 231.354 226.294 231.365C226.248 231.374 226.204 231.392 226.166 231.42C226.127 231.447 226.095 231.482 226.071 231.522C225.992 231.666 226.018 231.739 226.071 231.778C226.294 232.086 227.514 232.093 228.406 231.968C227.822 231.646 227.18 231.441 226.517 231.365Z" fill="#80B3FF"/>
<path d="M228.734 232.165H228.688C228.111 231.903 226.956 230.853 227.042 230.315C227.042 230.184 227.153 230.026 227.468 229.994C227.585 229.98 227.703 229.991 227.816 230.025C227.929 230.059 228.034 230.115 228.124 230.19C228.734 230.696 228.865 231.994 228.872 232.047C228.871 232.067 228.866 232.087 228.857 232.105C228.848 232.123 228.835 232.139 228.819 232.152C228.807 232.16 228.793 232.165 228.778 232.167C228.763 232.169 228.748 232.169 228.734 232.165ZM227.56 230.197H227.494C227.284 230.197 227.271 230.295 227.271 230.322C227.219 230.65 227.999 231.47 228.583 231.824C228.526 231.273 228.297 230.754 227.927 230.341C227.823 230.258 227.693 230.212 227.56 230.21V230.197Z" fill="#80B3FF"/>
<path d="M270.075 219.937L274.011 216.191C274.08 216.124 274.169 216.082 274.265 216.074C274.361 216.066 274.457 216.091 274.536 216.145L278.183 218.586C278.272 218.645 278.345 218.724 278.398 218.816C278.452 218.908 278.483 219.011 278.491 219.118C278.498 219.224 278.482 219.33 278.442 219.429C278.402 219.528 278.341 219.616 278.262 219.688C276.878 221 276.137 221.531 274.418 223.171C273.355 224.188 270.193 227.632 268.73 229.036C267.267 230.44 265.693 229.167 266.165 228.465C268.291 225.31 269.616 222.286 269.734 220.692C269.755 220.408 269.876 220.141 270.075 219.937Z" fill="#263238"/>
<path d="M229.246 231.496H234.494C234.589 231.495 234.681 231.528 234.755 231.587C234.83 231.647 234.881 231.731 234.9 231.824L235.852 236.107C235.876 236.21 235.876 236.317 235.852 236.42C235.828 236.523 235.782 236.62 235.715 236.702C235.649 236.784 235.565 236.85 235.469 236.895C235.373 236.94 235.268 236.962 235.163 236.96C233.26 236.96 230.518 236.823 228.131 236.823C225.343 236.823 222.935 236.973 219.662 236.973C217.694 236.973 217.136 234.973 217.963 234.789C221.728 233.969 224.811 233.877 228.065 231.87C228.416 231.637 228.825 231.508 229.246 231.496Z" fill="#263238"/>
<path d="M222.384 77.408C220.468 80.2288 218.494 82.8659 216.368 85.4702C214.235 88.1063 211.955 90.6206 209.539 93.0011L208.608 93.9064L208.372 94.1294L208.201 94.2868L207.952 94.464C207.643 94.7131 207.311 94.9327 206.961 95.12C205.854 95.7042 204.636 96.0463 203.386 96.1237C201.48 96.2365 199.567 96.0774 197.705 95.6513C194.332 94.9073 191.061 93.7575 187.964 92.227L189.171 88.8158C192.242 89.4299 195.349 89.8549 198.473 90.0885C199.846 90.1969 201.227 90.1397 202.586 89.9179C202.976 89.8595 203.349 89.7137 203.675 89.4915C203.708 89.4915 203.675 89.4521 203.675 89.4521L203.727 89.3997L203.918 89.1832L204.698 88.3304C206.745 85.995 208.733 83.5022 210.661 80.9569C212.59 78.4117 214.525 75.8008 216.368 73.2555L222.384 77.408Z" fill="#B55B52"/>
<path d="M248.729 67.568C253.242 68.6045 258.425 80.9176 258.425 80.9176L249.352 87.1365C247.099 83.8986 245.101 80.4902 243.376 76.9423C240.686 71.3072 244.111 66.5053 248.729 67.568Z" fill="#80B3FF"/>
<path opacity="0.3" d="M245.488 75.4399L249.779 86.8609L249.352 87.1561C249.352 87.1561 247.496 84.5321 245.488 81.0356V75.4399Z" fill="black"/>
<path d="M221.728 67.8107C221.728 67.8107 216.598 73.6032 221.446 109.467H247.22C247.397 105.531 244.911 86.205 248.729 67.5615C245.878 67.0131 242.994 66.6494 240.096 66.4725C236.447 66.2624 232.789 66.2624 229.141 66.4725C226.639 66.7246 224.16 67.172 221.728 67.8107Z" fill="#80B3FF"/>
<path opacity="0.3" d="M224.588 78.1821C223.917 82.2518 222.158 86.0644 219.498 89.216C219.393 86.9069 219.353 84.8339 219.36 82.9774L224.588 78.1821Z" fill="black"/>
<path d="M226.812 71.7205C227.468 76.2797 218.455 87.9368 218.455 87.9368L209.421 81.7179C209.421 81.7179 211.927 75.2957 216.145 71.0842C220.967 66.256 226.123 66.7546 226.812 71.7205Z" fill="#80B3FF"/>
<path d="M189.794 89.216L186.258 85.5621L182.486 90.423C182.486 90.423 185.359 93.1979 188.777 92.391L189.794 89.216Z" fill="#B55B52"/>
<path d="M181.404 83.5285L179.783 88.6322L182.486 90.4034L186.258 85.5424L181.404 83.5285Z" fill="#B55B52"/>
<path d="M239.44 48.8326C239.145 53.6018 239.217 56.416 236.816 58.8629C233.188 62.5496 227.297 60.3651 226.163 55.5829C225.133 51.2926 225.789 44.2078 230.459 42.312C231.488 41.8893 232.608 41.7367 233.712 41.8688C234.817 42.0009 235.869 42.4133 236.769 43.0668C237.669 43.7203 238.387 44.5931 238.854 45.6023C239.322 46.6115 239.523 47.7235 239.44 48.8326Z" fill="#B55B52"/>
<path d="M243.592 38.868C245.062 40.2193 244.439 41.7281 243.671 42.0102C246.052 42.5022 246.4 44.3981 245.147 48.3997C243.953 52.2307 241.06 57.3672 237.446 57.6821C232.014 58.1544 230.427 52.4931 230.387 46.8777C227.317 47.068 228.642 44.3456 224.87 44.9753C221.59 45.5198 222.823 42.9614 220.035 41.8462C216.801 40.5342 217.451 35.5814 220.468 37.0049C220.468 37.0049 219.071 37.9233 220.698 38.7893C222.325 39.6552 222.167 37.6544 225.388 37.4117C228.609 37.1689 228.983 39.9241 232.749 38.2645C237.472 36.1784 240.575 36.08 243.592 38.868Z" fill="#263238"/>
<path d="M241.782 41.984C241.996 41.6404 242.316 41.3751 242.693 41.2274C243.069 41.0797 243.484 41.0575 243.875 41.164C245.351 41.4788 245.469 42.1283 246.394 42.043C247.319 41.9577 246.984 42.9417 246.984 42.9417C246.984 42.9417 246.735 42.2004 245.62 42.6137C244.504 43.027 243.776 42.0167 243.297 42.4694C242.818 42.922 241.782 41.984 241.782 41.984Z" fill="#263238"/>
<path d="M232.959 50.1315C232.749 51.301 232.156 52.3674 231.273 53.1622C230.105 54.1987 229.095 53.3656 229.056 51.9486C229.056 50.6694 229.6 48.5833 230.945 48.0848C232.29 47.5862 233.201 48.7145 232.959 50.1315Z" fill="#B55B52"/>
<path d="M230.584 109.467C230.584 109.467 236.055 146.288 239.06 160.064C242.34 175.152 265.201 215.299 265.201 215.299L273.598 212.57C273.598 212.57 255.394 176.398 253.518 161.435C251.478 145.199 247.22 109.44 247.22 109.44L230.584 109.467Z" fill="#263238"/>
<path d="M262.853 212.675C262.82 212.675 264.775 215.614 264.775 215.614L274.208 212.544L273.099 209.723L262.853 212.675Z" fill="#80B3FF"/>
<path opacity="0.3" d="M234.041 122.587C240.365 123.827 239.696 147.41 238.935 159.539C237.111 150.965 234.441 134.467 232.618 122.757C233.059 122.54 233.561 122.48 234.041 122.587Z" fill="black"/>
<path d="M221.446 109.467C221.446 109.467 220.79 145.501 221.302 160.195C221.846 175.48 227.206 225.533 227.206 225.533H235.373C235.373 225.533 235.668 176.372 236.029 161.363C236.422 144.963 238.397 109.467 238.397 109.467H221.446Z" fill="#263238"/>
<path d="M225.618 222.279C225.579 222.279 226.077 225.671 226.077 225.671H236.009L236.278 222.646L225.618 222.279Z" fill="#80B3FF"/>
</svg>
