<svg width="240" height="48" viewBox="0 0 240 48" fill="none" xmlns="http://www.w3.org/2000/svg">
<mask id="mask0_389_1325" style="mask-type:luminance" maskUnits="userSpaceOnUse" x="0" y="0" width="48" height="48">
<path d="M38.689 39.1128C36.7273 46.9661 32.9045 45.9232 28.2729 39.3246C33.4202 35.1042 38.8487 29.6891 42.6217 24.138C41.3589 29.4749 39.7314 34.9412 38.689 39.1128ZM22.1187 40.017C21.246 40.6391 18.6686 42.5626 16.4937 43.6852C13.58 45.1892 11.5641 44.5825 10.6693 43.4048C10.0641 42.6083 9.43823 41.2927 8.89361 39.1128C7.48675 33.4812 4.89671 25.0903 3.76174 18.3467C3.10693 14.4526 3.20803 13.0861 3.19701 12.4868C3.15129 10.0475 4.00774 7.5236 6.01432 5.70369C8.17461 3.74498 11.0283 2.94354 13.8437 3.50565C16.3882 4.01378 20.1783 4.54202 23.8683 4.68798C21.0466 6.66019 19.4987 7.93231 16.3224 7.11792C15.4665 6.89898 14.5943 7.41454 14.3745 8.27024C14.1552 9.12622 14.6712 9.99816 15.5274 10.2177C23.2394 12.1924 24.1741 5.79155 34.151 3.54861C38.7151 3.07959 42.6363 5.50816 43.8806 8.93233C47.302 18.3511 30.9232 33.7366 22.1187 40.017ZM30.9323 0.963894C30.0533 1.24261 26.1437 1.52876 25.7159 1.52876C21.7165 1.52876 17.2924 0.930843 14.4698 0.36763C10.6484 -0.394707 6.78318 0.686283 3.86422 3.33352C1.13204 5.81083 -0.0786901 9.30083 0.00395312 12.7195C0.212214 21.3194 3.32318 30.0171 5.78842 39.8884C6.50962 42.7761 7.61126 45.401 9.60985 46.8075C11.217 47.9386 13.2858 48.2575 15.829 47.3244C19.0061 46.1589 23.0686 43.3489 25.7531 41.3136C28.8955 45.7676 31.834 47.9113 34.702 47.8403C39.3044 47.737 40.9534 43.2528 41.7944 39.8884C43.658 32.4267 46.88 20.1583 47.5789 12.7198C48.334 4.6866 39.9661 -1.90147 30.9323 0.963894Z" fill="white"/>
</mask>
<g mask="url(#mask0_389_1325)">
<path d="M38.689 39.1128C36.7273 46.9661 32.9045 45.9232 28.2729 39.3246C33.4202 35.1042 38.8487 29.6891 42.6217 24.138C41.3589 29.4749 39.7314 34.9412 38.689 39.1128ZM22.1187 40.017C21.246 40.6391 18.6686 42.5626 16.4937 43.6852C13.58 45.1892 11.5641 44.5825 10.6693 43.4048C10.0641 42.6083 9.43823 41.2927 8.89361 39.1128C7.48675 33.4812 4.89671 25.0903 3.76174 18.3467C3.10693 14.4526 3.20803 13.0861 3.19701 12.4868C3.15129 10.0475 4.00774 7.5236 6.01432 5.70369C8.17461 3.74498 11.0283 2.94354 13.8437 3.50565C16.3882 4.01378 20.1783 4.54202 23.8683 4.68798C21.0466 6.66019 19.4987 7.93231 16.3224 7.11792C15.4665 6.89898 14.5943 7.41454 14.3745 8.27024C14.1552 9.12622 14.6712 9.99816 15.5274 10.2177C23.2394 12.1924 24.1741 5.79155 34.151 3.54861C38.7151 3.07959 42.6363 5.50816 43.8806 8.93233C47.302 18.3511 30.9232 33.7366 22.1187 40.017ZM30.9323 0.963894C30.0533 1.24261 26.1437 1.52876 25.7159 1.52876C21.7165 1.52876 17.2924 0.930843 14.4698 0.36763C10.6484 -0.394707 6.78318 0.686283 3.86422 3.33352C1.13204 5.81083 -0.0786901 9.30083 0.00395312 12.7195C0.212214 21.3194 3.32318 30.0171 5.78842 39.8884C6.50962 42.7761 7.61126 45.401 9.60985 46.8075C11.217 47.9386 13.2858 48.2575 15.829 47.3244C19.0061 46.1589 23.0686 43.3489 25.7531 41.3136C28.8955 45.7676 31.834 47.9113 34.702 47.8403C39.3044 47.737 40.9534 43.2528 41.7944 39.8884C43.658 32.4267 46.88 20.1583 47.5789 12.7198C48.334 4.6866 39.9661 -1.90147 30.9323 0.963894Z" fill="url(#paint0_linear_389_1325)"/>
</g>
<path d="M74.4323 8.65002H80.8695V28.3087C80.8695 30.516 80.3392 32.4473 79.2788 34.1028C78.2282 35.7583 76.7564 37.0491 74.8635 37.9754C72.9705 38.8918 70.7653 39.35 68.2479 39.35C65.7206 39.35 63.5105 38.8918 61.6175 37.9754C59.7245 37.0491 58.2528 35.7583 57.2022 34.1028C56.1517 32.4473 55.6264 30.516 55.6264 28.3087V8.65002H62.0635V27.7618C62.0635 28.9147 62.3162 29.9395 62.8217 30.8362C63.3371 31.7329 64.0606 32.4375 64.9922 32.9499C65.9238 33.4623 67.0091 33.7185 68.2479 33.7185C69.4967 33.7185 70.5819 33.4623 71.5037 32.9499C72.4353 32.4375 73.1538 31.7329 73.6593 30.8362C74.1747 29.9395 74.4323 28.9147 74.4323 27.7618V8.65002Z" fill="#0067FF"/>
<path d="M85.6281 38.9214V16.2179H91.7679V20.1792H92.0057C92.422 18.77 93.1207 17.7058 94.1019 16.9865C95.0831 16.2573 96.2129 15.8927 97.4914 15.8927C97.8086 15.8927 98.1505 15.9124 98.5172 15.9518C98.8839 15.9912 99.206 16.0454 99.4835 16.1144V21.7016C99.1862 21.6129 98.7749 21.5341 98.2496 21.4651C97.7243 21.3961 97.2436 21.3616 96.8076 21.3616C95.8759 21.3616 95.0434 21.5636 94.31 21.9676C93.5865 22.3618 93.0117 22.9136 92.5855 23.6231C92.1693 24.3326 91.9611 25.1505 91.9611 26.0767V38.9214H85.6281Z" fill="#0067FF"/>
<path d="M115.638 38.9304H105.484V10.2864H115.722C118.603 10.2864 121.083 10.8599 123.162 12.0067C125.242 13.1443 126.841 14.7807 127.96 16.9159C129.088 19.0512 129.652 21.606 129.652 24.5805C129.652 27.5642 129.088 30.1284 127.96 32.2729C126.841 34.4175 125.232 36.0632 123.134 37.2101C121.046 38.357 118.547 38.9304 115.638 38.9304ZM111.54 33.7415H115.386C117.176 33.7415 118.682 33.4245 119.903 32.7904C121.134 32.1471 122.057 31.154 122.673 29.8113C123.297 28.4593 123.61 26.7157 123.61 24.5805C123.61 22.4639 123.297 20.7342 122.673 19.3915C122.057 18.0488 121.139 17.0605 119.917 16.4264C118.696 15.7924 117.19 15.4754 115.4 15.4754H111.54V33.7415Z" fill="#80B3FF"/>
<path d="M143.423 39.35C141.213 39.35 139.311 38.9025 137.716 38.0073C136.131 37.1029 134.91 35.8255 134.052 34.1751C133.194 32.5154 132.765 30.5526 132.765 28.2868C132.765 26.077 133.194 24.1376 134.052 22.4685C134.91 20.7995 136.117 19.4988 137.674 18.5663C139.241 17.6339 141.078 17.1677 143.185 17.1677C144.602 17.1677 145.922 17.3961 147.143 17.853C148.374 18.3006 149.446 18.9766 150.36 19.8811C151.283 20.7855 152.001 21.9231 152.514 23.2937C153.027 24.6551 153.283 26.2495 153.283 28.077V29.7134L138.653 29.7274V26.035L147.675 26.021C147.675 25.1632 147.488 24.4033 147.115 23.7413C146.742 23.0793 146.225 22.5618 145.563 22.1888C144.91 21.8065 144.15 21.6154 143.283 21.6154C142.378 21.6154 141.577 21.8252 140.877 22.2447C140.187 22.655 139.646 23.2098 139.255 23.9091C138.863 24.5991 138.663 25.3684 138.653 26.2169V29.7274C138.653 30.7904 138.849 31.7088 139.241 32.4827C139.642 33.2566 140.206 33.8534 140.933 34.273C141.66 34.6926 142.523 34.9024 143.521 34.9024C144.183 34.9024 144.789 34.8091 145.339 34.6226C145.889 34.4362 146.36 34.1564 146.751 33.7835C147.143 33.4105 147.441 32.9536 147.647 32.4128L153.157 32.7764C152.877 34.1005 152.304 35.2567 151.437 36.2451C150.579 37.2241 149.469 37.9887 148.108 38.5388C146.756 39.0796 145.194 39.35 143.423 39.35Z" fill="#80B3FF"/>
<path d="M162.736 26.5106V38.9304H156.777V17.4474H162.456V21.2377H162.708C163.183 19.9883 163.98 18.9999 165.099 18.2726C166.218 17.536 167.575 17.1677 169.169 17.1677C170.661 17.1677 171.962 17.4941 173.071 18.1467C174.181 18.7994 175.044 19.7319 175.659 20.944C176.274 22.1468 176.582 23.5828 176.582 25.2518V38.9304H170.624V26.3148C170.633 25 170.298 23.9744 169.617 23.2378C168.936 22.4918 167.999 22.1189 166.806 22.1189C166.004 22.1189 165.295 22.2914 164.68 22.6364C164.074 22.9814 163.598 23.4849 163.253 24.1469C162.917 24.7996 162.745 25.5875 162.736 26.5106Z" fill="#80B3FF"/>
<path d="M192.311 17.4474V21.9231H188.269H182.311H179.374V17.4474H182.311H185.842H188.269H192.311ZM182.311 17.4474C182.311 14.6048 184.615 12.3005 187.458 12.3005H188.269V17.4474V21.9231V32.3289C188.269 32.879 188.353 33.3079 188.521 33.6156C188.688 33.914 188.922 34.1238 189.22 34.245C189.528 34.3662 189.882 34.4268 190.283 34.4268C190.563 34.4268 190.842 34.4035 191.122 34.3569C191.402 34.301 191.616 34.259 191.765 34.231L192.703 38.6647C192.404 38.7579 191.985 38.8652 191.444 38.9864C190.903 39.1169 190.246 39.1962 189.472 39.2241C188.036 39.2801 186.777 39.0889 185.695 38.6507C184.623 38.2125 183.789 37.5318 183.192 36.6087C182.595 35.6856 182.301 34.5201 182.311 33.1121V21.9231V17.4474Z" fill="#80B3FF"/>
<path d="M195.798 38.9304V17.4474H201.756V38.9304H195.798ZM198.791 14.6781C197.906 14.6781 197.146 14.3844 196.512 13.797C195.887 13.2002 195.575 12.4869 195.575 11.6571C195.575 10.8366 195.887 10.1326 196.512 9.54515C197.146 8.9484 197.906 8.65002 198.791 8.65002C199.677 8.65002 200.432 8.9484 201.057 9.54515C201.691 10.1326 202.008 10.8366 202.008 11.6571C202.008 12.4869 201.691 13.2002 201.057 13.797C200.432 14.3844 199.677 14.6781 198.791 14.6781Z" fill="#80B3FF"/>
<path d="M224.01 23.5734L218.555 23.9091C218.462 23.4429 218.262 23.0233 217.954 22.6503C217.646 22.2681 217.241 21.965 216.737 21.7412C216.243 21.5081 215.651 21.3916 214.961 21.3916C214.038 21.3916 213.259 21.5874 212.625 21.979C211.991 22.3613 211.674 22.8741 211.674 23.5175C211.674 24.0303 211.879 24.4639 212.289 24.8182C212.7 25.1725 213.404 25.4569 214.401 25.6714L218.29 26.4546C220.378 26.8835 221.935 27.5735 222.961 28.5246C223.987 29.4757 224.5 30.7251 224.5 32.2729C224.5 33.6809 224.085 34.9164 223.255 35.9793C222.434 37.0423 221.306 37.8721 219.87 38.4689C218.443 39.0563 216.798 39.35 214.933 39.35C212.089 39.35 209.823 38.7579 208.136 37.5738C206.457 36.3803 205.473 34.7578 205.184 32.7065L211.045 32.3988C211.222 33.266 211.651 33.928 212.331 34.3849C213.012 34.8324 213.884 35.0562 214.947 35.0562C215.991 35.0562 216.83 34.8557 217.464 34.4548C218.108 34.0445 218.434 33.5177 218.443 32.8744C218.434 32.3335 218.206 31.8906 217.758 31.5457C217.311 31.1913 216.621 30.9209 215.688 30.7344L211.968 29.9932C209.87 29.5736 208.308 28.8463 207.282 27.8113C206.266 26.7763 205.758 25.4569 205.758 23.8532C205.758 22.4732 206.131 21.2843 206.877 20.2867C207.632 19.289 208.69 18.5197 210.052 17.9789C211.422 17.4381 213.026 17.1677 214.863 17.1677C217.576 17.1677 219.712 17.7411 221.269 18.888C222.835 20.0349 223.749 21.5967 224.01 23.5734Z" fill="#80B3FF"/>
<path d="M239.284 17.4474V21.9231H226.347V17.4474H239.284ZM229.284 18.2587C229.284 14.968 231.952 12.3005 235.242 12.3005V32.3289C235.242 32.879 235.326 33.3079 235.494 33.6156C235.662 33.914 235.895 34.1238 236.193 34.245C236.501 34.3662 236.855 34.4268 237.256 34.4268C237.536 34.4268 237.816 34.4035 238.096 34.3569C238.375 34.301 238.59 34.259 238.739 34.231L239.676 38.6647C239.378 38.7579 238.958 38.8652 238.417 38.9864C237.876 39.1169 237.219 39.1962 236.445 39.2241C235.009 39.2801 233.75 39.0889 232.669 38.6507C231.597 38.2125 230.762 37.5318 230.165 36.6087C229.569 35.6856 229.275 34.5201 229.284 33.1121V18.2587Z" fill="#80B3FF"/>
<defs>
<linearGradient id="paint0_linear_389_1325" x1="47.6264" y1="0.128663" x2="36.4336" y2="55.2672" gradientUnits="userSpaceOnUse">
<stop stop-color="#0067FF"/>
<stop offset="1" stop-color="#80B3FF"/>
</linearGradient>
</defs>
</svg>
