<svg width="98" height="97" viewBox="0 0 98 97" fill="none" xmlns="http://www.w3.org/2000/svg">
<path d="M79.1078 78.902C75.1375 94.7967 67.4003 92.6857 58.0262 79.3306C68.444 70.7888 79.4312 59.8289 87.0674 48.5936C84.5116 59.3952 81.2176 70.4588 79.1078 78.902ZM45.5705 80.732C43.8042 81.9912 38.5877 85.8842 34.1858 88.1562C28.2886 91.2002 24.2084 89.9722 22.3975 87.5887C21.1726 85.9767 19.9058 83.3139 18.8035 78.902C15.9561 67.5039 10.714 50.5212 8.41689 36.8723C7.09159 28.991 7.29621 26.2251 7.27391 25.0122C7.18136 20.0751 8.91479 14.967 12.976 11.2836C17.3483 7.31924 23.124 5.69717 28.8222 6.83486C33.9723 7.86329 41.6431 8.93241 49.1115 9.22784C43.4005 13.2195 40.2676 15.7942 33.839 14.1459C32.1067 13.7028 30.3415 14.7463 29.8966 16.4781C29.4528 18.2106 30.4971 19.9754 32.2299 20.4196C47.8386 24.4163 49.7304 11.4614 69.9233 6.92181C79.1608 5.97253 87.097 10.8878 89.6154 17.8182C96.5402 36.8812 63.3904 68.0207 45.5705 80.732ZM63.4088 1.69047C61.6296 2.25458 53.7169 2.83373 52.851 2.83373C44.7565 2.83373 35.8022 1.62357 30.0895 0.483658C22.3551 -1.05927 14.5321 1.1286 8.6243 6.48647C3.0945 11.5004 0.64405 18.564 0.811315 25.4832C1.23282 42.889 7.52926 60.4928 12.5188 80.4717C13.9785 86.3162 16.2081 91.6289 20.2532 94.4756C23.5059 96.7649 27.6931 97.4104 32.8405 95.5219C39.2707 93.1629 47.4929 87.4756 52.9263 83.3563C59.2863 92.3708 65.2337 96.7097 71.0384 96.5659C80.3534 96.3569 83.6909 87.281 85.3931 80.4717C89.1649 65.3696 95.6861 40.539 97.1006 25.4837C98.6288 9.22504 81.6926 -4.10888 63.4088 1.69047Z" fill="white"/>
</svg>
